%TF.GenerationSoftware,KiCad,Pcbnew,8.0.7*%
%TF.CreationDate,2024-12-14T18:23:45+03:00*%
%TF.ProjectId,pmod_esp32,706d6f64-5f65-4737-9033-322e6b696361,0.1*%
%TF.SameCoordinates,Original*%
%TF.FileFunction,Paste,Top*%
%TF.FilePolarity,Positive*%
%FSLAX46Y46*%
G04 Gerber Fmt 4.6, Leading zero omitted, Abs format (unit mm)*
G04 Created by KiCad (PCBNEW 8.0.7) date 2024-12-14 18:23:45*
%MOMM*%
%LPD*%
G01*
G04 APERTURE LIST*
G04 Aperture macros list*
%AMRoundRect*
0 Rectangle with rounded corners*
0 $1 Rounding radius*
0 $2 $3 $4 $5 $6 $7 $8 $9 X,Y pos of 4 corners*
0 Add a 4 corners polygon primitive as box body*
4,1,4,$2,$3,$4,$5,$6,$7,$8,$9,$2,$3,0*
0 Add four circle primitives for the rounded corners*
1,1,$1+$1,$2,$3*
1,1,$1+$1,$4,$5*
1,1,$1+$1,$6,$7*
1,1,$1+$1,$8,$9*
0 Add four rect primitives between the rounded corners*
20,1,$1+$1,$2,$3,$4,$5,0*
20,1,$1+$1,$4,$5,$6,$7,0*
20,1,$1+$1,$6,$7,$8,$9,0*
20,1,$1+$1,$8,$9,$2,$3,0*%
G04 Aperture macros list end*
%ADD10RoundRect,0.237500X0.237500X-0.250000X0.237500X0.250000X-0.237500X0.250000X-0.237500X-0.250000X0*%
%ADD11RoundRect,0.237500X0.250000X0.237500X-0.250000X0.237500X-0.250000X-0.237500X0.250000X-0.237500X0*%
%ADD12RoundRect,0.237500X0.300000X0.237500X-0.300000X0.237500X-0.300000X-0.237500X0.300000X-0.237500X0*%
%ADD13RoundRect,0.237500X-0.237500X0.250000X-0.237500X-0.250000X0.237500X-0.250000X0.237500X0.250000X0*%
%ADD14RoundRect,0.099000X-0.351000X0.751000X-0.351000X-0.751000X0.351000X-0.751000X0.351000X0.751000X0*%
%ADD15R,4.000000X4.000000*%
%ADD16RoundRect,0.099000X-0.751000X0.351000X-0.751000X-0.351000X0.751000X-0.351000X0.751000X0.351000X0*%
%ADD17RoundRect,0.237500X-0.300000X-0.237500X0.300000X-0.237500X0.300000X0.237500X-0.300000X0.237500X0*%
%ADD18RoundRect,0.250001X-0.462499X-0.624999X0.462499X-0.624999X0.462499X0.624999X-0.462499X0.624999X0*%
%ADD19R,1.100000X2.200000*%
%ADD20R,1.550000X1.300000*%
G04 APERTURE END LIST*
D10*
%TO.C,R7*%
X197700000Y-55912500D03*
X197700000Y-54087500D03*
%TD*%
D11*
%TO.C,R6*%
X199512500Y-57550000D03*
X197687500Y-57550000D03*
%TD*%
D12*
%TO.C,C3*%
X205512500Y-37900000D03*
X203787500Y-37900000D03*
%TD*%
D13*
%TO.C,R4*%
X207200000Y-55287500D03*
X207200000Y-57112500D03*
%TD*%
D12*
%TO.C,C4*%
X209562500Y-47750000D03*
X207837500Y-47750000D03*
%TD*%
D10*
%TO.C,R5*%
X207200000Y-53612500D03*
X207200000Y-51787500D03*
%TD*%
D14*
%TO.C,U1*%
X238032500Y-38220000D03*
D15*
X230622500Y-46520000D03*
D14*
X236762500Y-38220000D03*
X235492500Y-38220000D03*
X234222500Y-38220000D03*
X232952500Y-38220000D03*
X231682500Y-38220000D03*
X230412500Y-38220000D03*
X229142500Y-38220000D03*
X227872500Y-38220000D03*
X226602500Y-38220000D03*
X225332500Y-38220000D03*
X224062500Y-38220000D03*
X222792500Y-38220000D03*
X221522500Y-38220000D03*
D16*
X220022500Y-41505000D03*
X220022500Y-42775000D03*
X220022500Y-44045000D03*
X220022500Y-45315000D03*
X220022500Y-46585000D03*
X220022500Y-47855000D03*
X220022500Y-49125000D03*
X220022500Y-50395000D03*
X220022500Y-51665000D03*
X220022500Y-52935000D03*
D14*
X221522500Y-56220000D03*
X222792500Y-56220000D03*
X224062500Y-56220000D03*
X225332500Y-56220000D03*
X226602500Y-56220000D03*
X227872500Y-56220000D03*
X229142500Y-56220000D03*
X230412500Y-56220000D03*
X231682500Y-56220000D03*
X232952500Y-56220000D03*
X234222500Y-56220000D03*
X235492500Y-56220000D03*
X236762500Y-56220000D03*
X238032500Y-56220000D03*
%TD*%
D11*
%TO.C,R3*%
X202062500Y-37900000D03*
X200237500Y-37900000D03*
%TD*%
D17*
%TO.C,C2*%
X233125000Y-36050000D03*
X234850000Y-36050000D03*
%TD*%
D12*
%TO.C,C1*%
X238262500Y-36050000D03*
X236537500Y-36050000D03*
%TD*%
D18*
%TO.C,LD1*%
X191562500Y-57600000D03*
X194537500Y-57600000D03*
%TD*%
D11*
%TO.C,R1*%
X212775000Y-38150000D03*
X210950000Y-38150000D03*
%TD*%
D19*
%TO.C,S2*%
X201480000Y-57100000D03*
X204020000Y-57100000D03*
X201480000Y-48300000D03*
X204020000Y-48300000D03*
%TD*%
D18*
%TO.C,LD0*%
X214612500Y-38150000D03*
X217587500Y-38150000D03*
%TD*%
D20*
%TO.C,S1*%
X198775000Y-40350000D03*
X198775000Y-44850000D03*
X206725000Y-40350000D03*
X206725000Y-44850000D03*
%TD*%
M02*
