%TF.GenerationSoftware,KiCad,Pcbnew,8.0.7*%
%TF.CreationDate,2024-12-14T18:23:45+03:00*%
%TF.ProjectId,pmod_esp32,706d6f64-5f65-4737-9033-322e6b696361,0.1*%
%TF.SameCoordinates,Original*%
%TF.FileFunction,Copper,L1,Top*%
%TF.FilePolarity,Positive*%
%FSLAX46Y46*%
G04 Gerber Fmt 4.6, Leading zero omitted, Abs format (unit mm)*
G04 Created by KiCad (PCBNEW 8.0.7) date 2024-12-14 18:23:45*
%MOMM*%
%LPD*%
G01*
G04 APERTURE LIST*
G04 Aperture macros list*
%AMRoundRect*
0 Rectangle with rounded corners*
0 $1 Rounding radius*
0 $2 $3 $4 $5 $6 $7 $8 $9 X,Y pos of 4 corners*
0 Add a 4 corners polygon primitive as box body*
4,1,4,$2,$3,$4,$5,$6,$7,$8,$9,$2,$3,0*
0 Add four circle primitives for the rounded corners*
1,1,$1+$1,$2,$3*
1,1,$1+$1,$4,$5*
1,1,$1+$1,$6,$7*
1,1,$1+$1,$8,$9*
0 Add four rect primitives between the rounded corners*
20,1,$1+$1,$2,$3,$4,$5,0*
20,1,$1+$1,$4,$5,$6,$7,0*
20,1,$1+$1,$6,$7,$8,$9,0*
20,1,$1+$1,$8,$9,$2,$3,0*%
G04 Aperture macros list end*
%TA.AperFunction,SMDPad,CuDef*%
%ADD10RoundRect,0.237500X0.237500X-0.250000X0.237500X0.250000X-0.237500X0.250000X-0.237500X-0.250000X0*%
%TD*%
%TA.AperFunction,SMDPad,CuDef*%
%ADD11RoundRect,0.237500X0.250000X0.237500X-0.250000X0.237500X-0.250000X-0.237500X0.250000X-0.237500X0*%
%TD*%
%TA.AperFunction,SMDPad,CuDef*%
%ADD12RoundRect,0.237500X0.300000X0.237500X-0.300000X0.237500X-0.300000X-0.237500X0.300000X-0.237500X0*%
%TD*%
%TA.AperFunction,ComponentPad*%
%ADD13C,1.695000*%
%TD*%
%TA.AperFunction,SMDPad,CuDef*%
%ADD14RoundRect,0.237500X-0.237500X0.250000X-0.237500X-0.250000X0.237500X-0.250000X0.237500X0.250000X0*%
%TD*%
%TA.AperFunction,SMDPad,CuDef*%
%ADD15RoundRect,0.099000X-0.351000X0.751000X-0.351000X-0.751000X0.351000X-0.751000X0.351000X0.751000X0*%
%TD*%
%TA.AperFunction,SMDPad,CuDef*%
%ADD16R,4.000000X4.000000*%
%TD*%
%TA.AperFunction,SMDPad,CuDef*%
%ADD17RoundRect,0.099000X-0.751000X0.351000X-0.751000X-0.351000X0.751000X-0.351000X0.751000X0.351000X0*%
%TD*%
%TA.AperFunction,SMDPad,CuDef*%
%ADD18RoundRect,0.237500X-0.300000X-0.237500X0.300000X-0.237500X0.300000X0.237500X-0.300000X0.237500X0*%
%TD*%
%TA.AperFunction,SMDPad,CuDef*%
%ADD19RoundRect,0.250001X-0.462499X-0.624999X0.462499X-0.624999X0.462499X0.624999X-0.462499X0.624999X0*%
%TD*%
%TA.AperFunction,ComponentPad*%
%ADD20R,1.605000X1.605000*%
%TD*%
%TA.AperFunction,ComponentPad*%
%ADD21C,1.605000*%
%TD*%
%TA.AperFunction,SMDPad,CuDef*%
%ADD22R,1.100000X2.200000*%
%TD*%
%TA.AperFunction,SMDPad,CuDef*%
%ADD23R,1.550000X1.300000*%
%TD*%
%TA.AperFunction,ViaPad*%
%ADD24C,0.600000*%
%TD*%
%TA.AperFunction,Conductor*%
%ADD25C,0.254000*%
%TD*%
%TA.AperFunction,Conductor*%
%ADD26C,0.635000*%
%TD*%
G04 APERTURE END LIST*
D10*
%TO.P,R7,1*%
%TO.N,/SELECT*%
X197700000Y-55912500D03*
%TO.P,R7,2*%
%TO.N,/GND*%
X197700000Y-54087500D03*
%TD*%
D11*
%TO.P,R6,1*%
%TO.N,Net-(R6-Pad1)*%
X199512500Y-57550000D03*
%TO.P,R6,2*%
%TO.N,/SELECT*%
X197687500Y-57550000D03*
%TD*%
D12*
%TO.P,C3,1*%
%TO.N,/EN*%
X205512500Y-37900000D03*
%TO.P,C3,2*%
%TO.N,/GND*%
X203787500Y-37900000D03*
%TD*%
D13*
%TO.P,J2,1,1*%
%TO.N,Net-(J2-Pad1)*%
X194696000Y-40900000D03*
%TO.P,J2,2,2*%
%TO.N,Net-(J2-Pad2)*%
X194696000Y-43440000D03*
%TO.P,J2,3,3*%
%TO.N,Net-(J2-Pad3)*%
X194696000Y-45980000D03*
%TO.P,J2,4,4*%
%TO.N,Net-(J2-Pad4)*%
X194696000Y-48520000D03*
%TO.P,J2,5,5*%
%TO.N,/GND*%
X194696000Y-51060000D03*
%TO.P,J2,6,6*%
%TO.N,/VCC3V3*%
X194696000Y-53600000D03*
%TO.P,J2,7,7*%
%TO.N,Net-(J2-Pad7)*%
X192156000Y-40900000D03*
%TO.P,J2,8,8*%
%TO.N,Net-(J2-Pad8)*%
X192156000Y-43440000D03*
%TO.P,J2,9,9*%
%TO.N,Net-(J2-Pad9)*%
X192156000Y-45980000D03*
%TO.P,J2,10,10*%
%TO.N,Net-(J2-Pad10)*%
X192156000Y-48520000D03*
%TO.P,J2,11,11*%
%TO.N,/GND*%
X192156000Y-51060000D03*
%TO.P,J2,12,12*%
%TO.N,/VCC3V3*%
X192156000Y-53600000D03*
%TD*%
D14*
%TO.P,R4,1*%
%TO.N,/IO0*%
X207200000Y-55287500D03*
%TO.P,R4,2*%
%TO.N,Net-(R4-Pad2)*%
X207200000Y-57112500D03*
%TD*%
D12*
%TO.P,C4,1*%
%TO.N,/VCC3V3*%
X209562500Y-47750000D03*
%TO.P,C4,2*%
%TO.N,/GND*%
X207837500Y-47750000D03*
%TD*%
D10*
%TO.P,R5,1*%
%TO.N,/IO0*%
X207200000Y-53612500D03*
%TO.P,R5,2*%
%TO.N,/VCC3V3*%
X207200000Y-51787500D03*
%TD*%
D15*
%TO.P,U1,1,GND*%
%TO.N,/GND*%
X238032500Y-38220000D03*
D16*
%TO.P,U1,1.1,GND*%
X230622500Y-46520000D03*
D15*
%TO.P,U1,2,3V3*%
%TO.N,/VCC3V3*%
X236762500Y-38220000D03*
%TO.P,U1,3,EN*%
%TO.N,/EN*%
X235492500Y-38220000D03*
%TO.P,U1,4,SENSOR_VP*%
%TO.N,unconnected-(U1-SENSOR_VP-Pad4)*%
X234222500Y-38220000D03*
%TO.P,U1,5,SENSOR_VN*%
%TO.N,unconnected-(U1-SENSOR_VN-Pad5)*%
X232952500Y-38220000D03*
%TO.P,U1,6,IO34*%
%TO.N,unconnected-(U1-IO34-Pad6)*%
X231682500Y-38220000D03*
%TO.P,U1,7,IO35*%
%TO.N,unconnected-(U1-IO35-Pad7)*%
X230412500Y-38220000D03*
%TO.P,U1,8,IO32*%
%TO.N,/GPIO*%
X229142500Y-38220000D03*
%TO.P,U1,9,IO33*%
%TO.N,unconnected-(U1-IO33-Pad9)*%
X227872500Y-38220000D03*
%TO.P,U1,10,IO25*%
%TO.N,unconnected-(U1-IO25-Pad10)*%
X226602500Y-38220000D03*
%TO.P,U1,11,IO26*%
%TO.N,/SELECT*%
X225332500Y-38220000D03*
%TO.P,U1,12,IO27*%
%TO.N,unconnected-(U1-IO27-Pad12)*%
X224062500Y-38220000D03*
%TO.P,U1,13,IO14*%
%TO.N,/RTS*%
X222792500Y-38220000D03*
%TO.P,U1,14,IO12*%
%TO.N,/LD0*%
X221522500Y-38220000D03*
D17*
%TO.P,U1,15,GND*%
%TO.N,/GND*%
X220022500Y-41505000D03*
%TO.P,U1,16,IO13*%
%TO.N,unconnected-(U1-IO13-Pad16)*%
X220022500Y-42775000D03*
%TO.P,U1,17,SHD/SD2*%
%TO.N,unconnected-(U1-SHD{slash}SD2-Pad17)*%
X220022500Y-44045000D03*
%TO.P,U1,18,SWP/SD3*%
%TO.N,unconnected-(U1-SWP{slash}SD3-Pad18)*%
X220022500Y-45315000D03*
%TO.P,U1,19,SCS/CMD*%
%TO.N,unconnected-(U1-SCS{slash}CMD-Pad19)*%
X220022500Y-46585000D03*
%TO.P,U1,20,SCK/CLK*%
%TO.N,unconnected-(U1-SCK{slash}CLK-Pad20)*%
X220022500Y-47855000D03*
%TO.P,U1,21,SDO/SD0*%
%TO.N,unconnected-(U1-SDO{slash}SD0-Pad21)*%
X220022500Y-49125000D03*
%TO.P,U1,22,SDI/SD1*%
%TO.N,unconnected-(U1-SDI{slash}SD1-Pad22)*%
X220022500Y-50395000D03*
%TO.P,U1,23,IO15*%
%TO.N,/CTS*%
X220022500Y-51665000D03*
%TO.P,U1,24,IO2*%
%TO.N,/INT*%
X220022500Y-52935000D03*
D15*
%TO.P,U1,25,IO0*%
%TO.N,/IO0*%
X221522500Y-56220000D03*
%TO.P,U1,26,IO4*%
%TO.N,unconnected-(U1-IO4-Pad26)*%
X222792500Y-56220000D03*
%TO.P,U1,27,IO16*%
%TO.N,/RXD*%
X224062500Y-56220000D03*
%TO.P,U1,28,IO17*%
%TO.N,/TXD*%
X225332500Y-56220000D03*
%TO.P,U1,29,IO5*%
%TO.N,/SS*%
X226602500Y-56220000D03*
%TO.P,U1,30,IO18*%
%TO.N,/SCK*%
X227872500Y-56220000D03*
%TO.P,U1,31,IO19*%
%TO.N,/MISO*%
X229142500Y-56220000D03*
%TO.P,U1,32*%
%TO.N,N/C*%
X230412500Y-56220000D03*
%TO.P,U1,33,IO21*%
%TO.N,unconnected-(U1-IO21-Pad33)*%
X231682500Y-56220000D03*
%TO.P,U1,34,RXD0*%
%TO.N,/RXD0*%
X232952500Y-56220000D03*
%TO.P,U1,35,TXD0*%
%TO.N,/TXD0*%
X234222500Y-56220000D03*
%TO.P,U1,36,IO22*%
%TO.N,unconnected-(U1-IO22-Pad36)*%
X235492500Y-56220000D03*
%TO.P,U1,37,IO23*%
%TO.N,/MOSI*%
X236762500Y-56220000D03*
%TO.P,U1,38,GND*%
%TO.N,/GND*%
X238032500Y-56220000D03*
%TD*%
D11*
%TO.P,R3,1*%
%TO.N,/VCC3V3*%
X202062500Y-37900000D03*
%TO.P,R3,2*%
%TO.N,/EN*%
X200237500Y-37900000D03*
%TD*%
D18*
%TO.P,C2,1*%
%TO.N,/GND*%
X233125000Y-36050000D03*
%TO.P,C2,2*%
%TO.N,/VCC3V3*%
X234850000Y-36050000D03*
%TD*%
D12*
%TO.P,C1,1*%
%TO.N,/GND*%
X238262500Y-36050000D03*
%TO.P,C1,2*%
%TO.N,/VCC3V3*%
X236537500Y-36050000D03*
%TD*%
D19*
%TO.P,LD1,1,K*%
%TO.N,Net-(LD1-K)*%
X191562500Y-57600000D03*
%TO.P,LD1,2,A*%
%TO.N,/VCC3V3*%
X194537500Y-57600000D03*
%TD*%
D20*
%TO.P,J1,1,1*%
%TO.N,/TXD0*%
X210190000Y-55600000D03*
D21*
%TO.P,J1,2,2*%
%TO.N,/RXD0*%
X212730000Y-55600000D03*
%TO.P,J1,3,3*%
%TO.N,/GND*%
X215270000Y-55600000D03*
%TO.P,J1,4,4*%
%TO.N,/IO0*%
X217810000Y-55600000D03*
%TD*%
D11*
%TO.P,R1,1*%
%TO.N,Net-(LD0-K)*%
X212775000Y-38150000D03*
%TO.P,R1,2*%
%TO.N,/GND*%
X210950000Y-38150000D03*
%TD*%
D22*
%TO.P,S2,1*%
%TO.N,Net-(R6-Pad1)*%
X201480000Y-57100000D03*
%TO.P,S2,2*%
%TO.N,Net-(R4-Pad2)*%
X204020000Y-57100000D03*
%TO.P,S2,A1*%
%TO.N,/VCC3V3*%
X201480000Y-48300000D03*
%TO.P,S2,A2*%
%TO.N,/GND*%
X204020000Y-48300000D03*
%TD*%
D19*
%TO.P,LD0,1,K*%
%TO.N,Net-(LD0-K)*%
X214612500Y-38150000D03*
%TO.P,LD0,2,A*%
%TO.N,/LD0*%
X217587500Y-38150000D03*
%TD*%
D23*
%TO.P,S1,1*%
%TO.N,/EN*%
X198775000Y-40350000D03*
%TO.P,S1,2*%
%TO.N,/GND*%
X198775000Y-44850000D03*
%TO.P,S1,3*%
%TO.N,/EN*%
X206725000Y-40350000D03*
%TO.P,S1,4*%
%TO.N,/GND*%
X206725000Y-44850000D03*
%TD*%
D24*
%TO.N,/VCC3V3*%
X211100000Y-46450000D03*
%TO.N,/GND*%
X229250000Y-49400000D03*
X206950000Y-43825000D03*
X237250000Y-51000000D03*
X236450000Y-47000000D03*
X230050000Y-43000000D03*
X235650000Y-47800000D03*
X238050000Y-50200000D03*
X232450000Y-51000000D03*
X234050000Y-42200000D03*
X232450000Y-50200000D03*
X232450000Y-43000000D03*
X229250000Y-51000000D03*
X234850000Y-42200000D03*
X234850000Y-53400000D03*
X234850000Y-41400000D03*
X202850000Y-36600000D03*
X234850000Y-43000000D03*
X191650000Y-36600000D03*
X234050000Y-51000000D03*
X206050000Y-42200000D03*
X234850000Y-45400000D03*
X234050000Y-46200000D03*
X236450000Y-41400000D03*
X233250000Y-41400000D03*
X237250000Y-41400000D03*
X233250000Y-43000000D03*
X203650000Y-54200000D03*
X226850000Y-41400000D03*
X232450000Y-49400000D03*
X234050000Y-54200000D03*
X230850000Y-53400000D03*
X203650000Y-36600000D03*
X235650000Y-45400000D03*
X235650000Y-43000000D03*
X234050000Y-43800000D03*
X230850000Y-50200000D03*
X235650000Y-47000000D03*
X238050000Y-43000000D03*
X197250000Y-50200000D03*
X234050000Y-44600000D03*
X238050000Y-41400000D03*
X235650000Y-41400000D03*
X222050000Y-47800000D03*
X236450000Y-58200000D03*
X237250000Y-48600000D03*
X235650000Y-48600000D03*
X232450000Y-54200000D03*
X232450000Y-42200000D03*
X215650000Y-47800000D03*
X234850000Y-54200000D03*
X230850000Y-42200000D03*
X214050000Y-47000000D03*
X190850000Y-37400000D03*
X237250000Y-45400000D03*
X198050000Y-50200000D03*
X236450000Y-46200000D03*
X228450000Y-50200000D03*
X232450000Y-41400000D03*
X205250000Y-54200000D03*
X209250000Y-58200000D03*
X234050000Y-47000000D03*
X227650000Y-41400000D03*
X236450000Y-43000000D03*
X234850000Y-50200000D03*
X235650000Y-49400000D03*
X234850000Y-48600000D03*
X205250000Y-53400000D03*
X231650000Y-42200000D03*
X238050000Y-53400000D03*
X238050000Y-52600000D03*
X234050000Y-41400000D03*
X235650000Y-54200000D03*
X200000000Y-53150000D03*
X235650000Y-46200000D03*
X223650000Y-43800000D03*
X209250000Y-57400000D03*
X234850000Y-46200000D03*
X230850000Y-41400000D03*
X238050000Y-43800000D03*
X230850000Y-54200000D03*
X231650000Y-50200000D03*
X236450000Y-49400000D03*
X202050000Y-55000000D03*
X215650000Y-46200000D03*
X237250000Y-42200000D03*
X230850000Y-43000000D03*
X236450000Y-45400000D03*
X236450000Y-43800000D03*
X238050000Y-40600000D03*
X206850000Y-43000000D03*
X238050000Y-51000000D03*
X237250000Y-50200000D03*
X232450000Y-53400000D03*
X206050000Y-50200000D03*
X237250000Y-43000000D03*
X214850000Y-47800000D03*
X238050000Y-49400000D03*
X190850000Y-36600000D03*
X238050000Y-58200000D03*
X238050000Y-45400000D03*
X225250000Y-51000000D03*
X231650000Y-51000000D03*
X215650000Y-47000000D03*
X205250000Y-55000000D03*
X226850000Y-42200000D03*
X207650000Y-36600000D03*
X233250000Y-53400000D03*
X233250000Y-49400000D03*
X207800000Y-45400000D03*
X196450000Y-50200000D03*
X238050000Y-47800000D03*
X236450000Y-48600000D03*
X213250000Y-47000000D03*
X202850000Y-54200000D03*
X234050000Y-47800000D03*
X238050000Y-51800000D03*
X234850000Y-44600000D03*
X233250000Y-42200000D03*
X234850000Y-47000000D03*
X236450000Y-47800000D03*
X234850000Y-51000000D03*
X236450000Y-51000000D03*
X238050000Y-48600000D03*
X238050000Y-54200000D03*
X237250000Y-49400000D03*
X230850000Y-49400000D03*
X236450000Y-50200000D03*
X207825000Y-44575000D03*
X199150000Y-53150000D03*
X202850000Y-55000000D03*
X238050000Y-44600000D03*
X238050000Y-47000000D03*
X235650000Y-44600000D03*
X237250000Y-44600000D03*
X234050000Y-45400000D03*
X236450000Y-42200000D03*
X234050000Y-53400000D03*
X214850000Y-46200000D03*
X235650000Y-51000000D03*
X230050000Y-51000000D03*
X230050000Y-50200000D03*
X237250000Y-47000000D03*
X204450000Y-53400000D03*
X214050000Y-47800000D03*
X234850000Y-49400000D03*
X235650000Y-43800000D03*
X231650000Y-54200000D03*
X231650000Y-53400000D03*
X234850000Y-43800000D03*
X237250000Y-43800000D03*
X237250000Y-47800000D03*
X234050000Y-50200000D03*
X237250000Y-46200000D03*
X213250000Y-47800000D03*
X238050000Y-42200000D03*
X199650000Y-50200000D03*
X238050000Y-46200000D03*
X234050000Y-43000000D03*
X235650000Y-42200000D03*
X230850000Y-51000000D03*
X234050000Y-49400000D03*
X233250000Y-54200000D03*
X234050000Y-48600000D03*
X235650000Y-58200000D03*
X231650000Y-41400000D03*
X198850000Y-50200000D03*
X237250000Y-58200000D03*
X234850000Y-47800000D03*
X233250000Y-51000000D03*
X230050000Y-49400000D03*
X228450000Y-49400000D03*
X204450000Y-54200000D03*
X214850000Y-47000000D03*
X203650000Y-55000000D03*
X236450000Y-44600000D03*
X204450000Y-55000000D03*
X231650000Y-43000000D03*
X235650000Y-50200000D03*
X231650000Y-49400000D03*
X206850000Y-36600000D03*
X233250000Y-50200000D03*
X229250000Y-50200000D03*
%TO.N,/EN*%
X208650000Y-40000000D03*
X205512500Y-37900000D03*
X201075000Y-37900000D03*
X235500000Y-39350000D03*
%TO.N,Net-(LD1-K)*%
X192950000Y-57600000D03*
%TO.N,/CTS{slash}SCK*%
X202200000Y-41750000D03*
X201150000Y-45977000D03*
%TO.N,/SELECT*%
X202550000Y-52605000D03*
X202550000Y-47000000D03*
X214700000Y-49300000D03*
X212000000Y-51300000D03*
X225300000Y-41550000D03*
X202550000Y-50970000D03*
X221750000Y-49250000D03*
X225350000Y-39282500D03*
%TO.N,/INT*%
X216350000Y-41200000D03*
X211100000Y-40500000D03*
X207750000Y-38900000D03*
%TO.N,/GPIO*%
X221700000Y-50100000D03*
X229150000Y-39200000D03*
X214906131Y-50072991D03*
X211500000Y-52100000D03*
X229200000Y-41450000D03*
%TO.N,/TXD*%
X224850000Y-52600000D03*
%TO.N,/MOSI*%
X227273000Y-51958591D03*
%TO.N,/SCK*%
X221350000Y-44627000D03*
X223800000Y-47450000D03*
X212850000Y-45100000D03*
X216500000Y-44627000D03*
X227900000Y-52600000D03*
%TO.N,/RTS*%
X222800000Y-39250000D03*
%TO.N,/SS*%
X226600000Y-48950000D03*
%TO.N,/CTS*%
X218077000Y-45250000D03*
%TO.N,/MISO*%
X229150000Y-54600000D03*
%TO.N,/RXD*%
X221750000Y-51200000D03*
%TD*%
D25*
%TO.N,/VCC3V3*%
X201480000Y-47170000D02*
X201480000Y-48300000D01*
D26*
X211750000Y-47700000D02*
X211700000Y-47750000D01*
X210262500Y-51787500D02*
X211750000Y-50300000D01*
X207200000Y-51787500D02*
X210262500Y-51787500D01*
D25*
X211100000Y-46450000D02*
X211750000Y-46450000D01*
D26*
X196000000Y-53600000D02*
X197812500Y-51787500D01*
X211750000Y-42250000D02*
X213750000Y-40250000D01*
X201480000Y-51757500D02*
X201480000Y-48300000D01*
X194696000Y-53600000D02*
X196000000Y-53600000D01*
X234850000Y-36050000D02*
X236537500Y-36050000D01*
X211750000Y-47700000D02*
X211750000Y-46450000D01*
X213750000Y-40250000D02*
X236150000Y-40250000D01*
X236150000Y-40250000D02*
X236762500Y-39637500D01*
D25*
X209564382Y-47748118D02*
X209562500Y-47750000D01*
D26*
X211750000Y-50300000D02*
X211750000Y-47700000D01*
X236762500Y-38220000D02*
X236762500Y-36275000D01*
X211700000Y-47750000D02*
X209562500Y-47750000D01*
X211750000Y-46450000D02*
X211750000Y-42250000D01*
X201450000Y-51787500D02*
X207200000Y-51787500D01*
D25*
X203200000Y-45450000D02*
X201480000Y-47170000D01*
D26*
X236762500Y-36275000D02*
X236537500Y-36050000D01*
D25*
X202062500Y-39612500D02*
X203200000Y-40750000D01*
X202062500Y-37900000D02*
X202062500Y-39612500D01*
D26*
X201450000Y-51787500D02*
X201480000Y-51757500D01*
X236762500Y-39637500D02*
X236762500Y-38220000D01*
D25*
X203200000Y-40750000D02*
X203200000Y-45450000D01*
D26*
X197812500Y-51787500D02*
X201450000Y-51787500D01*
D25*
%TO.N,/EN*%
X200237500Y-37900000D02*
X201075000Y-37900000D01*
X206350000Y-37900000D02*
X206725000Y-38275000D01*
X199200000Y-37900000D02*
X198775000Y-38325000D01*
X206725000Y-40350000D02*
X208300000Y-40350000D01*
X235492500Y-39342500D02*
X235500000Y-39350000D01*
X208300000Y-40350000D02*
X208650000Y-40000000D01*
X206725000Y-38275000D02*
X206725000Y-40350000D01*
X205512500Y-37900000D02*
X206350000Y-37900000D01*
X235492500Y-38220000D02*
X235492500Y-39342500D01*
X200237500Y-37900000D02*
X199200000Y-37900000D01*
X198775000Y-38325000D02*
X198775000Y-40350000D01*
%TO.N,/IO0*%
X217810000Y-55600000D02*
X219000000Y-55600000D01*
X219000000Y-55600000D02*
X219620000Y-56220000D01*
X217262500Y-53612500D02*
X207200000Y-53612500D01*
X219620000Y-56220000D02*
X221522500Y-56220000D01*
X217810000Y-55600000D02*
X217810000Y-54160000D01*
X217810000Y-54160000D02*
X217262500Y-53612500D01*
X207200000Y-53612500D02*
X207200000Y-55287500D01*
%TO.N,/TXD0*%
X210190000Y-55600000D02*
X210190000Y-56790000D01*
X211604000Y-58204000D02*
X233346000Y-58204000D01*
X233346000Y-58204000D02*
X234222500Y-57327500D01*
X234222500Y-57327500D02*
X234222500Y-56220000D01*
X210190000Y-56790000D02*
X211604000Y-58204000D01*
%TO.N,/RXD0*%
X212730000Y-57030000D02*
X213450000Y-57750000D01*
X212730000Y-55600000D02*
X212730000Y-57030000D01*
X213450000Y-57750000D02*
X232600000Y-57750000D01*
X232952500Y-57397500D02*
X232952500Y-56220000D01*
X232600000Y-57750000D02*
X232952500Y-57397500D01*
D26*
%TO.N,Net-(LD0-K)*%
X212775000Y-38150000D02*
X214612500Y-38150000D01*
%TO.N,/LD0*%
X221522500Y-38220000D02*
X217657500Y-38220000D01*
X217657500Y-38220000D02*
X217587500Y-38150000D01*
D25*
%TO.N,Net-(LD1-K)*%
X191562500Y-57600000D02*
X192950000Y-57600000D01*
%TO.N,/CTS{slash}SCK*%
X202200000Y-45550000D02*
X202200000Y-41750000D01*
X201773000Y-45977000D02*
X202200000Y-45550000D01*
X201150000Y-45977000D02*
X201773000Y-45977000D01*
%TO.N,/SELECT*%
X225300000Y-47400000D02*
X225300000Y-41550000D01*
X212700000Y-51300000D02*
X212000000Y-51300000D01*
X200400000Y-54100000D02*
X198587500Y-55912500D01*
X202550000Y-50970000D02*
X202550000Y-47000000D01*
X221750000Y-49250000D02*
X223450000Y-49250000D01*
X225332500Y-38220000D02*
X225332500Y-39265000D01*
X201055000Y-54100000D02*
X200400000Y-54100000D01*
X197700000Y-55912500D02*
X197700000Y-57537500D01*
X197700000Y-57537500D02*
X197687500Y-57550000D01*
X223450000Y-49250000D02*
X225300000Y-47400000D01*
X202550000Y-52605000D02*
X201055000Y-54100000D01*
X225332500Y-39265000D02*
X225350000Y-39282500D01*
X214700000Y-49300000D02*
X212700000Y-51300000D01*
X198587500Y-55912500D02*
X197700000Y-55912500D01*
%TO.N,/INT*%
X216750000Y-47186712D02*
X216750000Y-50950000D01*
X216350000Y-41200000D02*
X217450000Y-42300000D01*
X207750000Y-38900000D02*
X209500000Y-38900000D01*
X217450000Y-42300000D02*
X217450000Y-46486712D01*
X218735000Y-52935000D02*
X220022500Y-52935000D01*
X217450000Y-46486712D02*
X216750000Y-47186712D01*
X209500000Y-38900000D02*
X211100000Y-40500000D01*
X216750000Y-50950000D02*
X218735000Y-52935000D01*
%TO.N,/GPIO*%
X229142500Y-38220000D02*
X229142500Y-39192500D01*
X229200000Y-41800000D02*
X229200000Y-41450000D01*
X212879122Y-52100000D02*
X211500000Y-52100000D01*
X223600000Y-50100000D02*
X226950000Y-46750000D01*
X226950000Y-46750000D02*
X226950000Y-44050000D01*
X229142500Y-39192500D02*
X229150000Y-39200000D01*
X226950000Y-44050000D02*
X229200000Y-41800000D01*
X214906131Y-50072991D02*
X212879122Y-52100000D01*
X221700000Y-50100000D02*
X223600000Y-50100000D01*
%TO.N,Net-(R6-Pad1)*%
X201480000Y-57100000D02*
X201200000Y-57100000D01*
X200750000Y-57550000D02*
X199512500Y-57550000D01*
X201200000Y-57100000D02*
X200750000Y-57550000D01*
%TO.N,Net-(R4-Pad2)*%
X204020000Y-57100000D02*
X207187500Y-57100000D01*
X207187500Y-57100000D02*
X207200000Y-57112500D01*
%TO.N,/TXD*%
X224850000Y-52600000D02*
X225332500Y-53082500D01*
X225332500Y-53082500D02*
X225332500Y-56220000D01*
%TO.N,/MOSI*%
X236762500Y-52712500D02*
X236762500Y-56220000D01*
X227273000Y-51958591D02*
X227281591Y-51950000D01*
X236000000Y-51950000D02*
X236762500Y-52712500D01*
X227281591Y-51950000D02*
X236000000Y-51950000D01*
%TO.N,/SCK*%
X216500000Y-44627000D02*
X216373000Y-44500000D01*
X216373000Y-44500000D02*
X213450000Y-44500000D01*
X221350000Y-45000000D02*
X223800000Y-47450000D01*
X227900000Y-52600000D02*
X227872500Y-52627500D01*
X213450000Y-44500000D02*
X212850000Y-45100000D01*
X227872500Y-52627500D02*
X227872500Y-56220000D01*
X221350000Y-44627000D02*
X221350000Y-45000000D01*
%TO.N,/RTS*%
X222792500Y-38220000D02*
X222792500Y-39242500D01*
X222792500Y-39242500D02*
X222800000Y-39250000D01*
%TO.N,/SS*%
X226600000Y-51300000D02*
X226602500Y-51302500D01*
X226602500Y-51302500D02*
X226602500Y-56220000D01*
X226600000Y-48950000D02*
X226600000Y-51300000D01*
%TO.N,/CTS*%
X218077000Y-45250000D02*
X218350000Y-45523000D01*
X218615000Y-51665000D02*
X220022500Y-51665000D01*
X218350000Y-45523000D02*
X218350000Y-51400000D01*
X218350000Y-51400000D02*
X218615000Y-51665000D01*
%TO.N,/MISO*%
X229142500Y-56220000D02*
X229142500Y-54607500D01*
X229142500Y-54607500D02*
X229150000Y-54600000D01*
%TO.N,/RXD*%
X221750000Y-51200000D02*
X222050000Y-51200000D01*
X224062500Y-53212500D02*
X224062500Y-56220000D01*
X222050000Y-51200000D02*
X224062500Y-53212500D01*
%TD*%
%TA.AperFunction,Conductor*%
%TO.N,/VCC3V3*%
G36*
X191777841Y-52354224D02*
G01*
X191921028Y-52392592D01*
X192085270Y-52406961D01*
X192155998Y-52413149D01*
X192156000Y-52413149D01*
X192156002Y-52413149D01*
X192226730Y-52406961D01*
X192390972Y-52392592D01*
X192534158Y-52354224D01*
X192566252Y-52350000D01*
X194285748Y-52350000D01*
X194317841Y-52354224D01*
X194461028Y-52392592D01*
X194625270Y-52406961D01*
X194695998Y-52413149D01*
X194696000Y-52413149D01*
X194696002Y-52413149D01*
X194766730Y-52406961D01*
X194930972Y-52392592D01*
X195074158Y-52354224D01*
X195106252Y-52350000D01*
X196126000Y-52350000D01*
X196193039Y-52369685D01*
X196238794Y-52422489D01*
X196250000Y-52474000D01*
X196250000Y-58776000D01*
X196230315Y-58843039D01*
X196177511Y-58888794D01*
X196126000Y-58900000D01*
X193324000Y-58900000D01*
X193256961Y-58880315D01*
X193211206Y-58827511D01*
X193200000Y-58776000D01*
X193200000Y-58448596D01*
X193219685Y-58381557D01*
X193272489Y-58335802D01*
X193283042Y-58331555D01*
X193299522Y-58325789D01*
X193452262Y-58229816D01*
X193579816Y-58102262D01*
X193675789Y-57949522D01*
X193735368Y-57779255D01*
X193755565Y-57600000D01*
X193735368Y-57420745D01*
X193675789Y-57250478D01*
X193579816Y-57097738D01*
X193452262Y-56970184D01*
X193299524Y-56874212D01*
X193299525Y-56874212D01*
X193296803Y-56873259D01*
X193283042Y-56868444D01*
X193226268Y-56827722D01*
X193200522Y-56762769D01*
X193200000Y-56751404D01*
X193200000Y-55650000D01*
X190074000Y-55650000D01*
X190006961Y-55630315D01*
X189961206Y-55577511D01*
X189950000Y-55526000D01*
X189950000Y-52474000D01*
X189969685Y-52406961D01*
X190022489Y-52361206D01*
X190074000Y-52350000D01*
X191745748Y-52350000D01*
X191777841Y-52354224D01*
G37*
%TD.AperFunction*%
%TD*%
%TA.AperFunction,Conductor*%
%TO.N,/GND*%
G36*
X239092539Y-35520185D02*
G01*
X239138294Y-35572989D01*
X239149500Y-35624500D01*
X239149500Y-38070150D01*
X239129815Y-38137189D01*
X239077011Y-38182944D01*
X239025500Y-38194150D01*
X238803350Y-38194150D01*
X238803350Y-56220000D01*
X239025500Y-56220000D01*
X239092539Y-56239685D01*
X239138294Y-56292489D01*
X239149500Y-56344000D01*
X239149500Y-58875500D01*
X239129815Y-58942539D01*
X239077011Y-58988294D01*
X239025500Y-58999500D01*
X196866469Y-58999500D01*
X196799430Y-58979815D01*
X196753675Y-58927011D01*
X196743731Y-58857854D01*
X196755500Y-58776000D01*
X196755500Y-58147264D01*
X196775185Y-58080225D01*
X196827989Y-58034470D01*
X196897147Y-58024526D01*
X196960703Y-58053551D01*
X196978304Y-58072339D01*
X197053499Y-58171500D01*
X197150269Y-58244882D01*
X197171342Y-58260862D01*
X197308923Y-58315117D01*
X197366562Y-58322039D01*
X197395381Y-58325500D01*
X197395382Y-58325500D01*
X197979619Y-58325500D01*
X198001232Y-58322904D01*
X198066077Y-58315117D01*
X198203658Y-58260862D01*
X198321500Y-58171500D01*
X198410862Y-58053658D01*
X198465117Y-57916077D01*
X198475500Y-57829618D01*
X198475500Y-57270382D01*
X198475500Y-57270381D01*
X198724500Y-57270381D01*
X198724500Y-57829618D01*
X198734882Y-57916074D01*
X198734882Y-57916075D01*
X198789139Y-58053660D01*
X198878499Y-58171500D01*
X198975269Y-58244882D01*
X198996342Y-58260862D01*
X199133923Y-58315117D01*
X199191562Y-58322039D01*
X199220381Y-58325500D01*
X199220382Y-58325500D01*
X199804619Y-58325500D01*
X199826232Y-58322904D01*
X199891077Y-58315117D01*
X200028658Y-58260862D01*
X200146500Y-58171500D01*
X200235862Y-58053658D01*
X200235864Y-58053652D01*
X200240018Y-58046266D01*
X200241755Y-58047242D01*
X200277842Y-58000865D01*
X200343750Y-57977673D01*
X200350289Y-57977500D01*
X200505501Y-57977500D01*
X200572540Y-57997185D01*
X200618295Y-58049989D01*
X200629501Y-58101500D01*
X200629501Y-58244856D01*
X200629502Y-58244882D01*
X200632413Y-58269987D01*
X200632415Y-58269991D01*
X200677793Y-58372764D01*
X200677794Y-58372765D01*
X200757235Y-58452206D01*
X200860009Y-58497585D01*
X200885135Y-58500500D01*
X202074864Y-58500499D01*
X202074879Y-58500497D01*
X202074882Y-58500497D01*
X202099987Y-58497586D01*
X202099988Y-58497585D01*
X202099991Y-58497585D01*
X202202765Y-58452206D01*
X202282206Y-58372765D01*
X202327585Y-58269991D01*
X202330500Y-58244865D01*
X202330499Y-55955136D01*
X202330498Y-55955131D01*
X203169500Y-55955131D01*
X203169500Y-58244856D01*
X203169502Y-58244882D01*
X203172413Y-58269987D01*
X203172415Y-58269991D01*
X203217793Y-58372764D01*
X203217794Y-58372765D01*
X203297235Y-58452206D01*
X203400009Y-58497585D01*
X203425135Y-58500500D01*
X204614864Y-58500499D01*
X204614879Y-58500497D01*
X204614882Y-58500497D01*
X204639987Y-58497586D01*
X204639988Y-58497585D01*
X204639991Y-58497585D01*
X204742765Y-58452206D01*
X204822206Y-58372765D01*
X204867585Y-58269991D01*
X204870500Y-58244865D01*
X204870500Y-57651500D01*
X204890185Y-57584461D01*
X204942989Y-57538706D01*
X204994500Y-57527500D01*
X206364852Y-57527500D01*
X206431891Y-57547185D01*
X206477646Y-57599989D01*
X206480207Y-57606010D01*
X206489138Y-57628659D01*
X206578499Y-57746500D01*
X206688108Y-57829618D01*
X206696342Y-57835862D01*
X206833923Y-57890117D01*
X206891562Y-57897039D01*
X206920381Y-57900500D01*
X206920382Y-57900500D01*
X207479619Y-57900500D01*
X207501232Y-57897904D01*
X207566077Y-57890117D01*
X207703658Y-57835862D01*
X207821500Y-57746500D01*
X207910862Y-57628658D01*
X207965117Y-57491077D01*
X207975500Y-57404618D01*
X207975500Y-56820382D01*
X207965117Y-56733923D01*
X207910862Y-56596342D01*
X207909551Y-56594613D01*
X207821500Y-56478499D01*
X207703660Y-56389139D01*
X207703658Y-56389138D01*
X207566077Y-56334883D01*
X207566076Y-56334882D01*
X207566074Y-56334882D01*
X207479619Y-56324500D01*
X207479618Y-56324500D01*
X206920382Y-56324500D01*
X206920381Y-56324500D01*
X206833925Y-56334882D01*
X206833924Y-56334882D01*
X206696339Y-56389139D01*
X206578499Y-56478499D01*
X206489139Y-56596339D01*
X206484982Y-56603734D01*
X206483244Y-56602757D01*
X206447158Y-56649135D01*
X206381250Y-56672327D01*
X206374711Y-56672500D01*
X204994499Y-56672500D01*
X204927460Y-56652815D01*
X204881705Y-56600011D01*
X204870499Y-56548500D01*
X204870499Y-55955143D01*
X204870499Y-55955136D01*
X204870497Y-55955117D01*
X204867586Y-55930012D01*
X204867585Y-55930010D01*
X204867585Y-55930009D01*
X204822206Y-55827235D01*
X204742765Y-55747794D01*
X204715010Y-55735539D01*
X204639992Y-55702415D01*
X204614865Y-55699500D01*
X203425143Y-55699500D01*
X203425117Y-55699502D01*
X203400012Y-55702413D01*
X203400008Y-55702415D01*
X203297235Y-55747793D01*
X203217794Y-55827234D01*
X203172415Y-55930006D01*
X203172415Y-55930008D01*
X203169500Y-55955131D01*
X202330498Y-55955131D01*
X202330497Y-55955117D01*
X202327586Y-55930012D01*
X202327585Y-55930010D01*
X202327585Y-55930009D01*
X202282206Y-55827235D01*
X202202765Y-55747794D01*
X202175010Y-55735539D01*
X202099992Y-55702415D01*
X202074865Y-55699500D01*
X200885143Y-55699500D01*
X200885117Y-55699502D01*
X200860012Y-55702413D01*
X200860008Y-55702415D01*
X200757235Y-55747793D01*
X200677794Y-55827234D01*
X200632415Y-55930006D01*
X200632415Y-55930008D01*
X200629500Y-55955131D01*
X200629500Y-56998500D01*
X200609815Y-57065539D01*
X200557011Y-57111294D01*
X200505500Y-57122500D01*
X200350289Y-57122500D01*
X200283250Y-57102815D01*
X200240490Y-57053468D01*
X200240018Y-57053734D01*
X200238718Y-57051423D01*
X200237495Y-57050011D01*
X200236160Y-57046872D01*
X200235860Y-57046339D01*
X200146500Y-56928499D01*
X200028660Y-56839139D01*
X200028658Y-56839138D01*
X199891077Y-56784883D01*
X199891076Y-56784882D01*
X199891074Y-56784882D01*
X199804619Y-56774500D01*
X199804618Y-56774500D01*
X199220382Y-56774500D01*
X199220381Y-56774500D01*
X199133925Y-56784882D01*
X199133924Y-56784882D01*
X198996339Y-56839139D01*
X198878499Y-56928499D01*
X198789139Y-57046339D01*
X198734882Y-57183924D01*
X198734882Y-57183925D01*
X198724500Y-57270381D01*
X198475500Y-57270381D01*
X198465117Y-57183923D01*
X198410862Y-57046342D01*
X198396289Y-57027124D01*
X198321500Y-56928499D01*
X198199921Y-56836304D01*
X198158398Y-56780112D01*
X198153846Y-56710391D01*
X198187710Y-56649276D01*
X198199921Y-56638696D01*
X198321500Y-56546500D01*
X198363860Y-56490640D01*
X198410862Y-56428658D01*
X198414863Y-56418511D01*
X198457768Y-56363367D01*
X198523676Y-56340173D01*
X198530218Y-56340000D01*
X198643779Y-56340000D01*
X198643781Y-56340000D01*
X198752509Y-56310867D01*
X198849991Y-56254585D01*
X200540758Y-54563819D01*
X200602081Y-54530334D01*
X200628439Y-54527500D01*
X201111279Y-54527500D01*
X201111281Y-54527500D01*
X201220009Y-54498367D01*
X201317491Y-54442085D01*
X202518963Y-53240612D01*
X202580284Y-53207129D01*
X202590456Y-53205356D01*
X202600361Y-53204051D01*
X202706762Y-53190044D01*
X202852841Y-53129536D01*
X202978282Y-53033282D01*
X203074536Y-52907841D01*
X203135044Y-52761762D01*
X203153610Y-52620740D01*
X203155682Y-52605001D01*
X203155682Y-52605000D01*
X203148111Y-52547491D01*
X203147873Y-52545685D01*
X203158638Y-52476650D01*
X203205018Y-52424394D01*
X203270812Y-52405500D01*
X206515701Y-52405500D01*
X206582740Y-52425185D01*
X206590626Y-52430696D01*
X206692453Y-52507913D01*
X206696342Y-52510862D01*
X206833923Y-52565117D01*
X206872194Y-52569713D01*
X206920381Y-52575500D01*
X206920382Y-52575500D01*
X207479619Y-52575500D01*
X207501232Y-52572904D01*
X207566077Y-52565117D01*
X207703658Y-52510862D01*
X207772037Y-52459009D01*
X207809374Y-52430696D01*
X207874686Y-52405873D01*
X207884299Y-52405500D01*
X210323370Y-52405500D01*
X210403690Y-52389522D01*
X210442764Y-52381750D01*
X210528462Y-52346253D01*
X210555229Y-52335166D01*
X210555230Y-52335165D01*
X210555233Y-52335164D01*
X210656452Y-52267532D01*
X210711174Y-52212809D01*
X210772493Y-52179326D01*
X210842185Y-52184309D01*
X210898119Y-52226180D01*
X210913414Y-52253039D01*
X210972793Y-52396394D01*
X210975464Y-52402841D01*
X211071718Y-52528282D01*
X211197159Y-52624536D01*
X211343238Y-52685044D01*
X211421619Y-52695363D01*
X211499999Y-52705682D01*
X211500000Y-52705682D01*
X211500001Y-52705682D01*
X211552254Y-52698802D01*
X211656762Y-52685044D01*
X211802841Y-52624536D01*
X211895908Y-52553123D01*
X211961076Y-52527930D01*
X211971393Y-52527500D01*
X212935401Y-52527500D01*
X212935403Y-52527500D01*
X213044131Y-52498367D01*
X213141613Y-52442085D01*
X214875094Y-50708602D01*
X214936415Y-50675119D01*
X214946570Y-50673349D01*
X215062893Y-50658035D01*
X215208972Y-50597527D01*
X215334413Y-50501273D01*
X215430667Y-50375832D01*
X215491175Y-50229753D01*
X215511813Y-50072991D01*
X215510062Y-50059693D01*
X215491175Y-49916230D01*
X215491175Y-49916229D01*
X215430667Y-49770150D01*
X215334413Y-49644709D01*
X215313360Y-49628554D01*
X215272160Y-49572129D01*
X215268005Y-49502383D01*
X215274288Y-49482728D01*
X215285044Y-49456762D01*
X215305682Y-49300000D01*
X215305249Y-49296714D01*
X215285044Y-49143239D01*
X215285044Y-49143238D01*
X215224536Y-48997159D01*
X215128282Y-48871718D01*
X215002841Y-48775464D01*
X214856762Y-48714956D01*
X214856760Y-48714955D01*
X214700001Y-48694318D01*
X214699999Y-48694318D01*
X214543239Y-48714955D01*
X214543237Y-48714956D01*
X214397160Y-48775463D01*
X214271718Y-48871718D01*
X214175463Y-48997160D01*
X214114956Y-49143237D01*
X214114956Y-49143239D01*
X214099644Y-49259540D01*
X214071377Y-49323436D01*
X214064386Y-49331035D01*
X212559243Y-50836181D01*
X212497920Y-50869666D01*
X212471562Y-50872500D01*
X212471392Y-50872500D01*
X212404353Y-50852815D01*
X212395920Y-50846885D01*
X212310841Y-50781603D01*
X212269640Y-50725177D01*
X212265485Y-50655431D01*
X212283229Y-50614336D01*
X212294461Y-50597527D01*
X212297664Y-50592733D01*
X212318795Y-50541718D01*
X212324361Y-50528282D01*
X212335548Y-50501273D01*
X212344251Y-50480263D01*
X212368000Y-50360868D01*
X212368000Y-50239132D01*
X212368000Y-47639132D01*
X212368000Y-46389132D01*
X212368000Y-45735872D01*
X212387685Y-45668833D01*
X212440489Y-45623078D01*
X212509647Y-45613134D01*
X212538877Y-45623293D01*
X212539651Y-45621426D01*
X212547158Y-45624535D01*
X212547159Y-45624536D01*
X212693238Y-45685044D01*
X212771619Y-45695363D01*
X212849999Y-45705682D01*
X212850000Y-45705682D01*
X212850001Y-45705682D01*
X212912589Y-45697442D01*
X213006762Y-45685044D01*
X213152841Y-45624536D01*
X213278282Y-45528282D01*
X213374536Y-45402841D01*
X213435044Y-45256762D01*
X213450356Y-45140457D01*
X213478623Y-45076561D01*
X213485600Y-45068975D01*
X213590759Y-44963817D01*
X213652081Y-44930334D01*
X213678439Y-44927500D01*
X215912518Y-44927500D01*
X215979557Y-44947185D01*
X216010894Y-44976014D01*
X216047852Y-45024180D01*
X216071718Y-45055282D01*
X216197159Y-45151536D01*
X216343238Y-45212044D01*
X216421619Y-45222363D01*
X216499999Y-45232682D01*
X216500000Y-45232682D01*
X216500001Y-45232682D01*
X216552254Y-45225802D01*
X216656762Y-45212044D01*
X216802841Y-45151536D01*
X216823013Y-45136056D01*
X216888180Y-45110862D01*
X216956625Y-45124899D01*
X217006616Y-45173712D01*
X217022500Y-45234432D01*
X217022500Y-46258274D01*
X217002815Y-46325313D01*
X216986181Y-46345955D01*
X216407917Y-46924218D01*
X216407915Y-46924221D01*
X216351633Y-47021701D01*
X216336707Y-47077407D01*
X216322500Y-47130431D01*
X216322500Y-50893719D01*
X216322500Y-51006281D01*
X216337066Y-51060645D01*
X216351633Y-51115010D01*
X216373856Y-51153500D01*
X216407915Y-51212491D01*
X218472509Y-53277085D01*
X218569991Y-53333367D01*
X218678719Y-53362500D01*
X218786123Y-53362500D01*
X218853162Y-53382185D01*
X218896605Y-53430202D01*
X218944269Y-53523747D01*
X218944270Y-53523748D01*
X218944273Y-53523752D01*
X219033747Y-53613226D01*
X219033749Y-53613227D01*
X219033753Y-53613231D01*
X219146509Y-53670683D01*
X219146510Y-53670683D01*
X219146512Y-53670684D01*
X219240057Y-53685500D01*
X219240058Y-53685500D01*
X220804942Y-53685500D01*
X220898487Y-53670684D01*
X220898488Y-53670684D01*
X220898489Y-53670683D01*
X220898491Y-53670683D01*
X221011247Y-53613231D01*
X221100731Y-53523747D01*
X221158183Y-53410991D01*
X221158183Y-53410989D01*
X221158184Y-53410988D01*
X221158184Y-53410987D01*
X221173000Y-53317442D01*
X221173000Y-52552557D01*
X221158184Y-52459012D01*
X221158184Y-52459011D01*
X221139071Y-52421500D01*
X221105846Y-52356292D01*
X221092951Y-52287626D01*
X221105846Y-52243708D01*
X221158183Y-52140991D01*
X221158183Y-52140989D01*
X221158184Y-52140988D01*
X221158184Y-52140987D01*
X221173000Y-52047442D01*
X221173000Y-51765613D01*
X221192685Y-51698574D01*
X221245489Y-51652819D01*
X221314647Y-51642875D01*
X221372487Y-51667238D01*
X221447157Y-51724535D01*
X221447158Y-51724535D01*
X221447159Y-51724536D01*
X221593238Y-51785044D01*
X221671619Y-51795363D01*
X221749999Y-51805682D01*
X221750000Y-51805682D01*
X221750001Y-51805682D01*
X221789190Y-51800522D01*
X221906762Y-51785044D01*
X221917685Y-51780519D01*
X221987149Y-51773047D01*
X222049630Y-51804318D01*
X222052821Y-51807397D01*
X223598681Y-53353257D01*
X223632166Y-53414580D01*
X223635000Y-53440938D01*
X223635000Y-54983622D01*
X223615315Y-55050661D01*
X223567294Y-55094107D01*
X223483794Y-55136652D01*
X223415125Y-55149548D01*
X223371206Y-55136652D01*
X223268491Y-55084316D01*
X223268487Y-55084315D01*
X223174942Y-55069500D01*
X222410058Y-55069500D01*
X222316512Y-55084315D01*
X222316508Y-55084316D01*
X222213794Y-55136652D01*
X222145125Y-55149548D01*
X222101206Y-55136652D01*
X221998491Y-55084316D01*
X221998487Y-55084315D01*
X221904942Y-55069500D01*
X221140058Y-55069500D01*
X221046512Y-55084315D01*
X221046511Y-55084315D01*
X220973482Y-55121526D01*
X220933753Y-55141769D01*
X220933752Y-55141770D01*
X220933747Y-55141773D01*
X220844273Y-55231247D01*
X220844270Y-55231252D01*
X220786815Y-55344011D01*
X220786815Y-55344012D01*
X220772000Y-55437557D01*
X220772000Y-55668500D01*
X220752315Y-55735539D01*
X220699511Y-55781294D01*
X220648000Y-55792500D01*
X219848439Y-55792500D01*
X219781400Y-55772815D01*
X219760758Y-55756181D01*
X219262493Y-55257917D01*
X219262491Y-55257915D01*
X219213750Y-55229774D01*
X219165010Y-55201633D01*
X219110645Y-55187066D01*
X219056281Y-55172500D01*
X219056280Y-55172500D01*
X218906084Y-55172500D01*
X218839045Y-55152815D01*
X218795085Y-55103774D01*
X218751807Y-55016858D01*
X218628619Y-54853730D01*
X218477553Y-54716016D01*
X218303756Y-54608405D01*
X218298882Y-54605387D01*
X218299888Y-54603762D01*
X218254982Y-54562117D01*
X218237500Y-54498635D01*
X218237500Y-54103721D01*
X218237500Y-54103719D01*
X218208367Y-53994991D01*
X218207978Y-53994318D01*
X218156189Y-53904618D01*
X218152085Y-53897509D01*
X218072491Y-53817915D01*
X217524991Y-53270415D01*
X217473375Y-53240614D01*
X217427510Y-53214133D01*
X217370016Y-53198728D01*
X217318781Y-53185000D01*
X217318780Y-53185000D01*
X208030218Y-53185000D01*
X207963179Y-53165315D01*
X207917424Y-53112511D01*
X207914863Y-53106488D01*
X207910862Y-53096343D01*
X207910860Y-53096339D01*
X207821500Y-52978499D01*
X207703660Y-52889139D01*
X207703658Y-52889138D01*
X207566077Y-52834883D01*
X207566076Y-52834882D01*
X207566074Y-52834882D01*
X207479619Y-52824500D01*
X207479618Y-52824500D01*
X206920382Y-52824500D01*
X206920381Y-52824500D01*
X206833925Y-52834882D01*
X206833924Y-52834882D01*
X206696339Y-52889139D01*
X206578499Y-52978499D01*
X206489139Y-53096339D01*
X206434882Y-53233924D01*
X206434882Y-53233925D01*
X206424500Y-53320381D01*
X206424500Y-53904618D01*
X206434882Y-53991074D01*
X206434882Y-53991075D01*
X206489139Y-54128660D01*
X206578499Y-54246500D01*
X206696339Y-54335860D01*
X206696342Y-54335862D01*
X206696343Y-54335862D01*
X206703734Y-54340018D01*
X206702645Y-54341954D01*
X206748390Y-54377535D01*
X206771593Y-54443439D01*
X206755483Y-54511426D01*
X206705173Y-54559910D01*
X206698173Y-54563108D01*
X206696342Y-54564138D01*
X206578499Y-54653499D01*
X206489139Y-54771339D01*
X206434882Y-54908924D01*
X206434882Y-54908925D01*
X206424500Y-54995381D01*
X206424500Y-55579618D01*
X206434882Y-55666074D01*
X206434882Y-55666075D01*
X206448063Y-55699500D01*
X206470415Y-55756181D01*
X206489139Y-55803660D01*
X206578499Y-55921500D01*
X206682217Y-56000151D01*
X206696342Y-56010862D01*
X206833923Y-56065117D01*
X206891562Y-56072039D01*
X206920381Y-56075500D01*
X206920382Y-56075500D01*
X207479619Y-56075500D01*
X207501232Y-56072904D01*
X207566077Y-56065117D01*
X207703658Y-56010862D01*
X207821500Y-55921500D01*
X207910862Y-55803658D01*
X207965117Y-55666077D01*
X207975500Y-55579618D01*
X207975500Y-54995382D01*
X207965117Y-54908923D01*
X207910862Y-54771342D01*
X207899806Y-54756762D01*
X207821500Y-54653499D01*
X207703658Y-54564138D01*
X207696266Y-54559982D01*
X207697351Y-54558051D01*
X207651588Y-54522434D01*
X207628404Y-54456523D01*
X207644534Y-54388541D01*
X207694857Y-54340071D01*
X207701845Y-54336881D01*
X207703652Y-54335864D01*
X207703658Y-54335862D01*
X207821500Y-54246500D01*
X207910862Y-54128658D01*
X207914863Y-54118511D01*
X207957768Y-54063367D01*
X208023676Y-54040173D01*
X208030218Y-54040000D01*
X217034062Y-54040000D01*
X217101101Y-54059685D01*
X217121743Y-54076319D01*
X217346181Y-54300757D01*
X217379666Y-54362080D01*
X217382500Y-54388438D01*
X217382500Y-54498635D01*
X217362815Y-54565674D01*
X217320189Y-54603887D01*
X217321118Y-54605387D01*
X217142451Y-54716013D01*
X217142449Y-54716014D01*
X217142447Y-54716016D01*
X217081757Y-54771342D01*
X216991380Y-54853731D01*
X216868193Y-55016857D01*
X216777077Y-55199842D01*
X216777074Y-55199848D01*
X216721136Y-55396453D01*
X216721135Y-55396456D01*
X216702275Y-55599999D01*
X216702275Y-55600000D01*
X216721135Y-55803543D01*
X216721136Y-55803546D01*
X216777074Y-56000151D01*
X216777077Y-56000157D01*
X216834431Y-56115338D01*
X216868193Y-56183142D01*
X216991381Y-56346270D01*
X217142447Y-56483984D01*
X217316244Y-56591595D01*
X217506857Y-56665438D01*
X217707792Y-56703000D01*
X217707795Y-56703000D01*
X217912205Y-56703000D01*
X217912208Y-56703000D01*
X218113143Y-56665438D01*
X218303756Y-56591595D01*
X218477553Y-56483984D01*
X218628619Y-56346270D01*
X218751807Y-56183142D01*
X218751809Y-56183138D01*
X218754824Y-56178270D01*
X218756568Y-56179349D01*
X218797855Y-56134805D01*
X218865515Y-56117374D01*
X218931859Y-56139291D01*
X218949046Y-56153622D01*
X219357508Y-56562085D01*
X219454991Y-56618367D01*
X219563718Y-56647500D01*
X219563719Y-56647500D01*
X220648000Y-56647500D01*
X220715039Y-56667185D01*
X220760794Y-56719989D01*
X220772000Y-56771500D01*
X220772000Y-57002442D01*
X220771999Y-57002442D01*
X220786815Y-57095987D01*
X220786816Y-57095990D01*
X220810364Y-57142204D01*
X220823261Y-57210874D01*
X220796985Y-57275614D01*
X220739879Y-57315872D01*
X220699880Y-57322500D01*
X213678438Y-57322500D01*
X213611399Y-57302815D01*
X213590757Y-57286181D01*
X213193819Y-56889243D01*
X213160334Y-56827920D01*
X213157500Y-56801562D01*
X213157500Y-56701364D01*
X213177185Y-56634325D01*
X213219811Y-56596115D01*
X213218881Y-56594613D01*
X213223753Y-56591595D01*
X213223756Y-56591595D01*
X213397553Y-56483984D01*
X213548619Y-56346270D01*
X213671807Y-56183142D01*
X213762923Y-56000156D01*
X213762923Y-56000153D01*
X213762925Y-56000151D01*
X213812123Y-55827235D01*
X213818864Y-55803544D01*
X213837725Y-55600000D01*
X213824927Y-55461892D01*
X213818864Y-55396456D01*
X213818863Y-55396453D01*
X213818831Y-55396342D01*
X213810739Y-55367902D01*
X213762925Y-55199848D01*
X213762922Y-55199842D01*
X213739505Y-55152815D01*
X213671807Y-55016858D01*
X213548619Y-54853730D01*
X213397553Y-54716016D01*
X213223756Y-54608405D01*
X213223754Y-54608404D01*
X213033146Y-54534563D01*
X213033145Y-54534562D01*
X213033143Y-54534562D01*
X212832208Y-54497000D01*
X212627792Y-54497000D01*
X212426857Y-54534562D01*
X212426855Y-54534562D01*
X212426853Y-54534563D01*
X212236245Y-54608404D01*
X212236243Y-54608405D01*
X212062451Y-54716013D01*
X212062449Y-54716014D01*
X212062447Y-54716016D01*
X212001757Y-54771342D01*
X211911380Y-54853731D01*
X211788193Y-55016857D01*
X211697077Y-55199842D01*
X211697074Y-55199848D01*
X211641136Y-55396453D01*
X211641135Y-55396456D01*
X211622275Y-55599999D01*
X211622275Y-55600000D01*
X211641135Y-55803543D01*
X211641136Y-55803546D01*
X211697074Y-56000151D01*
X211697077Y-56000157D01*
X211754431Y-56115338D01*
X211788193Y-56183142D01*
X211911381Y-56346270D01*
X212062447Y-56483984D01*
X212236244Y-56591595D01*
X212236246Y-56591595D01*
X212241119Y-56594613D01*
X212240111Y-56596240D01*
X212285008Y-56637866D01*
X212302500Y-56701364D01*
X212302500Y-56973719D01*
X212302500Y-57086281D01*
X212305102Y-57095991D01*
X212331633Y-57195010D01*
X212359774Y-57243750D01*
X212387915Y-57292491D01*
X212387916Y-57292492D01*
X212660243Y-57564819D01*
X212693728Y-57626142D01*
X212688744Y-57695834D01*
X212646872Y-57751767D01*
X212581408Y-57776184D01*
X212572562Y-57776500D01*
X211832438Y-57776500D01*
X211765399Y-57756815D01*
X211744757Y-57740181D01*
X210919256Y-56914680D01*
X210885771Y-56853357D01*
X210890755Y-56783665D01*
X210932627Y-56727732D01*
X210998091Y-56703315D01*
X211006937Y-56702999D01*
X211037356Y-56702999D01*
X211037364Y-56702999D01*
X211037379Y-56702997D01*
X211037382Y-56702997D01*
X211062487Y-56700086D01*
X211062488Y-56700085D01*
X211062491Y-56700085D01*
X211165265Y-56654706D01*
X211244706Y-56575265D01*
X211290085Y-56472491D01*
X211293000Y-56447365D01*
X211292999Y-54752636D01*
X211292997Y-54752617D01*
X211290086Y-54727512D01*
X211290085Y-54727510D01*
X211290085Y-54727509D01*
X211244706Y-54624735D01*
X211165265Y-54545294D01*
X211131384Y-54530334D01*
X211062492Y-54499915D01*
X211037365Y-54497000D01*
X209342643Y-54497000D01*
X209342617Y-54497002D01*
X209317512Y-54499913D01*
X209317508Y-54499915D01*
X209214735Y-54545293D01*
X209135294Y-54624734D01*
X209089915Y-54727506D01*
X209089915Y-54727508D01*
X209087000Y-54752631D01*
X209087000Y-56447356D01*
X209087002Y-56447382D01*
X209089913Y-56472487D01*
X209089915Y-56472491D01*
X209135293Y-56575264D01*
X209135294Y-56575265D01*
X209214735Y-56654706D01*
X209317509Y-56700085D01*
X209342635Y-56703000D01*
X209638501Y-56702999D01*
X209705539Y-56722683D01*
X209751294Y-56775487D01*
X209762500Y-56826999D01*
X209762500Y-56846280D01*
X209791633Y-56955010D01*
X209802435Y-56973719D01*
X209847915Y-57052491D01*
X211341509Y-58546085D01*
X211438991Y-58602367D01*
X211547719Y-58631500D01*
X211547721Y-58631500D01*
X233402279Y-58631500D01*
X233402281Y-58631500D01*
X233511009Y-58602367D01*
X233608491Y-58546085D01*
X234564585Y-57589992D01*
X234620867Y-57492509D01*
X234636764Y-57433178D01*
X234673127Y-57373521D01*
X234700237Y-57354793D01*
X234801208Y-57303346D01*
X234869873Y-57290450D01*
X234913788Y-57303344D01*
X235016509Y-57355683D01*
X235016510Y-57355683D01*
X235016512Y-57355684D01*
X235110057Y-57370500D01*
X235110058Y-57370500D01*
X235874942Y-57370500D01*
X235968487Y-57355684D01*
X235968488Y-57355684D01*
X235968489Y-57355683D01*
X235968491Y-57355683D01*
X236071207Y-57303346D01*
X236139874Y-57290451D01*
X236183791Y-57303346D01*
X236286509Y-57355683D01*
X236286510Y-57355683D01*
X236286512Y-57355684D01*
X236380057Y-57370500D01*
X236380058Y-57370500D01*
X237144942Y-57370500D01*
X237238487Y-57355684D01*
X237238488Y-57355684D01*
X237238489Y-57355683D01*
X237238491Y-57355683D01*
X237351247Y-57298231D01*
X237440731Y-57208747D01*
X237498183Y-57095991D01*
X237498183Y-57095989D01*
X237498184Y-57095988D01*
X237498184Y-57095987D01*
X237513000Y-57002442D01*
X237513000Y-55437557D01*
X237498184Y-55344012D01*
X237498184Y-55344011D01*
X237495288Y-55338328D01*
X237440731Y-55231253D01*
X237440727Y-55231249D01*
X237440726Y-55231247D01*
X237351252Y-55141773D01*
X237351249Y-55141771D01*
X237351247Y-55141769D01*
X237257705Y-55094107D01*
X237206909Y-55046132D01*
X237190000Y-54983622D01*
X237190000Y-52656221D01*
X237190000Y-52656219D01*
X237160867Y-52547491D01*
X237104585Y-52450009D01*
X237024991Y-52370415D01*
X236262491Y-51607915D01*
X236213750Y-51579774D01*
X236165010Y-51551633D01*
X236110645Y-51537066D01*
X236056281Y-51522500D01*
X236056280Y-51522500D01*
X227733197Y-51522500D01*
X227666158Y-51502815D01*
X227657711Y-51496876D01*
X227653597Y-51493719D01*
X227575841Y-51434055D01*
X227575838Y-51434053D01*
X227575837Y-51434053D01*
X227429762Y-51373547D01*
X227429760Y-51373546D01*
X227273001Y-51352909D01*
X227272998Y-51352909D01*
X227170184Y-51366444D01*
X227101149Y-51355678D01*
X227048894Y-51309298D01*
X227033018Y-51254016D01*
X227031060Y-51254274D01*
X227028939Y-51238160D01*
X227029800Y-51238046D01*
X227027500Y-51220563D01*
X227027500Y-49421392D01*
X227047185Y-49354353D01*
X227053117Y-49345915D01*
X227124536Y-49252841D01*
X227185044Y-49106762D01*
X227205682Y-48950000D01*
X227203902Y-48936482D01*
X227185044Y-48793239D01*
X227185044Y-48793238D01*
X227124536Y-48647159D01*
X227028282Y-48521718D01*
X226902841Y-48425464D01*
X226756762Y-48364956D01*
X226756760Y-48364955D01*
X226600001Y-48344318D01*
X226599999Y-48344318D01*
X226443239Y-48364955D01*
X226443237Y-48364956D01*
X226297160Y-48425463D01*
X226171718Y-48521718D01*
X226075463Y-48647160D01*
X226014956Y-48793237D01*
X226014955Y-48793239D01*
X225994318Y-48949998D01*
X225994318Y-48950001D01*
X226014955Y-49106760D01*
X226014956Y-49106762D01*
X226075464Y-49252842D01*
X226080604Y-49259540D01*
X226146875Y-49345906D01*
X226172070Y-49411074D01*
X226172500Y-49421392D01*
X226172500Y-51356279D01*
X226173561Y-51364337D01*
X226172697Y-51364450D01*
X226175000Y-51381934D01*
X226175000Y-54983622D01*
X226155315Y-55050661D01*
X226107294Y-55094107D01*
X226023794Y-55136652D01*
X225955125Y-55149548D01*
X225911206Y-55136652D01*
X225827706Y-55094107D01*
X225776909Y-55046133D01*
X225760000Y-54983622D01*
X225760000Y-53026221D01*
X225760000Y-53026219D01*
X225730867Y-52917491D01*
X225674585Y-52820008D01*
X225485613Y-52631036D01*
X225452128Y-52569713D01*
X225450355Y-52559540D01*
X225449510Y-52553124D01*
X225435044Y-52443238D01*
X225374536Y-52297159D01*
X225278282Y-52171718D01*
X225152841Y-52075464D01*
X225073582Y-52042634D01*
X225006762Y-52014956D01*
X225006760Y-52014955D01*
X224850001Y-51994318D01*
X224849999Y-51994318D01*
X224693239Y-52014955D01*
X224693237Y-52014956D01*
X224547160Y-52075463D01*
X224421718Y-52171718D01*
X224325463Y-52297160D01*
X224264956Y-52443237D01*
X224264956Y-52443239D01*
X224255064Y-52518373D01*
X224226797Y-52582269D01*
X224168472Y-52620740D01*
X224098608Y-52621571D01*
X224044444Y-52589868D01*
X222312493Y-50857917D01*
X222312491Y-50857915D01*
X222215009Y-50801633D01*
X222215008Y-50801632D01*
X222211640Y-50799688D01*
X222185089Y-50776402D01*
X222184028Y-50777464D01*
X222178281Y-50771717D01*
X222149816Y-50749875D01*
X222108614Y-50693447D01*
X222104459Y-50623701D01*
X222138672Y-50562781D01*
X222200389Y-50530029D01*
X222225303Y-50527500D01*
X223656279Y-50527500D01*
X223656281Y-50527500D01*
X223765009Y-50498367D01*
X223862491Y-50442085D01*
X227292085Y-47012492D01*
X227348367Y-46915009D01*
X227351741Y-46902415D01*
X227377500Y-46806281D01*
X227377500Y-44278438D01*
X227397185Y-44211399D01*
X227413819Y-44190757D01*
X228447134Y-43157442D01*
X229542085Y-42062491D01*
X229598367Y-41965009D01*
X229611637Y-41915478D01*
X229633033Y-41872089D01*
X229724536Y-41752841D01*
X229785044Y-41606762D01*
X229805682Y-41450000D01*
X229785044Y-41293238D01*
X229724536Y-41147159D01*
X229724535Y-41147158D01*
X229724535Y-41147157D01*
X229663401Y-41067486D01*
X229638207Y-41002317D01*
X229652245Y-40933872D01*
X229701059Y-40883883D01*
X229761777Y-40868000D01*
X236210870Y-40868000D01*
X236291190Y-40852022D01*
X236330264Y-40844250D01*
X236430235Y-40802841D01*
X236442729Y-40797666D01*
X236442730Y-40797665D01*
X236442733Y-40797664D01*
X236543952Y-40730032D01*
X236630032Y-40643952D01*
X237242532Y-40031452D01*
X237276943Y-39979952D01*
X237310164Y-39930233D01*
X237333234Y-39874536D01*
X237356751Y-39817763D01*
X237380500Y-39698368D01*
X237380500Y-39576632D01*
X237380500Y-39320340D01*
X237400185Y-39253301D01*
X237416815Y-39232662D01*
X237440731Y-39208747D01*
X237498183Y-39095991D01*
X237498183Y-39095989D01*
X237498184Y-39095988D01*
X237498184Y-39095987D01*
X237513000Y-39002442D01*
X237513000Y-37437557D01*
X237498184Y-37344012D01*
X237498184Y-37344011D01*
X237492837Y-37333517D01*
X237440731Y-37231253D01*
X237440727Y-37231249D01*
X237440726Y-37231247D01*
X237416819Y-37207340D01*
X237383334Y-37146017D01*
X237380500Y-37119659D01*
X237380500Y-36214129D01*
X237377883Y-36200974D01*
X237375500Y-36176782D01*
X237375500Y-35770381D01*
X237365117Y-35683925D01*
X237365117Y-35683924D01*
X237365117Y-35683923D01*
X237359621Y-35669988D01*
X237353341Y-35600403D01*
X237385678Y-35538467D01*
X237446367Y-35503846D01*
X237474977Y-35500500D01*
X239025500Y-35500500D01*
X239092539Y-35520185D01*
G37*
%TD.AperFunction*%
%TA.AperFunction,Conductor*%
G36*
X201896227Y-52425185D02*
G01*
X201941982Y-52477989D01*
X201952126Y-52545691D01*
X201949643Y-52564545D01*
X201921374Y-52628440D01*
X201914386Y-52636035D01*
X200914243Y-53636181D01*
X200852920Y-53669666D01*
X200826562Y-53672500D01*
X200343718Y-53672500D01*
X200234989Y-53701633D01*
X200137508Y-53757915D01*
X200137505Y-53757917D01*
X198549466Y-55345956D01*
X198488143Y-55379441D01*
X198418451Y-55374457D01*
X198362981Y-55333200D01*
X198321500Y-55278499D01*
X198203660Y-55189139D01*
X198203658Y-55189138D01*
X198066077Y-55134883D01*
X198066076Y-55134882D01*
X198066074Y-55134882D01*
X197979619Y-55124500D01*
X197979618Y-55124500D01*
X197420382Y-55124500D01*
X197420381Y-55124500D01*
X197333925Y-55134882D01*
X197333924Y-55134882D01*
X197196339Y-55189139D01*
X197078499Y-55278499D01*
X196989139Y-55396340D01*
X196987585Y-55399104D01*
X196985503Y-55401134D01*
X196984013Y-55403100D01*
X196983717Y-55402876D01*
X196937569Y-55447891D01*
X196869116Y-55461892D01*
X196803961Y-55436663D01*
X196762788Y-55380213D01*
X196755500Y-55338328D01*
X196755500Y-53769846D01*
X196775185Y-53702807D01*
X196791819Y-53682165D01*
X198032165Y-52441819D01*
X198093488Y-52408334D01*
X198119846Y-52405500D01*
X201389132Y-52405500D01*
X201510868Y-52405500D01*
X201829188Y-52405500D01*
X201896227Y-52425185D01*
G37*
%TD.AperFunction*%
%TA.AperFunction,Conductor*%
G36*
X235838601Y-52397185D02*
G01*
X235859243Y-52413819D01*
X236298681Y-52853257D01*
X236332166Y-52914580D01*
X236335000Y-52940938D01*
X236335000Y-54983622D01*
X236315315Y-55050661D01*
X236267294Y-55094107D01*
X236183794Y-55136652D01*
X236115125Y-55149548D01*
X236071206Y-55136652D01*
X235968491Y-55084316D01*
X235968487Y-55084315D01*
X235874942Y-55069500D01*
X235110058Y-55069500D01*
X235016512Y-55084315D01*
X235016508Y-55084316D01*
X234913794Y-55136652D01*
X234845125Y-55149548D01*
X234801206Y-55136652D01*
X234698491Y-55084316D01*
X234698487Y-55084315D01*
X234604942Y-55069500D01*
X233840058Y-55069500D01*
X233746512Y-55084315D01*
X233746508Y-55084316D01*
X233643794Y-55136652D01*
X233575125Y-55149548D01*
X233531206Y-55136652D01*
X233428491Y-55084316D01*
X233428487Y-55084315D01*
X233334942Y-55069500D01*
X232570058Y-55069500D01*
X232476512Y-55084315D01*
X232476508Y-55084316D01*
X232373794Y-55136652D01*
X232305125Y-55149548D01*
X232261206Y-55136652D01*
X232158491Y-55084316D01*
X232158487Y-55084315D01*
X232064942Y-55069500D01*
X231300058Y-55069500D01*
X231206512Y-55084315D01*
X231206508Y-55084316D01*
X231103794Y-55136652D01*
X231035125Y-55149548D01*
X230991206Y-55136652D01*
X230888491Y-55084316D01*
X230888487Y-55084315D01*
X230794942Y-55069500D01*
X230030058Y-55069500D01*
X229936512Y-55084315D01*
X229936508Y-55084316D01*
X229833794Y-55136652D01*
X229765125Y-55149548D01*
X229721208Y-55136653D01*
X229691518Y-55121526D01*
X229640721Y-55073553D01*
X229623924Y-55005732D01*
X229646460Y-54939597D01*
X229649411Y-54935584D01*
X229674536Y-54902841D01*
X229735044Y-54756762D01*
X229753061Y-54619909D01*
X229755682Y-54600001D01*
X229755682Y-54599998D01*
X229735044Y-54443239D01*
X229735044Y-54443238D01*
X229674536Y-54297159D01*
X229578282Y-54171718D01*
X229452841Y-54075464D01*
X229423636Y-54063367D01*
X229306762Y-54014956D01*
X229306760Y-54014955D01*
X229150001Y-53994318D01*
X229149999Y-53994318D01*
X228993239Y-54014955D01*
X228993237Y-54014956D01*
X228847160Y-54075463D01*
X228721718Y-54171718D01*
X228625463Y-54297160D01*
X228564956Y-54443237D01*
X228564955Y-54443239D01*
X228546939Y-54580090D01*
X228539803Y-54596220D01*
X228542977Y-54601159D01*
X228546939Y-54619909D01*
X228564955Y-54756760D01*
X228564957Y-54756765D01*
X228625461Y-54902836D01*
X228625464Y-54902841D01*
X228646349Y-54930059D01*
X228671543Y-54995228D01*
X228657505Y-55063673D01*
X228608691Y-55113662D01*
X228604268Y-55116030D01*
X228563795Y-55136652D01*
X228495126Y-55149548D01*
X228451206Y-55136652D01*
X228367706Y-55094107D01*
X228316909Y-55046133D01*
X228300000Y-54983622D01*
X228300000Y-54636094D01*
X228310171Y-54601455D01*
X228301481Y-54583011D01*
X228300000Y-54563905D01*
X228300000Y-53107232D01*
X228319685Y-53040193D01*
X228325624Y-53031746D01*
X228395303Y-52940938D01*
X228424536Y-52902841D01*
X228485044Y-52756762D01*
X228505682Y-52600000D01*
X228500978Y-52564273D01*
X228494845Y-52517685D01*
X228505610Y-52448650D01*
X228551990Y-52396394D01*
X228617784Y-52377500D01*
X235771562Y-52377500D01*
X235838601Y-52397185D01*
G37*
%TD.AperFunction*%
%TA.AperFunction,Conductor*%
G36*
X233979562Y-35520185D02*
G01*
X234025317Y-35572989D01*
X234035261Y-35642147D01*
X234027879Y-35669985D01*
X234025317Y-35676481D01*
X234022382Y-35683924D01*
X234022382Y-35683925D01*
X234012000Y-35770381D01*
X234012000Y-36329618D01*
X234022382Y-36416074D01*
X234022382Y-36416075D01*
X234076639Y-36553660D01*
X234165999Y-36671500D01*
X234283839Y-36760860D01*
X234283842Y-36760862D01*
X234421423Y-36815117D01*
X234456996Y-36819389D01*
X234481943Y-36822385D01*
X234546157Y-36849922D01*
X234554773Y-36862666D01*
X234560097Y-36854637D01*
X234624061Y-36826523D01*
X234639954Y-36825500D01*
X235075046Y-36825500D01*
X235142085Y-36845185D01*
X235151664Y-36856240D01*
X235197907Y-36826523D01*
X235218057Y-36822385D01*
X235226213Y-36821405D01*
X235278577Y-36815117D01*
X235416158Y-36760862D01*
X235505389Y-36693195D01*
X235570700Y-36668373D01*
X235580314Y-36668000D01*
X235807186Y-36668000D01*
X235874225Y-36687685D01*
X235882105Y-36693192D01*
X235971342Y-36760862D01*
X236065991Y-36798187D01*
X236121133Y-36841091D01*
X236144327Y-36906998D01*
X236144500Y-36913540D01*
X236144500Y-36971648D01*
X236124815Y-37038687D01*
X236072011Y-37084442D01*
X236002853Y-37094386D01*
X235978034Y-37086518D01*
X235977770Y-37087332D01*
X235968487Y-37084315D01*
X235874942Y-37069500D01*
X235232842Y-37069500D01*
X235165803Y-37049815D01*
X235156223Y-37038759D01*
X235109981Y-37068477D01*
X235094443Y-37071973D01*
X235016512Y-37084315D01*
X235016508Y-37084316D01*
X234913794Y-37136652D01*
X234845125Y-37149548D01*
X234801206Y-37136652D01*
X234698491Y-37084316D01*
X234698487Y-37084315D01*
X234620557Y-37071973D01*
X234557422Y-37042044D01*
X234552473Y-37034096D01*
X234550520Y-37037297D01*
X234487657Y-37067794D01*
X234467158Y-37069500D01*
X233840058Y-37069500D01*
X233746512Y-37084315D01*
X233746508Y-37084316D01*
X233643794Y-37136652D01*
X233575125Y-37149548D01*
X233531206Y-37136652D01*
X233428491Y-37084316D01*
X233428487Y-37084315D01*
X233334942Y-37069500D01*
X232570058Y-37069500D01*
X232476512Y-37084315D01*
X232476508Y-37084316D01*
X232373794Y-37136652D01*
X232305125Y-37149548D01*
X232261206Y-37136652D01*
X232158491Y-37084316D01*
X232158487Y-37084315D01*
X232064942Y-37069500D01*
X231300058Y-37069500D01*
X231206512Y-37084315D01*
X231206508Y-37084316D01*
X231103794Y-37136652D01*
X231035125Y-37149548D01*
X230991206Y-37136652D01*
X230888491Y-37084316D01*
X230888487Y-37084315D01*
X230794942Y-37069500D01*
X230030058Y-37069500D01*
X229936512Y-37084315D01*
X229936508Y-37084316D01*
X229833794Y-37136652D01*
X229765125Y-37149548D01*
X229721206Y-37136652D01*
X229618491Y-37084316D01*
X229618487Y-37084315D01*
X229524942Y-37069500D01*
X228760058Y-37069500D01*
X228666512Y-37084315D01*
X228666508Y-37084316D01*
X228563794Y-37136652D01*
X228495125Y-37149548D01*
X228451206Y-37136652D01*
X228348491Y-37084316D01*
X228348487Y-37084315D01*
X228254942Y-37069500D01*
X227490058Y-37069500D01*
X227396512Y-37084315D01*
X227396508Y-37084316D01*
X227293794Y-37136652D01*
X227225125Y-37149548D01*
X227181206Y-37136652D01*
X227078491Y-37084316D01*
X227078487Y-37084315D01*
X226984942Y-37069500D01*
X226220058Y-37069500D01*
X226126512Y-37084315D01*
X226126508Y-37084316D01*
X226023794Y-37136652D01*
X225955125Y-37149548D01*
X225911206Y-37136652D01*
X225808491Y-37084316D01*
X225808487Y-37084315D01*
X225714942Y-37069500D01*
X224950058Y-37069500D01*
X224856512Y-37084315D01*
X224856508Y-37084316D01*
X224753794Y-37136652D01*
X224685125Y-37149548D01*
X224641206Y-37136652D01*
X224538491Y-37084316D01*
X224538487Y-37084315D01*
X224444942Y-37069500D01*
X223680058Y-37069500D01*
X223586512Y-37084315D01*
X223586508Y-37084316D01*
X223483794Y-37136652D01*
X223415125Y-37149548D01*
X223371206Y-37136652D01*
X223268491Y-37084316D01*
X223268487Y-37084315D01*
X223174942Y-37069500D01*
X222410058Y-37069500D01*
X222316512Y-37084315D01*
X222316508Y-37084316D01*
X222213794Y-37136652D01*
X222145125Y-37149548D01*
X222101206Y-37136652D01*
X221998491Y-37084316D01*
X221998487Y-37084315D01*
X221904942Y-37069500D01*
X221140058Y-37069500D01*
X221046512Y-37084315D01*
X221046511Y-37084315D01*
X220977146Y-37119659D01*
X220933753Y-37141769D01*
X220933752Y-37141770D01*
X220933747Y-37141773D01*
X220844273Y-37231247D01*
X220844270Y-37231252D01*
X220786815Y-37344011D01*
X220786815Y-37344012D01*
X220772000Y-37437557D01*
X220772000Y-37478000D01*
X220752315Y-37545039D01*
X220699511Y-37590794D01*
X220648000Y-37602000D01*
X218724487Y-37602000D01*
X218657448Y-37582315D01*
X218611693Y-37529511D01*
X218600708Y-37485407D01*
X218600499Y-37481917D01*
X218600499Y-37481902D01*
X218589876Y-37393436D01*
X218534361Y-37252658D01*
X218518129Y-37231253D01*
X218442922Y-37132077D01*
X218322344Y-37040640D01*
X218322342Y-37040639D01*
X218181564Y-36985124D01*
X218181561Y-36985123D01*
X218093099Y-36974500D01*
X217081908Y-36974500D01*
X216993437Y-36985123D01*
X216852657Y-37040639D01*
X216852655Y-37040640D01*
X216732077Y-37132077D01*
X216640640Y-37252655D01*
X216640639Y-37252658D01*
X216588498Y-37384882D01*
X216585124Y-37393437D01*
X216585123Y-37393438D01*
X216574500Y-37481900D01*
X216574500Y-38818091D01*
X216585123Y-38906562D01*
X216640639Y-39047342D01*
X216640640Y-39047344D01*
X216732077Y-39167922D01*
X216852655Y-39259359D01*
X216852658Y-39259361D01*
X216993436Y-39314876D01*
X217081901Y-39325500D01*
X218093098Y-39325499D01*
X218181564Y-39314876D01*
X218322342Y-39259361D01*
X218442922Y-39167922D01*
X218534361Y-39047342D01*
X218585953Y-38916509D01*
X218628859Y-38861366D01*
X218694766Y-38838173D01*
X218701308Y-38838000D01*
X220648000Y-38838000D01*
X220715039Y-38857685D01*
X220760794Y-38910489D01*
X220772000Y-38962000D01*
X220772000Y-39002442D01*
X220771999Y-39002442D01*
X220786815Y-39095987D01*
X220786815Y-39095988D01*
X220786817Y-39095991D01*
X220844269Y-39208747D01*
X220844271Y-39208749D01*
X220844273Y-39208752D01*
X220933747Y-39298226D01*
X220933749Y-39298227D01*
X220933753Y-39298231D01*
X221046509Y-39355683D01*
X221046510Y-39355683D01*
X221046512Y-39355684D01*
X221140057Y-39370500D01*
X221140058Y-39370500D01*
X221904942Y-39370500D01*
X221998487Y-39355684D01*
X221998489Y-39355683D01*
X221998491Y-39355683D01*
X222040473Y-39334291D01*
X222109141Y-39321395D01*
X222173882Y-39347670D01*
X222210607Y-39399766D01*
X222211846Y-39399253D01*
X222214126Y-39404757D01*
X222214139Y-39404776D01*
X222214153Y-39404823D01*
X222214955Y-39406761D01*
X222214956Y-39406762D01*
X222234654Y-39454318D01*
X222237235Y-39460547D01*
X222244704Y-39530016D01*
X222213429Y-39592496D01*
X222153340Y-39628148D01*
X222122674Y-39632000D01*
X213689130Y-39632000D01*
X213569741Y-39655748D01*
X213569731Y-39655751D01*
X213457268Y-39702334D01*
X213457264Y-39702336D01*
X213382938Y-39752000D01*
X213382938Y-39752001D01*
X213356045Y-39769969D01*
X213356044Y-39769970D01*
X211846707Y-41279309D01*
X211356048Y-41769968D01*
X211305968Y-41820048D01*
X211269968Y-41856048D01*
X211202333Y-41957270D01*
X211155751Y-42069731D01*
X211155748Y-42069741D01*
X211132000Y-42189129D01*
X211132000Y-45731360D01*
X211112315Y-45798399D01*
X211059511Y-45844154D01*
X211024186Y-45854299D01*
X210943238Y-45864956D01*
X210943237Y-45864956D01*
X210797160Y-45925463D01*
X210671718Y-46021718D01*
X210575463Y-46147160D01*
X210514956Y-46293237D01*
X210514955Y-46293239D01*
X210494318Y-46449998D01*
X210494318Y-46450001D01*
X210514955Y-46606760D01*
X210514956Y-46606762D01*
X210573957Y-46749204D01*
X210575464Y-46752841D01*
X210661493Y-46864956D01*
X210671719Y-46878283D01*
X210712564Y-46909624D01*
X210753767Y-46966052D01*
X210757922Y-47035798D01*
X210723710Y-47096718D01*
X210661992Y-47129471D01*
X210637078Y-47132000D01*
X210292814Y-47132000D01*
X210225775Y-47112315D01*
X210217889Y-47106804D01*
X210194284Y-47088904D01*
X210128659Y-47039139D01*
X210128660Y-47039139D01*
X210128658Y-47039138D01*
X209991077Y-46984883D01*
X209991076Y-46984882D01*
X209991074Y-46984882D01*
X209904619Y-46974500D01*
X209904618Y-46974500D01*
X209220382Y-46974500D01*
X209220381Y-46974500D01*
X209133925Y-46984882D01*
X209133924Y-46984882D01*
X208996339Y-47039139D01*
X208878499Y-47128499D01*
X208789139Y-47246339D01*
X208734882Y-47383924D01*
X208734882Y-47383925D01*
X208724500Y-47470381D01*
X208724500Y-48029618D01*
X208734882Y-48116074D01*
X208734882Y-48116075D01*
X208789139Y-48253660D01*
X208878499Y-48371500D01*
X208996339Y-48460860D01*
X208996342Y-48460862D01*
X209133923Y-48515117D01*
X209174584Y-48520000D01*
X209220381Y-48525500D01*
X209220382Y-48525500D01*
X209904619Y-48525500D01*
X209926232Y-48522904D01*
X209991077Y-48515117D01*
X210128658Y-48460862D01*
X210217889Y-48393195D01*
X210283200Y-48368373D01*
X210292814Y-48368000D01*
X211008000Y-48368000D01*
X211075039Y-48387685D01*
X211120794Y-48440489D01*
X211132000Y-48492000D01*
X211132000Y-49992654D01*
X211112315Y-50059693D01*
X211095681Y-50080335D01*
X210042835Y-51133181D01*
X209981512Y-51166666D01*
X209955154Y-51169500D01*
X207884299Y-51169500D01*
X207817260Y-51149815D01*
X207809374Y-51144304D01*
X207703660Y-51064139D01*
X207703658Y-51064138D01*
X207566077Y-51009883D01*
X207566076Y-51009882D01*
X207566074Y-51009882D01*
X207479619Y-50999500D01*
X207479618Y-50999500D01*
X206920382Y-50999500D01*
X206920381Y-50999500D01*
X206833925Y-51009882D01*
X206833924Y-51009882D01*
X206696339Y-51064139D01*
X206590626Y-51144304D01*
X206525314Y-51169127D01*
X206515701Y-51169500D01*
X203270812Y-51169500D01*
X203203773Y-51149815D01*
X203158018Y-51097011D01*
X203147873Y-51029314D01*
X203150906Y-51006281D01*
X203155682Y-50970000D01*
X203145639Y-50893719D01*
X203140254Y-50852815D01*
X203135044Y-50813238D01*
X203074536Y-50667159D01*
X203074535Y-50667158D01*
X203074535Y-50667157D01*
X203003124Y-50574092D01*
X202977930Y-50508923D01*
X202977500Y-50498606D01*
X202977500Y-47471392D01*
X202997185Y-47404353D01*
X203003117Y-47395915D01*
X203074536Y-47302841D01*
X203135044Y-47156762D01*
X203151068Y-47035044D01*
X203155682Y-47000001D01*
X203155682Y-46999998D01*
X203135044Y-46843239D01*
X203135044Y-46843238D01*
X203074536Y-46697159D01*
X202978282Y-46571718D01*
X202923297Y-46529526D01*
X202882096Y-46473100D01*
X202877941Y-46403354D01*
X202911102Y-46343473D01*
X203542085Y-45712492D01*
X203598367Y-45615009D01*
X203627500Y-45506282D01*
X203627500Y-45393719D01*
X203627500Y-40693719D01*
X203598367Y-40584991D01*
X203542085Y-40487509D01*
X203462491Y-40407915D01*
X202526319Y-39471743D01*
X202492834Y-39410420D01*
X202490000Y-39384062D01*
X202490000Y-38730218D01*
X202509685Y-38663179D01*
X202562489Y-38617424D01*
X202568512Y-38614863D01*
X202578658Y-38610862D01*
X202696500Y-38521500D01*
X202785862Y-38403658D01*
X202840117Y-38266077D01*
X202850500Y-38179618D01*
X202850500Y-37620382D01*
X202850500Y-37620381D01*
X204674500Y-37620381D01*
X204674500Y-38179618D01*
X204684882Y-38266074D01*
X204684882Y-38266075D01*
X204684883Y-38266077D01*
X204730913Y-38382802D01*
X204739139Y-38403660D01*
X204828499Y-38521500D01*
X204946339Y-38610860D01*
X204946342Y-38610862D01*
X205083923Y-38665117D01*
X205141562Y-38672039D01*
X205170381Y-38675500D01*
X205170382Y-38675500D01*
X205854619Y-38675500D01*
X205876232Y-38672904D01*
X205941077Y-38665117D01*
X206078658Y-38610862D01*
X206098575Y-38595757D01*
X206163884Y-38570935D01*
X206232248Y-38585362D01*
X206281960Y-38634459D01*
X206297500Y-38694562D01*
X206297500Y-39275500D01*
X206277815Y-39342539D01*
X206225011Y-39388294D01*
X206173500Y-39399500D01*
X205905143Y-39399500D01*
X205905117Y-39399502D01*
X205880012Y-39402413D01*
X205880008Y-39402415D01*
X205777235Y-39447793D01*
X205697794Y-39527234D01*
X205652415Y-39630006D01*
X205652415Y-39630008D01*
X205649500Y-39655131D01*
X205649500Y-41044856D01*
X205649502Y-41044882D01*
X205652413Y-41069987D01*
X205652415Y-41069991D01*
X205697793Y-41172764D01*
X205697794Y-41172765D01*
X205777235Y-41252206D01*
X205880009Y-41297585D01*
X205905135Y-41300500D01*
X207544864Y-41300499D01*
X207544879Y-41300497D01*
X207544882Y-41300497D01*
X207569987Y-41297586D01*
X207569988Y-41297585D01*
X207569991Y-41297585D01*
X207672765Y-41252206D01*
X207752206Y-41172765D01*
X207797585Y-41069991D01*
X207800500Y-41044865D01*
X207800500Y-40901500D01*
X207820185Y-40834461D01*
X207872989Y-40788706D01*
X207924500Y-40777500D01*
X208356279Y-40777500D01*
X208356281Y-40777500D01*
X208465009Y-40748367D01*
X208562491Y-40692085D01*
X208618962Y-40635612D01*
X208680283Y-40602128D01*
X208690443Y-40600357D01*
X208806762Y-40585044D01*
X208952841Y-40524536D01*
X209078282Y-40428282D01*
X209174536Y-40302841D01*
X209235044Y-40156762D01*
X209255682Y-40000000D01*
X209235044Y-39843238D01*
X209174536Y-39697159D01*
X209078282Y-39571718D01*
X209064119Y-39560850D01*
X209049816Y-39549875D01*
X209008614Y-39493447D01*
X209004459Y-39423701D01*
X209038672Y-39362781D01*
X209100389Y-39330029D01*
X209125303Y-39327500D01*
X209271562Y-39327500D01*
X209338601Y-39347185D01*
X209359243Y-39363819D01*
X210464386Y-40468962D01*
X210497871Y-40530285D01*
X210499644Y-40540457D01*
X210514956Y-40656761D01*
X210514956Y-40656762D01*
X210573319Y-40797664D01*
X210575464Y-40802841D01*
X210671718Y-40928282D01*
X210797159Y-41024536D01*
X210943238Y-41085044D01*
X210983739Y-41090376D01*
X211099999Y-41105682D01*
X211100000Y-41105682D01*
X211100001Y-41105682D01*
X211152254Y-41098802D01*
X211256762Y-41085044D01*
X211402841Y-41024536D01*
X211528282Y-40928282D01*
X211624536Y-40802841D01*
X211685044Y-40656762D01*
X211705682Y-40500000D01*
X211705553Y-40499022D01*
X211685044Y-40343239D01*
X211685044Y-40343238D01*
X211624536Y-40197159D01*
X211528282Y-40071718D01*
X211402841Y-39975464D01*
X211256762Y-39914956D01*
X211215227Y-39909487D01*
X211140457Y-39899644D01*
X211076561Y-39871377D01*
X211068962Y-39864386D01*
X209762493Y-38557917D01*
X209762491Y-38557915D01*
X209690541Y-38516374D01*
X209665010Y-38501633D01*
X209580633Y-38479025D01*
X209556281Y-38472500D01*
X209556280Y-38472500D01*
X208221393Y-38472500D01*
X208154354Y-38452815D01*
X208145920Y-38446885D01*
X208052841Y-38375464D01*
X207906762Y-38314956D01*
X207906760Y-38314955D01*
X207750001Y-38294318D01*
X207749999Y-38294318D01*
X207593239Y-38314955D01*
X207593237Y-38314956D01*
X207447157Y-38375464D01*
X207351986Y-38448492D01*
X207286817Y-38473686D01*
X207218372Y-38459647D01*
X207168382Y-38410833D01*
X207152500Y-38350116D01*
X207152500Y-38218719D01*
X207150396Y-38210868D01*
X207150395Y-38210863D01*
X207123367Y-38109992D01*
X207123367Y-38109991D01*
X207067085Y-38012508D01*
X206924958Y-37870381D01*
X211987000Y-37870381D01*
X211987000Y-38429618D01*
X211997382Y-38516074D01*
X211997382Y-38516075D01*
X212051639Y-38653660D01*
X212140999Y-38771500D01*
X212231976Y-38840489D01*
X212258842Y-38860862D01*
X212396423Y-38915117D01*
X212454062Y-38922039D01*
X212482881Y-38925500D01*
X212482882Y-38925500D01*
X213067119Y-38925500D01*
X213088732Y-38922904D01*
X213153577Y-38915117D01*
X213291158Y-38860862D01*
X213380389Y-38793195D01*
X213445700Y-38768373D01*
X213455314Y-38768000D01*
X213483484Y-38768000D01*
X213550523Y-38787685D01*
X213596278Y-38840489D01*
X213606599Y-38877215D01*
X213610124Y-38906564D01*
X213647933Y-39002442D01*
X213665639Y-39047342D01*
X213665640Y-39047344D01*
X213757077Y-39167922D01*
X213877655Y-39259359D01*
X213877658Y-39259361D01*
X214018436Y-39314876D01*
X214106901Y-39325500D01*
X215118098Y-39325499D01*
X215206564Y-39314876D01*
X215347342Y-39259361D01*
X215467922Y-39167922D01*
X215559361Y-39047342D01*
X215614876Y-38906564D01*
X215625500Y-38818099D01*
X215625499Y-37481902D01*
X215614876Y-37393436D01*
X215559361Y-37252658D01*
X215543129Y-37231253D01*
X215467922Y-37132077D01*
X215347344Y-37040640D01*
X215347342Y-37040639D01*
X215206564Y-36985124D01*
X215206561Y-36985123D01*
X215118099Y-36974500D01*
X214106908Y-36974500D01*
X214018437Y-36985123D01*
X213877657Y-37040639D01*
X213877655Y-37040640D01*
X213757077Y-37132077D01*
X213665640Y-37252655D01*
X213665639Y-37252658D01*
X213610124Y-37393436D01*
X213610124Y-37393437D01*
X213610123Y-37393437D01*
X213606599Y-37422787D01*
X213579061Y-37487000D01*
X213521178Y-37526132D01*
X213483484Y-37532000D01*
X213455314Y-37532000D01*
X213388275Y-37512315D01*
X213380389Y-37506804D01*
X213354273Y-37487000D01*
X213291159Y-37439139D01*
X213291160Y-37439139D01*
X213291158Y-37439138D01*
X213153577Y-37384883D01*
X213153576Y-37384882D01*
X213153574Y-37384882D01*
X213067119Y-37374500D01*
X213067118Y-37374500D01*
X212482882Y-37374500D01*
X212482881Y-37374500D01*
X212396425Y-37384882D01*
X212396424Y-37384882D01*
X212258839Y-37439139D01*
X212140999Y-37528499D01*
X212051639Y-37646339D01*
X211997382Y-37783924D01*
X211997382Y-37783925D01*
X211987000Y-37870381D01*
X206924958Y-37870381D01*
X206612491Y-37557915D01*
X206533511Y-37512315D01*
X206515010Y-37501633D01*
X206460397Y-37487000D01*
X206406281Y-37472500D01*
X206406280Y-37472500D01*
X206400289Y-37472500D01*
X206333250Y-37452815D01*
X206290490Y-37403468D01*
X206290018Y-37403734D01*
X206288718Y-37401423D01*
X206287495Y-37400011D01*
X206286160Y-37396872D01*
X206285860Y-37396339D01*
X206196500Y-37278499D01*
X206078660Y-37189139D01*
X206078658Y-37189138D01*
X205941077Y-37134883D01*
X205941076Y-37134882D01*
X205941074Y-37134882D01*
X205854619Y-37124500D01*
X205854618Y-37124500D01*
X205170382Y-37124500D01*
X205170381Y-37124500D01*
X205083925Y-37134882D01*
X205083924Y-37134882D01*
X204946339Y-37189139D01*
X204828499Y-37278499D01*
X204739139Y-37396339D01*
X204684882Y-37533924D01*
X204684882Y-37533925D01*
X204674500Y-37620381D01*
X202850500Y-37620381D01*
X202848292Y-37602000D01*
X202840117Y-37533925D01*
X202840117Y-37533924D01*
X202840117Y-37533923D01*
X202785862Y-37396342D01*
X202783659Y-37393437D01*
X202696500Y-37278499D01*
X202578660Y-37189139D01*
X202578658Y-37189138D01*
X202441077Y-37134883D01*
X202441076Y-37134882D01*
X202441074Y-37134882D01*
X202354619Y-37124500D01*
X202354618Y-37124500D01*
X201770382Y-37124500D01*
X201770381Y-37124500D01*
X201683925Y-37134882D01*
X201683924Y-37134882D01*
X201546339Y-37189139D01*
X201428499Y-37278500D01*
X201418265Y-37291996D01*
X201362071Y-37333517D01*
X201292350Y-37338066D01*
X201272015Y-37331629D01*
X201231762Y-37314956D01*
X201231760Y-37314955D01*
X201075001Y-37294318D01*
X201074999Y-37294318D01*
X200969779Y-37308170D01*
X200900744Y-37297404D01*
X200879263Y-37282299D01*
X200878259Y-37283625D01*
X200753660Y-37189139D01*
X200753658Y-37189138D01*
X200616077Y-37134883D01*
X200616076Y-37134882D01*
X200616074Y-37134882D01*
X200529619Y-37124500D01*
X200529618Y-37124500D01*
X199945382Y-37124500D01*
X199945381Y-37124500D01*
X199858925Y-37134882D01*
X199858924Y-37134882D01*
X199721339Y-37189139D01*
X199603499Y-37278499D01*
X199514139Y-37396339D01*
X199509982Y-37403734D01*
X199508244Y-37402757D01*
X199472158Y-37449135D01*
X199406250Y-37472327D01*
X199399711Y-37472500D01*
X199143719Y-37472500D01*
X199034989Y-37501633D01*
X198937509Y-37557915D01*
X198937506Y-37557917D01*
X198432917Y-38062506D01*
X198432915Y-38062509D01*
X198376633Y-38159989D01*
X198347500Y-38268719D01*
X198347500Y-39275500D01*
X198327815Y-39342539D01*
X198275011Y-39388294D01*
X198223500Y-39399500D01*
X197955143Y-39399500D01*
X197955117Y-39399502D01*
X197930012Y-39402413D01*
X197930008Y-39402415D01*
X197827235Y-39447793D01*
X197747794Y-39527234D01*
X197702415Y-39630006D01*
X197702415Y-39630008D01*
X197699500Y-39655131D01*
X197699500Y-41044856D01*
X197699502Y-41044882D01*
X197702413Y-41069987D01*
X197702415Y-41069991D01*
X197747793Y-41172764D01*
X197747794Y-41172765D01*
X197827235Y-41252206D01*
X197930009Y-41297585D01*
X197955135Y-41300500D01*
X199594864Y-41300499D01*
X199594879Y-41300497D01*
X199594882Y-41300497D01*
X199619987Y-41297586D01*
X199619988Y-41297585D01*
X199619991Y-41297585D01*
X199722765Y-41252206D01*
X199802206Y-41172765D01*
X199847585Y-41069991D01*
X199850500Y-41044865D01*
X199850499Y-39655136D01*
X199850497Y-39655117D01*
X199847586Y-39630012D01*
X199847585Y-39630010D01*
X199847585Y-39630009D01*
X199802206Y-39527235D01*
X199722765Y-39447794D01*
X199687115Y-39432053D01*
X199619992Y-39402415D01*
X199594868Y-39399500D01*
X199594865Y-39399500D01*
X199326500Y-39399500D01*
X199259461Y-39379815D01*
X199213706Y-39327011D01*
X199202500Y-39275500D01*
X199202500Y-38553438D01*
X199222185Y-38486399D01*
X199238813Y-38465762D01*
X199321776Y-38382799D01*
X199383095Y-38349317D01*
X199452787Y-38354301D01*
X199508721Y-38396172D01*
X199510309Y-38398609D01*
X199603499Y-38521500D01*
X199721339Y-38610860D01*
X199721342Y-38610862D01*
X199858923Y-38665117D01*
X199916562Y-38672039D01*
X199945381Y-38675500D01*
X199945382Y-38675500D01*
X200529619Y-38675500D01*
X200551232Y-38672904D01*
X200616077Y-38665117D01*
X200753658Y-38610862D01*
X200871500Y-38521500D01*
X200871500Y-38521498D01*
X200878259Y-38516374D01*
X200880402Y-38519200D01*
X200927087Y-38493634D01*
X200969776Y-38491829D01*
X201075000Y-38505682D01*
X201075001Y-38505682D01*
X201127254Y-38498802D01*
X201231762Y-38485044D01*
X201272012Y-38468371D01*
X201341478Y-38460902D01*
X201403958Y-38492176D01*
X201418262Y-38508000D01*
X201428500Y-38521500D01*
X201493690Y-38570935D01*
X201526425Y-38595759D01*
X201546342Y-38610862D01*
X201556488Y-38614863D01*
X201611633Y-38657768D01*
X201634827Y-38723676D01*
X201635000Y-38730218D01*
X201635000Y-39556219D01*
X201635000Y-39668781D01*
X201642604Y-39697159D01*
X201664133Y-39777510D01*
X201671976Y-39791094D01*
X201720415Y-39874991D01*
X201720417Y-39874993D01*
X202736181Y-40890757D01*
X202769666Y-40952080D01*
X202772500Y-40978438D01*
X202772500Y-41180933D01*
X202752815Y-41247972D01*
X202700011Y-41293727D01*
X202630853Y-41303671D01*
X202573014Y-41279309D01*
X202502842Y-41225464D01*
X202356762Y-41164956D01*
X202356760Y-41164955D01*
X202200001Y-41144318D01*
X202199999Y-41144318D01*
X202043239Y-41164955D01*
X202043237Y-41164956D01*
X201897160Y-41225463D01*
X201771718Y-41321718D01*
X201675463Y-41447160D01*
X201614956Y-41593237D01*
X201614955Y-41593239D01*
X201594318Y-41749998D01*
X201594318Y-41750001D01*
X201614955Y-41906760D01*
X201614956Y-41906762D01*
X201675464Y-42052842D01*
X201696134Y-42079779D01*
X201746875Y-42145906D01*
X201772070Y-42211074D01*
X201772500Y-42221392D01*
X201772500Y-45321561D01*
X201752815Y-45388600D01*
X201736184Y-45409238D01*
X201696127Y-45449295D01*
X201665600Y-45479823D01*
X201604276Y-45513307D01*
X201534585Y-45508322D01*
X201502433Y-45490517D01*
X201452842Y-45452464D01*
X201306762Y-45391956D01*
X201306760Y-45391955D01*
X201150001Y-45371318D01*
X201149999Y-45371318D01*
X200993239Y-45391955D01*
X200993237Y-45391956D01*
X200847160Y-45452463D01*
X200721718Y-45548718D01*
X200625463Y-45674160D01*
X200564956Y-45820237D01*
X200564955Y-45820239D01*
X200544318Y-45976998D01*
X200544318Y-45977001D01*
X200564955Y-46133760D01*
X200564956Y-46133762D01*
X200616530Y-46258274D01*
X200625464Y-46279841D01*
X200721718Y-46405282D01*
X200847159Y-46501536D01*
X200993238Y-46562044D01*
X201066720Y-46571718D01*
X201149999Y-46582682D01*
X201158127Y-46582682D01*
X201158127Y-46584529D01*
X201217014Y-46593706D01*
X201269275Y-46640081D01*
X201288167Y-46707348D01*
X201267693Y-46774150D01*
X201251857Y-46793566D01*
X201217508Y-46827915D01*
X201182240Y-46863182D01*
X201120916Y-46896667D01*
X201094561Y-46899500D01*
X200885143Y-46899500D01*
X200885117Y-46899502D01*
X200860012Y-46902413D01*
X200860008Y-46902415D01*
X200757235Y-46947793D01*
X200677794Y-47027234D01*
X200632415Y-47130006D01*
X200632415Y-47130008D01*
X200629500Y-47155131D01*
X200629500Y-49444856D01*
X200629502Y-49444882D01*
X200632413Y-49469987D01*
X200632415Y-49469991D01*
X200677793Y-49572764D01*
X200677794Y-49572765D01*
X200757235Y-49652206D01*
X200788088Y-49665829D01*
X200841462Y-49710913D01*
X200861990Y-49777699D01*
X200862000Y-49779262D01*
X200862000Y-51045500D01*
X200842315Y-51112539D01*
X200789511Y-51158294D01*
X200738000Y-51169500D01*
X197751630Y-51169500D01*
X197632241Y-51193248D01*
X197632231Y-51193251D01*
X197519769Y-51239834D01*
X197429725Y-51300000D01*
X197429721Y-51300003D01*
X197418548Y-51307467D01*
X196716865Y-52009149D01*
X196655542Y-52042634D01*
X196585850Y-52037650D01*
X196547983Y-52015182D01*
X196466336Y-51944433D01*
X196466333Y-51944431D01*
X196466331Y-51944430D01*
X196335465Y-51884664D01*
X196335460Y-51884662D01*
X196335459Y-51884662D01*
X196271734Y-51865950D01*
X196268417Y-51864976D01*
X196206347Y-51856052D01*
X196126000Y-51844500D01*
X195106252Y-51844500D01*
X195073751Y-51846629D01*
X195040296Y-51848821D01*
X195040285Y-51848822D01*
X195008201Y-51853045D01*
X195008195Y-51853046D01*
X194943319Y-51865950D01*
X194943317Y-51865950D01*
X194853334Y-51890061D01*
X194832049Y-51893814D01*
X194711017Y-51904404D01*
X194711016Y-51904401D01*
X194710986Y-51904407D01*
X194706781Y-51904774D01*
X194685221Y-51904775D01*
X194684468Y-51904709D01*
X194681009Y-51904406D01*
X194680983Y-51904401D01*
X194680983Y-51904404D01*
X194559952Y-51893814D01*
X194538667Y-51890061D01*
X194448678Y-51865949D01*
X194383805Y-51853046D01*
X194383803Y-51853045D01*
X194356575Y-51849462D01*
X194351712Y-51848822D01*
X194285748Y-51844500D01*
X192566252Y-51844500D01*
X192533751Y-51846629D01*
X192500296Y-51848821D01*
X192500285Y-51848822D01*
X192468201Y-51853045D01*
X192468195Y-51853046D01*
X192403319Y-51865950D01*
X192403317Y-51865950D01*
X192313334Y-51890061D01*
X192292049Y-51893814D01*
X192171017Y-51904404D01*
X192171016Y-51904401D01*
X192170986Y-51904407D01*
X192166781Y-51904774D01*
X192145221Y-51904775D01*
X192144468Y-51904709D01*
X192141009Y-51904406D01*
X192140983Y-51904401D01*
X192140983Y-51904404D01*
X192019952Y-51893814D01*
X191998667Y-51890061D01*
X191908678Y-51865949D01*
X191843805Y-51853046D01*
X191843803Y-51853045D01*
X191816575Y-51849462D01*
X191811712Y-51848822D01*
X191745748Y-51844500D01*
X190074000Y-51844500D01*
X190073991Y-51844500D01*
X190073990Y-51844501D01*
X189966549Y-51856052D01*
X189966537Y-51856054D01*
X189915026Y-51867260D01*
X189913642Y-51867721D01*
X189913303Y-51867733D01*
X189911827Y-51868138D01*
X189911731Y-51867788D01*
X189843816Y-51870205D01*
X189783733Y-51834544D01*
X189752467Y-51772060D01*
X189750500Y-51750061D01*
X189750500Y-40900000D01*
X191003082Y-40900000D01*
X191022712Y-41111843D01*
X191022712Y-41111845D01*
X191022713Y-41111848D01*
X191080936Y-41316482D01*
X191175769Y-41506933D01*
X191303983Y-41676716D01*
X191461212Y-41820048D01*
X191642100Y-41932050D01*
X191840489Y-42008906D01*
X192049622Y-42048000D01*
X192049623Y-42048000D01*
X192050217Y-42048111D01*
X192112498Y-42079779D01*
X192147771Y-42140092D01*
X192144837Y-42209900D01*
X192104628Y-42267040D01*
X192050217Y-42291889D01*
X192049623Y-42292000D01*
X192049622Y-42292000D01*
X191840489Y-42331094D01*
X191840486Y-42331094D01*
X191840486Y-42331095D01*
X191642100Y-42407949D01*
X191642099Y-42407950D01*
X191461216Y-42519949D01*
X191461214Y-42519950D01*
X191461212Y-42519952D01*
X191303983Y-42663284D01*
X191303982Y-42663285D01*
X191175769Y-42833066D01*
X191080937Y-43023514D01*
X191022712Y-43228156D01*
X191003082Y-43440000D01*
X191022712Y-43651843D01*
X191022712Y-43651845D01*
X191022713Y-43651848D01*
X191061311Y-43787506D01*
X191080937Y-43856485D01*
X191149272Y-43993719D01*
X191175769Y-44046933D01*
X191303983Y-44216716D01*
X191461212Y-44360048D01*
X191642100Y-44472050D01*
X191840489Y-44548906D01*
X192049622Y-44588000D01*
X192049623Y-44588000D01*
X192050217Y-44588111D01*
X192112498Y-44619779D01*
X192147771Y-44680092D01*
X192144837Y-44749900D01*
X192104628Y-44807040D01*
X192050217Y-44831889D01*
X192049623Y-44832000D01*
X192049622Y-44832000D01*
X191840489Y-44871094D01*
X191840486Y-44871094D01*
X191840486Y-44871095D01*
X191642100Y-44947949D01*
X191642099Y-44947950D01*
X191461216Y-45059949D01*
X191461214Y-45059950D01*
X191461212Y-45059952D01*
X191336422Y-45173712D01*
X191303982Y-45203285D01*
X191175769Y-45373066D01*
X191080937Y-45563514D01*
X191022712Y-45768156D01*
X191003082Y-45980000D01*
X191022712Y-46191843D01*
X191022712Y-46191845D01*
X191022713Y-46191848D01*
X191060687Y-46325313D01*
X191080937Y-46396485D01*
X191163375Y-46562043D01*
X191175769Y-46586933D01*
X191303983Y-46756716D01*
X191461212Y-46900048D01*
X191642100Y-47012050D01*
X191840489Y-47088906D01*
X192049622Y-47128000D01*
X192049623Y-47128000D01*
X192050217Y-47128111D01*
X192112498Y-47159779D01*
X192147771Y-47220092D01*
X192144837Y-47289900D01*
X192104628Y-47347040D01*
X192050217Y-47371889D01*
X192049623Y-47372000D01*
X192049622Y-47372000D01*
X191840489Y-47411094D01*
X191840486Y-47411094D01*
X191840486Y-47411095D01*
X191642100Y-47487949D01*
X191642099Y-47487950D01*
X191461216Y-47599949D01*
X191461214Y-47599950D01*
X191461212Y-47599952D01*
X191303983Y-47743284D01*
X191303982Y-47743285D01*
X191175769Y-47913066D01*
X191080937Y-48103514D01*
X191022712Y-48308156D01*
X191003082Y-48520000D01*
X191022712Y-48731843D01*
X191022712Y-48731845D01*
X191022713Y-48731848D01*
X191048283Y-48821718D01*
X191080937Y-48936485D01*
X191111149Y-48997159D01*
X191175769Y-49126933D01*
X191303983Y-49296716D01*
X191461212Y-49440048D01*
X191642100Y-49552050D01*
X191840489Y-49628906D01*
X192049622Y-49668000D01*
X192049624Y-49668000D01*
X192262376Y-49668000D01*
X192262378Y-49668000D01*
X192471511Y-49628906D01*
X192669900Y-49552050D01*
X192850788Y-49440048D01*
X193008017Y-49296716D01*
X193136231Y-49126933D01*
X193231064Y-48936482D01*
X193289287Y-48731848D01*
X193302529Y-48588947D01*
X193328315Y-48524009D01*
X193333740Y-48520122D01*
X193304307Y-48463419D01*
X193302529Y-48451053D01*
X193300158Y-48425463D01*
X193289287Y-48308152D01*
X193231064Y-48103518D01*
X193136231Y-47913067D01*
X193008017Y-47743284D01*
X192850788Y-47599952D01*
X192669900Y-47487950D01*
X192669899Y-47487949D01*
X192517427Y-47428882D01*
X192471511Y-47411094D01*
X192262378Y-47372000D01*
X192262376Y-47372000D01*
X192261782Y-47371889D01*
X192199501Y-47340221D01*
X192164228Y-47279908D01*
X192167162Y-47210100D01*
X192207371Y-47152960D01*
X192261782Y-47128111D01*
X192262376Y-47128000D01*
X192262378Y-47128000D01*
X192471511Y-47088906D01*
X192669900Y-47012050D01*
X192850788Y-46900048D01*
X193008017Y-46756716D01*
X193136231Y-46586933D01*
X193231064Y-46396482D01*
X193289287Y-46191848D01*
X193302529Y-46048947D01*
X193328315Y-45984009D01*
X193333740Y-45980122D01*
X193304307Y-45923419D01*
X193302529Y-45911053D01*
X193295513Y-45835341D01*
X193289287Y-45768152D01*
X193231064Y-45563518D01*
X193136231Y-45373067D01*
X193008017Y-45203284D01*
X192850788Y-45059952D01*
X192669900Y-44947950D01*
X192669899Y-44947949D01*
X192524838Y-44891753D01*
X192471511Y-44871094D01*
X192262378Y-44832000D01*
X192262376Y-44832000D01*
X192261782Y-44831889D01*
X192199501Y-44800221D01*
X192164228Y-44739908D01*
X192167162Y-44670100D01*
X192207371Y-44612960D01*
X192261782Y-44588111D01*
X192262376Y-44588000D01*
X192262378Y-44588000D01*
X192471511Y-44548906D01*
X192669900Y-44472050D01*
X192850788Y-44360048D01*
X193008017Y-44216716D01*
X193136231Y-44046933D01*
X193231064Y-43856482D01*
X193289287Y-43651848D01*
X193302529Y-43508947D01*
X193328315Y-43444009D01*
X193333740Y-43440122D01*
X193304307Y-43383419D01*
X193302529Y-43371053D01*
X193301852Y-43363747D01*
X193289287Y-43228152D01*
X193231064Y-43023518D01*
X193136231Y-42833067D01*
X193008017Y-42663284D01*
X192850788Y-42519952D01*
X192669900Y-42407950D01*
X192669899Y-42407949D01*
X192524838Y-42351753D01*
X192471511Y-42331094D01*
X192262378Y-42292000D01*
X192262376Y-42292000D01*
X192261782Y-42291889D01*
X192199501Y-42260221D01*
X192164228Y-42199908D01*
X192167162Y-42130100D01*
X192207371Y-42072960D01*
X192261782Y-42048111D01*
X192262376Y-42048000D01*
X192262378Y-42048000D01*
X192471511Y-42008906D01*
X192669900Y-41932050D01*
X192850788Y-41820048D01*
X193008017Y-41676716D01*
X193136231Y-41506933D01*
X193231064Y-41316482D01*
X193289287Y-41111848D01*
X193302529Y-40968947D01*
X193328315Y-40904009D01*
X193333740Y-40900122D01*
X193333612Y-40899876D01*
X193518259Y-40899876D01*
X193547693Y-40956580D01*
X193549471Y-40968947D01*
X193562712Y-41111843D01*
X193562712Y-41111845D01*
X193562713Y-41111848D01*
X193620936Y-41316482D01*
X193715769Y-41506933D01*
X193843983Y-41676716D01*
X194001212Y-41820048D01*
X194182100Y-41932050D01*
X194380489Y-42008906D01*
X194589622Y-42048000D01*
X194589623Y-42048000D01*
X194590217Y-42048111D01*
X194652498Y-42079779D01*
X194687771Y-42140092D01*
X194684837Y-42209900D01*
X194644628Y-42267040D01*
X194590217Y-42291889D01*
X194589623Y-42292000D01*
X194589622Y-42292000D01*
X194380489Y-42331094D01*
X194380486Y-42331094D01*
X194380486Y-42331095D01*
X194182100Y-42407949D01*
X194182099Y-42407950D01*
X194001216Y-42519949D01*
X194001214Y-42519950D01*
X194001212Y-42519952D01*
X193843983Y-42663284D01*
X193843982Y-42663285D01*
X193715769Y-42833066D01*
X193620937Y-43023514D01*
X193562712Y-43228156D01*
X193549471Y-43371053D01*
X193523685Y-43435990D01*
X193518259Y-43439876D01*
X193547693Y-43496580D01*
X193549471Y-43508947D01*
X193562712Y-43651843D01*
X193562712Y-43651845D01*
X193562713Y-43651848D01*
X193601311Y-43787506D01*
X193620937Y-43856485D01*
X193689272Y-43993719D01*
X193715769Y-44046933D01*
X193843983Y-44216716D01*
X194001212Y-44360048D01*
X194182100Y-44472050D01*
X194380489Y-44548906D01*
X194589622Y-44588000D01*
X194589623Y-44588000D01*
X194590217Y-44588111D01*
X194652498Y-44619779D01*
X194687771Y-44680092D01*
X194684837Y-44749900D01*
X194644628Y-44807040D01*
X194590217Y-44831889D01*
X194589623Y-44832000D01*
X194589622Y-44832000D01*
X194380489Y-44871094D01*
X194380486Y-44871094D01*
X194380486Y-44871095D01*
X194182100Y-44947949D01*
X194182099Y-44947950D01*
X194001216Y-45059949D01*
X194001214Y-45059950D01*
X194001212Y-45059952D01*
X193876422Y-45173712D01*
X193843982Y-45203285D01*
X193715769Y-45373066D01*
X193620937Y-45563514D01*
X193562712Y-45768156D01*
X193549471Y-45911053D01*
X193523685Y-45975990D01*
X193518259Y-45979876D01*
X193547693Y-46036580D01*
X193549471Y-46048947D01*
X193562712Y-46191843D01*
X193562712Y-46191845D01*
X193562713Y-46191848D01*
X193600687Y-46325313D01*
X193620937Y-46396485D01*
X193703375Y-46562043D01*
X193715769Y-46586933D01*
X193843983Y-46756716D01*
X194001212Y-46900048D01*
X194182100Y-47012050D01*
X194380489Y-47088906D01*
X194589622Y-47128000D01*
X194589623Y-47128000D01*
X194590217Y-47128111D01*
X194652498Y-47159779D01*
X194687771Y-47220092D01*
X194684837Y-47289900D01*
X194644628Y-47347040D01*
X194590217Y-47371889D01*
X194589623Y-47372000D01*
X194589622Y-47372000D01*
X194380489Y-47411094D01*
X194380486Y-47411094D01*
X194380486Y-47411095D01*
X194182100Y-47487949D01*
X194182099Y-47487950D01*
X194001216Y-47599949D01*
X194001214Y-47599950D01*
X194001212Y-47599952D01*
X193843983Y-47743284D01*
X193843982Y-47743285D01*
X193715769Y-47913066D01*
X193620937Y-48103514D01*
X193562712Y-48308156D01*
X193549471Y-48451053D01*
X193523685Y-48515990D01*
X193518259Y-48519876D01*
X193547693Y-48576580D01*
X193549471Y-48588947D01*
X193562712Y-48731843D01*
X193562712Y-48731845D01*
X193562713Y-48731848D01*
X193588283Y-48821718D01*
X193620937Y-48936485D01*
X193651149Y-48997159D01*
X193715769Y-49126933D01*
X193843983Y-49296716D01*
X194001212Y-49440048D01*
X194182100Y-49552050D01*
X194380489Y-49628906D01*
X194589622Y-49668000D01*
X194589624Y-49668000D01*
X194802376Y-49668000D01*
X194802378Y-49668000D01*
X195011511Y-49628906D01*
X195209900Y-49552050D01*
X195390788Y-49440048D01*
X195548017Y-49296716D01*
X195676231Y-49126933D01*
X195771064Y-48936482D01*
X195829287Y-48731848D01*
X195848918Y-48520000D01*
X195829287Y-48308152D01*
X195771064Y-48103518D01*
X195676231Y-47913067D01*
X195548017Y-47743284D01*
X195390788Y-47599952D01*
X195209900Y-47487950D01*
X195209899Y-47487949D01*
X195057427Y-47428882D01*
X195011511Y-47411094D01*
X194802378Y-47372000D01*
X194802376Y-47372000D01*
X194801782Y-47371889D01*
X194739501Y-47340221D01*
X194704228Y-47279908D01*
X194707162Y-47210100D01*
X194747371Y-47152960D01*
X194801782Y-47128111D01*
X194802376Y-47128000D01*
X194802378Y-47128000D01*
X195011511Y-47088906D01*
X195209900Y-47012050D01*
X195390788Y-46900048D01*
X195548017Y-46756716D01*
X195676231Y-46586933D01*
X195771064Y-46396482D01*
X195829287Y-46191848D01*
X195848918Y-45980000D01*
X195829287Y-45768152D01*
X195771064Y-45563518D01*
X195676231Y-45373067D01*
X195548017Y-45203284D01*
X195390788Y-45059952D01*
X195209900Y-44947950D01*
X195209899Y-44947949D01*
X195064838Y-44891753D01*
X195011511Y-44871094D01*
X194802378Y-44832000D01*
X194802376Y-44832000D01*
X194801782Y-44831889D01*
X194739501Y-44800221D01*
X194704228Y-44739908D01*
X194707162Y-44670100D01*
X194747371Y-44612960D01*
X194801782Y-44588111D01*
X194802376Y-44588000D01*
X194802378Y-44588000D01*
X195011511Y-44548906D01*
X195209900Y-44472050D01*
X195390788Y-44360048D01*
X195548017Y-44216716D01*
X195676231Y-44046933D01*
X195771064Y-43856482D01*
X195829287Y-43651848D01*
X195848918Y-43440000D01*
X195829287Y-43228152D01*
X195771064Y-43023518D01*
X195676231Y-42833067D01*
X195548017Y-42663284D01*
X195390788Y-42519952D01*
X195209900Y-42407950D01*
X195209899Y-42407949D01*
X195064838Y-42351753D01*
X195011511Y-42331094D01*
X194802378Y-42292000D01*
X194802376Y-42292000D01*
X194801782Y-42291889D01*
X194739501Y-42260221D01*
X194704228Y-42199908D01*
X194707162Y-42130100D01*
X194747371Y-42072960D01*
X194801782Y-42048111D01*
X194802376Y-42048000D01*
X194802378Y-42048000D01*
X195011511Y-42008906D01*
X195209900Y-41932050D01*
X195390788Y-41820048D01*
X195548017Y-41676716D01*
X195676231Y-41506933D01*
X195771064Y-41316482D01*
X195829287Y-41111848D01*
X195848918Y-40900000D01*
X195829287Y-40688152D01*
X195771064Y-40483518D01*
X195676231Y-40293067D01*
X195548017Y-40123284D01*
X195390788Y-39979952D01*
X195209900Y-39867950D01*
X195209899Y-39867949D01*
X195030628Y-39798500D01*
X195011511Y-39791094D01*
X194802378Y-39752000D01*
X194589622Y-39752000D01*
X194380489Y-39791094D01*
X194380486Y-39791094D01*
X194380486Y-39791095D01*
X194182100Y-39867949D01*
X194182099Y-39867950D01*
X194001216Y-39979949D01*
X194001214Y-39979950D01*
X194001212Y-39979952D01*
X193900549Y-40071718D01*
X193843982Y-40123285D01*
X193715769Y-40293066D01*
X193620937Y-40483514D01*
X193620936Y-40483518D01*
X193571645Y-40656761D01*
X193562712Y-40688156D01*
X193549471Y-40831053D01*
X193523685Y-40895990D01*
X193518259Y-40899876D01*
X193333612Y-40899876D01*
X193304307Y-40843419D01*
X193302529Y-40831053D01*
X193299915Y-40802841D01*
X193289287Y-40688152D01*
X193231064Y-40483518D01*
X193136231Y-40293067D01*
X193008017Y-40123284D01*
X192850788Y-39979952D01*
X192669900Y-39867950D01*
X192669899Y-39867949D01*
X192490628Y-39798500D01*
X192471511Y-39791094D01*
X192262378Y-39752000D01*
X192049622Y-39752000D01*
X191840489Y-39791094D01*
X191840486Y-39791094D01*
X191840486Y-39791095D01*
X191642100Y-39867949D01*
X191642099Y-39867950D01*
X191461216Y-39979949D01*
X191461214Y-39979950D01*
X191461212Y-39979952D01*
X191360549Y-40071718D01*
X191303982Y-40123285D01*
X191175769Y-40293066D01*
X191080937Y-40483514D01*
X191080936Y-40483518D01*
X191031645Y-40656761D01*
X191022712Y-40688156D01*
X191003082Y-40900000D01*
X189750500Y-40900000D01*
X189750500Y-35624500D01*
X189770185Y-35557461D01*
X189822989Y-35511706D01*
X189874500Y-35500500D01*
X233912523Y-35500500D01*
X233979562Y-35520185D01*
G37*
%TD.AperFunction*%
%TA.AperFunction,Conductor*%
G36*
X221330931Y-45605773D02*
G01*
X221381981Y-45636557D01*
X222274951Y-46529528D01*
X223164386Y-47418963D01*
X223197871Y-47480286D01*
X223199644Y-47490458D01*
X223214956Y-47606762D01*
X223275464Y-47752841D01*
X223371718Y-47878282D01*
X223497159Y-47974536D01*
X223643238Y-48035044D01*
X223762554Y-48050752D01*
X223826451Y-48079018D01*
X223864922Y-48137343D01*
X223865753Y-48207207D01*
X223834050Y-48261372D01*
X223309243Y-48786181D01*
X223247920Y-48819666D01*
X223221562Y-48822500D01*
X222221393Y-48822500D01*
X222154354Y-48802815D01*
X222145920Y-48796885D01*
X222052841Y-48725464D01*
X222027472Y-48714956D01*
X221906762Y-48664956D01*
X221906760Y-48664955D01*
X221750001Y-48644318D01*
X221749999Y-48644318D01*
X221593239Y-48664955D01*
X221593237Y-48664956D01*
X221447158Y-48725464D01*
X221365647Y-48788009D01*
X221300478Y-48813202D01*
X221232033Y-48799163D01*
X221182044Y-48750349D01*
X221167690Y-48709034D01*
X221158183Y-48649009D01*
X221105846Y-48546292D01*
X221092951Y-48477626D01*
X221105846Y-48433708D01*
X221158183Y-48330991D01*
X221158183Y-48330989D01*
X221158184Y-48330988D01*
X221158184Y-48330987D01*
X221173000Y-48237442D01*
X221173000Y-47472557D01*
X221158184Y-47379012D01*
X221158184Y-47379011D01*
X221152534Y-47367923D01*
X221105846Y-47276292D01*
X221092951Y-47207626D01*
X221105846Y-47163708D01*
X221158183Y-47060991D01*
X221158183Y-47060989D01*
X221158184Y-47060988D01*
X221158184Y-47060987D01*
X221173000Y-46967442D01*
X221173000Y-46202557D01*
X221158184Y-46109012D01*
X221158184Y-46109011D01*
X221127580Y-46048947D01*
X221105846Y-46006292D01*
X221092951Y-45937626D01*
X221105846Y-45893708D01*
X221158183Y-45790991D01*
X221158183Y-45790989D01*
X221158184Y-45790988D01*
X221158184Y-45790987D01*
X221171828Y-45704842D01*
X221201757Y-45641707D01*
X221261068Y-45604775D01*
X221330931Y-45605773D01*
G37*
%TD.AperFunction*%
%TA.AperFunction,Conductor*%
G36*
X224904117Y-40887685D02*
G01*
X224949872Y-40940489D01*
X224959816Y-41009647D01*
X224930791Y-41073203D01*
X224912564Y-41090376D01*
X224871719Y-41121716D01*
X224775463Y-41247160D01*
X224714956Y-41393237D01*
X224714955Y-41393239D01*
X224694318Y-41549998D01*
X224694318Y-41550001D01*
X224714955Y-41706760D01*
X224714956Y-41706762D01*
X224775464Y-41852842D01*
X224799934Y-41884731D01*
X224846875Y-41945906D01*
X224872070Y-42011074D01*
X224872500Y-42021392D01*
X224872500Y-47171560D01*
X224852815Y-47238599D01*
X224836181Y-47259241D01*
X224611372Y-47484050D01*
X224550049Y-47517535D01*
X224480357Y-47512551D01*
X224424424Y-47470679D01*
X224400752Y-47412554D01*
X224395398Y-47371889D01*
X224385044Y-47293238D01*
X224324536Y-47147159D01*
X224228282Y-47021718D01*
X224102841Y-46925464D01*
X224099840Y-46924221D01*
X224033319Y-46896667D01*
X223956762Y-46864956D01*
X223926157Y-46860926D01*
X223840458Y-46849644D01*
X223776562Y-46821377D01*
X223768963Y-46814386D01*
X222858324Y-45903747D01*
X221936015Y-44981439D01*
X221902531Y-44920117D01*
X221907515Y-44850425D01*
X221909122Y-44846341D01*
X221935044Y-44783762D01*
X221953402Y-44644318D01*
X221955682Y-44627001D01*
X221955682Y-44626998D01*
X221938214Y-44494318D01*
X221935044Y-44470238D01*
X221874536Y-44324159D01*
X221778282Y-44198718D01*
X221652841Y-44102464D01*
X221614556Y-44086606D01*
X221506762Y-44041956D01*
X221506760Y-44041955D01*
X221350001Y-44021318D01*
X221349997Y-44021318D01*
X221313184Y-44026164D01*
X221244148Y-44015398D01*
X221191893Y-43969017D01*
X221173000Y-43903225D01*
X221173000Y-43662557D01*
X221158184Y-43569012D01*
X221158184Y-43569011D01*
X221127580Y-43508947D01*
X221105846Y-43466292D01*
X221092951Y-43397626D01*
X221105847Y-43353706D01*
X221158183Y-43250991D01*
X221158183Y-43250989D01*
X221158184Y-43250988D01*
X221158184Y-43250987D01*
X221173000Y-43157442D01*
X221173000Y-42392557D01*
X221158184Y-42299012D01*
X221158184Y-42299011D01*
X221141894Y-42267040D01*
X221100731Y-42186253D01*
X221100727Y-42186249D01*
X221100726Y-42186247D01*
X221011252Y-42096773D01*
X221011249Y-42096771D01*
X221011247Y-42096769D01*
X220898491Y-42039317D01*
X220898490Y-42039316D01*
X220898487Y-42039315D01*
X220804942Y-42024500D01*
X219240058Y-42024500D01*
X219146512Y-42039315D01*
X219146511Y-42039315D01*
X219101029Y-42062490D01*
X219033753Y-42096769D01*
X219033752Y-42096770D01*
X219033747Y-42096773D01*
X218944273Y-42186247D01*
X218944270Y-42186252D01*
X218944269Y-42186253D01*
X218932220Y-42209900D01*
X218886815Y-42299011D01*
X218886815Y-42299012D01*
X218872000Y-42392557D01*
X218872000Y-43157442D01*
X218871999Y-43157442D01*
X218886815Y-43250987D01*
X218886816Y-43250991D01*
X218939152Y-43353706D01*
X218952048Y-43422375D01*
X218939152Y-43466294D01*
X218886816Y-43569008D01*
X218886815Y-43569012D01*
X218872000Y-43662557D01*
X218872000Y-44427442D01*
X218871999Y-44427442D01*
X218886815Y-44520987D01*
X218886816Y-44520991D01*
X218939152Y-44623706D01*
X218952048Y-44692375D01*
X218939152Y-44736294D01*
X218886816Y-44839008D01*
X218886815Y-44839012D01*
X218872000Y-44932557D01*
X218872000Y-44976727D01*
X218852315Y-45043766D01*
X218799511Y-45089521D01*
X218730353Y-45099465D01*
X218666797Y-45070440D01*
X218633439Y-45024180D01*
X218601536Y-44947159D01*
X218505282Y-44821718D01*
X218379841Y-44725464D01*
X218270303Y-44680092D01*
X218233762Y-44664956D01*
X218233760Y-44664955D01*
X218077001Y-44644318D01*
X218076997Y-44644318D01*
X218017684Y-44652126D01*
X217948649Y-44641360D01*
X217896393Y-44594979D01*
X217877500Y-44529187D01*
X217877500Y-42243721D01*
X217877500Y-42243719D01*
X217848367Y-42134991D01*
X217792085Y-42037509D01*
X217712491Y-41957915D01*
X216985614Y-41231038D01*
X216952129Y-41169715D01*
X216950356Y-41159543D01*
X216938566Y-41069991D01*
X216935044Y-41043238D01*
X216933474Y-41039449D01*
X216933103Y-41035997D01*
X216932940Y-41035387D01*
X216933035Y-41035361D01*
X216926007Y-40969982D01*
X216957283Y-40907503D01*
X217017372Y-40871851D01*
X217048037Y-40868000D01*
X224837078Y-40868000D01*
X224904117Y-40887685D01*
G37*
%TD.AperFunction*%
%TA.AperFunction,Conductor*%
G36*
X228705262Y-40887685D02*
G01*
X228751017Y-40940489D01*
X228760961Y-41009647D01*
X228736599Y-41067486D01*
X228675464Y-41147157D01*
X228614956Y-41293237D01*
X228614955Y-41293239D01*
X228594318Y-41449998D01*
X228594318Y-41450001D01*
X228614955Y-41606760D01*
X228614956Y-41606762D01*
X228623869Y-41628281D01*
X228634126Y-41653042D01*
X228641595Y-41722512D01*
X228610320Y-41784991D01*
X228607246Y-41788176D01*
X226687509Y-43707915D01*
X226607917Y-43787506D01*
X226607915Y-43787509D01*
X226551633Y-43884989D01*
X226522500Y-43993719D01*
X226522500Y-46521561D01*
X226502815Y-46588600D01*
X226486181Y-46609242D01*
X225939181Y-47156242D01*
X225877858Y-47189727D01*
X225808166Y-47184743D01*
X225752233Y-47142871D01*
X225727816Y-47077407D01*
X225727500Y-47068561D01*
X225727500Y-42021392D01*
X225747185Y-41954353D01*
X225753117Y-41945915D01*
X225824536Y-41852841D01*
X225885044Y-41706762D01*
X225905682Y-41550000D01*
X225899473Y-41502841D01*
X225885044Y-41393239D01*
X225885044Y-41393238D01*
X225824536Y-41247159D01*
X225728282Y-41121718D01*
X225728280Y-41121717D01*
X225728280Y-41121716D01*
X225687436Y-41090376D01*
X225646233Y-41033948D01*
X225642078Y-40964202D01*
X225676290Y-40903282D01*
X225738008Y-40870529D01*
X225762922Y-40868000D01*
X228638223Y-40868000D01*
X228705262Y-40887685D01*
G37*
%TD.AperFunction*%
%TD*%
M02*
