M48
; DRILL file {KiCad 8.0.7} date 2024-12-14T18:23:51+0300
; FORMAT={-:-/ absolute / inch / decimal}
; #@! TF.CreationDate,2024-12-14T18:23:51+03:00
; #@! TF.GenerationSoftware,Kicad,Pcbnew,8.0.7
; #@! TF.FileFunction,Plated,1,2,PTH
FMAT,2
INCH
; #@! TA.AperFunction,Plated,PTH,ViaDrill
T1C0.0118
; #@! TA.AperFunction,Plated,PTH,ComponentDrill
T2C0.0421
; #@! TA.AperFunction,Plated,PTH,ComponentDrill
T3C0.0445
%
G90
G05
T1
X7.5138Y-1.4409
X7.5138Y-1.4724
X7.5453Y-1.4409
X7.5965Y-2.2677
X7.7343Y-1.9764
X7.7657Y-1.9764
X7.7972Y-1.9764
X7.8287Y-1.9764
X7.8406Y-2.0925
X7.8602Y-1.9764
X7.874Y-2.0925
X7.9163Y-1.4921
X7.9193Y-1.8101
X7.9547Y-2.1654
X7.9606Y-1.6437
X7.9744Y-1.8504
X7.9744Y-2.0067
X7.9744Y-2.0711
X7.9862Y-1.4409
X7.9862Y-2.1339
X7.9862Y-2.1654
X8.0177Y-1.4409
X8.0177Y-2.1339
X8.0177Y-2.1654
X8.0492Y-2.1024
X8.0492Y-2.1339
X8.0492Y-2.1654
X8.0807Y-2.1024
X8.0807Y-2.1339
X8.0807Y-2.1654
X8.091Y-1.4921
X8.1122Y-1.6614
X8.1122Y-1.9764
X8.1437Y-1.4409
X8.1437Y-1.6929
X8.1476Y-1.7254
X8.1752Y-1.4409
X8.1791Y-1.5315
X8.1811Y-1.7874
X8.1821Y-1.7549
X8.2146Y-1.5748
X8.2382Y-2.2598
X8.2382Y-2.2913
X8.311Y-1.5945
X8.311Y-1.8287
X8.3268Y-2.0512
X8.3465Y-2.0197
X8.3799Y-1.7756
X8.3957Y-1.8504
X8.3957Y-1.8819
X8.4272Y-1.8504
X8.4272Y-1.8819
X8.4528Y-1.9409
X8.4587Y-1.8189
X8.4587Y-1.8504
X8.4587Y-1.8819
X8.4609Y-1.9714
X8.4902Y-1.8189
X8.4902Y-1.8504
X8.4902Y-1.8819
X8.5177Y-1.622
X8.5236Y-1.757
X8.5857Y-1.7815
X8.7146Y-1.757
X8.7283Y-1.9724
X8.7303Y-1.939
X8.7303Y-2.0157
X8.7421Y-1.8819
X8.7717Y-1.5453
X8.8051Y-1.7244
X8.811Y-1.8681
X8.8524Y-2.0709
X8.8681Y-2.0079
X8.8701Y-1.6358
X8.872Y-1.5466
X8.9213Y-1.9272
X8.9311Y-1.6299
X8.9311Y-1.6614
X8.9478Y-2.0456
X8.9626Y-1.6299
X8.9724Y-2.0709
X8.9941Y-1.9449
X8.9941Y-1.9764
X9.0217Y-1.5433
X9.0217Y-2.1496
X9.0236Y-1.6319
X9.0256Y-1.9449
X9.0256Y-1.9764
X9.0256Y-2.0079
X9.0571Y-1.6929
X9.0571Y-1.9449
X9.0571Y-1.9764
X9.0571Y-2.0079
X9.0886Y-1.6299
X9.0886Y-1.6614
X9.0886Y-1.6929
X9.0886Y-1.9449
X9.0886Y-1.9764
X9.0886Y-2.0079
X9.0886Y-2.1024
X9.0886Y-2.1339
X9.1201Y-1.6299
X9.1201Y-1.6614
X9.1201Y-1.6929
X9.1201Y-1.9449
X9.1201Y-1.9764
X9.1201Y-2.0079
X9.1201Y-2.1024
X9.1201Y-2.1339
X9.1516Y-1.6299
X9.1516Y-1.6614
X9.1516Y-1.6929
X9.1516Y-1.9449
X9.1516Y-1.9764
X9.1516Y-2.0079
X9.1516Y-2.1024
X9.1516Y-2.1339
X9.1831Y-1.6299
X9.1831Y-1.6614
X9.1831Y-1.6929
X9.1831Y-1.9449
X9.1831Y-1.9764
X9.1831Y-2.0079
X9.1831Y-2.1024
X9.1831Y-2.1339
X9.2146Y-1.6299
X9.2146Y-1.6614
X9.2146Y-1.6929
X9.2146Y-1.7244
X9.2146Y-1.7559
X9.2146Y-1.7874
X9.2146Y-1.8189
X9.2146Y-1.8504
X9.2146Y-1.8819
X9.2146Y-1.9134
X9.2146Y-1.9449
X9.2146Y-1.9764
X9.2146Y-2.0079
X9.2146Y-2.1024
X9.2146Y-2.1339
X9.2461Y-1.6299
X9.2461Y-1.6614
X9.2461Y-1.6929
X9.2461Y-1.7244
X9.2461Y-1.7559
X9.2461Y-1.7874
X9.2461Y-1.8189
X9.2461Y-1.8504
X9.2461Y-1.8819
X9.2461Y-1.9134
X9.2461Y-1.9449
X9.2461Y-1.9764
X9.2461Y-2.0079
X9.2461Y-2.1024
X9.2461Y-2.1339
X9.2717Y-1.5492
X9.2776Y-1.6299
X9.2776Y-1.6614
X9.2776Y-1.6929
X9.2776Y-1.7244
X9.2776Y-1.7559
X9.2776Y-1.7874
X9.2776Y-1.8189
X9.2776Y-1.8504
X9.2776Y-1.8819
X9.2776Y-1.9134
X9.2776Y-1.9449
X9.2776Y-1.9764
X9.2776Y-2.0079
X9.2776Y-2.1339
X9.2776Y-2.2913
X9.3091Y-1.6299
X9.3091Y-1.6614
X9.3091Y-1.6929
X9.3091Y-1.7244
X9.3091Y-1.7559
X9.3091Y-1.7874
X9.3091Y-1.8189
X9.3091Y-1.8504
X9.3091Y-1.8819
X9.3091Y-1.9134
X9.3091Y-1.9449
X9.3091Y-1.9764
X9.3091Y-2.0079
X9.3091Y-2.2913
X9.3406Y-1.6299
X9.3406Y-1.6614
X9.3406Y-1.6929
X9.3406Y-1.7244
X9.3406Y-1.7559
X9.3406Y-1.7874
X9.3406Y-1.8189
X9.3406Y-1.8504
X9.3406Y-1.8819
X9.3406Y-1.9134
X9.3406Y-1.9449
X9.3406Y-1.9764
X9.3406Y-2.0079
X9.3406Y-2.2913
X9.372Y-1.5984
X9.372Y-1.6299
X9.372Y-1.6614
X9.372Y-1.6929
X9.372Y-1.7244
X9.372Y-1.7559
X9.372Y-1.7874
X9.372Y-1.8189
X9.372Y-1.8504
X9.372Y-1.8819
X9.372Y-1.9134
X9.372Y-1.9449
X9.372Y-1.9764
X9.372Y-2.0079
X9.372Y-2.0394
X9.372Y-2.0709
X9.372Y-2.1024
X9.372Y-2.1339
X9.372Y-2.2913
T2
X8.2752Y-2.189
X8.3752Y-2.189
X8.4752Y-2.189
X8.5752Y-2.189
T3
X7.5652Y-1.6102
X7.5652Y-1.7102
X7.5652Y-1.8102
X7.5652Y-1.9102
X7.5652Y-2.0102
X7.5652Y-2.1102
X7.6652Y-1.6102
X7.6652Y-1.7102
X7.6652Y-1.8102
X7.6652Y-1.9102
X7.6652Y-2.0102
X7.6652Y-2.1102
M30
