%TF.GenerationSoftware,KiCad,Pcbnew,8.0.7*%
%TF.CreationDate,2024-12-14T18:53:43+03:00*%
%TF.ProjectId,pmod_esp32_4_layer.kicad_sch,706d6f64-5f65-4737-9033-325f345f6c61,rev?*%
%TF.SameCoordinates,Original*%
%TF.FileFunction,Copper,L2,Inr*%
%TF.FilePolarity,Positive*%
%FSLAX46Y46*%
G04 Gerber Fmt 4.6, Leading zero omitted, Abs format (unit mm)*
G04 Created by KiCad (PCBNEW 8.0.7) date 2024-12-14 18:53:43*
%MOMM*%
%LPD*%
G01*
G04 APERTURE LIST*
%TA.AperFunction,ComponentPad*%
%ADD10C,1.695000*%
%TD*%
%TA.AperFunction,ComponentPad*%
%ADD11R,1.650000X1.650000*%
%TD*%
%TA.AperFunction,ComponentPad*%
%ADD12C,1.650000*%
%TD*%
%TA.AperFunction,ViaPad*%
%ADD13C,0.600000*%
%TD*%
%TA.AperFunction,Conductor*%
%ADD14C,0.640000*%
%TD*%
G04 APERTURE END LIST*
D10*
%TO.N,Net-(J2-Pad1)*%
%TO.C,J2*%
X132033500Y-98300000D03*
%TO.N,Net-(J2-Pad2)*%
X132033500Y-100840000D03*
%TO.N,Net-(J2-Pad3)*%
X132033500Y-103380000D03*
%TO.N,Net-(J2-Pad4)*%
X132033500Y-105920000D03*
%TO.N,/GND*%
X132033500Y-108460000D03*
%TO.N,/VCC3V3*%
X132033500Y-111000000D03*
%TO.N,Net-(J2-Pad7)*%
X129493500Y-98300000D03*
%TO.N,Net-(J2-Pad8)*%
X129493500Y-100840000D03*
%TO.N,Net-(J2-Pad9)*%
X129493500Y-103380000D03*
%TO.N,Net-(J2-Pad10)*%
X129493500Y-105920000D03*
%TO.N,/GND*%
X129493500Y-108460000D03*
%TO.N,/VCC3V3*%
X129493500Y-111000000D03*
%TD*%
D11*
%TO.N,/TXD0*%
%TO.C,J1*%
X145847500Y-114350000D03*
D12*
%TO.N,/RXD0*%
X148387500Y-114350000D03*
%TO.N,/GND*%
X150927500Y-114350000D03*
%TO.N,/IO0*%
X153467500Y-114350000D03*
%TD*%
D13*
%TO.N,/SELECT*%
X134550000Y-115500000D03*
%TO.N,/EN*%
X139850000Y-103500000D03*
X167750000Y-93200000D03*
X172400000Y-94600000D03*
X141300000Y-95750000D03*
X141300000Y-100800000D03*
%TO.N,/GND*%
X150200000Y-103150000D03*
X167550000Y-101600000D03*
X175100000Y-97500000D03*
X138300000Y-94350000D03*
X153300000Y-94350000D03*
X175000000Y-112150000D03*
X133600000Y-108450000D03*
X169350000Y-94500000D03*
X140250000Y-108050000D03*
X158750000Y-99150000D03*
X142550000Y-100550000D03*
X146779828Y-96270172D03*
X147850000Y-105977000D03*
%TO.N,/VCC3V3*%
X145350000Y-96200000D03*
X173700000Y-97400000D03*
X137727500Y-107877500D03*
X144050000Y-109750000D03*
X133600000Y-111000000D03*
X149000000Y-99650000D03*
%TO.N,/RTS{slash}SS*%
X147400000Y-101600000D03*
X138550000Y-97150000D03*
%TO.N,/INT*%
X140450000Y-99050000D03*
%TO.N,/SELECT*%
X141307097Y-107301471D03*
X144673001Y-107163711D03*
X147200000Y-105350000D03*
X145823001Y-105341290D03*
X138500000Y-111600000D03*
%TO.N,/GPIO*%
X153350000Y-111300000D03*
%TO.N,/CTS{slash}SCK*%
X143750000Y-107200000D03*
X145823000Y-103700000D03*
%TO.N,/TXD*%
X162250000Y-112500000D03*
%TO.N,/SS*%
X163500000Y-112450000D03*
%TO.N,/MOSI*%
X163050000Y-103800000D03*
X158900000Y-103800000D03*
X173700000Y-112550000D03*
X151050000Y-103600000D03*
X147700000Y-102973000D03*
%TO.N,/CTS*%
X155300000Y-109300000D03*
%TO.N,/MISO*%
X166050000Y-115150000D03*
%TO.N,/RTS*%
X159750000Y-97150000D03*
%TO.N,/SCK*%
X163100000Y-105000000D03*
X158900000Y-104950000D03*
X153968356Y-105268356D03*
X164800000Y-112500000D03*
X155150000Y-104450000D03*
%TO.N,/RXD*%
X161000000Y-115150000D03*
X142000000Y-103623000D03*
X142600000Y-109650000D03*
%TO.N,/GND*%
X130800000Y-113650000D03*
%TD*%
D14*
%TO.N,/GND*%
X129493500Y-108460000D02*
X132033500Y-108460000D01*
%TD*%
%TA.AperFunction,Conductor*%
%TO.N,/GND*%
G36*
X166933976Y-92820185D02*
G01*
X166979731Y-92872989D01*
X166989675Y-92942147D01*
X166983978Y-92965455D01*
X166964633Y-93020737D01*
X166964630Y-93020750D01*
X166944435Y-93199996D01*
X166944435Y-93200003D01*
X166964630Y-93379249D01*
X166964631Y-93379254D01*
X167024211Y-93549523D01*
X167120184Y-93702262D01*
X167247738Y-93829816D01*
X167400478Y-93925789D01*
X167527352Y-93970184D01*
X167570745Y-93985368D01*
X167570750Y-93985369D01*
X167749996Y-94005565D01*
X167750000Y-94005565D01*
X167750004Y-94005565D01*
X167929249Y-93985369D01*
X167929252Y-93985368D01*
X167929255Y-93985368D01*
X168099522Y-93925789D01*
X168252262Y-93829816D01*
X168379816Y-93702262D01*
X168475789Y-93549522D01*
X168535368Y-93379255D01*
X168555565Y-93200000D01*
X168535368Y-93020745D01*
X168535367Y-93020743D01*
X168535366Y-93020737D01*
X168516022Y-92965455D01*
X168512460Y-92895676D01*
X168547188Y-92835049D01*
X168609182Y-92802821D01*
X168633063Y-92800500D01*
X175476000Y-92800500D01*
X175543039Y-92820185D01*
X175588794Y-92872989D01*
X175600000Y-92924500D01*
X175600000Y-116675500D01*
X175580315Y-116742539D01*
X175527511Y-116788294D01*
X175476000Y-116799500D01*
X134693659Y-116799500D01*
X134626620Y-116779815D01*
X134602734Y-116759812D01*
X134586717Y-116742539D01*
X134365651Y-116504134D01*
X134334503Y-116441593D01*
X134342112Y-116372139D01*
X134386063Y-116317824D01*
X134452401Y-116295893D01*
X134470458Y-116296602D01*
X134506885Y-116300707D01*
X134549998Y-116305565D01*
X134550000Y-116305565D01*
X134550004Y-116305565D01*
X134729249Y-116285369D01*
X134729252Y-116285368D01*
X134729255Y-116285368D01*
X134899522Y-116225789D01*
X135052262Y-116129816D01*
X135179816Y-116002262D01*
X135275789Y-115849522D01*
X135335368Y-115679255D01*
X135335791Y-115675500D01*
X135355565Y-115500003D01*
X135355565Y-115499996D01*
X135335369Y-115320750D01*
X135335368Y-115320745D01*
X135275789Y-115150478D01*
X135179816Y-114997738D01*
X135052262Y-114870184D01*
X134948650Y-114805080D01*
X134899523Y-114774211D01*
X134729254Y-114714631D01*
X134729249Y-114714630D01*
X134550004Y-114694435D01*
X134549996Y-114694435D01*
X134370750Y-114714630D01*
X134370745Y-114714631D01*
X134200476Y-114774211D01*
X134047737Y-114870184D01*
X133920184Y-114997737D01*
X133824211Y-115150476D01*
X133764631Y-115320745D01*
X133764630Y-115320750D01*
X133744435Y-115499996D01*
X133744435Y-115500000D01*
X133745084Y-115505759D01*
X133733028Y-115574580D01*
X133685678Y-115625959D01*
X133618067Y-115643582D01*
X133551661Y-115621854D01*
X133530938Y-115603953D01*
X133434542Y-115499997D01*
X132600000Y-114600000D01*
X131276859Y-114600000D01*
X131225547Y-114588885D01*
X130222688Y-114133040D01*
X130169803Y-114087379D01*
X130150000Y-114020375D01*
X130150000Y-113477135D01*
X144522000Y-113477135D01*
X144522000Y-115222870D01*
X144522001Y-115222876D01*
X144528408Y-115282483D01*
X144578702Y-115417328D01*
X144578706Y-115417335D01*
X144664952Y-115532544D01*
X144664955Y-115532547D01*
X144780164Y-115618793D01*
X144780171Y-115618797D01*
X144915017Y-115669091D01*
X144915016Y-115669091D01*
X144921944Y-115669835D01*
X144974627Y-115675500D01*
X146720372Y-115675499D01*
X146779983Y-115669091D01*
X146914831Y-115618796D01*
X147030046Y-115532546D01*
X147116296Y-115417331D01*
X147166591Y-115282483D01*
X147166591Y-115282481D01*
X147168374Y-115274938D01*
X147171247Y-115275616D01*
X147192691Y-115223843D01*
X147250082Y-115183993D01*
X147319907Y-115181497D01*
X147376926Y-115213965D01*
X147532231Y-115369270D01*
X147722218Y-115502301D01*
X147932421Y-115600320D01*
X148156450Y-115660349D01*
X148321485Y-115674787D01*
X148387498Y-115680563D01*
X148387500Y-115680563D01*
X148387502Y-115680563D01*
X148445394Y-115675498D01*
X148618550Y-115660349D01*
X148842579Y-115600320D01*
X149052782Y-115502301D01*
X149242769Y-115369270D01*
X149406770Y-115205269D01*
X149539801Y-115015282D01*
X149637820Y-114805079D01*
X149697849Y-114581050D01*
X149718063Y-114350000D01*
X149718063Y-114349998D01*
X152136937Y-114349998D01*
X152136937Y-114350001D01*
X152157150Y-114581044D01*
X152157151Y-114581051D01*
X152217178Y-114805074D01*
X152217179Y-114805076D01*
X152217180Y-114805079D01*
X152315199Y-115015282D01*
X152448230Y-115205269D01*
X152612231Y-115369270D01*
X152802218Y-115502301D01*
X153012421Y-115600320D01*
X153236450Y-115660349D01*
X153401485Y-115674787D01*
X153467498Y-115680563D01*
X153467500Y-115680563D01*
X153467502Y-115680563D01*
X153525394Y-115675498D01*
X153698550Y-115660349D01*
X153922579Y-115600320D01*
X154132782Y-115502301D01*
X154322769Y-115369270D01*
X154486770Y-115205269D01*
X154525473Y-115149996D01*
X160194435Y-115149996D01*
X160194435Y-115150003D01*
X160214630Y-115329249D01*
X160214631Y-115329254D01*
X160274211Y-115499523D01*
X160351077Y-115621854D01*
X160370184Y-115652262D01*
X160497738Y-115779816D01*
X160650478Y-115875789D01*
X160820745Y-115935368D01*
X160820750Y-115935369D01*
X160999996Y-115955565D01*
X161000000Y-115955565D01*
X161000004Y-115955565D01*
X161179249Y-115935369D01*
X161179252Y-115935368D01*
X161179255Y-115935368D01*
X161349522Y-115875789D01*
X161502262Y-115779816D01*
X161629816Y-115652262D01*
X161725789Y-115499522D01*
X161785368Y-115329255D01*
X161785369Y-115329249D01*
X161805565Y-115150003D01*
X161805565Y-115149996D01*
X165244435Y-115149996D01*
X165244435Y-115150003D01*
X165264630Y-115329249D01*
X165264631Y-115329254D01*
X165324211Y-115499523D01*
X165401077Y-115621854D01*
X165420184Y-115652262D01*
X165547738Y-115779816D01*
X165700478Y-115875789D01*
X165870745Y-115935368D01*
X165870750Y-115935369D01*
X166049996Y-115955565D01*
X166050000Y-115955565D01*
X166050004Y-115955565D01*
X166229249Y-115935369D01*
X166229252Y-115935368D01*
X166229255Y-115935368D01*
X166399522Y-115875789D01*
X166552262Y-115779816D01*
X166679816Y-115652262D01*
X166775789Y-115499522D01*
X166835368Y-115329255D01*
X166835369Y-115329249D01*
X166855565Y-115150003D01*
X166855565Y-115149996D01*
X166835369Y-114970750D01*
X166835368Y-114970745D01*
X166775788Y-114800476D01*
X166679815Y-114647737D01*
X166552262Y-114520184D01*
X166399523Y-114424211D01*
X166229254Y-114364631D01*
X166229249Y-114364630D01*
X166050004Y-114344435D01*
X166049996Y-114344435D01*
X165870750Y-114364630D01*
X165870745Y-114364631D01*
X165700476Y-114424211D01*
X165547737Y-114520184D01*
X165420184Y-114647737D01*
X165324211Y-114800476D01*
X165264631Y-114970745D01*
X165264630Y-114970750D01*
X165244435Y-115149996D01*
X161805565Y-115149996D01*
X161785369Y-114970750D01*
X161785368Y-114970745D01*
X161725788Y-114800476D01*
X161629815Y-114647737D01*
X161502262Y-114520184D01*
X161349523Y-114424211D01*
X161179254Y-114364631D01*
X161179249Y-114364630D01*
X161000004Y-114344435D01*
X160999996Y-114344435D01*
X160820750Y-114364630D01*
X160820745Y-114364631D01*
X160650476Y-114424211D01*
X160497737Y-114520184D01*
X160370184Y-114647737D01*
X160274211Y-114800476D01*
X160214631Y-114970745D01*
X160214630Y-114970750D01*
X160194435Y-115149996D01*
X154525473Y-115149996D01*
X154619801Y-115015282D01*
X154717820Y-114805079D01*
X154777849Y-114581050D01*
X154798063Y-114350000D01*
X154777849Y-114118950D01*
X154717820Y-113894921D01*
X154619801Y-113684719D01*
X154619799Y-113684716D01*
X154619798Y-113684714D01*
X154486773Y-113494735D01*
X154486768Y-113494729D01*
X154322769Y-113330730D01*
X154257987Y-113285369D01*
X154132782Y-113197699D01*
X153922579Y-113099680D01*
X153922576Y-113099679D01*
X153922574Y-113099678D01*
X153698551Y-113039651D01*
X153698544Y-113039650D01*
X153467502Y-113019437D01*
X153467498Y-113019437D01*
X153236455Y-113039650D01*
X153236448Y-113039651D01*
X153012417Y-113099681D01*
X152802218Y-113197699D01*
X152802214Y-113197701D01*
X152612235Y-113330726D01*
X152612229Y-113330731D01*
X152448231Y-113494729D01*
X152448226Y-113494735D01*
X152315201Y-113684714D01*
X152315199Y-113684718D01*
X152217181Y-113894917D01*
X152157151Y-114118948D01*
X152157150Y-114118955D01*
X152136937Y-114349998D01*
X149718063Y-114349998D01*
X149697849Y-114118950D01*
X149637820Y-113894921D01*
X149539801Y-113684719D01*
X149539799Y-113684716D01*
X149539798Y-113684714D01*
X149406773Y-113494735D01*
X149406768Y-113494729D01*
X149242769Y-113330730D01*
X149177987Y-113285369D01*
X149052782Y-113197699D01*
X148842579Y-113099680D01*
X148842576Y-113099679D01*
X148842574Y-113099678D01*
X148618551Y-113039651D01*
X148618544Y-113039650D01*
X148387502Y-113019437D01*
X148387498Y-113019437D01*
X148156455Y-113039650D01*
X148156448Y-113039651D01*
X147932417Y-113099681D01*
X147722218Y-113197699D01*
X147722214Y-113197701D01*
X147532235Y-113330726D01*
X147376926Y-113486035D01*
X147315603Y-113519519D01*
X147245911Y-113514535D01*
X147189978Y-113472663D01*
X147171017Y-113424443D01*
X147168376Y-113425068D01*
X147166592Y-113417520D01*
X147116297Y-113282671D01*
X147116293Y-113282664D01*
X147030047Y-113167455D01*
X147030044Y-113167452D01*
X146914835Y-113081206D01*
X146914828Y-113081202D01*
X146779982Y-113030908D01*
X146779983Y-113030908D01*
X146720383Y-113024501D01*
X146720381Y-113024500D01*
X146720373Y-113024500D01*
X146720364Y-113024500D01*
X144974629Y-113024500D01*
X144974623Y-113024501D01*
X144915016Y-113030908D01*
X144780171Y-113081202D01*
X144780164Y-113081206D01*
X144664955Y-113167452D01*
X144664952Y-113167455D01*
X144578706Y-113282664D01*
X144578702Y-113282671D01*
X144528408Y-113417517D01*
X144522001Y-113477116D01*
X144522000Y-113477135D01*
X130150000Y-113477135D01*
X130150000Y-113173317D01*
X130169685Y-113106278D01*
X130214239Y-113064668D01*
X131122093Y-112565349D01*
X131181851Y-112550000D01*
X133250000Y-112550000D01*
X133326929Y-112499996D01*
X161444435Y-112499996D01*
X161444435Y-112500003D01*
X161464630Y-112679249D01*
X161464631Y-112679254D01*
X161524211Y-112849523D01*
X161584291Y-112945139D01*
X161620184Y-113002262D01*
X161747738Y-113129816D01*
X161900478Y-113225789D01*
X161985573Y-113255565D01*
X162070745Y-113285368D01*
X162070750Y-113285369D01*
X162249996Y-113305565D01*
X162250000Y-113305565D01*
X162250004Y-113305565D01*
X162429249Y-113285369D01*
X162429252Y-113285368D01*
X162429255Y-113285368D01*
X162599522Y-113225789D01*
X162752262Y-113129816D01*
X162812319Y-113069759D01*
X162873642Y-113036274D01*
X162943334Y-113041258D01*
X162987681Y-113069759D01*
X162997738Y-113079816D01*
X163088080Y-113136582D01*
X163146543Y-113173317D01*
X163150478Y-113175789D01*
X163213099Y-113197701D01*
X163320745Y-113235368D01*
X163320750Y-113235369D01*
X163499996Y-113255565D01*
X163500000Y-113255565D01*
X163500004Y-113255565D01*
X163679249Y-113235369D01*
X163679252Y-113235368D01*
X163679255Y-113235368D01*
X163849522Y-113175789D01*
X164002262Y-113079816D01*
X164037319Y-113044759D01*
X164098642Y-113011274D01*
X164168334Y-113016258D01*
X164212681Y-113044759D01*
X164297738Y-113129816D01*
X164450478Y-113225789D01*
X164535573Y-113255565D01*
X164620745Y-113285368D01*
X164620750Y-113285369D01*
X164799996Y-113305565D01*
X164800000Y-113305565D01*
X164800004Y-113305565D01*
X164979249Y-113285369D01*
X164979252Y-113285368D01*
X164979255Y-113285368D01*
X165149522Y-113225789D01*
X165302262Y-113129816D01*
X165429816Y-113002262D01*
X165525789Y-112849522D01*
X165585368Y-112679255D01*
X165598202Y-112565349D01*
X165599932Y-112549996D01*
X172894435Y-112549996D01*
X172894435Y-112550000D01*
X172914630Y-112729249D01*
X172914631Y-112729254D01*
X172974211Y-112899523D01*
X173056766Y-113030908D01*
X173070184Y-113052262D01*
X173197738Y-113179816D01*
X173350478Y-113275789D01*
X173435573Y-113305565D01*
X173520745Y-113335368D01*
X173520750Y-113335369D01*
X173699996Y-113355565D01*
X173700000Y-113355565D01*
X173700004Y-113355565D01*
X173879249Y-113335369D01*
X173879252Y-113335368D01*
X173879255Y-113335368D01*
X174049522Y-113275789D01*
X174202262Y-113179816D01*
X174329816Y-113052262D01*
X174425789Y-112899522D01*
X174485368Y-112729255D01*
X174491003Y-112679249D01*
X174505565Y-112550000D01*
X174505565Y-112549996D01*
X174485369Y-112370750D01*
X174485368Y-112370745D01*
X174425788Y-112200476D01*
X174353461Y-112085369D01*
X174329816Y-112047738D01*
X174202262Y-111920184D01*
X174184052Y-111908742D01*
X174049523Y-111824211D01*
X173879254Y-111764631D01*
X173879249Y-111764630D01*
X173700004Y-111744435D01*
X173699996Y-111744435D01*
X173520750Y-111764630D01*
X173520745Y-111764631D01*
X173350476Y-111824211D01*
X173197737Y-111920184D01*
X173070184Y-112047737D01*
X172974211Y-112200476D01*
X172914631Y-112370745D01*
X172914630Y-112370750D01*
X172894435Y-112549996D01*
X165599932Y-112549996D01*
X165605565Y-112500003D01*
X165605565Y-112499996D01*
X165585369Y-112320750D01*
X165585368Y-112320745D01*
X165568152Y-112271544D01*
X165525789Y-112150478D01*
X165429816Y-111997738D01*
X165302262Y-111870184D01*
X165301630Y-111869787D01*
X165149523Y-111774211D01*
X164979254Y-111714631D01*
X164979249Y-111714630D01*
X164800004Y-111694435D01*
X164799996Y-111694435D01*
X164620750Y-111714630D01*
X164620745Y-111714631D01*
X164450476Y-111774211D01*
X164297737Y-111870184D01*
X164262681Y-111905241D01*
X164201358Y-111938726D01*
X164131666Y-111933742D01*
X164087319Y-111905241D01*
X164002262Y-111820184D01*
X163849523Y-111724211D01*
X163679254Y-111664631D01*
X163679249Y-111664630D01*
X163500004Y-111644435D01*
X163499996Y-111644435D01*
X163320750Y-111664630D01*
X163320745Y-111664631D01*
X163150476Y-111724211D01*
X162997737Y-111820184D01*
X162937681Y-111880241D01*
X162876358Y-111913726D01*
X162806666Y-111908742D01*
X162762319Y-111880241D01*
X162752262Y-111870184D01*
X162599523Y-111774211D01*
X162429254Y-111714631D01*
X162429249Y-111714630D01*
X162250004Y-111694435D01*
X162249996Y-111694435D01*
X162070750Y-111714630D01*
X162070745Y-111714631D01*
X161900476Y-111774211D01*
X161747737Y-111870184D01*
X161620184Y-111997737D01*
X161524211Y-112150476D01*
X161464631Y-112320745D01*
X161464630Y-112320750D01*
X161444435Y-112499996D01*
X133326929Y-112499996D01*
X134250000Y-111900000D01*
X134250000Y-111599996D01*
X137694435Y-111599996D01*
X137694435Y-111600003D01*
X137714630Y-111779249D01*
X137714631Y-111779254D01*
X137774211Y-111949523D01*
X137835924Y-112047738D01*
X137870184Y-112102262D01*
X137997738Y-112229816D01*
X138064148Y-112271544D01*
X138142450Y-112320745D01*
X138150478Y-112325789D01*
X138278955Y-112370745D01*
X138320745Y-112385368D01*
X138320750Y-112385369D01*
X138499996Y-112405565D01*
X138500000Y-112405565D01*
X138500004Y-112405565D01*
X138679249Y-112385369D01*
X138679252Y-112385368D01*
X138679255Y-112385368D01*
X138849522Y-112325789D01*
X139002262Y-112229816D01*
X139129816Y-112102262D01*
X139225789Y-111949522D01*
X139285368Y-111779255D01*
X139285369Y-111779249D01*
X139305565Y-111600003D01*
X139305565Y-111599996D01*
X139285369Y-111420750D01*
X139285368Y-111420745D01*
X139260446Y-111349522D01*
X139243116Y-111299996D01*
X152544435Y-111299996D01*
X152544435Y-111300003D01*
X152564630Y-111479249D01*
X152564631Y-111479254D01*
X152624211Y-111649523D01*
X152683849Y-111744435D01*
X152720184Y-111802262D01*
X152847738Y-111929816D01*
X152915714Y-111972528D01*
X152955833Y-111997737D01*
X153000478Y-112025789D01*
X153063202Y-112047737D01*
X153170745Y-112085368D01*
X153170750Y-112085369D01*
X153349996Y-112105565D01*
X153350000Y-112105565D01*
X153350004Y-112105565D01*
X153529249Y-112085369D01*
X153529252Y-112085368D01*
X153529255Y-112085368D01*
X153699522Y-112025789D01*
X153852262Y-111929816D01*
X153979816Y-111802262D01*
X154075789Y-111649522D01*
X154135368Y-111479255D01*
X154137222Y-111462804D01*
X154155565Y-111300003D01*
X154155565Y-111299996D01*
X154135369Y-111120750D01*
X154135368Y-111120745D01*
X154075789Y-110950478D01*
X153979816Y-110797738D01*
X153852262Y-110670184D01*
X153820900Y-110650478D01*
X153699523Y-110574211D01*
X153529254Y-110514631D01*
X153529249Y-110514630D01*
X153350004Y-110494435D01*
X153349996Y-110494435D01*
X153170750Y-110514630D01*
X153170745Y-110514631D01*
X153000476Y-110574211D01*
X152847737Y-110670184D01*
X152720184Y-110797737D01*
X152624211Y-110950476D01*
X152564631Y-111120745D01*
X152564630Y-111120750D01*
X152544435Y-111299996D01*
X139243116Y-111299996D01*
X139225789Y-111250478D01*
X139129816Y-111097738D01*
X139002262Y-110970184D01*
X138970897Y-110950476D01*
X138849523Y-110874211D01*
X138679254Y-110814631D01*
X138679249Y-110814630D01*
X138500004Y-110794435D01*
X138499996Y-110794435D01*
X138320750Y-110814630D01*
X138320745Y-110814631D01*
X138150476Y-110874211D01*
X137997737Y-110970184D01*
X137870184Y-111097737D01*
X137774211Y-111250476D01*
X137714631Y-111420745D01*
X137714630Y-111420750D01*
X137694435Y-111599996D01*
X134250000Y-111599996D01*
X134250000Y-111505863D01*
X134269007Y-111439890D01*
X134325788Y-111349524D01*
X134360446Y-111250478D01*
X134385368Y-111179255D01*
X134391960Y-111120750D01*
X134405565Y-111000003D01*
X134405565Y-110999996D01*
X134385369Y-110820750D01*
X134385366Y-110820737D01*
X134325790Y-110650481D01*
X134325789Y-110650478D01*
X134269006Y-110560108D01*
X134250000Y-110494136D01*
X134250000Y-110449999D01*
X133555665Y-109929249D01*
X133250000Y-109700000D01*
X133249999Y-109700000D01*
X132406432Y-109700000D01*
X132374339Y-109695775D01*
X132268476Y-109667409D01*
X132268474Y-109667408D01*
X132268472Y-109667408D01*
X132268470Y-109667407D01*
X132268466Y-109667407D01*
X132069451Y-109649996D01*
X141794435Y-109649996D01*
X141794435Y-109650003D01*
X141814630Y-109829249D01*
X141814631Y-109829254D01*
X141874211Y-109999523D01*
X141928152Y-110085369D01*
X141970184Y-110152262D01*
X142097738Y-110279816D01*
X142097740Y-110279817D01*
X142241557Y-110370184D01*
X142250478Y-110375789D01*
X142261984Y-110379815D01*
X142420745Y-110435368D01*
X142420750Y-110435369D01*
X142599996Y-110455565D01*
X142600000Y-110455565D01*
X142600004Y-110455565D01*
X142779249Y-110435369D01*
X142779252Y-110435368D01*
X142779255Y-110435368D01*
X142949522Y-110375789D01*
X143102262Y-110279816D01*
X143198191Y-110183886D01*
X143259510Y-110150404D01*
X143329202Y-110155388D01*
X143385136Y-110197259D01*
X143390862Y-110205598D01*
X143420179Y-110252256D01*
X143420184Y-110252262D01*
X143547738Y-110379816D01*
X143700478Y-110475789D01*
X143763205Y-110497738D01*
X143870745Y-110535368D01*
X143870750Y-110535369D01*
X144049996Y-110555565D01*
X144050000Y-110555565D01*
X144050004Y-110555565D01*
X144229249Y-110535369D01*
X144229252Y-110535368D01*
X144229255Y-110535368D01*
X144399522Y-110475789D01*
X144552262Y-110379816D01*
X144679816Y-110252262D01*
X144775789Y-110099522D01*
X144835368Y-109929255D01*
X144835369Y-109929249D01*
X144855565Y-109750003D01*
X144855565Y-109749996D01*
X144835369Y-109570750D01*
X144835368Y-109570745D01*
X144775788Y-109400476D01*
X144712955Y-109300478D01*
X144712652Y-109299996D01*
X154494435Y-109299996D01*
X154494435Y-109300003D01*
X154514630Y-109479249D01*
X154514631Y-109479254D01*
X154574211Y-109649523D01*
X154637347Y-109750003D01*
X154670184Y-109802262D01*
X154797738Y-109929816D01*
X154950478Y-110025789D01*
X155120745Y-110085368D01*
X155120750Y-110085369D01*
X155299996Y-110105565D01*
X155300000Y-110105565D01*
X155300004Y-110105565D01*
X155479249Y-110085369D01*
X155479252Y-110085368D01*
X155479255Y-110085368D01*
X155649522Y-110025789D01*
X155802262Y-109929816D01*
X155929816Y-109802262D01*
X156025789Y-109649522D01*
X156085368Y-109479255D01*
X156085369Y-109479249D01*
X156105565Y-109300003D01*
X156105565Y-109299996D01*
X156085369Y-109120750D01*
X156085368Y-109120745D01*
X156040800Y-108993378D01*
X156025789Y-108950478D01*
X155929816Y-108797738D01*
X155802262Y-108670184D01*
X155790619Y-108662868D01*
X155649523Y-108574211D01*
X155479254Y-108514631D01*
X155479249Y-108514630D01*
X155300004Y-108494435D01*
X155299996Y-108494435D01*
X155120750Y-108514630D01*
X155120745Y-108514631D01*
X154950476Y-108574211D01*
X154797737Y-108670184D01*
X154670184Y-108797737D01*
X154574211Y-108950476D01*
X154514631Y-109120745D01*
X154514630Y-109120750D01*
X154494435Y-109299996D01*
X144712652Y-109299996D01*
X144679816Y-109247738D01*
X144552262Y-109120184D01*
X144499582Y-109087083D01*
X144399523Y-109024211D01*
X144229254Y-108964631D01*
X144229249Y-108964630D01*
X144050004Y-108944435D01*
X144049996Y-108944435D01*
X143870750Y-108964630D01*
X143870745Y-108964631D01*
X143700476Y-109024211D01*
X143547739Y-109120183D01*
X143451811Y-109216111D01*
X143390487Y-109249595D01*
X143320796Y-109244611D01*
X143264863Y-109202739D01*
X143259136Y-109194401D01*
X143229815Y-109147737D01*
X143102262Y-109020184D01*
X142949523Y-108924211D01*
X142779254Y-108864631D01*
X142779249Y-108864630D01*
X142600004Y-108844435D01*
X142599996Y-108844435D01*
X142420750Y-108864630D01*
X142420745Y-108864631D01*
X142250476Y-108924211D01*
X142097737Y-109020184D01*
X141970184Y-109147737D01*
X141874211Y-109300476D01*
X141814631Y-109470745D01*
X141814630Y-109470750D01*
X141794435Y-109649996D01*
X132069451Y-109649996D01*
X132033502Y-109646851D01*
X132033498Y-109646851D01*
X131798533Y-109667407D01*
X131798523Y-109667409D01*
X131692661Y-109695775D01*
X131660568Y-109700000D01*
X129866432Y-109700000D01*
X129834339Y-109695775D01*
X129728476Y-109667409D01*
X129728474Y-109667408D01*
X129728472Y-109667408D01*
X129728470Y-109667407D01*
X129728466Y-109667407D01*
X129493502Y-109646851D01*
X129493498Y-109646851D01*
X129258533Y-109667407D01*
X129258523Y-109667409D01*
X129152661Y-109695775D01*
X129120568Y-109700000D01*
X128946255Y-109700000D01*
X128879216Y-109680315D01*
X128865044Y-109669705D01*
X128862392Y-109667407D01*
X128635475Y-109470745D01*
X128192789Y-109087083D01*
X128155020Y-109028302D01*
X128150000Y-108993378D01*
X128150000Y-108238361D01*
X128169685Y-108171322D01*
X128171662Y-108168340D01*
X128370661Y-107877496D01*
X136921935Y-107877496D01*
X136921935Y-107877503D01*
X136942130Y-108056749D01*
X136942131Y-108056754D01*
X137001711Y-108227023D01*
X137097684Y-108379762D01*
X137225238Y-108507316D01*
X137377978Y-108603289D01*
X137548245Y-108662868D01*
X137548250Y-108662869D01*
X137727496Y-108683065D01*
X137727500Y-108683065D01*
X137727504Y-108683065D01*
X137906749Y-108662869D01*
X137906752Y-108662868D01*
X137906755Y-108662868D01*
X138077022Y-108603289D01*
X138229762Y-108507316D01*
X138357316Y-108379762D01*
X138453289Y-108227022D01*
X138512868Y-108056755D01*
X138512869Y-108056749D01*
X138533065Y-107877503D01*
X138533065Y-107877496D01*
X138512869Y-107698250D01*
X138512868Y-107698245D01*
X138453289Y-107527978D01*
X138357316Y-107375238D01*
X138283545Y-107301467D01*
X140501532Y-107301467D01*
X140501532Y-107301474D01*
X140521727Y-107480720D01*
X140521728Y-107480725D01*
X140581308Y-107650994D01*
X140670868Y-107793527D01*
X140677281Y-107803733D01*
X140804835Y-107931287D01*
X140865294Y-107969276D01*
X140923047Y-108005565D01*
X140957575Y-108027260D01*
X141041850Y-108056749D01*
X141127842Y-108086839D01*
X141127847Y-108086840D01*
X141307093Y-108107036D01*
X141307097Y-108107036D01*
X141307101Y-108107036D01*
X141486346Y-108086840D01*
X141486349Y-108086839D01*
X141486352Y-108086839D01*
X141656619Y-108027260D01*
X141809359Y-107931287D01*
X141936913Y-107803733D01*
X142032886Y-107650993D01*
X142092465Y-107480726D01*
X142107987Y-107342965D01*
X142112662Y-107301474D01*
X142112662Y-107301467D01*
X142101229Y-107199996D01*
X142944435Y-107199996D01*
X142944435Y-107200003D01*
X142964630Y-107379249D01*
X142964631Y-107379254D01*
X143024211Y-107549523D01*
X143087970Y-107650994D01*
X143120184Y-107702262D01*
X143247738Y-107829816D01*
X143400478Y-107925789D01*
X143467040Y-107949080D01*
X143570745Y-107985368D01*
X143570750Y-107985369D01*
X143749996Y-108005565D01*
X143750000Y-108005565D01*
X143750004Y-108005565D01*
X143929249Y-107985369D01*
X143929252Y-107985368D01*
X143929255Y-107985368D01*
X144099522Y-107925789D01*
X144174408Y-107878734D01*
X144241639Y-107859735D01*
X144306347Y-107878735D01*
X144323479Y-107889500D01*
X144493746Y-107949079D01*
X144493751Y-107949080D01*
X144672997Y-107969276D01*
X144673001Y-107969276D01*
X144673005Y-107969276D01*
X144852250Y-107949080D01*
X144852253Y-107949079D01*
X144852256Y-107949079D01*
X145022523Y-107889500D01*
X145175263Y-107793527D01*
X145302817Y-107665973D01*
X145398790Y-107513233D01*
X145458369Y-107342966D01*
X145463044Y-107301474D01*
X145478566Y-107163714D01*
X145478566Y-107163707D01*
X145458370Y-106984461D01*
X145458369Y-106984456D01*
X145398789Y-106814187D01*
X145302816Y-106661448D01*
X145175263Y-106533895D01*
X145022524Y-106437922D01*
X144852255Y-106378342D01*
X144852250Y-106378341D01*
X144673005Y-106358146D01*
X144672997Y-106358146D01*
X144493751Y-106378341D01*
X144493738Y-106378344D01*
X144323480Y-106437920D01*
X144248594Y-106484974D01*
X144181357Y-106503974D01*
X144116650Y-106484973D01*
X144099524Y-106474211D01*
X143929254Y-106414631D01*
X143929249Y-106414630D01*
X143750004Y-106394435D01*
X143749996Y-106394435D01*
X143570750Y-106414630D01*
X143570745Y-106414631D01*
X143400476Y-106474211D01*
X143247737Y-106570184D01*
X143120184Y-106697737D01*
X143024211Y-106850476D01*
X142964631Y-107020745D01*
X142964630Y-107020750D01*
X142944435Y-107199996D01*
X142101229Y-107199996D01*
X142092466Y-107122221D01*
X142092465Y-107122216D01*
X142074871Y-107071935D01*
X142032886Y-106951949D01*
X141936913Y-106799209D01*
X141809359Y-106671655D01*
X141793115Y-106661448D01*
X141656620Y-106575682D01*
X141486351Y-106516102D01*
X141486346Y-106516101D01*
X141307101Y-106495906D01*
X141307093Y-106495906D01*
X141127847Y-106516101D01*
X141127842Y-106516102D01*
X140957573Y-106575682D01*
X140804834Y-106671655D01*
X140677281Y-106799208D01*
X140581308Y-106951947D01*
X140521728Y-107122216D01*
X140521727Y-107122221D01*
X140501532Y-107301467D01*
X138283545Y-107301467D01*
X138229762Y-107247684D01*
X138077023Y-107151711D01*
X137906754Y-107092131D01*
X137906749Y-107092130D01*
X137727504Y-107071935D01*
X137727496Y-107071935D01*
X137548250Y-107092130D01*
X137548245Y-107092131D01*
X137377976Y-107151711D01*
X137225237Y-107247684D01*
X137097684Y-107375237D01*
X137001711Y-107527976D01*
X136942131Y-107698245D01*
X136942130Y-107698250D01*
X136921935Y-107877496D01*
X128370661Y-107877496D01*
X128763067Y-107303979D01*
X128817169Y-107259767D01*
X128865405Y-107250000D01*
X129232979Y-107250000D01*
X129254508Y-107251883D01*
X129258524Y-107252590D01*
X129258528Y-107252592D01*
X129376014Y-107262870D01*
X129493498Y-107273149D01*
X129493500Y-107273149D01*
X129493502Y-107273149D01*
X129587488Y-107264926D01*
X129728472Y-107252592D01*
X129728477Y-107252590D01*
X129732492Y-107251883D01*
X129754021Y-107250000D01*
X131772979Y-107250000D01*
X131794508Y-107251883D01*
X131798524Y-107252590D01*
X131798528Y-107252592D01*
X131916014Y-107262870D01*
X132033498Y-107273149D01*
X132033500Y-107273149D01*
X132033502Y-107273149D01*
X132127488Y-107264926D01*
X132268472Y-107252592D01*
X132268477Y-107252590D01*
X132272492Y-107251883D01*
X132294021Y-107250000D01*
X133150000Y-107250000D01*
X133900000Y-106200000D01*
X133900000Y-103499996D01*
X139044435Y-103499996D01*
X139044435Y-103500003D01*
X139064630Y-103679249D01*
X139064631Y-103679254D01*
X139124211Y-103849523D01*
X139185924Y-103947738D01*
X139220184Y-104002262D01*
X139347738Y-104129816D01*
X139500478Y-104225789D01*
X139628969Y-104270750D01*
X139670745Y-104285368D01*
X139670750Y-104285369D01*
X139849996Y-104305565D01*
X139850000Y-104305565D01*
X139850004Y-104305565D01*
X140029249Y-104285369D01*
X140029252Y-104285368D01*
X140029255Y-104285368D01*
X140199522Y-104225789D01*
X140352262Y-104129816D01*
X140479816Y-104002262D01*
X140575789Y-103849522D01*
X140635368Y-103679255D01*
X140637016Y-103664630D01*
X140641707Y-103622996D01*
X141194435Y-103622996D01*
X141194435Y-103623003D01*
X141214630Y-103802249D01*
X141214631Y-103802254D01*
X141274211Y-103972523D01*
X141322593Y-104049522D01*
X141370184Y-104125262D01*
X141497738Y-104252816D01*
X141585357Y-104307871D01*
X141634061Y-104338474D01*
X141650478Y-104348789D01*
X141820745Y-104408368D01*
X141820750Y-104408369D01*
X141999996Y-104428565D01*
X142000000Y-104428565D01*
X142000004Y-104428565D01*
X142179249Y-104408369D01*
X142179252Y-104408368D01*
X142179255Y-104408368D01*
X142349522Y-104348789D01*
X142502262Y-104252816D01*
X142629816Y-104125262D01*
X142725789Y-103972522D01*
X142785368Y-103802255D01*
X142785623Y-103799996D01*
X142796890Y-103699996D01*
X145017435Y-103699996D01*
X145017435Y-103700003D01*
X145037630Y-103879249D01*
X145037631Y-103879254D01*
X145097211Y-104049523D01*
X145147662Y-104129815D01*
X145193184Y-104202262D01*
X145320738Y-104329816D01*
X145372664Y-104362443D01*
X145457343Y-104415651D01*
X145503634Y-104467986D01*
X145514282Y-104537040D01*
X145485907Y-104600888D01*
X145457344Y-104625638D01*
X145320740Y-104711472D01*
X145193185Y-104839027D01*
X145097212Y-104991766D01*
X145037632Y-105162035D01*
X145037631Y-105162040D01*
X145017436Y-105341286D01*
X145017436Y-105341293D01*
X145037631Y-105520539D01*
X145037632Y-105520544D01*
X145097212Y-105690813D01*
X145156626Y-105785369D01*
X145193185Y-105843552D01*
X145320739Y-105971106D01*
X145411081Y-106027872D01*
X145452224Y-106053724D01*
X145473479Y-106067079D01*
X145498371Y-106075789D01*
X145643746Y-106126658D01*
X145643751Y-106126659D01*
X145822997Y-106146855D01*
X145823001Y-106146855D01*
X145823005Y-106146855D01*
X146002250Y-106126659D01*
X146002253Y-106126658D01*
X146002256Y-106126658D01*
X146172523Y-106067079D01*
X146325263Y-105971106D01*
X146419467Y-105876901D01*
X146480786Y-105843419D01*
X146550478Y-105848403D01*
X146594826Y-105876904D01*
X146697738Y-105979816D01*
X146788080Y-106036582D01*
X146836614Y-106067078D01*
X146850478Y-106075789D01*
X146995853Y-106126658D01*
X147020745Y-106135368D01*
X147020750Y-106135369D01*
X147199996Y-106155565D01*
X147200000Y-106155565D01*
X147200004Y-106155565D01*
X147379249Y-106135369D01*
X147379252Y-106135368D01*
X147379255Y-106135368D01*
X147549522Y-106075789D01*
X147702262Y-105979816D01*
X147829816Y-105852262D01*
X147925789Y-105699522D01*
X147985368Y-105529255D01*
X147985369Y-105529249D01*
X148005565Y-105350003D01*
X148005565Y-105349996D01*
X147996366Y-105268352D01*
X153162791Y-105268352D01*
X153162791Y-105268359D01*
X153182986Y-105447605D01*
X153182987Y-105447610D01*
X153242567Y-105617879D01*
X153328420Y-105754512D01*
X153338540Y-105770618D01*
X153466094Y-105898172D01*
X153500833Y-105920000D01*
X153596029Y-105979816D01*
X153618834Y-105994145D01*
X153789101Y-106053724D01*
X153789106Y-106053725D01*
X153968352Y-106073921D01*
X153968356Y-106073921D01*
X153968360Y-106073921D01*
X154147605Y-106053725D01*
X154147608Y-106053724D01*
X154147611Y-106053724D01*
X154317878Y-105994145D01*
X154470618Y-105898172D01*
X154598172Y-105770618D01*
X154694145Y-105617878D01*
X154753724Y-105447611D01*
X154764723Y-105349996D01*
X154767553Y-105324874D01*
X154794619Y-105260460D01*
X154852214Y-105220905D01*
X154922051Y-105218767D01*
X154931728Y-105221716D01*
X154970737Y-105235366D01*
X154970743Y-105235367D01*
X154970745Y-105235368D01*
X154970746Y-105235368D01*
X154970750Y-105235369D01*
X155149996Y-105255565D01*
X155150000Y-105255565D01*
X155150004Y-105255565D01*
X155329249Y-105235369D01*
X155329252Y-105235368D01*
X155329255Y-105235368D01*
X155499522Y-105175789D01*
X155652262Y-105079816D01*
X155779816Y-104952262D01*
X155875789Y-104799522D01*
X155935368Y-104629255D01*
X155935776Y-104625637D01*
X155955565Y-104450003D01*
X155955565Y-104449996D01*
X155935369Y-104270750D01*
X155935368Y-104270745D01*
X155892951Y-104149524D01*
X155875789Y-104100478D01*
X155779816Y-103947738D01*
X155652262Y-103820184D01*
X155620144Y-103800003D01*
X155620133Y-103799996D01*
X158094435Y-103799996D01*
X158094435Y-103800003D01*
X158114630Y-103979249D01*
X158114631Y-103979254D01*
X158174211Y-104149523D01*
X158222132Y-104225788D01*
X158259569Y-104285369D01*
X158273889Y-104308158D01*
X158271449Y-104309690D01*
X158292951Y-104362443D01*
X158280156Y-104431132D01*
X158273450Y-104441566D01*
X158273889Y-104441842D01*
X158174211Y-104600476D01*
X158114631Y-104770745D01*
X158114630Y-104770750D01*
X158094435Y-104949996D01*
X158094435Y-104950003D01*
X158114630Y-105129249D01*
X158114631Y-105129254D01*
X158174211Y-105299523D01*
X158205926Y-105349996D01*
X158270184Y-105452262D01*
X158397738Y-105579816D01*
X158550478Y-105675789D01*
X158618306Y-105699523D01*
X158720745Y-105735368D01*
X158720750Y-105735369D01*
X158899996Y-105755565D01*
X158900000Y-105755565D01*
X158900004Y-105755565D01*
X159079249Y-105735369D01*
X159079252Y-105735368D01*
X159079255Y-105735368D01*
X159249522Y-105675789D01*
X159402262Y-105579816D01*
X159529816Y-105452262D01*
X159625789Y-105299522D01*
X159685368Y-105129255D01*
X159689892Y-105089106D01*
X159705565Y-104950003D01*
X159705565Y-104949996D01*
X159685369Y-104770750D01*
X159685368Y-104770745D01*
X159639107Y-104638540D01*
X159625789Y-104600478D01*
X159603265Y-104564632D01*
X159565324Y-104504249D01*
X159529816Y-104447738D01*
X159529815Y-104447737D01*
X159526111Y-104441842D01*
X159528563Y-104440300D01*
X159507057Y-104387643D01*
X159519804Y-104318946D01*
X159526557Y-104308438D01*
X159526111Y-104308158D01*
X159529816Y-104302262D01*
X159625789Y-104149522D01*
X159685368Y-103979255D01*
X159688919Y-103947738D01*
X159705565Y-103800003D01*
X159705565Y-103799996D01*
X162244435Y-103799996D01*
X162244435Y-103800003D01*
X162264630Y-103979249D01*
X162264631Y-103979254D01*
X162324211Y-104149523D01*
X162420184Y-104302262D01*
X162456396Y-104338474D01*
X162489881Y-104399797D01*
X162484897Y-104469489D01*
X162473709Y-104492127D01*
X162374211Y-104650476D01*
X162314631Y-104820745D01*
X162314630Y-104820750D01*
X162294435Y-104999996D01*
X162294435Y-105000003D01*
X162314630Y-105179249D01*
X162314631Y-105179254D01*
X162374211Y-105349523D01*
X162435844Y-105447610D01*
X162470184Y-105502262D01*
X162597738Y-105629816D01*
X162750478Y-105725789D01*
X162832564Y-105754512D01*
X162920745Y-105785368D01*
X162920750Y-105785369D01*
X163099996Y-105805565D01*
X163100000Y-105805565D01*
X163100004Y-105805565D01*
X163279249Y-105785369D01*
X163279252Y-105785368D01*
X163279255Y-105785368D01*
X163449522Y-105725789D01*
X163602262Y-105629816D01*
X163729816Y-105502262D01*
X163825789Y-105349522D01*
X163885368Y-105179255D01*
X163885759Y-105175788D01*
X163905565Y-105000003D01*
X163905565Y-104999996D01*
X163885369Y-104820750D01*
X163885368Y-104820745D01*
X163825788Y-104650476D01*
X163729815Y-104497737D01*
X163693603Y-104461525D01*
X163660118Y-104400202D01*
X163665102Y-104330510D01*
X163676291Y-104307871D01*
X163679814Y-104302263D01*
X163679816Y-104302262D01*
X163775789Y-104149522D01*
X163835368Y-103979255D01*
X163838919Y-103947738D01*
X163855565Y-103800003D01*
X163855565Y-103799996D01*
X163835369Y-103620750D01*
X163835368Y-103620745D01*
X163800376Y-103520745D01*
X163775789Y-103450478D01*
X163771558Y-103443745D01*
X163712955Y-103350478D01*
X163679816Y-103297738D01*
X163552262Y-103170184D01*
X163520897Y-103150476D01*
X163399523Y-103074211D01*
X163229254Y-103014631D01*
X163229249Y-103014630D01*
X163050004Y-102994435D01*
X163049996Y-102994435D01*
X162870750Y-103014630D01*
X162870745Y-103014631D01*
X162700476Y-103074211D01*
X162547737Y-103170184D01*
X162420184Y-103297737D01*
X162324211Y-103450476D01*
X162264631Y-103620745D01*
X162264630Y-103620750D01*
X162244435Y-103799996D01*
X159705565Y-103799996D01*
X159685369Y-103620750D01*
X159685368Y-103620745D01*
X159650376Y-103520745D01*
X159625789Y-103450478D01*
X159621558Y-103443745D01*
X159562955Y-103350478D01*
X159529816Y-103297738D01*
X159402262Y-103170184D01*
X159370897Y-103150476D01*
X159249523Y-103074211D01*
X159079254Y-103014631D01*
X159079249Y-103014630D01*
X158900004Y-102994435D01*
X158899996Y-102994435D01*
X158720750Y-103014630D01*
X158720745Y-103014631D01*
X158550476Y-103074211D01*
X158397737Y-103170184D01*
X158270184Y-103297737D01*
X158174211Y-103450476D01*
X158114631Y-103620745D01*
X158114630Y-103620750D01*
X158094435Y-103799996D01*
X155620133Y-103799996D01*
X155499523Y-103724211D01*
X155329254Y-103664631D01*
X155329249Y-103664630D01*
X155150004Y-103644435D01*
X155149996Y-103644435D01*
X154970750Y-103664630D01*
X154970745Y-103664631D01*
X154800476Y-103724211D01*
X154647737Y-103820184D01*
X154520184Y-103947737D01*
X154424211Y-104100476D01*
X154364631Y-104270745D01*
X154364630Y-104270749D01*
X154350802Y-104393482D01*
X154323735Y-104457896D01*
X154266140Y-104497451D01*
X154196303Y-104499588D01*
X154186628Y-104496640D01*
X154147613Y-104482988D01*
X154147605Y-104482986D01*
X153968360Y-104462791D01*
X153968352Y-104462791D01*
X153789106Y-104482986D01*
X153789101Y-104482987D01*
X153618832Y-104542567D01*
X153466093Y-104638540D01*
X153338540Y-104766093D01*
X153242567Y-104918832D01*
X153182987Y-105089101D01*
X153182986Y-105089106D01*
X153162791Y-105268352D01*
X147996366Y-105268352D01*
X147985369Y-105170750D01*
X147985368Y-105170745D01*
X147956801Y-105089106D01*
X147925789Y-105000478D01*
X147829816Y-104847738D01*
X147702262Y-104720184D01*
X147591326Y-104650478D01*
X147549523Y-104624211D01*
X147379254Y-104564631D01*
X147379249Y-104564630D01*
X147200004Y-104544435D01*
X147199996Y-104544435D01*
X147020750Y-104564630D01*
X147020745Y-104564631D01*
X146850476Y-104624211D01*
X146697739Y-104720183D01*
X146603536Y-104814386D01*
X146542212Y-104847870D01*
X146472521Y-104842886D01*
X146428174Y-104814385D01*
X146325261Y-104711472D01*
X146188656Y-104625637D01*
X146142366Y-104573303D01*
X146131718Y-104504249D01*
X146160093Y-104440401D01*
X146188654Y-104415652D01*
X146325262Y-104329816D01*
X146452816Y-104202262D01*
X146548789Y-104049522D01*
X146608368Y-103879255D01*
X146617044Y-103802254D01*
X146628565Y-103700003D01*
X146628565Y-103699996D01*
X146608369Y-103520750D01*
X146608368Y-103520745D01*
X146592453Y-103475262D01*
X146548789Y-103350478D01*
X146530106Y-103320745D01*
X146485955Y-103250478D01*
X146452816Y-103197738D01*
X146325262Y-103070184D01*
X146236852Y-103014632D01*
X146172523Y-102974211D01*
X146002254Y-102914631D01*
X146002249Y-102914630D01*
X145823004Y-102894435D01*
X145822996Y-102894435D01*
X145643750Y-102914630D01*
X145643745Y-102914631D01*
X145473476Y-102974211D01*
X145320737Y-103070184D01*
X145193184Y-103197737D01*
X145097211Y-103350476D01*
X145037631Y-103520745D01*
X145037630Y-103520750D01*
X145017435Y-103699996D01*
X142796890Y-103699996D01*
X142805565Y-103623003D01*
X142805565Y-103622996D01*
X142785369Y-103443750D01*
X142785368Y-103443745D01*
X142752732Y-103350476D01*
X142725789Y-103273478D01*
X142629816Y-103120738D01*
X142502262Y-102993184D01*
X142470144Y-102973003D01*
X142349523Y-102897211D01*
X142179254Y-102837631D01*
X142179249Y-102837630D01*
X142000004Y-102817435D01*
X141999996Y-102817435D01*
X141820750Y-102837630D01*
X141820745Y-102837631D01*
X141650476Y-102897211D01*
X141497737Y-102993184D01*
X141370184Y-103120737D01*
X141274211Y-103273476D01*
X141214631Y-103443745D01*
X141214630Y-103443750D01*
X141194435Y-103622996D01*
X140641707Y-103622996D01*
X140655565Y-103500003D01*
X140655565Y-103499996D01*
X140635369Y-103320750D01*
X140635368Y-103320745D01*
X140575789Y-103150478D01*
X140557101Y-103120737D01*
X140490431Y-103014632D01*
X140479816Y-102997738D01*
X140352262Y-102870184D01*
X140300456Y-102837632D01*
X140199523Y-102774211D01*
X140029254Y-102714631D01*
X140029249Y-102714630D01*
X139850004Y-102694435D01*
X139849996Y-102694435D01*
X139670750Y-102714630D01*
X139670745Y-102714631D01*
X139500476Y-102774211D01*
X139347737Y-102870184D01*
X139220184Y-102997737D01*
X139124211Y-103150476D01*
X139064631Y-103320745D01*
X139064630Y-103320750D01*
X139044435Y-103499996D01*
X133900000Y-103499996D01*
X133900000Y-100799996D01*
X140494435Y-100799996D01*
X140494435Y-100800003D01*
X140514630Y-100979249D01*
X140514631Y-100979254D01*
X140574211Y-101149523D01*
X140637646Y-101250478D01*
X140670184Y-101302262D01*
X140797738Y-101429816D01*
X140950478Y-101525789D01*
X141120745Y-101585368D01*
X141120750Y-101585369D01*
X141299996Y-101605565D01*
X141300000Y-101605565D01*
X141300004Y-101605565D01*
X141349430Y-101599996D01*
X146594435Y-101599996D01*
X146594435Y-101600003D01*
X146614630Y-101779249D01*
X146614631Y-101779254D01*
X146674211Y-101949523D01*
X146674212Y-101949524D01*
X146770184Y-102102262D01*
X146897738Y-102229816D01*
X147001514Y-102295023D01*
X147024909Y-102309723D01*
X147071200Y-102362058D01*
X147081848Y-102431112D01*
X147063931Y-102480689D01*
X146974211Y-102623476D01*
X146914631Y-102793745D01*
X146914630Y-102793750D01*
X146894435Y-102972996D01*
X146894435Y-102973003D01*
X146914630Y-103152249D01*
X146914631Y-103152254D01*
X146974211Y-103322523D01*
X147050384Y-103443750D01*
X147070184Y-103475262D01*
X147197738Y-103602816D01*
X147263974Y-103644435D01*
X147296117Y-103664632D01*
X147350478Y-103698789D01*
X147423130Y-103724211D01*
X147520745Y-103758368D01*
X147520750Y-103758369D01*
X147699996Y-103778565D01*
X147700000Y-103778565D01*
X147700004Y-103778565D01*
X147879249Y-103758369D01*
X147879252Y-103758368D01*
X147879255Y-103758368D01*
X148049522Y-103698789D01*
X148202262Y-103602816D01*
X148205082Y-103599996D01*
X150244435Y-103599996D01*
X150244435Y-103600003D01*
X150264630Y-103779249D01*
X150264631Y-103779254D01*
X150324211Y-103949523D01*
X150387045Y-104049522D01*
X150420184Y-104102262D01*
X150547738Y-104229816D01*
X150612884Y-104270750D01*
X150674856Y-104309690D01*
X150700478Y-104325789D01*
X150805229Y-104362443D01*
X150870745Y-104385368D01*
X150870750Y-104385369D01*
X151049996Y-104405565D01*
X151050000Y-104405565D01*
X151050004Y-104405565D01*
X151229249Y-104385369D01*
X151229252Y-104385368D01*
X151229255Y-104385368D01*
X151399522Y-104325789D01*
X151552262Y-104229816D01*
X151679816Y-104102262D01*
X151775789Y-103949522D01*
X151835368Y-103779255D01*
X151835446Y-103778565D01*
X151855565Y-103600003D01*
X151855565Y-103599996D01*
X151835369Y-103420750D01*
X151835368Y-103420745D01*
X151821111Y-103380000D01*
X151775789Y-103250478D01*
X151679816Y-103097738D01*
X151552262Y-102970184D01*
X151399523Y-102874211D01*
X151229254Y-102814631D01*
X151229249Y-102814630D01*
X151050004Y-102794435D01*
X151049996Y-102794435D01*
X150870750Y-102814630D01*
X150870745Y-102814631D01*
X150700476Y-102874211D01*
X150547737Y-102970184D01*
X150420184Y-103097737D01*
X150324211Y-103250476D01*
X150264631Y-103420745D01*
X150264630Y-103420750D01*
X150244435Y-103599996D01*
X148205082Y-103599996D01*
X148329816Y-103475262D01*
X148425789Y-103322522D01*
X148485368Y-103152255D01*
X148485369Y-103152249D01*
X148505565Y-102973003D01*
X148505565Y-102972996D01*
X148485369Y-102793750D01*
X148485368Y-102793745D01*
X148425788Y-102623476D01*
X148354620Y-102510213D01*
X148329816Y-102470738D01*
X148202262Y-102343184D01*
X148149009Y-102309723D01*
X148075090Y-102263276D01*
X148028799Y-102210941D01*
X148018151Y-102141887D01*
X148036067Y-102092312D01*
X148125789Y-101949522D01*
X148185368Y-101779255D01*
X148205565Y-101600000D01*
X148203916Y-101585369D01*
X148185369Y-101420750D01*
X148185368Y-101420745D01*
X148145257Y-101306115D01*
X148125789Y-101250478D01*
X148029816Y-101097738D01*
X147902262Y-100970184D01*
X147749523Y-100874211D01*
X147579254Y-100814631D01*
X147579249Y-100814630D01*
X147400004Y-100794435D01*
X147399996Y-100794435D01*
X147220750Y-100814630D01*
X147220745Y-100814631D01*
X147050476Y-100874211D01*
X146897737Y-100970184D01*
X146770184Y-101097737D01*
X146674211Y-101250476D01*
X146614631Y-101420745D01*
X146614630Y-101420750D01*
X146594435Y-101599996D01*
X141349430Y-101599996D01*
X141479249Y-101585369D01*
X141479252Y-101585368D01*
X141479255Y-101585368D01*
X141649522Y-101525789D01*
X141802262Y-101429816D01*
X141929816Y-101302262D01*
X142025789Y-101149522D01*
X142085368Y-100979255D01*
X142101058Y-100840000D01*
X142105565Y-100800003D01*
X142105565Y-100799996D01*
X142085369Y-100620750D01*
X142085368Y-100620745D01*
X142025788Y-100450476D01*
X141929815Y-100297737D01*
X141802262Y-100170184D01*
X141649523Y-100074211D01*
X141479254Y-100014631D01*
X141479249Y-100014630D01*
X141300004Y-99994435D01*
X141299996Y-99994435D01*
X141120750Y-100014630D01*
X141120745Y-100014631D01*
X140950476Y-100074211D01*
X140797737Y-100170184D01*
X140670184Y-100297737D01*
X140574211Y-100450476D01*
X140514631Y-100620745D01*
X140514630Y-100620750D01*
X140494435Y-100799996D01*
X133900000Y-100799996D01*
X133900000Y-99049996D01*
X139644435Y-99049996D01*
X139644435Y-99050003D01*
X139664630Y-99229249D01*
X139664631Y-99229254D01*
X139724211Y-99399523D01*
X139820184Y-99552262D01*
X139947738Y-99679816D01*
X140100478Y-99775789D01*
X140179466Y-99803428D01*
X140270745Y-99835368D01*
X140270750Y-99835369D01*
X140449996Y-99855565D01*
X140450000Y-99855565D01*
X140450004Y-99855565D01*
X140629249Y-99835369D01*
X140629252Y-99835368D01*
X140629255Y-99835368D01*
X140799522Y-99775789D01*
X140952262Y-99679816D01*
X140982082Y-99649996D01*
X148194435Y-99649996D01*
X148194435Y-99650003D01*
X148214630Y-99829249D01*
X148214631Y-99829254D01*
X148274211Y-99999523D01*
X148283705Y-100014632D01*
X148370184Y-100152262D01*
X148497738Y-100279816D01*
X148650478Y-100375789D01*
X148820745Y-100435368D01*
X148820750Y-100435369D01*
X148999996Y-100455565D01*
X149000000Y-100455565D01*
X149000004Y-100455565D01*
X149179249Y-100435369D01*
X149179252Y-100435368D01*
X149179255Y-100435368D01*
X149349522Y-100375789D01*
X149502262Y-100279816D01*
X149629816Y-100152262D01*
X149725789Y-99999522D01*
X149785368Y-99829255D01*
X149791392Y-99775789D01*
X149805565Y-99650003D01*
X149805565Y-99649996D01*
X149785369Y-99470750D01*
X149785368Y-99470745D01*
X149725788Y-99300476D01*
X149629815Y-99147737D01*
X149502262Y-99020184D01*
X149349523Y-98924211D01*
X149179254Y-98864631D01*
X149179249Y-98864630D01*
X149000004Y-98844435D01*
X148999996Y-98844435D01*
X148820750Y-98864630D01*
X148820745Y-98864631D01*
X148650476Y-98924211D01*
X148497737Y-99020184D01*
X148370184Y-99147737D01*
X148274211Y-99300476D01*
X148214631Y-99470745D01*
X148214630Y-99470750D01*
X148194435Y-99649996D01*
X140982082Y-99649996D01*
X141079816Y-99552262D01*
X141175789Y-99399522D01*
X141235368Y-99229255D01*
X141235369Y-99229249D01*
X141255565Y-99050003D01*
X141255565Y-99049996D01*
X141235369Y-98870750D01*
X141235368Y-98870745D01*
X141175788Y-98700476D01*
X141079815Y-98547737D01*
X140952262Y-98420184D01*
X140799523Y-98324211D01*
X140629254Y-98264631D01*
X140629249Y-98264630D01*
X140450004Y-98244435D01*
X140449996Y-98244435D01*
X140270750Y-98264630D01*
X140270745Y-98264631D01*
X140100476Y-98324211D01*
X139947737Y-98420184D01*
X139820184Y-98547737D01*
X139724211Y-98700476D01*
X139664631Y-98870745D01*
X139664630Y-98870750D01*
X139644435Y-99049996D01*
X133900000Y-99049996D01*
X133900000Y-97149996D01*
X137744435Y-97149996D01*
X137744435Y-97150003D01*
X137764630Y-97329249D01*
X137764631Y-97329254D01*
X137824211Y-97499523D01*
X137902065Y-97623426D01*
X137920184Y-97652262D01*
X138047738Y-97779816D01*
X138200478Y-97875789D01*
X138370745Y-97935368D01*
X138370750Y-97935369D01*
X138549996Y-97955565D01*
X138550000Y-97955565D01*
X138550004Y-97955565D01*
X138729249Y-97935369D01*
X138729252Y-97935368D01*
X138729255Y-97935368D01*
X138899522Y-97875789D01*
X139052262Y-97779816D01*
X139179816Y-97652262D01*
X139275789Y-97499522D01*
X139335368Y-97329255D01*
X139342785Y-97263428D01*
X139355565Y-97150003D01*
X139355565Y-97149996D01*
X158944435Y-97149996D01*
X158944435Y-97150003D01*
X158964630Y-97329249D01*
X158964631Y-97329254D01*
X159024211Y-97499523D01*
X159102065Y-97623426D01*
X159120184Y-97652262D01*
X159247738Y-97779816D01*
X159400478Y-97875789D01*
X159570745Y-97935368D01*
X159570750Y-97935369D01*
X159749996Y-97955565D01*
X159750000Y-97955565D01*
X159750004Y-97955565D01*
X159929249Y-97935369D01*
X159929252Y-97935368D01*
X159929255Y-97935368D01*
X160099522Y-97875789D01*
X160252262Y-97779816D01*
X160379816Y-97652262D01*
X160475789Y-97499522D01*
X160510615Y-97399996D01*
X172894435Y-97399996D01*
X172894435Y-97400003D01*
X172914630Y-97579249D01*
X172914631Y-97579254D01*
X172974211Y-97749523D01*
X173027219Y-97833884D01*
X173070184Y-97902262D01*
X173197738Y-98029816D01*
X173350478Y-98125789D01*
X173520745Y-98185368D01*
X173520750Y-98185369D01*
X173699996Y-98205565D01*
X173700000Y-98205565D01*
X173700004Y-98205565D01*
X173879249Y-98185369D01*
X173879252Y-98185368D01*
X173879255Y-98185368D01*
X174049522Y-98125789D01*
X174202262Y-98029816D01*
X174329816Y-97902262D01*
X174425789Y-97749522D01*
X174485368Y-97579255D01*
X174505565Y-97400000D01*
X174497593Y-97329249D01*
X174485369Y-97220750D01*
X174485368Y-97220745D01*
X174425788Y-97050476D01*
X174384878Y-96985368D01*
X174329816Y-96897738D01*
X174202262Y-96770184D01*
X174049523Y-96674211D01*
X173879254Y-96614631D01*
X173879249Y-96614630D01*
X173700004Y-96594435D01*
X173699996Y-96594435D01*
X173520750Y-96614630D01*
X173520745Y-96614631D01*
X173350476Y-96674211D01*
X173197737Y-96770184D01*
X173070184Y-96897737D01*
X172974211Y-97050476D01*
X172914631Y-97220745D01*
X172914630Y-97220750D01*
X172894435Y-97399996D01*
X160510615Y-97399996D01*
X160535368Y-97329255D01*
X160542785Y-97263428D01*
X160555565Y-97150003D01*
X160555565Y-97149996D01*
X160535369Y-96970750D01*
X160535368Y-96970745D01*
X160475788Y-96800476D01*
X160379815Y-96647737D01*
X160252262Y-96520184D01*
X160099523Y-96424211D01*
X159929254Y-96364631D01*
X159929249Y-96364630D01*
X159750004Y-96344435D01*
X159749996Y-96344435D01*
X159570750Y-96364630D01*
X159570745Y-96364631D01*
X159400476Y-96424211D01*
X159247737Y-96520184D01*
X159120184Y-96647737D01*
X159024211Y-96800476D01*
X158964631Y-96970745D01*
X158964630Y-96970750D01*
X158944435Y-97149996D01*
X139355565Y-97149996D01*
X139335369Y-96970750D01*
X139335368Y-96970745D01*
X139275788Y-96800476D01*
X139179815Y-96647737D01*
X139052262Y-96520184D01*
X138899523Y-96424211D01*
X138729254Y-96364631D01*
X138729249Y-96364630D01*
X138550004Y-96344435D01*
X138549996Y-96344435D01*
X138370750Y-96364630D01*
X138370745Y-96364631D01*
X138200476Y-96424211D01*
X138047737Y-96520184D01*
X137920184Y-96647737D01*
X137824211Y-96800476D01*
X137764631Y-96970745D01*
X137764630Y-96970750D01*
X137744435Y-97149996D01*
X133900000Y-97149996D01*
X133900000Y-95749996D01*
X140494435Y-95749996D01*
X140494435Y-95750003D01*
X140514630Y-95929249D01*
X140514631Y-95929254D01*
X140574211Y-96099523D01*
X140637347Y-96200003D01*
X140670184Y-96252262D01*
X140797738Y-96379816D01*
X140950478Y-96475789D01*
X141077352Y-96520184D01*
X141120745Y-96535368D01*
X141120750Y-96535369D01*
X141299996Y-96555565D01*
X141300000Y-96555565D01*
X141300004Y-96555565D01*
X141479249Y-96535369D01*
X141479252Y-96535368D01*
X141479255Y-96535368D01*
X141649522Y-96475789D01*
X141802262Y-96379816D01*
X141929816Y-96252262D01*
X141962657Y-96199996D01*
X144544435Y-96199996D01*
X144544435Y-96200003D01*
X144564630Y-96379249D01*
X144564631Y-96379254D01*
X144624211Y-96549523D01*
X144685924Y-96647738D01*
X144720184Y-96702262D01*
X144847738Y-96829816D01*
X144938080Y-96886582D01*
X144955833Y-96897737D01*
X145000478Y-96925789D01*
X145128955Y-96970745D01*
X145170745Y-96985368D01*
X145170750Y-96985369D01*
X145349996Y-97005565D01*
X145350000Y-97005565D01*
X145350004Y-97005565D01*
X145529249Y-96985369D01*
X145529252Y-96985368D01*
X145529255Y-96985368D01*
X145699522Y-96925789D01*
X145852262Y-96829816D01*
X145979816Y-96702262D01*
X146075789Y-96549522D01*
X146135368Y-96379255D01*
X146137016Y-96364630D01*
X146155565Y-96200003D01*
X146155565Y-96199996D01*
X146135369Y-96020750D01*
X146135368Y-96020745D01*
X146075788Y-95850476D01*
X145979815Y-95697737D01*
X145852262Y-95570184D01*
X145699523Y-95474211D01*
X145529254Y-95414631D01*
X145529249Y-95414630D01*
X145350004Y-95394435D01*
X145349996Y-95394435D01*
X145170750Y-95414630D01*
X145170745Y-95414631D01*
X145000476Y-95474211D01*
X144847737Y-95570184D01*
X144720184Y-95697737D01*
X144624211Y-95850476D01*
X144564631Y-96020745D01*
X144564630Y-96020750D01*
X144544435Y-96199996D01*
X141962657Y-96199996D01*
X142025789Y-96099522D01*
X142085368Y-95929255D01*
X142094244Y-95850478D01*
X142105565Y-95750003D01*
X142105565Y-95749996D01*
X142085369Y-95570750D01*
X142085368Y-95570745D01*
X142051589Y-95474211D01*
X142025789Y-95400478D01*
X142016295Y-95385369D01*
X141929815Y-95247737D01*
X141802262Y-95120184D01*
X141649523Y-95024211D01*
X141479254Y-94964631D01*
X141479249Y-94964630D01*
X141300004Y-94944435D01*
X141299996Y-94944435D01*
X141120750Y-94964630D01*
X141120745Y-94964631D01*
X140950476Y-95024211D01*
X140797737Y-95120184D01*
X140670184Y-95247737D01*
X140574211Y-95400476D01*
X140514631Y-95570745D01*
X140514630Y-95570750D01*
X140494435Y-95749996D01*
X133900000Y-95749996D01*
X133900000Y-94599996D01*
X171594435Y-94599996D01*
X171594435Y-94600003D01*
X171614630Y-94779249D01*
X171614631Y-94779254D01*
X171674211Y-94949523D01*
X171683705Y-94964632D01*
X171770184Y-95102262D01*
X171897738Y-95229816D01*
X172050478Y-95325789D01*
X172220745Y-95385368D01*
X172220750Y-95385369D01*
X172399996Y-95405565D01*
X172400000Y-95405565D01*
X172400004Y-95405565D01*
X172579249Y-95385369D01*
X172579252Y-95385368D01*
X172579255Y-95385368D01*
X172749522Y-95325789D01*
X172902262Y-95229816D01*
X173029816Y-95102262D01*
X173125789Y-94949522D01*
X173185368Y-94779255D01*
X173205565Y-94600000D01*
X173185368Y-94420745D01*
X173125789Y-94250478D01*
X173029816Y-94097738D01*
X172902262Y-93970184D01*
X172831608Y-93925789D01*
X172749523Y-93874211D01*
X172579254Y-93814631D01*
X172579249Y-93814630D01*
X172400004Y-93794435D01*
X172399996Y-93794435D01*
X172220750Y-93814630D01*
X172220745Y-93814631D01*
X172050476Y-93874211D01*
X171897737Y-93970184D01*
X171770184Y-94097737D01*
X171674211Y-94250476D01*
X171614631Y-94420745D01*
X171614630Y-94420750D01*
X171594435Y-94599996D01*
X133900000Y-94599996D01*
X133900000Y-92924500D01*
X133919685Y-92857461D01*
X133972489Y-92811706D01*
X134024000Y-92800500D01*
X166866937Y-92800500D01*
X166933976Y-92820185D01*
G37*
%TD.AperFunction*%
%TD*%
M02*
