M48
; DRILL file {KiCad 8.0.7} date 2024-12-14T18:53:47+0300
; FORMAT={-:-/ absolute / inch / decimal}
; #@! TF.CreationDate,2024-12-14T18:53:47+03:00
; #@! TF.GenerationSoftware,Kicad,Pcbnew,8.0.7
; #@! TF.FileFunction,Plated,1,4,PTH
FMAT,2
INCH
; #@! TA.AperFunction,Plated,PTH,ViaDrill
T1C0.0118
; #@! TA.AperFunction,Plated,PTH,ComponentDrill
T2C0.0433
; #@! TA.AperFunction,Plated,PTH,ComponentDrill
T3C0.0445
%
G90
G05
T1
X5.2972Y-4.5472
X5.4528Y-4.3937
X5.4547Y-3.8248
X5.5059Y-4.0748
X5.5295Y-3.8996
X5.563Y-3.7697
X5.563Y-3.9685
X5.5633Y-4.2245
X5.5906Y-4.0796
X5.6142Y-4.3169
X5.6594Y-4.2205
X5.6958Y-4.219
X5.7411Y-4.0827
X5.7411Y-4.1473
X5.7953Y-4.1476
X5.8031Y-4.0
X5.815Y-4.0541
X5.9469Y-4.0787
X6.0374Y-4.3819
X6.0617Y-4.1444
X6.1083Y-4.1122
X6.1142Y-4.3031
X6.2559Y-4.0866
X6.2559Y-4.1319
X6.2894Y-3.8248
X6.3386Y-4.5335
X6.3878Y-4.4291
X6.4193Y-4.0866
X6.4213Y-4.1339
X6.437Y-4.4272
X6.4882Y-4.4291
X6.5374Y-4.5335
X6.6043Y-3.6693
X6.7874Y-3.7244
X6.8386Y-4.4311
T2
X5.742Y-4.502
X5.842Y-4.502
X5.942Y-4.502
X6.042Y-4.502
T3
X5.0982Y-3.8701
X5.0982Y-3.9701
X5.0982Y-4.0701
X5.0982Y-4.1701
X5.0982Y-4.2701
X5.0982Y-4.3701
X5.1982Y-3.8701
X5.1982Y-3.9701
X5.1982Y-4.0701
X5.1982Y-4.1701
X5.1982Y-4.2701
X5.1982Y-4.3701
M30
