%TF.GenerationSoftware,KiCad,Pcbnew,8.0.7*%
%TF.CreationDate,2024-12-14T18:53:43+03:00*%
%TF.ProjectId,pmod_esp32_4_layer.kicad_sch,706d6f64-5f65-4737-9033-325f345f6c61,rev?*%
%TF.SameCoordinates,Original*%
%TF.FileFunction,Copper,L1,Top*%
%TF.FilePolarity,Positive*%
%FSLAX46Y46*%
G04 Gerber Fmt 4.6, Leading zero omitted, Abs format (unit mm)*
G04 Created by KiCad (PCBNEW 8.0.7) date 2024-12-14 18:53:43*
%MOMM*%
%LPD*%
G01*
G04 APERTURE LIST*
G04 Aperture macros list*
%AMRoundRect*
0 Rectangle with rounded corners*
0 $1 Rounding radius*
0 $2 $3 $4 $5 $6 $7 $8 $9 X,Y pos of 4 corners*
0 Add a 4 corners polygon primitive as box body*
4,1,4,$2,$3,$4,$5,$6,$7,$8,$9,$2,$3,0*
0 Add four circle primitives for the rounded corners*
1,1,$1+$1,$2,$3*
1,1,$1+$1,$4,$5*
1,1,$1+$1,$6,$7*
1,1,$1+$1,$8,$9*
0 Add four rect primitives between the rounded corners*
20,1,$1+$1,$2,$3,$4,$5,0*
20,1,$1+$1,$4,$5,$6,$7,0*
20,1,$1+$1,$6,$7,$8,$9,0*
20,1,$1+$1,$8,$9,$2,$3,0*%
G04 Aperture macros list end*
%TA.AperFunction,SMDPad,CuDef*%
%ADD10RoundRect,0.237500X0.250000X0.237500X-0.250000X0.237500X-0.250000X-0.237500X0.250000X-0.237500X0*%
%TD*%
%TA.AperFunction,SMDPad,CuDef*%
%ADD11RoundRect,0.237500X-0.237500X0.250000X-0.237500X-0.250000X0.237500X-0.250000X0.237500X0.250000X0*%
%TD*%
%TA.AperFunction,SMDPad,CuDef*%
%ADD12RoundRect,0.237500X-0.300000X-0.237500X0.300000X-0.237500X0.300000X0.237500X-0.300000X0.237500X0*%
%TD*%
%TA.AperFunction,SMDPad,CuDef*%
%ADD13RoundRect,0.099000X-0.351000X0.751000X-0.351000X-0.751000X0.351000X-0.751000X0.351000X0.751000X0*%
%TD*%
%TA.AperFunction,SMDPad,CuDef*%
%ADD14R,4.000000X4.000000*%
%TD*%
%TA.AperFunction,SMDPad,CuDef*%
%ADD15RoundRect,0.099000X-0.751000X0.351000X-0.751000X-0.351000X0.751000X-0.351000X0.751000X0.351000X0*%
%TD*%
%TA.AperFunction,SMDPad,CuDef*%
%ADD16RoundRect,0.237500X0.237500X-0.250000X0.237500X0.250000X-0.237500X0.250000X-0.237500X-0.250000X0*%
%TD*%
%TA.AperFunction,SMDPad,CuDef*%
%ADD17RoundRect,0.237500X0.237500X-0.300000X0.237500X0.300000X-0.237500X0.300000X-0.237500X-0.300000X0*%
%TD*%
%TA.AperFunction,ComponentPad*%
%ADD18C,1.695000*%
%TD*%
%TA.AperFunction,SMDPad,CuDef*%
%ADD19RoundRect,0.250001X0.462499X0.624999X-0.462499X0.624999X-0.462499X-0.624999X0.462499X-0.624999X0*%
%TD*%
%TA.AperFunction,SMDPad,CuDef*%
%ADD20RoundRect,0.237500X-0.250000X-0.237500X0.250000X-0.237500X0.250000X0.237500X-0.250000X0.237500X0*%
%TD*%
%TA.AperFunction,SMDPad,CuDef*%
%ADD21R,1.100000X2.200000*%
%TD*%
%TA.AperFunction,SMDPad,CuDef*%
%ADD22R,1.300000X1.550000*%
%TD*%
%TA.AperFunction,SMDPad,CuDef*%
%ADD23RoundRect,0.237500X0.300000X0.237500X-0.300000X0.237500X-0.300000X-0.237500X0.300000X-0.237500X0*%
%TD*%
%TA.AperFunction,SMDPad,CuDef*%
%ADD24RoundRect,0.250001X-0.462499X-0.624999X0.462499X-0.624999X0.462499X0.624999X-0.462499X0.624999X0*%
%TD*%
%TA.AperFunction,ComponentPad*%
%ADD25R,1.650000X1.650000*%
%TD*%
%TA.AperFunction,ComponentPad*%
%ADD26C,1.650000*%
%TD*%
%TA.AperFunction,ViaPad*%
%ADD27C,0.600000*%
%TD*%
%TA.AperFunction,Conductor*%
%ADD28C,0.640000*%
%TD*%
%TA.AperFunction,Conductor*%
%ADD29C,0.200000*%
%TD*%
%TA.AperFunction,Conductor*%
%ADD30C,0.254000*%
%TD*%
G04 APERTURE END LIST*
D10*
%TO.P,R10,1*%
%TO.N,/IO0*%
X146950000Y-111500000D03*
%TO.P,R10,2*%
%TO.N,Net-(R10-Pad2)*%
X145125000Y-111500000D03*
%TD*%
%TO.P,R13,1*%
%TO.N,/IO0*%
X146950000Y-109750000D03*
%TO.P,R13,2*%
%TO.N,/VCC3V3*%
X145125000Y-109750000D03*
%TD*%
D11*
%TO.P,R11,1*%
%TO.N,Net-(R11-Pad1)*%
X133575000Y-114262500D03*
%TO.P,R11,2*%
%TO.N,/SELECT*%
X133575000Y-116087500D03*
%TD*%
D12*
%TO.P,C3,1*%
%TO.N,/GND*%
X169375000Y-93500000D03*
%TO.P,C3,2*%
%TO.N,/VCC3V3*%
X171100000Y-93500000D03*
%TD*%
D13*
%TO.P,U1,1,GND*%
%TO.N,/GND*%
X174970000Y-95870000D03*
D14*
%TO.P,U1,1.1,GND*%
X167560000Y-104170000D03*
D13*
%TO.P,U1,2,3V3*%
%TO.N,/VCC3V3*%
X173700000Y-95870000D03*
%TO.P,U1,3,EN*%
%TO.N,/EN*%
X172430000Y-95870000D03*
%TO.P,U1,4,SENSOR_VP*%
%TO.N,unconnected-(U1-SENSOR_VP-Pad4)*%
X171160000Y-95870000D03*
%TO.P,U1,5,SENSOR_VN*%
%TO.N,unconnected-(U1-SENSOR_VN-Pad5)*%
X169890000Y-95870000D03*
%TO.P,U1,6,IO34*%
%TO.N,unconnected-(U1-IO34-Pad6)*%
X168620000Y-95870000D03*
%TO.P,U1,7,IO35*%
%TO.N,unconnected-(U1-IO35-Pad7)*%
X167350000Y-95870000D03*
%TO.P,U1,8,IO32*%
%TO.N,/GPIO*%
X166080000Y-95870000D03*
%TO.P,U1,9,IO33*%
%TO.N,unconnected-(U1-IO33-Pad9)*%
X164810000Y-95870000D03*
%TO.P,U1,10,IO25*%
%TO.N,unconnected-(U1-IO25-Pad10)*%
X163540000Y-95870000D03*
%TO.P,U1,11,IO26*%
%TO.N,/SELECT*%
X162270000Y-95870000D03*
%TO.P,U1,12,IO27*%
%TO.N,unconnected-(U1-IO27-Pad12)*%
X161000000Y-95870000D03*
%TO.P,U1,13,IO14*%
%TO.N,/RTS*%
X159730000Y-95870000D03*
%TO.P,U1,14,IO12*%
%TO.N,/LD0*%
X158460000Y-95870000D03*
D15*
%TO.P,U1,15,GND*%
%TO.N,/GND*%
X156960000Y-99155000D03*
%TO.P,U1,16,IO13*%
%TO.N,unconnected-(U1-IO13-Pad16)*%
X156960000Y-100425000D03*
%TO.P,U1,17,SHD/SD2*%
%TO.N,unconnected-(U1-SHD{slash}SD2-Pad17)*%
X156960000Y-101695000D03*
%TO.P,U1,18,SWP/SD3*%
%TO.N,unconnected-(U1-SWP{slash}SD3-Pad18)*%
X156960000Y-102965000D03*
%TO.P,U1,19,SCS/CMD*%
%TO.N,unconnected-(U1-SCS{slash}CMD-Pad19)*%
X156960000Y-104235000D03*
%TO.P,U1,20,SCK/CLK*%
%TO.N,unconnected-(U1-SCK{slash}CLK-Pad20)*%
X156960000Y-105505000D03*
%TO.P,U1,21,SDO/SD0*%
%TO.N,unconnected-(U1-SDO{slash}SD0-Pad21)*%
X156960000Y-106775000D03*
%TO.P,U1,22,SDI/SD1*%
%TO.N,unconnected-(U1-SDI{slash}SD1-Pad22)*%
X156960000Y-108045000D03*
%TO.P,U1,23,IO15*%
%TO.N,/CTS*%
X156960000Y-109315000D03*
%TO.P,U1,24,IO2*%
%TO.N,/INT*%
X156960000Y-110585000D03*
D13*
%TO.P,U1,25,IO0*%
%TO.N,/IO0*%
X158460000Y-113870000D03*
%TO.P,U1,26,IO4*%
%TO.N,unconnected-(U1-IO4-Pad26)*%
X159730000Y-113870000D03*
%TO.P,U1,27,IO16*%
%TO.N,/RXD*%
X161000000Y-113870000D03*
%TO.P,U1,28,IO17*%
%TO.N,/TXD*%
X162270000Y-113870000D03*
%TO.P,U1,29,IO5*%
%TO.N,/SS*%
X163540000Y-113870000D03*
%TO.P,U1,30,IO18*%
%TO.N,/SCK*%
X164810000Y-113870000D03*
%TO.P,U1,31,IO19*%
%TO.N,/MISO*%
X166080000Y-113870000D03*
%TO.P,U1,32*%
%TO.N,N/C*%
X167350000Y-113870000D03*
%TO.P,U1,33,IO21*%
%TO.N,unconnected-(U1-IO21-Pad33)*%
X168620000Y-113870000D03*
%TO.P,U1,34,RXD0*%
%TO.N,/RXD0*%
X169890000Y-113870000D03*
%TO.P,U1,35,TXD0*%
%TO.N,/TXD0*%
X171160000Y-113870000D03*
%TO.P,U1,36,IO22*%
%TO.N,unconnected-(U1-IO22-Pad36)*%
X172430000Y-113870000D03*
%TO.P,U1,37,IO23*%
%TO.N,/MOSI*%
X173700000Y-113870000D03*
%TO.P,U1,38,GND*%
%TO.N,/GND*%
X174970000Y-113870000D03*
%TD*%
D16*
%TO.P,R12,1*%
%TO.N,/SELECT*%
X131725000Y-116087500D03*
%TO.P,R12,2*%
%TO.N,/GND*%
X131725000Y-114262500D03*
%TD*%
D17*
%TO.P,C1,1*%
%TO.N,/EN*%
X144050000Y-102312500D03*
%TO.P,C1,2*%
%TO.N,/GND*%
X144050000Y-100587500D03*
%TD*%
D18*
%TO.P,J2,1,1*%
%TO.N,Net-(J2-Pad1)*%
X132033500Y-98300000D03*
%TO.P,J2,2,2*%
%TO.N,Net-(J2-Pad2)*%
X132033500Y-100840000D03*
%TO.P,J2,3,3*%
%TO.N,Net-(J2-Pad3)*%
X132033500Y-103380000D03*
%TO.P,J2,4,4*%
%TO.N,Net-(J2-Pad4)*%
X132033500Y-105920000D03*
%TO.P,J2,5,5*%
%TO.N,/GND*%
X132033500Y-108460000D03*
%TO.P,J2,6,6*%
%TO.N,/VCC3V3*%
X132033500Y-111000000D03*
%TO.P,J2,7,7*%
%TO.N,Net-(J2-Pad7)*%
X129493500Y-98300000D03*
%TO.P,J2,8,8*%
%TO.N,Net-(J2-Pad8)*%
X129493500Y-100840000D03*
%TO.P,J2,9,9*%
%TO.N,Net-(J2-Pad9)*%
X129493500Y-103380000D03*
%TO.P,J2,10,10*%
%TO.N,Net-(J2-Pad10)*%
X129493500Y-105920000D03*
%TO.P,J2,11,11*%
%TO.N,/GND*%
X129493500Y-108460000D03*
%TO.P,J2,12,12*%
%TO.N,/VCC3V3*%
X129493500Y-111000000D03*
%TD*%
D16*
%TO.P,R5,1*%
%TO.N,/VCC3V3*%
X144050000Y-96212500D03*
%TO.P,R5,2*%
%TO.N,/EN*%
X144050000Y-94387500D03*
%TD*%
D19*
%TO.P,LD2,1,K*%
%TO.N,Net-(LD2-K)*%
X153437500Y-99750000D03*
%TO.P,LD2,2,A*%
%TO.N,/VCC3V3*%
X150462500Y-99750000D03*
%TD*%
D10*
%TO.P,R15,1*%
%TO.N,Net-(LD2-K)*%
X152012500Y-101950000D03*
%TO.P,R15,2*%
%TO.N,/GND*%
X150187500Y-101950000D03*
%TD*%
D20*
%TO.P,R14,1*%
%TO.N,Net-(LD1-K)*%
X150187500Y-94350000D03*
%TO.P,R14,2*%
%TO.N,/GND*%
X152012500Y-94350000D03*
%TD*%
D21*
%TO.P,S2,1*%
%TO.N,Net-(R11-Pad1)*%
X137727500Y-114900000D03*
%TO.P,S2,2*%
%TO.N,Net-(R10-Pad2)*%
X140267500Y-114900000D03*
%TO.P,S2,A1*%
%TO.N,/VCC3V3*%
X137727500Y-106100000D03*
%TO.P,S2,A2*%
%TO.N,/GND*%
X140267500Y-106100000D03*
%TD*%
D22*
%TO.P,S1,1*%
%TO.N,/EN*%
X141337500Y-94375000D03*
%TO.P,S1,2*%
%TO.N,/GND*%
X136837500Y-94375000D03*
%TO.P,S1,3*%
%TO.N,/EN*%
X141337500Y-102325000D03*
%TO.P,S1,4*%
%TO.N,/GND*%
X136837500Y-102325000D03*
%TD*%
D23*
%TO.P,C2,1*%
%TO.N,/GND*%
X174750000Y-93500000D03*
%TO.P,C2,2*%
%TO.N,/VCC3V3*%
X173025000Y-93500000D03*
%TD*%
D24*
%TO.P,LD1,1,K*%
%TO.N,Net-(LD1-K)*%
X150462500Y-96500000D03*
%TO.P,LD1,2,A*%
%TO.N,/LD0*%
X153437500Y-96500000D03*
%TD*%
D25*
%TO.P,J1,1,1*%
%TO.N,/TXD0*%
X145847500Y-114350000D03*
D26*
%TO.P,J1,2,2*%
%TO.N,/RXD0*%
X148387500Y-114350000D03*
%TO.P,J1,3,3*%
%TO.N,/GND*%
X150927500Y-114350000D03*
%TO.P,J1,4,4*%
%TO.N,/IO0*%
X153467500Y-114350000D03*
%TD*%
D27*
%TO.N,/SELECT*%
X134550000Y-115500000D03*
%TO.N,/EN*%
X139850000Y-103500000D03*
X167750000Y-93200000D03*
X172400000Y-94600000D03*
X141300000Y-95750000D03*
X141300000Y-100800000D03*
%TO.N,/GND*%
X150200000Y-103150000D03*
X167550000Y-101600000D03*
X175100000Y-97500000D03*
X138300000Y-94350000D03*
X153300000Y-94350000D03*
X175000000Y-112150000D03*
X133600000Y-108450000D03*
X169350000Y-94500000D03*
X140250000Y-108050000D03*
X158750000Y-99150000D03*
X142550000Y-100550000D03*
%TO.N,/VCC3V3*%
X145350000Y-96200000D03*
X173700000Y-97400000D03*
X137727500Y-107877500D03*
X144050000Y-109750000D03*
X133600000Y-111000000D03*
X149000000Y-99650000D03*
%TO.N,/RTS{slash}SS*%
X147400000Y-101600000D03*
X138550000Y-97150000D03*
%TO.N,/INT*%
X140450000Y-99050000D03*
%TO.N,/SELECT*%
X141307097Y-107301471D03*
X144673001Y-107163711D03*
X147200000Y-105350000D03*
X145823001Y-105341290D03*
X138500000Y-111600000D03*
%TO.N,/GPIO*%
X153350000Y-111300000D03*
%TO.N,/CTS{slash}SCK*%
X143750000Y-107200000D03*
X145823000Y-103700000D03*
%TO.N,/TXD*%
X162250000Y-112500000D03*
%TO.N,/SS*%
X163500000Y-112450000D03*
%TO.N,/MOSI*%
X163050000Y-103800000D03*
X158900000Y-103800000D03*
X173700000Y-112550000D03*
X151050000Y-103600000D03*
X147700000Y-102973000D03*
%TO.N,/CTS*%
X155300000Y-109300000D03*
%TO.N,/MISO*%
X166050000Y-115150000D03*
%TO.N,/RTS*%
X159750000Y-97150000D03*
%TO.N,/SCK*%
X163100000Y-105000000D03*
X158900000Y-104950000D03*
X153968356Y-105268356D03*
X164800000Y-112500000D03*
X155150000Y-104450000D03*
%TO.N,/RXD*%
X161000000Y-115150000D03*
X142000000Y-103623000D03*
X142600000Y-109650000D03*
%TO.N,/GND*%
X130800000Y-113650000D03*
%TD*%
D28*
%TO.N,/GND*%
X131112500Y-113650000D02*
X131725000Y-114262500D01*
X130800000Y-113650000D02*
X131112500Y-113650000D01*
D29*
%TO.N,Net-(R11-Pad1)*%
X135325000Y-114900000D02*
X137727500Y-114900000D01*
X134687500Y-114262500D02*
X135325000Y-114900000D01*
X133575000Y-114262500D02*
X134687500Y-114262500D01*
%TO.N,/SELECT*%
X133962500Y-116087500D02*
X134550000Y-115500000D01*
X133575000Y-116087500D02*
X133962500Y-116087500D01*
X133575000Y-116087500D02*
X131725000Y-116087500D01*
D30*
%TO.N,/EN*%
X144500000Y-93200000D02*
X144050000Y-93650000D01*
D28*
X141350000Y-102312500D02*
X141337500Y-102325000D01*
D30*
X140162500Y-103500000D02*
X141337500Y-102325000D01*
D28*
X141350000Y-94387500D02*
X141337500Y-94375000D01*
D30*
X141300000Y-94412500D02*
X141337500Y-94375000D01*
X141337500Y-102325000D02*
X141337500Y-100837500D01*
D28*
X144050000Y-94387500D02*
X141350000Y-94387500D01*
D30*
X141300000Y-95750000D02*
X141300000Y-94412500D01*
X172430000Y-95870000D02*
X172430000Y-94630000D01*
X167750000Y-93200000D02*
X144500000Y-93200000D01*
X172430000Y-94630000D02*
X172400000Y-94600000D01*
X139850000Y-103500000D02*
X140162500Y-103500000D01*
X144050000Y-93650000D02*
X144050000Y-94387500D01*
X141337500Y-100837500D02*
X141300000Y-100800000D01*
D28*
X144050000Y-102312500D02*
X141350000Y-102312500D01*
%TO.N,/GND*%
X174970000Y-97370000D02*
X175100000Y-97500000D01*
X142587500Y-100587500D02*
X142550000Y-100550000D01*
X144050000Y-100587500D02*
X142587500Y-100587500D01*
X174970000Y-95870000D02*
X174970000Y-97370000D01*
X136837500Y-102325000D02*
X136837500Y-94375000D01*
X174750000Y-95650000D02*
X174970000Y-95870000D01*
D30*
X167560000Y-101610000D02*
X167550000Y-101600000D01*
D28*
X138275000Y-94375000D02*
X138300000Y-94350000D01*
X140267500Y-106100000D02*
X140267500Y-108032500D01*
X156960000Y-99155000D02*
X158745000Y-99155000D01*
X169375000Y-93500000D02*
X169375000Y-94475000D01*
X150187500Y-103137500D02*
X150187500Y-101950000D01*
X140267500Y-108032500D02*
X140250000Y-108050000D01*
X174970000Y-112180000D02*
X175000000Y-112150000D01*
D30*
X167560000Y-104170000D02*
X167560000Y-101610000D01*
D28*
X150200000Y-103150000D02*
X150187500Y-103137500D01*
X169375000Y-94475000D02*
X169350000Y-94500000D01*
X133590000Y-108460000D02*
X133600000Y-108450000D01*
X174750000Y-93500000D02*
X174750000Y-95650000D01*
X132033500Y-108460000D02*
X133590000Y-108460000D01*
X130800000Y-113650000D02*
X130837500Y-113687500D01*
X152012500Y-94350000D02*
X153300000Y-94350000D01*
X174970000Y-113870000D02*
X174970000Y-112180000D01*
X158745000Y-99155000D02*
X158750000Y-99150000D01*
X136837500Y-94375000D02*
X138275000Y-94375000D01*
%TO.N,/VCC3V3*%
X171100000Y-93500000D02*
X173025000Y-93500000D01*
X173700000Y-94175000D02*
X173025000Y-93500000D01*
X137727500Y-106100000D02*
X137727500Y-107877500D01*
X173700000Y-95870000D02*
X173700000Y-94175000D01*
X144050000Y-109750000D02*
X144100000Y-109750000D01*
X173700000Y-95870000D02*
X173700000Y-97400000D01*
X145125000Y-109750000D02*
X144050000Y-109750000D01*
X149000000Y-99650000D02*
X150362500Y-99650000D01*
X145337500Y-96212500D02*
X145350000Y-96200000D01*
X150362500Y-99650000D02*
X150462500Y-99750000D01*
X137750000Y-107900000D02*
X137727500Y-107877500D01*
X144050000Y-96212500D02*
X145337500Y-96212500D01*
X132033500Y-111000000D02*
X133600000Y-111000000D01*
D30*
%TO.N,/TXD0*%
X171160000Y-114590000D02*
X171160000Y-113870000D01*
X148170500Y-116673000D02*
X169077000Y-116673000D01*
X145847500Y-114350000D02*
X148170500Y-116673000D01*
X169077000Y-116673000D02*
X171160000Y-114590000D01*
%TO.N,/IO0*%
X153467500Y-112617500D02*
X153467500Y-114350000D01*
X146950000Y-109750000D02*
X146950000Y-111500000D01*
X153467500Y-114350000D02*
X157980000Y-114350000D01*
X157980000Y-114350000D02*
X158460000Y-113870000D01*
X146950000Y-111500000D02*
X152350000Y-111500000D01*
X152350000Y-111500000D02*
X153467500Y-112617500D01*
%TO.N,/RXD0*%
X150037500Y-116000000D02*
X168700000Y-116000000D01*
X168700000Y-116000000D02*
X169890000Y-114810000D01*
X148387500Y-114350000D02*
X150037500Y-116000000D01*
X169890000Y-114810000D02*
X169890000Y-113870000D01*
%TO.N,/LD0*%
X155400000Y-96500000D02*
X156030000Y-95870000D01*
X156030000Y-95870000D02*
X158460000Y-95870000D01*
X153437500Y-96500000D02*
X155400000Y-96500000D01*
%TO.N,Net-(LD1-K)*%
X150187500Y-94350000D02*
X150187500Y-96225000D01*
X150187500Y-96225000D02*
X150462500Y-96500000D01*
%TO.N,Net-(LD2-K)*%
X152012500Y-101950000D02*
X152600000Y-101950000D01*
X152600000Y-101950000D02*
X153437500Y-101112500D01*
X153437500Y-101112500D02*
X153437500Y-99750000D01*
%TO.N,/RTS{slash}SS*%
X142150000Y-96600000D02*
X143500000Y-97950000D01*
X146750000Y-98000000D02*
X147400000Y-98650000D01*
X139100000Y-96600000D02*
X142150000Y-96600000D01*
X147400000Y-98650000D02*
X147400000Y-101600000D01*
X143500000Y-97950000D02*
X144800000Y-97950000D01*
X146700000Y-97950000D02*
X146750000Y-98000000D01*
X138550000Y-97150000D02*
X139100000Y-96600000D01*
X144800000Y-97950000D02*
X146700000Y-97950000D01*
%TO.N,/INT*%
X146450000Y-99600000D02*
X146450000Y-107450000D01*
X150400000Y-110600000D02*
X150415000Y-110585000D01*
X146450000Y-107450000D02*
X149600000Y-110600000D01*
X149600000Y-110600000D02*
X150400000Y-110600000D01*
X145900000Y-99050000D02*
X146450000Y-99600000D01*
X150415000Y-110585000D02*
X156960000Y-110585000D01*
X140450000Y-99050000D02*
X145900000Y-99050000D01*
%TO.N,/SELECT*%
X141307097Y-108792903D02*
X141307097Y-107301471D01*
X145823001Y-106862369D02*
X145823001Y-105341290D01*
X154900000Y-98600000D02*
X155723000Y-97777000D01*
X147200000Y-105350000D02*
X153000000Y-105350000D01*
X138500000Y-111600000D02*
X141307097Y-108792903D01*
X161223000Y-97777000D02*
X162270000Y-96730000D01*
X154900000Y-103450000D02*
X154900000Y-98600000D01*
X145521659Y-107163711D02*
X145823001Y-106862369D01*
X162270000Y-96730000D02*
X162270000Y-95870000D01*
X155723000Y-97777000D02*
X161223000Y-97777000D01*
X153000000Y-105350000D02*
X154900000Y-103450000D01*
X144673001Y-107163711D02*
X145521659Y-107163711D01*
%TO.N,/GPIO*%
X166080000Y-96719999D02*
X164150000Y-98649999D01*
X164150000Y-98649999D02*
X164150000Y-109650000D01*
X164150000Y-109650000D02*
X164150000Y-110500000D01*
X153850000Y-111800000D02*
X153350000Y-111300000D01*
X162850000Y-111800000D02*
X154200000Y-111800000D01*
X154200000Y-111800000D02*
X153850000Y-111800000D01*
X166080000Y-95870000D02*
X166080000Y-96719999D01*
X164150000Y-110500000D02*
X163200000Y-111450000D01*
X163200000Y-111450000D02*
X162850000Y-111800000D01*
%TO.N,/CTS{slash}SCK*%
X145150000Y-104373000D02*
X145823000Y-103700000D01*
X143750000Y-107200000D02*
X145150000Y-105800000D01*
X145150000Y-105800000D02*
X145150000Y-104373000D01*
%TO.N,Net-(R10-Pad2)*%
X140267500Y-114900000D02*
X140267500Y-114032500D01*
X142800000Y-111500000D02*
X145125000Y-111500000D01*
X140267500Y-114032500D02*
X142800000Y-111500000D01*
%TO.N,/TXD*%
X162270000Y-112520000D02*
X162250000Y-112500000D01*
X162270000Y-113870000D02*
X162270000Y-112520000D01*
%TO.N,/SS*%
X163500000Y-112450000D02*
X163500000Y-113830000D01*
X163500000Y-113830000D02*
X163540000Y-113870000D01*
%TO.N,/MOSI*%
X150853000Y-103797000D02*
X148524000Y-103797000D01*
X151050000Y-103600000D02*
X150853000Y-103797000D01*
X173700000Y-113870000D02*
X173700000Y-112550000D01*
X163050000Y-103800000D02*
X158900000Y-103800000D01*
X148524000Y-103797000D02*
X147700000Y-102973000D01*
%TO.N,/CTS*%
X156945000Y-109300000D02*
X156960000Y-109315000D01*
X155300000Y-109300000D02*
X156945000Y-109300000D01*
%TO.N,/MISO*%
X166050000Y-113900000D02*
X166080000Y-113870000D01*
X166050000Y-115150000D02*
X166050000Y-113900000D01*
%TO.N,/RTS*%
X159750000Y-95890000D02*
X159730000Y-95870000D01*
X159750000Y-97150000D02*
X159750000Y-95890000D01*
%TO.N,/SCK*%
X164810000Y-112510000D02*
X164800000Y-112500000D01*
X154550000Y-104450000D02*
X153968356Y-105031644D01*
X158950000Y-105000000D02*
X158900000Y-104950000D01*
X153968356Y-105031644D02*
X153968356Y-105268356D01*
X164810000Y-113870000D02*
X164810000Y-112510000D01*
X163100000Y-105000000D02*
X158950000Y-105000000D01*
X155150000Y-104450000D02*
X154550000Y-104450000D01*
%TO.N,/RXD*%
X142000000Y-109050000D02*
X142000000Y-103623000D01*
X142600000Y-109650000D02*
X142000000Y-109050000D01*
X161000000Y-113870000D02*
X161000000Y-115150000D01*
%TD*%
M02*
