%TF.GenerationSoftware,KiCad,Pcbnew,8.0.5*%
%TF.CreationDate,2024-11-24T20:06:06+03:00*%
%TF.ProjectId,pmod_esp32,706d6f64-5f65-4737-9033-322e6b696361,0.1*%
%TF.SameCoordinates,Original*%
%TF.FileFunction,Legend,Bot*%
%TF.FilePolarity,Positive*%
%FSLAX46Y46*%
G04 Gerber Fmt 4.6, Leading zero omitted, Abs format (unit mm)*
G04 Created by KiCad (PCBNEW 8.0.5) date 2024-11-24 20:06:06*
%MOMM*%
%LPD*%
G01*
G04 APERTURE LIST*
%ADD10C,0.100000*%
%ADD11C,0.120000*%
%ADD12C,0.127000*%
%ADD13C,0.200000*%
G04 APERTURE END LIST*
D10*
X193676109Y-58316666D02*
X193438014Y-58150000D01*
X193676109Y-58030952D02*
X193176109Y-58030952D01*
X193176109Y-58030952D02*
X193176109Y-58221428D01*
X193176109Y-58221428D02*
X193199919Y-58269047D01*
X193199919Y-58269047D02*
X193223728Y-58292857D01*
X193223728Y-58292857D02*
X193271347Y-58316666D01*
X193271347Y-58316666D02*
X193342776Y-58316666D01*
X193342776Y-58316666D02*
X193390395Y-58292857D01*
X193390395Y-58292857D02*
X193414204Y-58269047D01*
X193414204Y-58269047D02*
X193438014Y-58221428D01*
X193438014Y-58221428D02*
X193438014Y-58030952D01*
X193223728Y-58507143D02*
X193199919Y-58530952D01*
X193199919Y-58530952D02*
X193176109Y-58578571D01*
X193176109Y-58578571D02*
X193176109Y-58697619D01*
X193176109Y-58697619D02*
X193199919Y-58745238D01*
X193199919Y-58745238D02*
X193223728Y-58769047D01*
X193223728Y-58769047D02*
X193271347Y-58792857D01*
X193271347Y-58792857D02*
X193318966Y-58792857D01*
X193318966Y-58792857D02*
X193390395Y-58769047D01*
X193390395Y-58769047D02*
X193676109Y-58483333D01*
X193676109Y-58483333D02*
X193676109Y-58792857D01*
X201821428Y-49026109D02*
X201988094Y-48788014D01*
X202107142Y-49026109D02*
X202107142Y-48526109D01*
X202107142Y-48526109D02*
X201916666Y-48526109D01*
X201916666Y-48526109D02*
X201869047Y-48549919D01*
X201869047Y-48549919D02*
X201845237Y-48573728D01*
X201845237Y-48573728D02*
X201821428Y-48621347D01*
X201821428Y-48621347D02*
X201821428Y-48692776D01*
X201821428Y-48692776D02*
X201845237Y-48740395D01*
X201845237Y-48740395D02*
X201869047Y-48764204D01*
X201869047Y-48764204D02*
X201916666Y-48788014D01*
X201916666Y-48788014D02*
X202107142Y-48788014D01*
X201630951Y-48573728D02*
X201607142Y-48549919D01*
X201607142Y-48549919D02*
X201559523Y-48526109D01*
X201559523Y-48526109D02*
X201440475Y-48526109D01*
X201440475Y-48526109D02*
X201392856Y-48549919D01*
X201392856Y-48549919D02*
X201369047Y-48573728D01*
X201369047Y-48573728D02*
X201345237Y-48621347D01*
X201345237Y-48621347D02*
X201345237Y-48668966D01*
X201345237Y-48668966D02*
X201369047Y-48740395D01*
X201369047Y-48740395D02*
X201654761Y-49026109D01*
X201654761Y-49026109D02*
X201345237Y-49026109D01*
X200869047Y-49026109D02*
X201154761Y-49026109D01*
X201011904Y-49026109D02*
X201011904Y-48526109D01*
X201011904Y-48526109D02*
X201059523Y-48597538D01*
X201059523Y-48597538D02*
X201107142Y-48645157D01*
X201107142Y-48645157D02*
X201154761Y-48668966D01*
X201821428Y-39126109D02*
X201988094Y-38888014D01*
X202107142Y-39126109D02*
X202107142Y-38626109D01*
X202107142Y-38626109D02*
X201916666Y-38626109D01*
X201916666Y-38626109D02*
X201869047Y-38649919D01*
X201869047Y-38649919D02*
X201845237Y-38673728D01*
X201845237Y-38673728D02*
X201821428Y-38721347D01*
X201821428Y-38721347D02*
X201821428Y-38792776D01*
X201821428Y-38792776D02*
X201845237Y-38840395D01*
X201845237Y-38840395D02*
X201869047Y-38864204D01*
X201869047Y-38864204D02*
X201916666Y-38888014D01*
X201916666Y-38888014D02*
X202107142Y-38888014D01*
X201630951Y-38673728D02*
X201607142Y-38649919D01*
X201607142Y-38649919D02*
X201559523Y-38626109D01*
X201559523Y-38626109D02*
X201440475Y-38626109D01*
X201440475Y-38626109D02*
X201392856Y-38649919D01*
X201392856Y-38649919D02*
X201369047Y-38673728D01*
X201369047Y-38673728D02*
X201345237Y-38721347D01*
X201345237Y-38721347D02*
X201345237Y-38768966D01*
X201345237Y-38768966D02*
X201369047Y-38840395D01*
X201369047Y-38840395D02*
X201654761Y-39126109D01*
X201654761Y-39126109D02*
X201345237Y-39126109D01*
X201035714Y-38626109D02*
X200988095Y-38626109D01*
X200988095Y-38626109D02*
X200940476Y-38649919D01*
X200940476Y-38649919D02*
X200916666Y-38673728D01*
X200916666Y-38673728D02*
X200892857Y-38721347D01*
X200892857Y-38721347D02*
X200869047Y-38816585D01*
X200869047Y-38816585D02*
X200869047Y-38935633D01*
X200869047Y-38935633D02*
X200892857Y-39030871D01*
X200892857Y-39030871D02*
X200916666Y-39078490D01*
X200916666Y-39078490D02*
X200940476Y-39102300D01*
X200940476Y-39102300D02*
X200988095Y-39126109D01*
X200988095Y-39126109D02*
X201035714Y-39126109D01*
X201035714Y-39126109D02*
X201083333Y-39102300D01*
X201083333Y-39102300D02*
X201107142Y-39078490D01*
X201107142Y-39078490D02*
X201130952Y-39030871D01*
X201130952Y-39030871D02*
X201154761Y-38935633D01*
X201154761Y-38935633D02*
X201154761Y-38816585D01*
X201154761Y-38816585D02*
X201130952Y-38721347D01*
X201130952Y-38721347D02*
X201107142Y-38673728D01*
X201107142Y-38673728D02*
X201083333Y-38649919D01*
X201083333Y-38649919D02*
X201035714Y-38626109D01*
X201771428Y-42326109D02*
X201938094Y-42088014D01*
X202057142Y-42326109D02*
X202057142Y-41826109D01*
X202057142Y-41826109D02*
X201866666Y-41826109D01*
X201866666Y-41826109D02*
X201819047Y-41849919D01*
X201819047Y-41849919D02*
X201795237Y-41873728D01*
X201795237Y-41873728D02*
X201771428Y-41921347D01*
X201771428Y-41921347D02*
X201771428Y-41992776D01*
X201771428Y-41992776D02*
X201795237Y-42040395D01*
X201795237Y-42040395D02*
X201819047Y-42064204D01*
X201819047Y-42064204D02*
X201866666Y-42088014D01*
X201866666Y-42088014D02*
X202057142Y-42088014D01*
X201295237Y-42326109D02*
X201580951Y-42326109D01*
X201438094Y-42326109D02*
X201438094Y-41826109D01*
X201438094Y-41826109D02*
X201485713Y-41897538D01*
X201485713Y-41897538D02*
X201533332Y-41945157D01*
X201533332Y-41945157D02*
X201580951Y-41968966D01*
X201128571Y-41826109D02*
X200795238Y-41826109D01*
X200795238Y-41826109D02*
X201009523Y-42326109D01*
X210380952Y-40676109D02*
X210380952Y-41080871D01*
X210380952Y-41080871D02*
X210357142Y-41128490D01*
X210357142Y-41128490D02*
X210333333Y-41152300D01*
X210333333Y-41152300D02*
X210285714Y-41176109D01*
X210285714Y-41176109D02*
X210190476Y-41176109D01*
X210190476Y-41176109D02*
X210142857Y-41152300D01*
X210142857Y-41152300D02*
X210119047Y-41128490D01*
X210119047Y-41128490D02*
X210095238Y-41080871D01*
X210095238Y-41080871D02*
X210095238Y-40676109D01*
X209880951Y-40723728D02*
X209857142Y-40699919D01*
X209857142Y-40699919D02*
X209809523Y-40676109D01*
X209809523Y-40676109D02*
X209690475Y-40676109D01*
X209690475Y-40676109D02*
X209642856Y-40699919D01*
X209642856Y-40699919D02*
X209619047Y-40723728D01*
X209619047Y-40723728D02*
X209595237Y-40771347D01*
X209595237Y-40771347D02*
X209595237Y-40818966D01*
X209595237Y-40818966D02*
X209619047Y-40890395D01*
X209619047Y-40890395D02*
X209904761Y-41176109D01*
X209904761Y-41176109D02*
X209595237Y-41176109D01*
X201783928Y-37526109D02*
X201950594Y-37288014D01*
X202069642Y-37526109D02*
X202069642Y-37026109D01*
X202069642Y-37026109D02*
X201879166Y-37026109D01*
X201879166Y-37026109D02*
X201831547Y-37049919D01*
X201831547Y-37049919D02*
X201807737Y-37073728D01*
X201807737Y-37073728D02*
X201783928Y-37121347D01*
X201783928Y-37121347D02*
X201783928Y-37192776D01*
X201783928Y-37192776D02*
X201807737Y-37240395D01*
X201807737Y-37240395D02*
X201831547Y-37264204D01*
X201831547Y-37264204D02*
X201879166Y-37288014D01*
X201879166Y-37288014D02*
X202069642Y-37288014D01*
X201593451Y-37073728D02*
X201569642Y-37049919D01*
X201569642Y-37049919D02*
X201522023Y-37026109D01*
X201522023Y-37026109D02*
X201402975Y-37026109D01*
X201402975Y-37026109D02*
X201355356Y-37049919D01*
X201355356Y-37049919D02*
X201331547Y-37073728D01*
X201331547Y-37073728D02*
X201307737Y-37121347D01*
X201307737Y-37121347D02*
X201307737Y-37168966D01*
X201307737Y-37168966D02*
X201331547Y-37240395D01*
X201331547Y-37240395D02*
X201617261Y-37526109D01*
X201617261Y-37526109D02*
X201307737Y-37526109D01*
X201117261Y-37073728D02*
X201093452Y-37049919D01*
X201093452Y-37049919D02*
X201045833Y-37026109D01*
X201045833Y-37026109D02*
X200926785Y-37026109D01*
X200926785Y-37026109D02*
X200879166Y-37049919D01*
X200879166Y-37049919D02*
X200855357Y-37073728D01*
X200855357Y-37073728D02*
X200831547Y-37121347D01*
X200831547Y-37121347D02*
X200831547Y-37168966D01*
X200831547Y-37168966D02*
X200855357Y-37240395D01*
X200855357Y-37240395D02*
X201141071Y-37526109D01*
X201141071Y-37526109D02*
X200831547Y-37526109D01*
X201821428Y-40726109D02*
X201988094Y-40488014D01*
X202107142Y-40726109D02*
X202107142Y-40226109D01*
X202107142Y-40226109D02*
X201916666Y-40226109D01*
X201916666Y-40226109D02*
X201869047Y-40249919D01*
X201869047Y-40249919D02*
X201845237Y-40273728D01*
X201845237Y-40273728D02*
X201821428Y-40321347D01*
X201821428Y-40321347D02*
X201821428Y-40392776D01*
X201821428Y-40392776D02*
X201845237Y-40440395D01*
X201845237Y-40440395D02*
X201869047Y-40464204D01*
X201869047Y-40464204D02*
X201916666Y-40488014D01*
X201916666Y-40488014D02*
X202107142Y-40488014D01*
X201345237Y-40726109D02*
X201630951Y-40726109D01*
X201488094Y-40726109D02*
X201488094Y-40226109D01*
X201488094Y-40226109D02*
X201535713Y-40297538D01*
X201535713Y-40297538D02*
X201583332Y-40345157D01*
X201583332Y-40345157D02*
X201630951Y-40368966D01*
X201059523Y-40440395D02*
X201107142Y-40416585D01*
X201107142Y-40416585D02*
X201130952Y-40392776D01*
X201130952Y-40392776D02*
X201154761Y-40345157D01*
X201154761Y-40345157D02*
X201154761Y-40321347D01*
X201154761Y-40321347D02*
X201130952Y-40273728D01*
X201130952Y-40273728D02*
X201107142Y-40249919D01*
X201107142Y-40249919D02*
X201059523Y-40226109D01*
X201059523Y-40226109D02*
X200964285Y-40226109D01*
X200964285Y-40226109D02*
X200916666Y-40249919D01*
X200916666Y-40249919D02*
X200892857Y-40273728D01*
X200892857Y-40273728D02*
X200869047Y-40321347D01*
X200869047Y-40321347D02*
X200869047Y-40345157D01*
X200869047Y-40345157D02*
X200892857Y-40392776D01*
X200892857Y-40392776D02*
X200916666Y-40416585D01*
X200916666Y-40416585D02*
X200964285Y-40440395D01*
X200964285Y-40440395D02*
X201059523Y-40440395D01*
X201059523Y-40440395D02*
X201107142Y-40464204D01*
X201107142Y-40464204D02*
X201130952Y-40488014D01*
X201130952Y-40488014D02*
X201154761Y-40535633D01*
X201154761Y-40535633D02*
X201154761Y-40630871D01*
X201154761Y-40630871D02*
X201130952Y-40678490D01*
X201130952Y-40678490D02*
X201107142Y-40702300D01*
X201107142Y-40702300D02*
X201059523Y-40726109D01*
X201059523Y-40726109D02*
X200964285Y-40726109D01*
X200964285Y-40726109D02*
X200916666Y-40702300D01*
X200916666Y-40702300D02*
X200892857Y-40678490D01*
X200892857Y-40678490D02*
X200869047Y-40630871D01*
X200869047Y-40630871D02*
X200869047Y-40535633D01*
X200869047Y-40535633D02*
X200892857Y-40488014D01*
X200892857Y-40488014D02*
X200916666Y-40464204D01*
X200916666Y-40464204D02*
X200964285Y-40440395D01*
X201821428Y-45576109D02*
X201988094Y-45338014D01*
X202107142Y-45576109D02*
X202107142Y-45076109D01*
X202107142Y-45076109D02*
X201916666Y-45076109D01*
X201916666Y-45076109D02*
X201869047Y-45099919D01*
X201869047Y-45099919D02*
X201845237Y-45123728D01*
X201845237Y-45123728D02*
X201821428Y-45171347D01*
X201821428Y-45171347D02*
X201821428Y-45242776D01*
X201821428Y-45242776D02*
X201845237Y-45290395D01*
X201845237Y-45290395D02*
X201869047Y-45314204D01*
X201869047Y-45314204D02*
X201916666Y-45338014D01*
X201916666Y-45338014D02*
X202107142Y-45338014D01*
X201345237Y-45576109D02*
X201630951Y-45576109D01*
X201488094Y-45576109D02*
X201488094Y-45076109D01*
X201488094Y-45076109D02*
X201535713Y-45147538D01*
X201535713Y-45147538D02*
X201583332Y-45195157D01*
X201583332Y-45195157D02*
X201630951Y-45218966D01*
X201107142Y-45576109D02*
X201011904Y-45576109D01*
X201011904Y-45576109D02*
X200964285Y-45552300D01*
X200964285Y-45552300D02*
X200940476Y-45528490D01*
X200940476Y-45528490D02*
X200892857Y-45457061D01*
X200892857Y-45457061D02*
X200869047Y-45361823D01*
X200869047Y-45361823D02*
X200869047Y-45171347D01*
X200869047Y-45171347D02*
X200892857Y-45123728D01*
X200892857Y-45123728D02*
X200916666Y-45099919D01*
X200916666Y-45099919D02*
X200964285Y-45076109D01*
X200964285Y-45076109D02*
X201059523Y-45076109D01*
X201059523Y-45076109D02*
X201107142Y-45099919D01*
X201107142Y-45099919D02*
X201130952Y-45123728D01*
X201130952Y-45123728D02*
X201154761Y-45171347D01*
X201154761Y-45171347D02*
X201154761Y-45290395D01*
X201154761Y-45290395D02*
X201130952Y-45338014D01*
X201130952Y-45338014D02*
X201107142Y-45361823D01*
X201107142Y-45361823D02*
X201059523Y-45385633D01*
X201059523Y-45385633D02*
X200964285Y-45385633D01*
X200964285Y-45385633D02*
X200916666Y-45361823D01*
X200916666Y-45361823D02*
X200892857Y-45338014D01*
X200892857Y-45338014D02*
X200869047Y-45290395D01*
X201771428Y-43876109D02*
X201938094Y-43638014D01*
X202057142Y-43876109D02*
X202057142Y-43376109D01*
X202057142Y-43376109D02*
X201866666Y-43376109D01*
X201866666Y-43376109D02*
X201819047Y-43399919D01*
X201819047Y-43399919D02*
X201795237Y-43423728D01*
X201795237Y-43423728D02*
X201771428Y-43471347D01*
X201771428Y-43471347D02*
X201771428Y-43542776D01*
X201771428Y-43542776D02*
X201795237Y-43590395D01*
X201795237Y-43590395D02*
X201819047Y-43614204D01*
X201819047Y-43614204D02*
X201866666Y-43638014D01*
X201866666Y-43638014D02*
X202057142Y-43638014D01*
X201295237Y-43876109D02*
X201580951Y-43876109D01*
X201438094Y-43876109D02*
X201438094Y-43376109D01*
X201438094Y-43376109D02*
X201485713Y-43447538D01*
X201485713Y-43447538D02*
X201533332Y-43495157D01*
X201533332Y-43495157D02*
X201580951Y-43518966D01*
X200866666Y-43376109D02*
X200961904Y-43376109D01*
X200961904Y-43376109D02*
X201009523Y-43399919D01*
X201009523Y-43399919D02*
X201033333Y-43423728D01*
X201033333Y-43423728D02*
X201080952Y-43495157D01*
X201080952Y-43495157D02*
X201104761Y-43590395D01*
X201104761Y-43590395D02*
X201104761Y-43780871D01*
X201104761Y-43780871D02*
X201080952Y-43828490D01*
X201080952Y-43828490D02*
X201057142Y-43852300D01*
X201057142Y-43852300D02*
X201009523Y-43876109D01*
X201009523Y-43876109D02*
X200914285Y-43876109D01*
X200914285Y-43876109D02*
X200866666Y-43852300D01*
X200866666Y-43852300D02*
X200842857Y-43828490D01*
X200842857Y-43828490D02*
X200819047Y-43780871D01*
X200819047Y-43780871D02*
X200819047Y-43661823D01*
X200819047Y-43661823D02*
X200842857Y-43614204D01*
X200842857Y-43614204D02*
X200866666Y-43590395D01*
X200866666Y-43590395D02*
X200914285Y-43566585D01*
X200914285Y-43566585D02*
X201009523Y-43566585D01*
X201009523Y-43566585D02*
X201057142Y-43590395D01*
X201057142Y-43590395D02*
X201080952Y-43614204D01*
X201080952Y-43614204D02*
X201104761Y-43661823D01*
X201771428Y-47326109D02*
X201938094Y-47088014D01*
X202057142Y-47326109D02*
X202057142Y-46826109D01*
X202057142Y-46826109D02*
X201866666Y-46826109D01*
X201866666Y-46826109D02*
X201819047Y-46849919D01*
X201819047Y-46849919D02*
X201795237Y-46873728D01*
X201795237Y-46873728D02*
X201771428Y-46921347D01*
X201771428Y-46921347D02*
X201771428Y-46992776D01*
X201771428Y-46992776D02*
X201795237Y-47040395D01*
X201795237Y-47040395D02*
X201819047Y-47064204D01*
X201819047Y-47064204D02*
X201866666Y-47088014D01*
X201866666Y-47088014D02*
X202057142Y-47088014D01*
X201295237Y-47326109D02*
X201580951Y-47326109D01*
X201438094Y-47326109D02*
X201438094Y-46826109D01*
X201438094Y-46826109D02*
X201485713Y-46897538D01*
X201485713Y-46897538D02*
X201533332Y-46945157D01*
X201533332Y-46945157D02*
X201580951Y-46968966D01*
X200842857Y-46826109D02*
X201080952Y-46826109D01*
X201080952Y-46826109D02*
X201104761Y-47064204D01*
X201104761Y-47064204D02*
X201080952Y-47040395D01*
X201080952Y-47040395D02*
X201033333Y-47016585D01*
X201033333Y-47016585D02*
X200914285Y-47016585D01*
X200914285Y-47016585D02*
X200866666Y-47040395D01*
X200866666Y-47040395D02*
X200842857Y-47064204D01*
X200842857Y-47064204D02*
X200819047Y-47111823D01*
X200819047Y-47111823D02*
X200819047Y-47230871D01*
X200819047Y-47230871D02*
X200842857Y-47278490D01*
X200842857Y-47278490D02*
X200866666Y-47302300D01*
X200866666Y-47302300D02*
X200914285Y-47326109D01*
X200914285Y-47326109D02*
X201033333Y-47326109D01*
X201033333Y-47326109D02*
X201080952Y-47302300D01*
X201080952Y-47302300D02*
X201104761Y-47278490D01*
D11*
%TO.C,R2*%
X194027500Y-57554724D02*
X194027500Y-57045276D01*
X195072500Y-57554724D02*
X195072500Y-57045276D01*
%TO.C,R21*%
X199154724Y-48277500D02*
X198645276Y-48277500D01*
X199154724Y-49322500D02*
X198645276Y-49322500D01*
%TO.C,R20*%
X199154724Y-38377500D02*
X198645276Y-38377500D01*
X199154724Y-39422500D02*
X198645276Y-39422500D01*
%TO.C,R17*%
X199154724Y-41577500D02*
X198645276Y-41577500D01*
X199154724Y-42622500D02*
X198645276Y-42622500D01*
D12*
%TO.C,U2*%
X204935000Y-41650000D02*
X208465000Y-41650000D01*
X208465000Y-46650000D02*
X204935000Y-46650000D01*
D13*
X202610000Y-46425000D02*
G75*
G02*
X202410000Y-46425000I-100000J0D01*
G01*
X202410000Y-46425000D02*
G75*
G02*
X202610000Y-46425000I100000J0D01*
G01*
D11*
%TO.C,R22*%
X199167224Y-36777500D02*
X198657776Y-36777500D01*
X199167224Y-37822500D02*
X198657776Y-37822500D01*
%TO.C,R18*%
X199142224Y-39977500D02*
X198632776Y-39977500D01*
X199142224Y-41022500D02*
X198632776Y-41022500D01*
%TO.C,R19*%
X199154724Y-44827500D02*
X198645276Y-44827500D01*
X199154724Y-45872500D02*
X198645276Y-45872500D01*
%TO.C,R16*%
X199154724Y-43127500D02*
X198645276Y-43127500D01*
X199154724Y-44172500D02*
X198645276Y-44172500D01*
%TO.C,R15*%
X199154724Y-46577500D02*
X198645276Y-46577500D01*
X199154724Y-47622500D02*
X198645276Y-47622500D01*
%TD*%
M02*
