%TF.GenerationSoftware,KiCad,Pcbnew,8.0.5*%
%TF.CreationDate,2024-11-24T20:06:06+03:00*%
%TF.ProjectId,pmod_esp32,706d6f64-5f65-4737-9033-322e6b696361,0.1*%
%TF.SameCoordinates,Original*%
%TF.FileFunction,Copper,L2,Bot*%
%TF.FilePolarity,Positive*%
%FSLAX46Y46*%
G04 Gerber Fmt 4.6, Leading zero omitted, Abs format (unit mm)*
G04 Created by KiCad (PCBNEW 8.0.5) date 2024-11-24 20:06:06*
%MOMM*%
%LPD*%
G01*
G04 APERTURE LIST*
G04 Aperture macros list*
%AMRoundRect*
0 Rectangle with rounded corners*
0 $1 Rounding radius*
0 $2 $3 $4 $5 $6 $7 $8 $9 X,Y pos of 4 corners*
0 Add a 4 corners polygon primitive as box body*
4,1,4,$2,$3,$4,$5,$6,$7,$8,$9,$2,$3,0*
0 Add four circle primitives for the rounded corners*
1,1,$1+$1,$2,$3*
1,1,$1+$1,$4,$5*
1,1,$1+$1,$6,$7*
1,1,$1+$1,$8,$9*
0 Add four rect primitives between the rounded corners*
20,1,$1+$1,$2,$3,$4,$5,0*
20,1,$1+$1,$4,$5,$6,$7,0*
20,1,$1+$1,$6,$7,$8,$9,0*
20,1,$1+$1,$8,$9,$2,$3,0*%
G04 Aperture macros list end*
%TA.AperFunction,ComponentPad*%
%ADD10C,1.695000*%
%TD*%
%TA.AperFunction,SMDPad,CuDef*%
%ADD11RoundRect,0.237500X-0.237500X0.250000X-0.237500X-0.250000X0.237500X-0.250000X0.237500X0.250000X0*%
%TD*%
%TA.AperFunction,ComponentPad*%
%ADD12R,1.650000X1.650000*%
%TD*%
%TA.AperFunction,ComponentPad*%
%ADD13C,1.650000*%
%TD*%
%TA.AperFunction,SMDPad,CuDef*%
%ADD14RoundRect,0.237500X-0.250000X-0.237500X0.250000X-0.237500X0.250000X0.237500X-0.250000X0.237500X0*%
%TD*%
%TA.AperFunction,SMDPad,CuDef*%
%ADD15RoundRect,0.051250X-0.733750X-0.153750X0.733750X-0.153750X0.733750X0.153750X-0.733750X0.153750X0*%
%TD*%
%TA.AperFunction,ViaPad*%
%ADD16C,0.600000*%
%TD*%
%TA.AperFunction,Conductor*%
%ADD17C,0.254000*%
%TD*%
G04 APERTURE END LIST*
D10*
%TO.P,J2,1,1*%
%TO.N,Net-(J2-Pad1)*%
X194696000Y-40900000D03*
%TO.P,J2,2,2*%
%TO.N,Net-(J2-Pad2)*%
X194696000Y-43440000D03*
%TO.P,J2,3,3*%
%TO.N,Net-(J2-Pad3)*%
X194696000Y-45980000D03*
%TO.P,J2,4,4*%
%TO.N,Net-(J2-Pad4)*%
X194696000Y-48520000D03*
%TO.P,J2,5,5*%
%TO.N,/GND*%
X194696000Y-51060000D03*
%TO.P,J2,6,6*%
%TO.N,/VCC3V3*%
X194696000Y-53600000D03*
%TO.P,J2,7,7*%
%TO.N,Net-(J2-Pad7)*%
X192156000Y-40900000D03*
%TO.P,J2,8,8*%
%TO.N,Net-(J2-Pad8)*%
X192156000Y-43440000D03*
%TO.P,J2,9,9*%
%TO.N,Net-(J2-Pad9)*%
X192156000Y-45980000D03*
%TO.P,J2,10,10*%
%TO.N,Net-(J2-Pad10)*%
X192156000Y-48520000D03*
%TO.P,J2,11,11*%
%TO.N,/GND*%
X192156000Y-51060000D03*
%TO.P,J2,12,12*%
%TO.N,/VCC3V3*%
X192156000Y-53600000D03*
%TD*%
D11*
%TO.P,R2,1*%
%TO.N,Net-(LD1-K)*%
X194550000Y-56387500D03*
%TO.P,R2,2*%
%TO.N,/GND*%
X194550000Y-58212500D03*
%TD*%
D12*
%TO.P,J1,1,1*%
%TO.N,/TXD0*%
X210190000Y-55600000D03*
D13*
%TO.P,J1,2,2*%
%TO.N,/RXD0*%
X212730000Y-55600000D03*
%TO.P,J1,3,3*%
%TO.N,/GND*%
X215270000Y-55600000D03*
%TO.P,J1,4,4*%
%TO.N,/IO0*%
X217810000Y-55600000D03*
%TD*%
D14*
%TO.P,R21,1*%
%TO.N,Net-(J2-Pad10)*%
X197987500Y-48800000D03*
%TO.P,R21,2*%
%TO.N,/GPIO*%
X199812500Y-48800000D03*
%TD*%
%TO.P,R20,1*%
%TO.N,Net-(J2-Pad7)*%
X197987500Y-38900000D03*
%TO.P,R20,2*%
%TO.N,/INT*%
X199812500Y-38900000D03*
%TD*%
%TO.P,R17,1*%
%TO.N,Net-(J2-Pad2)*%
X197987500Y-42100000D03*
%TO.P,R17,2*%
%TO.N,/RXD{slash}MOSI*%
X199812500Y-42100000D03*
%TD*%
D15*
%TO.P,U2,1,IN*%
%TO.N,/SELECT*%
X203830000Y-46425000D03*
%TO.P,U2,2,NC1*%
%TO.N,/MISO*%
X203830000Y-45775000D03*
%TO.P,U2,3,NO1*%
%TO.N,/TXD*%
X203830000Y-45125000D03*
%TO.P,U2,4,COM1*%
%TO.N,/TXD{slash}MISO*%
X203830000Y-44475000D03*
%TO.P,U2,5,NC2*%
%TO.N,/MOSI*%
X203830000Y-43825000D03*
%TO.P,U2,6,NO2*%
%TO.N,/RXD*%
X203830000Y-43175000D03*
%TO.P,U2,7,COM2*%
%TO.N,/RXD{slash}MOSI*%
X203830000Y-42525000D03*
%TO.P,U2,8,GND*%
%TO.N,/GND*%
X203830000Y-41875000D03*
%TO.P,U2,9,COM3*%
%TO.N,/RTS{slash}SS*%
X209570000Y-41875000D03*
%TO.P,U2,10,NO3*%
%TO.N,/RTS*%
X209570000Y-42525000D03*
%TO.P,U2,11,NC3*%
%TO.N,/SS*%
X209570000Y-43175000D03*
%TO.P,U2,12,COM4*%
%TO.N,/CTS{slash}SCK*%
X209570000Y-43825000D03*
%TO.P,U2,13,NO4*%
%TO.N,/CTS*%
X209570000Y-44475000D03*
%TO.P,U2,14,NC4*%
%TO.N,/SCK*%
X209570000Y-45125000D03*
%TO.P,U2,15,~{EN}*%
%TO.N,/GND*%
X209570000Y-45775000D03*
%TO.P,U2,16,V+*%
%TO.N,/VCC3V3*%
X209570000Y-46425000D03*
%TD*%
D14*
%TO.P,R22,1*%
%TO.N,Net-(J2-Pad8)*%
X198000000Y-37300000D03*
%TO.P,R22,2*%
%TO.N,/EN*%
X199825000Y-37300000D03*
%TD*%
%TO.P,R18,1*%
%TO.N,Net-(J2-Pad1)*%
X197975000Y-40500000D03*
%TO.P,R18,2*%
%TO.N,/RTS{slash}SS*%
X199800000Y-40500000D03*
%TD*%
%TO.P,R19,1*%
%TO.N,Net-(J2-Pad9)*%
X197987500Y-45350000D03*
%TO.P,R19,2*%
%TO.N,/SELECT*%
X199812500Y-45350000D03*
%TD*%
%TO.P,R16,1*%
%TO.N,Net-(J2-Pad3)*%
X197987500Y-43650000D03*
%TO.P,R16,2*%
%TO.N,/TXD{slash}MISO*%
X199812500Y-43650000D03*
%TD*%
%TO.P,R15,1*%
%TO.N,Net-(J2-Pad4)*%
X197987500Y-47100000D03*
%TO.P,R15,2*%
%TO.N,/CTS{slash}SCK*%
X199812500Y-47100000D03*
%TD*%
D16*
%TO.N,/GND*%
X238050000Y-58200000D03*
X238050000Y-54200000D03*
X238050000Y-53400000D03*
X238050000Y-52600000D03*
X238050000Y-51800000D03*
X238050000Y-51000000D03*
X238050000Y-50200000D03*
X238050000Y-49400000D03*
X238050000Y-48600000D03*
X238050000Y-47800000D03*
X238050000Y-47000000D03*
X238050000Y-46200000D03*
X238050000Y-45400000D03*
X238050000Y-44600000D03*
X238050000Y-43800000D03*
X238050000Y-43000000D03*
X238050000Y-42200000D03*
X238050000Y-41400000D03*
X238050000Y-40600000D03*
X237250000Y-58200000D03*
X237250000Y-51000000D03*
X237250000Y-50200000D03*
X237250000Y-49400000D03*
X237250000Y-48600000D03*
X237250000Y-47800000D03*
X237250000Y-47000000D03*
X237250000Y-46200000D03*
X237250000Y-45400000D03*
X237250000Y-44600000D03*
X237250000Y-43800000D03*
X237250000Y-43000000D03*
X237250000Y-42200000D03*
X237250000Y-41400000D03*
X236450000Y-58200000D03*
X236450000Y-51000000D03*
X236450000Y-50200000D03*
X236450000Y-49400000D03*
X236450000Y-48600000D03*
X236450000Y-47800000D03*
X236450000Y-47000000D03*
X236450000Y-46200000D03*
X236450000Y-45400000D03*
X236450000Y-44600000D03*
X236450000Y-43800000D03*
X236450000Y-43000000D03*
X236450000Y-42200000D03*
X236450000Y-41400000D03*
X235650000Y-58200000D03*
X235650000Y-54200000D03*
X235650000Y-51000000D03*
X235650000Y-50200000D03*
X235650000Y-49400000D03*
X235650000Y-48600000D03*
X235650000Y-47800000D03*
X235650000Y-47000000D03*
X235650000Y-46200000D03*
X235650000Y-45400000D03*
X235650000Y-44600000D03*
X235650000Y-43800000D03*
X235650000Y-43000000D03*
X235650000Y-42200000D03*
X235650000Y-41400000D03*
X234850000Y-54200000D03*
X234850000Y-53400000D03*
X234850000Y-51000000D03*
X234850000Y-50200000D03*
X234850000Y-49400000D03*
X234850000Y-48600000D03*
X234850000Y-47800000D03*
X234850000Y-47000000D03*
X234850000Y-46200000D03*
X234850000Y-45400000D03*
X234850000Y-44600000D03*
X234850000Y-43800000D03*
X234850000Y-43000000D03*
X234850000Y-42200000D03*
X234850000Y-41400000D03*
X234050000Y-54200000D03*
X234050000Y-53400000D03*
X234050000Y-51000000D03*
X234050000Y-50200000D03*
X234050000Y-49400000D03*
X234050000Y-48600000D03*
X234050000Y-47800000D03*
X234050000Y-47000000D03*
X234050000Y-46200000D03*
X234050000Y-45400000D03*
X234050000Y-44600000D03*
X234050000Y-43800000D03*
X234050000Y-43000000D03*
X234050000Y-42200000D03*
X234050000Y-41400000D03*
X233250000Y-54200000D03*
X233250000Y-53400000D03*
X233250000Y-51000000D03*
X233250000Y-50200000D03*
X233250000Y-49400000D03*
X233250000Y-43000000D03*
X233250000Y-42200000D03*
X233250000Y-41400000D03*
X232450000Y-54200000D03*
X232450000Y-53400000D03*
X232450000Y-51000000D03*
X232450000Y-50200000D03*
X232450000Y-49400000D03*
X232450000Y-43000000D03*
X232450000Y-42200000D03*
X232450000Y-41400000D03*
X231650000Y-54200000D03*
X231650000Y-53400000D03*
X231650000Y-51000000D03*
X231650000Y-50200000D03*
X231650000Y-49400000D03*
X231650000Y-43000000D03*
X231650000Y-42200000D03*
X231650000Y-41400000D03*
X230850000Y-54200000D03*
X230850000Y-53400000D03*
X230850000Y-51000000D03*
X230850000Y-50200000D03*
X230850000Y-49400000D03*
X230850000Y-43000000D03*
X230850000Y-42200000D03*
X230850000Y-41400000D03*
X230050000Y-51000000D03*
X230050000Y-50200000D03*
X230050000Y-49400000D03*
X230050000Y-43000000D03*
X229250000Y-51000000D03*
X229250000Y-50200000D03*
X229250000Y-49400000D03*
X228450000Y-50200000D03*
X228450000Y-49400000D03*
X227650000Y-41400000D03*
X226850000Y-42200000D03*
X226850000Y-41400000D03*
X225250000Y-51000000D03*
X223650000Y-43800000D03*
X222050000Y-47800000D03*
X215650000Y-47800000D03*
X215650000Y-47000000D03*
X215650000Y-46200000D03*
X214850000Y-47800000D03*
X214850000Y-47000000D03*
X214850000Y-46200000D03*
X214050000Y-47800000D03*
X214050000Y-47000000D03*
X213250000Y-47800000D03*
X213250000Y-47000000D03*
X209250000Y-58200000D03*
X209250000Y-57400000D03*
X207650000Y-36600000D03*
X206850000Y-43000000D03*
X206850000Y-36600000D03*
X206050000Y-50200000D03*
X206050000Y-42200000D03*
X205250000Y-55000000D03*
X205250000Y-54200000D03*
X205250000Y-53400000D03*
X204450000Y-55000000D03*
X204450000Y-54200000D03*
X204450000Y-53400000D03*
X203650000Y-55000000D03*
X203650000Y-54200000D03*
X203650000Y-36600000D03*
X202850000Y-55000000D03*
X202850000Y-54200000D03*
X202850000Y-36600000D03*
X202050000Y-55000000D03*
X199650000Y-50200000D03*
X198850000Y-50200000D03*
X198050000Y-50200000D03*
X197250000Y-50200000D03*
X196450000Y-50200000D03*
X191650000Y-36600000D03*
X190850000Y-37400000D03*
X190850000Y-36600000D03*
%TO.N,/VCC3V3*%
X209564382Y-46985618D03*
%TO.N,/EN*%
X205512500Y-37900000D03*
%TO.N,/RTS*%
X222792500Y-38220000D03*
%TO.N,/SS*%
X226600000Y-48950000D03*
%TO.N,/INT*%
X216350000Y-41200000D03*
X211100000Y-40500000D03*
X207750000Y-38900000D03*
%TO.N,/CTS*%
X218077000Y-45250000D03*
%TO.N,/SCK*%
X227900000Y-52600000D03*
X216500000Y-44627000D03*
X212850000Y-45100000D03*
%TO.N,/RXD*%
X221750000Y-51200000D03*
%TO.N,/MOSI*%
X227273000Y-51958591D03*
%TO.N,/TXD*%
X224850000Y-52600000D03*
%TO.N,/MISO*%
X229100000Y-54550000D03*
%TO.N,/SELECT*%
X225332500Y-38220000D03*
X225300000Y-41550000D03*
X221750000Y-49250000D03*
X214700000Y-49300000D03*
X212000000Y-51300000D03*
%TO.N,/GPIO*%
X229142500Y-38220000D03*
X229200000Y-41450000D03*
X221700000Y-50100000D03*
X214906131Y-50072991D03*
X211500000Y-52100000D03*
%TO.N,/EN*%
X235492500Y-38220000D03*
X201075000Y-37900000D03*
X208650000Y-40000000D03*
%TO.N,/SELECT*%
X202550000Y-47000000D03*
X202550000Y-50970000D03*
X202550000Y-52605000D03*
%TO.N,Net-(LD1-K)*%
X192950000Y-57600000D03*
%TO.N,/CTS{slash}SCK*%
X202200000Y-41750000D03*
X201150000Y-45977000D03*
%TO.N,/SCK*%
X223800000Y-47450000D03*
X221350000Y-44627000D03*
%TD*%
D17*
%TO.N,/RXD*%
X214300000Y-51200000D02*
X221750000Y-51200000D01*
X214012000Y-50912000D02*
X214300000Y-51200000D01*
X210000000Y-49150000D02*
X212902462Y-49150000D01*
X214012000Y-50259538D02*
X214012000Y-50912000D01*
X205554000Y-44704000D02*
X210000000Y-49150000D01*
X205554000Y-43861947D02*
X205554000Y-44704000D01*
X204867053Y-43175000D02*
X205554000Y-43861947D01*
X203830000Y-43175000D02*
X204867053Y-43175000D01*
X212902462Y-49150000D02*
X214012000Y-50259538D01*
%TO.N,/MOSI*%
X205100000Y-44050000D02*
X204875000Y-43825000D01*
X205100000Y-44907948D02*
X205100000Y-44050000D01*
X213558000Y-50447591D02*
X212875409Y-49765000D01*
X204875000Y-43825000D02*
X203830000Y-43825000D01*
X212875409Y-49765000D02*
X209957052Y-49765000D01*
X213800000Y-51950000D02*
X213558000Y-51708000D01*
X213558000Y-51708000D02*
X213558000Y-50447591D01*
X227264409Y-51950000D02*
X213800000Y-51950000D01*
X209957052Y-49765000D02*
X205100000Y-44907948D01*
X227273000Y-51958591D02*
X227264409Y-51950000D01*
%TO.N,/TXD*%
X209769000Y-50219000D02*
X204675000Y-45125000D01*
X204675000Y-45125000D02*
X203830000Y-45125000D01*
X212447765Y-50219000D02*
X209769000Y-50219000D01*
X213104000Y-52304000D02*
X213104000Y-50875235D01*
X213400000Y-52600000D02*
X213104000Y-52304000D01*
X224850000Y-52600000D02*
X213400000Y-52600000D01*
X213104000Y-50875235D02*
X212447765Y-50219000D01*
%TO.N,/MISO*%
X213200000Y-53300000D02*
X227850000Y-53300000D01*
X212650000Y-51063288D02*
X212650000Y-52750000D01*
X227850000Y-53300000D02*
X229100000Y-54550000D01*
X204743000Y-45893000D02*
X209523000Y-50673000D01*
X212259712Y-50673000D02*
X212650000Y-51063288D01*
X202764947Y-45893000D02*
X204743000Y-45893000D01*
X209523000Y-50673000D02*
X212259712Y-50673000D01*
X202882947Y-45775000D02*
X202764947Y-45893000D01*
X212650000Y-52750000D02*
X213200000Y-53300000D01*
X203830000Y-45775000D02*
X202882947Y-45775000D01*
%TO.N,/SELECT*%
X209300000Y-51300000D02*
X212000000Y-51300000D01*
X204425000Y-46425000D02*
X209300000Y-51300000D01*
X203830000Y-46425000D02*
X204425000Y-46425000D01*
%TO.N,/VCC3V3*%
X209570000Y-46980000D02*
X209564382Y-46985618D01*
X209570000Y-46425000D02*
X209570000Y-46980000D01*
%TO.N,/CTS*%
X209572000Y-44473000D02*
X209570000Y-44475000D01*
X214423000Y-44473000D02*
X209572000Y-44473000D01*
X215204000Y-45254000D02*
X214423000Y-44473000D01*
X216759712Y-45254000D02*
X215204000Y-45254000D01*
X216763712Y-45250000D02*
X216759712Y-45254000D01*
X218077000Y-45250000D02*
X216763712Y-45250000D01*
%TO.N,/SCK*%
X216527000Y-44600000D02*
X216500000Y-44627000D01*
X221323000Y-44600000D02*
X216527000Y-44600000D01*
X221350000Y-44627000D02*
X221323000Y-44600000D01*
%TO.N,/EN*%
X201075000Y-37900000D02*
X205512500Y-37900000D01*
%TO.N,/RTS*%
X222050000Y-43300000D02*
X222792500Y-42557500D01*
X215425000Y-42525000D02*
X216200000Y-43300000D01*
X216200000Y-43300000D02*
X222050000Y-43300000D01*
X209570000Y-42525000D02*
X215425000Y-42525000D01*
X222792500Y-42557500D02*
X222792500Y-38220000D01*
%TO.N,/SS*%
X214975000Y-43175000D02*
X209570000Y-43175000D01*
X221650000Y-44000000D02*
X215800000Y-44000000D01*
X226600000Y-48950000D02*
X221650000Y-44000000D01*
X215800000Y-44000000D02*
X214975000Y-43175000D01*
%TO.N,/GPIO*%
X214929122Y-50050000D02*
X221650000Y-50050000D01*
X214906131Y-50072991D02*
X214929122Y-50050000D01*
X221650000Y-50050000D02*
X221700000Y-50100000D01*
%TO.N,/SELECT*%
X221700000Y-49200000D02*
X221750000Y-49250000D01*
X214800000Y-49200000D02*
X221700000Y-49200000D01*
X214700000Y-49300000D02*
X214800000Y-49200000D01*
%TO.N,/INT*%
X215650000Y-40500000D02*
X216350000Y-41200000D01*
X211100000Y-40500000D02*
X215650000Y-40500000D01*
X199812500Y-38900000D02*
X207750000Y-38900000D01*
%TO.N,/SCK*%
X212825000Y-45125000D02*
X212850000Y-45100000D01*
X209570000Y-45125000D02*
X212825000Y-45125000D01*
%TO.N,/SELECT*%
X225300000Y-38252500D02*
X225332500Y-38220000D01*
X225300000Y-41550000D02*
X225300000Y-38252500D01*
%TO.N,/GPIO*%
X229200000Y-41450000D02*
X229200000Y-38277500D01*
X229200000Y-38277500D02*
X229142500Y-38220000D01*
X201450000Y-50050000D02*
X202516712Y-50050000D01*
X204566712Y-52100000D02*
X204650000Y-52100000D01*
X200200000Y-48800000D02*
X201450000Y-50050000D01*
X199812500Y-48800000D02*
X200200000Y-48800000D01*
X202516712Y-50050000D02*
X204566712Y-52100000D01*
X204650000Y-52100000D02*
X211500000Y-52100000D01*
%TO.N,/EN*%
X234650000Y-36450000D02*
X235492500Y-37292500D01*
X235492500Y-37292500D02*
X235492500Y-38220000D01*
X209950000Y-36450000D02*
X234650000Y-36450000D01*
X208650000Y-37750000D02*
X209950000Y-36450000D01*
X208650000Y-40000000D02*
X208650000Y-37750000D01*
X200900000Y-37300000D02*
X199825000Y-37300000D01*
X201075000Y-37900000D02*
X201075000Y-37475000D01*
X201075000Y-37475000D02*
X200900000Y-37300000D01*
%TO.N,/SELECT*%
X202550000Y-52605000D02*
X202550000Y-50970000D01*
X202875000Y-46425000D02*
X203830000Y-46425000D01*
X202550000Y-47000000D02*
X202550000Y-46750000D01*
X202550000Y-46750000D02*
X202875000Y-46425000D01*
%TO.N,Net-(LD1-K)*%
X193462500Y-56387500D02*
X194550000Y-56387500D01*
X192950000Y-57600000D02*
X192950000Y-56900000D01*
X192950000Y-56900000D02*
X193462500Y-56387500D01*
%TO.N,/CTS{slash}SCK*%
X202200000Y-40550000D02*
X202200000Y-41750000D01*
X202896000Y-39854000D02*
X202200000Y-40550000D01*
X205954000Y-39854000D02*
X202896000Y-39854000D01*
X208300000Y-43550000D02*
X208300000Y-42200000D01*
X208575000Y-43825000D02*
X208300000Y-43550000D01*
X209570000Y-43825000D02*
X208575000Y-43825000D01*
X208300000Y-42200000D02*
X205954000Y-39854000D01*
%TO.N,/RTS{slash}SS*%
X208775000Y-41875000D02*
X209570000Y-41875000D01*
X206300000Y-39400000D02*
X208775000Y-41875000D01*
X202300000Y-39400000D02*
X206300000Y-39400000D01*
X199800000Y-40500000D02*
X201200000Y-40500000D01*
X201200000Y-40500000D02*
X202300000Y-39400000D01*
%TO.N,/CTS{slash}SCK*%
X200027000Y-47100000D02*
X199812500Y-47100000D01*
X201150000Y-45977000D02*
X200027000Y-47100000D01*
%TO.N,/TXD{slash}MISO*%
X201875000Y-44475000D02*
X203830000Y-44475000D01*
X201050000Y-43650000D02*
X201875000Y-44475000D01*
X199812500Y-43650000D02*
X201050000Y-43650000D01*
%TO.N,/RXD{slash}MOSI*%
X201775000Y-42525000D02*
X203830000Y-42525000D01*
X201350000Y-42100000D02*
X201775000Y-42525000D01*
X199812500Y-42100000D02*
X201350000Y-42100000D01*
%TO.N,Net-(J2-Pad4)*%
X195630000Y-48520000D02*
X197050000Y-47100000D01*
X194696000Y-48520000D02*
X195630000Y-48520000D01*
X197050000Y-47100000D02*
X197987500Y-47100000D01*
%TO.N,Net-(J2-Pad9)*%
X197250000Y-45350000D02*
X197987500Y-45350000D01*
X193426000Y-47250000D02*
X195350000Y-47250000D01*
X192156000Y-45980000D02*
X193426000Y-47250000D01*
X195350000Y-47250000D02*
X197250000Y-45350000D01*
%TO.N,Net-(J2-Pad3)*%
X196600000Y-43650000D02*
X197987500Y-43650000D01*
X196250000Y-44000000D02*
X196600000Y-43650000D01*
X195570000Y-45980000D02*
X196250000Y-45300000D01*
X196250000Y-45300000D02*
X196250000Y-44000000D01*
X194696000Y-45980000D02*
X195570000Y-45980000D01*
%TO.N,Net-(J2-Pad2)*%
X197050000Y-42100000D02*
X197987500Y-42100000D01*
X194696000Y-43440000D02*
X195710000Y-43440000D01*
X195710000Y-43440000D02*
X197050000Y-42100000D01*
%TO.N,Net-(J2-Pad1)*%
X196700000Y-40500000D02*
X197975000Y-40500000D01*
X196300000Y-40900000D02*
X196700000Y-40500000D01*
X194696000Y-40900000D02*
X196300000Y-40900000D01*
%TO.N,Net-(J2-Pad8)*%
X192900000Y-37300000D02*
X198000000Y-37300000D01*
X190300000Y-42850000D02*
X190300000Y-39900000D01*
X190890000Y-43440000D02*
X190300000Y-42850000D01*
X192156000Y-43440000D02*
X190890000Y-43440000D01*
X190300000Y-39900000D02*
X192900000Y-37300000D01*
%TO.N,Net-(J2-Pad7)*%
X192156000Y-39644000D02*
X192900000Y-38900000D01*
X192156000Y-40900000D02*
X192156000Y-39644000D01*
X192900000Y-38900000D02*
X197987500Y-38900000D01*
%TO.N,/SCK*%
X223800000Y-47450000D02*
X227900000Y-51550000D01*
X227900000Y-51550000D02*
X227900000Y-52600000D01*
%TD*%
%TA.AperFunction,Conductor*%
%TO.N,/GND*%
G36*
X201726270Y-46645922D02*
G01*
X201771484Y-46699189D01*
X201780723Y-46768446D01*
X201775213Y-46790501D01*
X201764634Y-46820735D01*
X201764630Y-46820750D01*
X201744435Y-46999996D01*
X201744435Y-47000003D01*
X201764630Y-47179249D01*
X201764631Y-47179254D01*
X201824211Y-47349523D01*
X201887347Y-47450003D01*
X201920184Y-47502262D01*
X202047738Y-47629816D01*
X202200478Y-47725789D01*
X202329644Y-47770986D01*
X202370745Y-47785368D01*
X202370750Y-47785369D01*
X202549996Y-47805565D01*
X202550000Y-47805565D01*
X202550004Y-47805565D01*
X202729249Y-47785369D01*
X202729252Y-47785368D01*
X202729255Y-47785368D01*
X202899522Y-47725789D01*
X203052262Y-47629816D01*
X203179816Y-47502262D01*
X203275789Y-47349522D01*
X203323369Y-47213545D01*
X203364091Y-47156770D01*
X203429043Y-47131022D01*
X203440411Y-47130500D01*
X204191719Y-47130500D01*
X204258758Y-47150185D01*
X204279400Y-47166819D01*
X208373400Y-51260819D01*
X208406885Y-51322142D01*
X208401901Y-51391834D01*
X208360029Y-51447767D01*
X208294565Y-51472184D01*
X208285719Y-51472500D01*
X204877993Y-51472500D01*
X204810954Y-51452815D01*
X204790312Y-51436181D01*
X202916725Y-49562593D01*
X202916722Y-49562590D01*
X202873495Y-49533707D01*
X202873495Y-49533706D01*
X202813947Y-49493918D01*
X202813940Y-49493914D01*
X202778549Y-49479255D01*
X202778548Y-49479255D01*
X202699747Y-49446614D01*
X202699739Y-49446612D01*
X202578519Y-49422500D01*
X202578515Y-49422500D01*
X201761281Y-49422500D01*
X201694242Y-49402815D01*
X201673600Y-49386181D01*
X200831665Y-48544246D01*
X200798180Y-48482923D01*
X200795988Y-48469166D01*
X200793799Y-48447737D01*
X200790174Y-48412247D01*
X200735908Y-48248484D01*
X200645340Y-48101650D01*
X200581371Y-48037681D01*
X200547886Y-47976358D01*
X200552870Y-47906666D01*
X200581371Y-47862319D01*
X200603200Y-47840490D01*
X200645340Y-47798350D01*
X200735908Y-47651516D01*
X200790174Y-47487753D01*
X200800500Y-47386677D01*
X200800499Y-47265279D01*
X200820183Y-47198241D01*
X200836813Y-47177604D01*
X201211567Y-46802850D01*
X201272888Y-46769367D01*
X201285345Y-46767315D01*
X201329255Y-46762368D01*
X201499522Y-46702789D01*
X201505252Y-46699189D01*
X201565118Y-46661572D01*
X201592200Y-46644555D01*
X201659434Y-46625555D01*
X201726270Y-46645922D01*
G37*
%TD.AperFunction*%
%TA.AperFunction,Conductor*%
G36*
X205709758Y-40501185D02*
G01*
X205730400Y-40517819D01*
X207636181Y-42423600D01*
X207669666Y-42484923D01*
X207672500Y-42511281D01*
X207672500Y-43611807D01*
X207696612Y-43733028D01*
X207696614Y-43733034D01*
X207719138Y-43787411D01*
X207719138Y-43787412D01*
X207743915Y-43847229D01*
X207743921Y-43847241D01*
X207791813Y-43918914D01*
X207791814Y-43918916D01*
X207812590Y-43950010D01*
X207812593Y-43950013D01*
X208087589Y-44225008D01*
X208174992Y-44312411D01*
X208229391Y-44348759D01*
X208274195Y-44402370D01*
X208284500Y-44451861D01*
X208284500Y-44671944D01*
X208289070Y-44710000D01*
X208295148Y-44760617D01*
X208297095Y-44768317D01*
X208294068Y-44769082D01*
X208299008Y-44824170D01*
X208296822Y-44831614D01*
X208297095Y-44831683D01*
X208295148Y-44839382D01*
X208294569Y-44844208D01*
X208284500Y-44928056D01*
X208284500Y-45321944D01*
X208288204Y-45352788D01*
X208295147Y-45410611D01*
X208350790Y-45551712D01*
X208442436Y-45672565D01*
X208447228Y-45676199D01*
X208488749Y-45732393D01*
X208493298Y-45802114D01*
X208459431Y-45863227D01*
X208447228Y-45873801D01*
X208442436Y-45877434D01*
X208350790Y-45998287D01*
X208295147Y-46139388D01*
X208293122Y-46156255D01*
X208284500Y-46228056D01*
X208284500Y-46228062D01*
X208284500Y-46247719D01*
X208264815Y-46314758D01*
X208212011Y-46360513D01*
X208142853Y-46370457D01*
X208079297Y-46341432D01*
X208072819Y-46335400D01*
X206217819Y-44480400D01*
X206184334Y-44419077D01*
X206181500Y-44392719D01*
X206181500Y-43800143D01*
X206178968Y-43787418D01*
X206178968Y-43787411D01*
X206157387Y-43678920D01*
X206157386Y-43678913D01*
X206129588Y-43611803D01*
X206110083Y-43564714D01*
X206110082Y-43564713D01*
X206110079Y-43564707D01*
X206041412Y-43461940D01*
X206040085Y-43460613D01*
X205954008Y-43374536D01*
X205612499Y-43033027D01*
X205267064Y-42687591D01*
X205267063Y-42687590D01*
X205247473Y-42674501D01*
X205247472Y-42674500D01*
X205170609Y-42623141D01*
X205125804Y-42569528D01*
X205115500Y-42520039D01*
X205115500Y-42328062D01*
X205115500Y-42328056D01*
X205104852Y-42239387D01*
X205049210Y-42098289D01*
X205049209Y-42098288D01*
X205049209Y-42098287D01*
X204957564Y-41977435D01*
X204836712Y-41885790D01*
X204695611Y-41830147D01*
X204650097Y-41824682D01*
X204606944Y-41819500D01*
X203124209Y-41819500D01*
X203057170Y-41799815D01*
X203011415Y-41747011D01*
X203000989Y-41709383D01*
X202985369Y-41570750D01*
X202985368Y-41570745D01*
X202970236Y-41527500D01*
X202925789Y-41400478D01*
X202917578Y-41387411D01*
X202846506Y-41274300D01*
X202827500Y-41208328D01*
X202827500Y-40861281D01*
X202847185Y-40794242D01*
X202863819Y-40773600D01*
X203119600Y-40517819D01*
X203180923Y-40484334D01*
X203207281Y-40481500D01*
X205642719Y-40481500D01*
X205709758Y-40501185D01*
G37*
%TD.AperFunction*%
%TA.AperFunction,Conductor*%
G36*
X239593039Y-35019685D02*
G01*
X239638794Y-35072489D01*
X239650000Y-35124000D01*
X239650000Y-38084230D01*
X239630315Y-38151269D01*
X239577511Y-38197024D01*
X239526000Y-38208230D01*
X238789270Y-38208230D01*
X238789270Y-56220000D01*
X239526000Y-56220000D01*
X239593039Y-56239685D01*
X239638794Y-56292489D01*
X239650000Y-56344000D01*
X239650000Y-59376000D01*
X239630315Y-59443039D01*
X239577511Y-59488794D01*
X239526000Y-59500000D01*
X189374000Y-59500000D01*
X189306961Y-59480315D01*
X189261206Y-59427511D01*
X189250000Y-59376000D01*
X189250000Y-57599996D01*
X192144435Y-57599996D01*
X192144435Y-57600003D01*
X192164630Y-57779249D01*
X192164631Y-57779254D01*
X192224211Y-57949523D01*
X192320184Y-58102262D01*
X192447738Y-58229816D01*
X192600478Y-58325789D01*
X192770745Y-58385368D01*
X192770750Y-58385369D01*
X192949996Y-58405565D01*
X192950000Y-58405565D01*
X192950004Y-58405565D01*
X193129249Y-58385369D01*
X193129252Y-58385368D01*
X193129255Y-58385368D01*
X193299522Y-58325789D01*
X193452262Y-58229816D01*
X193579816Y-58102262D01*
X193675789Y-57949522D01*
X193735368Y-57779255D01*
X193755565Y-57600000D01*
X193735368Y-57420745D01*
X193735367Y-57420740D01*
X193729438Y-57403797D01*
X193725875Y-57334018D01*
X193760604Y-57273390D01*
X193822597Y-57241163D01*
X193892172Y-57247567D01*
X193911570Y-57257299D01*
X193998484Y-57310908D01*
X194162247Y-57365174D01*
X194263323Y-57375500D01*
X194836676Y-57375499D01*
X194836684Y-57375498D01*
X194836687Y-57375498D01*
X194892030Y-57369844D01*
X194937753Y-57365174D01*
X195101516Y-57310908D01*
X195248350Y-57220340D01*
X195370340Y-57098350D01*
X195460908Y-56951516D01*
X195515174Y-56787753D01*
X195525500Y-56686677D01*
X195525499Y-56088324D01*
X195515174Y-55987247D01*
X195460908Y-55823484D01*
X195370340Y-55676650D01*
X195248350Y-55554660D01*
X195101516Y-55464092D01*
X194937753Y-55409826D01*
X194937751Y-55409825D01*
X194836678Y-55399500D01*
X194263330Y-55399500D01*
X194263312Y-55399501D01*
X194162247Y-55409825D01*
X193998484Y-55464092D01*
X193998481Y-55464093D01*
X193851648Y-55554661D01*
X193729660Y-55676649D01*
X193729656Y-55676654D01*
X193714582Y-55701095D01*
X193662635Y-55747821D01*
X193609043Y-55760000D01*
X193400694Y-55760000D01*
X193279470Y-55784113D01*
X193279460Y-55784116D01*
X193165274Y-55831413D01*
X193165256Y-55831423D01*
X193062492Y-55900087D01*
X193062485Y-55900093D01*
X192618581Y-56344000D01*
X192549992Y-56412589D01*
X192507312Y-56455269D01*
X192462586Y-56499994D01*
X192462585Y-56499996D01*
X192393233Y-56603789D01*
X192391586Y-56608393D01*
X192346615Y-56716962D01*
X192346612Y-56716972D01*
X192332533Y-56787754D01*
X192322500Y-56838192D01*
X192322500Y-57058328D01*
X192303494Y-57124300D01*
X192224211Y-57250476D01*
X192164631Y-57420745D01*
X192164630Y-57420750D01*
X192144435Y-57599996D01*
X189250000Y-57599996D01*
X189250000Y-53599997D01*
X190802851Y-53599997D01*
X190802851Y-53600002D01*
X190823407Y-53834966D01*
X190823408Y-53834973D01*
X190884457Y-54062807D01*
X190984138Y-54276574D01*
X190987574Y-54281481D01*
X191119428Y-54469787D01*
X191286213Y-54636572D01*
X191479425Y-54771861D01*
X191693196Y-54871544D01*
X191921028Y-54932592D01*
X192088865Y-54947275D01*
X192155998Y-54953149D01*
X192156000Y-54953149D01*
X192156002Y-54953149D01*
X192214743Y-54948009D01*
X192390972Y-54932592D01*
X192618804Y-54871544D01*
X192832575Y-54771861D01*
X193025787Y-54636572D01*
X193192572Y-54469787D01*
X193324426Y-54281479D01*
X193379002Y-54237856D01*
X193448501Y-54230664D01*
X193510855Y-54262186D01*
X193527570Y-54281476D01*
X193659428Y-54469787D01*
X193826213Y-54636572D01*
X194019425Y-54771861D01*
X194233196Y-54871544D01*
X194461028Y-54932592D01*
X194628865Y-54947275D01*
X194695998Y-54953149D01*
X194696000Y-54953149D01*
X194696002Y-54953149D01*
X194754743Y-54948009D01*
X194930972Y-54932592D01*
X195158804Y-54871544D01*
X195372575Y-54771861D01*
X195436450Y-54727135D01*
X208864500Y-54727135D01*
X208864500Y-56472870D01*
X208864501Y-56472876D01*
X208870908Y-56532483D01*
X208921202Y-56667328D01*
X208921206Y-56667335D01*
X209007452Y-56782544D01*
X209007455Y-56782547D01*
X209122664Y-56868793D01*
X209122671Y-56868797D01*
X209257517Y-56919091D01*
X209257516Y-56919091D01*
X209264444Y-56919835D01*
X209317127Y-56925500D01*
X211062872Y-56925499D01*
X211122483Y-56919091D01*
X211257331Y-56868796D01*
X211372546Y-56782546D01*
X211458796Y-56667331D01*
X211509091Y-56532483D01*
X211509091Y-56532481D01*
X211510874Y-56524938D01*
X211513747Y-56525616D01*
X211535191Y-56473843D01*
X211592582Y-56433993D01*
X211662407Y-56431497D01*
X211719426Y-56463965D01*
X211874731Y-56619270D01*
X212064718Y-56752301D01*
X212274921Y-56850320D01*
X212498950Y-56910349D01*
X212663985Y-56924787D01*
X212729998Y-56930563D01*
X212730000Y-56930563D01*
X212730002Y-56930563D01*
X212787894Y-56925498D01*
X212961050Y-56910349D01*
X213185079Y-56850320D01*
X213395282Y-56752301D01*
X213585269Y-56619270D01*
X213749270Y-56455269D01*
X213882301Y-56265282D01*
X213980320Y-56055079D01*
X214040349Y-55831050D01*
X214060563Y-55600000D01*
X214060563Y-55599998D01*
X216479437Y-55599998D01*
X216479437Y-55600001D01*
X216499650Y-55831044D01*
X216499651Y-55831051D01*
X216559678Y-56055074D01*
X216559679Y-56055076D01*
X216559680Y-56055079D01*
X216657699Y-56265282D01*
X216790730Y-56455269D01*
X216954731Y-56619270D01*
X217144718Y-56752301D01*
X217354921Y-56850320D01*
X217578950Y-56910349D01*
X217743985Y-56924787D01*
X217809998Y-56930563D01*
X217810000Y-56930563D01*
X217810002Y-56930563D01*
X217867894Y-56925498D01*
X218041050Y-56910349D01*
X218265079Y-56850320D01*
X218475282Y-56752301D01*
X218665269Y-56619270D01*
X218829270Y-56455269D01*
X218962301Y-56265282D01*
X219060320Y-56055079D01*
X219120349Y-55831050D01*
X219140563Y-55600000D01*
X219120349Y-55368950D01*
X219060320Y-55144921D01*
X218962301Y-54934719D01*
X218962299Y-54934716D01*
X218962298Y-54934714D01*
X218829273Y-54744735D01*
X218829268Y-54744729D01*
X218665269Y-54580730D01*
X218665263Y-54580726D01*
X218475282Y-54447699D01*
X218265079Y-54349680D01*
X218265076Y-54349679D01*
X218265074Y-54349678D01*
X218041051Y-54289651D01*
X218041044Y-54289650D01*
X217810002Y-54269437D01*
X217809998Y-54269437D01*
X217578955Y-54289650D01*
X217578948Y-54289651D01*
X217354917Y-54349681D01*
X217144718Y-54447699D01*
X217144714Y-54447701D01*
X216954735Y-54580726D01*
X216954729Y-54580731D01*
X216790731Y-54744729D01*
X216790726Y-54744735D01*
X216657701Y-54934714D01*
X216657699Y-54934718D01*
X216559681Y-55144917D01*
X216499651Y-55368948D01*
X216499650Y-55368955D01*
X216479437Y-55599998D01*
X214060563Y-55599998D01*
X214040349Y-55368950D01*
X213980320Y-55144921D01*
X213882301Y-54934719D01*
X213882299Y-54934716D01*
X213882298Y-54934714D01*
X213749273Y-54744735D01*
X213749268Y-54744729D01*
X213585269Y-54580730D01*
X213585263Y-54580726D01*
X213395282Y-54447699D01*
X213185079Y-54349680D01*
X213185076Y-54349679D01*
X213185074Y-54349678D01*
X212961051Y-54289651D01*
X212961044Y-54289650D01*
X212730002Y-54269437D01*
X212729998Y-54269437D01*
X212498955Y-54289650D01*
X212498948Y-54289651D01*
X212274917Y-54349681D01*
X212064718Y-54447699D01*
X212064714Y-54447701D01*
X211874735Y-54580726D01*
X211719426Y-54736035D01*
X211658103Y-54769519D01*
X211588411Y-54764535D01*
X211532478Y-54722663D01*
X211513517Y-54674443D01*
X211510876Y-54675068D01*
X211509092Y-54667520D01*
X211458797Y-54532671D01*
X211458793Y-54532664D01*
X211372547Y-54417455D01*
X211372544Y-54417452D01*
X211257335Y-54331206D01*
X211257328Y-54331202D01*
X211122482Y-54280908D01*
X211122483Y-54280908D01*
X211062883Y-54274501D01*
X211062881Y-54274500D01*
X211062873Y-54274500D01*
X211062864Y-54274500D01*
X209317129Y-54274500D01*
X209317123Y-54274501D01*
X209257516Y-54280908D01*
X209122671Y-54331202D01*
X209122664Y-54331206D01*
X209007455Y-54417452D01*
X209007452Y-54417455D01*
X208921206Y-54532664D01*
X208921202Y-54532671D01*
X208870908Y-54667517D01*
X208864501Y-54727116D01*
X208864500Y-54727135D01*
X195436450Y-54727135D01*
X195565787Y-54636572D01*
X195732572Y-54469787D01*
X195867861Y-54276575D01*
X195967544Y-54062804D01*
X196028592Y-53834972D01*
X196049149Y-53600000D01*
X196028592Y-53365028D01*
X195967544Y-53137196D01*
X195867861Y-52923426D01*
X195867859Y-52923423D01*
X195867858Y-52923421D01*
X195732571Y-52730211D01*
X195565791Y-52563432D01*
X195565787Y-52563428D01*
X195372575Y-52428139D01*
X195372576Y-52428139D01*
X195372574Y-52428138D01*
X195158807Y-52328457D01*
X195158804Y-52328456D01*
X195062515Y-52302655D01*
X194930973Y-52267408D01*
X194930966Y-52267407D01*
X194696002Y-52246851D01*
X194695998Y-52246851D01*
X194461033Y-52267407D01*
X194461026Y-52267408D01*
X194233192Y-52328457D01*
X194019425Y-52428139D01*
X194019421Y-52428141D01*
X193826211Y-52563428D01*
X193659428Y-52730211D01*
X193527575Y-52918518D01*
X193472998Y-52962143D01*
X193403500Y-52969336D01*
X193341145Y-52937814D01*
X193324425Y-52918518D01*
X193192571Y-52730211D01*
X193025791Y-52563432D01*
X193025787Y-52563428D01*
X192832575Y-52428139D01*
X192832576Y-52428139D01*
X192832574Y-52428138D01*
X192618807Y-52328457D01*
X192618804Y-52328456D01*
X192522515Y-52302655D01*
X192390973Y-52267408D01*
X192390966Y-52267407D01*
X192156002Y-52246851D01*
X192155998Y-52246851D01*
X191921033Y-52267407D01*
X191921026Y-52267408D01*
X191693192Y-52328457D01*
X191479425Y-52428139D01*
X191479421Y-52428141D01*
X191286211Y-52563428D01*
X191119428Y-52730211D01*
X190984141Y-52923421D01*
X190984139Y-52923425D01*
X190884457Y-53137192D01*
X190823408Y-53365026D01*
X190823407Y-53365033D01*
X190802851Y-53599997D01*
X189250000Y-53599997D01*
X189250000Y-39838196D01*
X189672500Y-39838196D01*
X189672500Y-42911807D01*
X189696612Y-43033027D01*
X189696614Y-43033035D01*
X189729818Y-43113195D01*
X189729819Y-43113197D01*
X189743918Y-43147236D01*
X189760589Y-43172185D01*
X189803766Y-43236803D01*
X189812589Y-43250008D01*
X190402589Y-43840008D01*
X190463792Y-43901211D01*
X190489994Y-43927413D01*
X190489996Y-43927414D01*
X190592756Y-43996076D01*
X190592760Y-43996078D01*
X190592767Y-43996083D01*
X190621620Y-44008034D01*
X190621621Y-44008035D01*
X190656972Y-44022677D01*
X190706965Y-44043386D01*
X190828192Y-44067499D01*
X190828196Y-44067500D01*
X190828197Y-44067500D01*
X190885226Y-44067500D01*
X190952265Y-44087185D01*
X190986799Y-44120374D01*
X191119428Y-44309787D01*
X191286213Y-44476572D01*
X191474520Y-44608426D01*
X191518144Y-44663002D01*
X191525336Y-44732501D01*
X191493814Y-44794855D01*
X191474518Y-44811575D01*
X191286211Y-44943428D01*
X191119428Y-45110211D01*
X190984141Y-45303421D01*
X190984139Y-45303425D01*
X190884457Y-45517192D01*
X190823408Y-45745026D01*
X190823407Y-45745033D01*
X190802851Y-45979997D01*
X190802851Y-45980002D01*
X190823407Y-46214966D01*
X190823408Y-46214973D01*
X190836167Y-46262589D01*
X190865070Y-46370457D01*
X190884457Y-46442807D01*
X190984138Y-46656574D01*
X190984139Y-46656575D01*
X191119428Y-46849787D01*
X191286213Y-47016572D01*
X191474520Y-47148426D01*
X191518144Y-47203002D01*
X191525336Y-47272501D01*
X191493814Y-47334855D01*
X191474518Y-47351575D01*
X191286211Y-47483428D01*
X191119428Y-47650211D01*
X190984141Y-47843421D01*
X190984139Y-47843425D01*
X190884457Y-48057192D01*
X190823408Y-48285026D01*
X190823407Y-48285033D01*
X190802851Y-48519997D01*
X190802851Y-48520002D01*
X190823407Y-48754966D01*
X190823408Y-48754973D01*
X190884457Y-48982807D01*
X190984138Y-49196574D01*
X190984139Y-49196575D01*
X191119428Y-49389787D01*
X191286213Y-49556572D01*
X191479425Y-49691861D01*
X191693196Y-49791544D01*
X191921028Y-49852592D01*
X192088865Y-49867275D01*
X192155998Y-49873149D01*
X192156000Y-49873149D01*
X192156002Y-49873149D01*
X192214743Y-49868009D01*
X192390972Y-49852592D01*
X192618804Y-49791544D01*
X192832575Y-49691861D01*
X193025787Y-49556572D01*
X193192572Y-49389787D01*
X193324426Y-49201479D01*
X193379002Y-49157856D01*
X193448501Y-49150664D01*
X193510855Y-49182186D01*
X193527570Y-49201476D01*
X193659428Y-49389787D01*
X193826213Y-49556572D01*
X194019425Y-49691861D01*
X194233196Y-49791544D01*
X194461028Y-49852592D01*
X194628865Y-49867275D01*
X194695998Y-49873149D01*
X194696000Y-49873149D01*
X194696002Y-49873149D01*
X194754743Y-49868009D01*
X194930972Y-49852592D01*
X195158804Y-49791544D01*
X195372575Y-49691861D01*
X195565787Y-49556572D01*
X195732572Y-49389787D01*
X195867861Y-49196575D01*
X195907948Y-49110604D01*
X195951439Y-49059908D01*
X196030008Y-49007411D01*
X196117411Y-48920008D01*
X196830499Y-48206918D01*
X196891822Y-48173434D01*
X196961513Y-48178418D01*
X197017447Y-48220289D01*
X197041864Y-48285754D01*
X197035886Y-48333604D01*
X197009826Y-48412247D01*
X197009825Y-48412248D01*
X196999500Y-48513315D01*
X196999500Y-49086669D01*
X196999501Y-49086687D01*
X197009825Y-49187752D01*
X197064092Y-49351515D01*
X197064093Y-49351518D01*
X197087698Y-49389787D01*
X197154660Y-49498350D01*
X197276650Y-49620340D01*
X197423484Y-49710908D01*
X197587247Y-49765174D01*
X197688323Y-49775500D01*
X198286676Y-49775499D01*
X198286684Y-49775498D01*
X198286687Y-49775498D01*
X198342030Y-49769844D01*
X198387753Y-49765174D01*
X198551516Y-49710908D01*
X198698350Y-49620340D01*
X198812319Y-49506371D01*
X198873642Y-49472886D01*
X198943334Y-49477870D01*
X198987681Y-49506371D01*
X199101650Y-49620340D01*
X199248484Y-49710908D01*
X199412247Y-49765174D01*
X199513323Y-49775500D01*
X200111676Y-49775499D01*
X200212753Y-49765174D01*
X200212754Y-49765173D01*
X200213112Y-49765137D01*
X200281805Y-49777907D01*
X200313395Y-49800814D01*
X200962589Y-50450008D01*
X201049992Y-50537411D01*
X201049994Y-50537413D01*
X201049996Y-50537414D01*
X201152756Y-50606076D01*
X201152758Y-50606077D01*
X201152767Y-50606083D01*
X201167710Y-50612272D01*
X201167712Y-50612274D01*
X201167713Y-50612274D01*
X201208825Y-50629303D01*
X201266965Y-50653386D01*
X201388192Y-50677499D01*
X201388196Y-50677500D01*
X201388197Y-50677500D01*
X201511803Y-50677500D01*
X201638635Y-50677500D01*
X201705674Y-50697185D01*
X201751429Y-50749989D01*
X201761855Y-50815383D01*
X201744435Y-50969996D01*
X201744435Y-50970003D01*
X201764630Y-51149249D01*
X201764631Y-51149254D01*
X201824211Y-51319524D01*
X201903493Y-51445698D01*
X201922500Y-51511671D01*
X201922500Y-52063328D01*
X201903494Y-52129300D01*
X201824211Y-52255476D01*
X201764631Y-52425745D01*
X201764630Y-52425750D01*
X201744435Y-52604996D01*
X201744435Y-52605003D01*
X201764630Y-52784249D01*
X201764631Y-52784254D01*
X201824211Y-52954523D01*
X201913235Y-53096203D01*
X201920184Y-53107262D01*
X202047738Y-53234816D01*
X202200478Y-53330789D01*
X202298342Y-53365033D01*
X202370745Y-53390368D01*
X202370750Y-53390369D01*
X202549996Y-53410565D01*
X202550000Y-53410565D01*
X202550004Y-53410565D01*
X202729249Y-53390369D01*
X202729252Y-53390368D01*
X202729255Y-53390368D01*
X202899522Y-53330789D01*
X203052262Y-53234816D01*
X203179816Y-53107262D01*
X203275789Y-52954522D01*
X203335368Y-52784255D01*
X203335369Y-52784249D01*
X203355565Y-52605003D01*
X203355565Y-52604996D01*
X203335369Y-52425750D01*
X203335368Y-52425745D01*
X203275788Y-52255476D01*
X203196506Y-52129300D01*
X203177500Y-52063328D01*
X203177500Y-51897569D01*
X203197185Y-51830530D01*
X203249989Y-51784775D01*
X203319147Y-51774831D01*
X203382703Y-51803856D01*
X203389181Y-51809888D01*
X204079301Y-52500008D01*
X204142721Y-52563428D01*
X204166706Y-52587413D01*
X204166708Y-52587414D01*
X204269468Y-52656076D01*
X204269470Y-52656077D01*
X204269479Y-52656083D01*
X204294484Y-52666440D01*
X204316783Y-52675677D01*
X204358966Y-52693149D01*
X204383678Y-52703386D01*
X204414808Y-52709578D01*
X204504904Y-52727499D01*
X204504908Y-52727500D01*
X204504909Y-52727500D01*
X204588197Y-52727500D01*
X210958328Y-52727500D01*
X211024300Y-52746506D01*
X211146712Y-52823423D01*
X211150478Y-52825789D01*
X211299826Y-52878048D01*
X211320745Y-52885368D01*
X211320750Y-52885369D01*
X211499996Y-52905565D01*
X211500000Y-52905565D01*
X211500004Y-52905565D01*
X211679249Y-52885369D01*
X211679252Y-52885368D01*
X211679255Y-52885368D01*
X211849522Y-52825789D01*
X211853287Y-52823422D01*
X211920522Y-52804419D01*
X211987359Y-52824783D01*
X212032576Y-52878048D01*
X212040882Y-52904221D01*
X212046612Y-52933029D01*
X212046613Y-52933033D01*
X212046614Y-52933035D01*
X212061651Y-52969336D01*
X212074356Y-53000008D01*
X212093915Y-53047229D01*
X212093923Y-53047243D01*
X212154027Y-53137195D01*
X212162585Y-53150002D01*
X212162591Y-53150010D01*
X212799985Y-53787406D01*
X212799992Y-53787412D01*
X212902756Y-53856076D01*
X212902759Y-53856077D01*
X212902767Y-53856083D01*
X213016965Y-53903385D01*
X213016969Y-53903385D01*
X213016970Y-53903386D01*
X213138193Y-53927500D01*
X213138196Y-53927500D01*
X213138197Y-53927500D01*
X227538719Y-53927500D01*
X227605758Y-53947185D01*
X227626400Y-53963819D01*
X228274146Y-54611565D01*
X228307631Y-54672888D01*
X228309685Y-54685361D01*
X228314630Y-54729249D01*
X228374210Y-54899521D01*
X228407907Y-54953149D01*
X228470184Y-55052262D01*
X228597738Y-55179816D01*
X228750478Y-55275789D01*
X228920745Y-55335368D01*
X228920750Y-55335369D01*
X229099996Y-55355565D01*
X229100000Y-55355565D01*
X229100004Y-55355565D01*
X229279249Y-55335369D01*
X229279252Y-55335368D01*
X229279255Y-55335368D01*
X229449522Y-55275789D01*
X229602262Y-55179816D01*
X229729816Y-55052262D01*
X229825789Y-54899522D01*
X229885368Y-54729255D01*
X229890314Y-54685361D01*
X229905565Y-54550003D01*
X229905565Y-54549996D01*
X229885369Y-54370750D01*
X229885368Y-54370745D01*
X229856992Y-54289651D01*
X229825789Y-54200478D01*
X229729816Y-54047738D01*
X229602262Y-53920184D01*
X229466650Y-53834973D01*
X229449521Y-53824210D01*
X229279249Y-53764630D01*
X229235361Y-53759685D01*
X229170947Y-53732617D01*
X229161565Y-53724146D01*
X228603545Y-53166126D01*
X228570060Y-53104803D01*
X228575044Y-53035111D01*
X228586225Y-53012485D01*
X228625789Y-52949522D01*
X228685368Y-52779255D01*
X228690894Y-52730211D01*
X228705565Y-52600003D01*
X228705565Y-52599996D01*
X228685369Y-52420750D01*
X228685368Y-52420745D01*
X228631713Y-52267408D01*
X228625789Y-52250478D01*
X228546505Y-52124299D01*
X228527500Y-52058328D01*
X228527500Y-51488195D01*
X228517153Y-51436181D01*
X228513797Y-51419308D01*
X228503386Y-51366966D01*
X228465393Y-51275243D01*
X228456083Y-51252767D01*
X228456082Y-51252766D01*
X228456079Y-51252760D01*
X228387412Y-51149993D01*
X228348238Y-51110819D01*
X228300008Y-51062589D01*
X227037169Y-49799750D01*
X227003684Y-49738427D01*
X227008668Y-49668735D01*
X227050540Y-49612802D01*
X227058872Y-49607079D01*
X227102262Y-49579816D01*
X227229816Y-49452262D01*
X227325789Y-49299522D01*
X227385368Y-49129255D01*
X227386327Y-49120745D01*
X227405565Y-48950003D01*
X227405565Y-48949996D01*
X227385369Y-48770750D01*
X227385368Y-48770745D01*
X227379847Y-48754966D01*
X227325789Y-48600478D01*
X227321668Y-48593920D01*
X227276792Y-48522500D01*
X227229816Y-48447738D01*
X227102262Y-48320184D01*
X227046312Y-48285028D01*
X226949521Y-48224210D01*
X226779249Y-48164630D01*
X226735361Y-48159685D01*
X226670947Y-48132617D01*
X226661565Y-48124146D01*
X222475100Y-43937681D01*
X222441615Y-43876358D01*
X222446599Y-43806666D01*
X222475100Y-43762319D01*
X223279908Y-42957511D01*
X223279911Y-42957508D01*
X223290384Y-42941834D01*
X223301627Y-42925009D01*
X223348576Y-42854743D01*
X223348583Y-42854733D01*
X223369851Y-42803386D01*
X223395886Y-42740534D01*
X223420000Y-42619303D01*
X223420000Y-42495696D01*
X223420000Y-41549996D01*
X224494435Y-41549996D01*
X224494435Y-41550003D01*
X224514630Y-41729249D01*
X224514631Y-41729254D01*
X224574211Y-41899523D01*
X224628152Y-41985369D01*
X224670184Y-42052262D01*
X224797738Y-42179816D01*
X224950478Y-42275789D01*
X225099849Y-42328056D01*
X225120745Y-42335368D01*
X225120750Y-42335369D01*
X225299996Y-42355565D01*
X225300000Y-42355565D01*
X225300004Y-42355565D01*
X225479249Y-42335369D01*
X225479252Y-42335368D01*
X225479255Y-42335368D01*
X225649522Y-42275789D01*
X225802262Y-42179816D01*
X225929816Y-42052262D01*
X226025789Y-41899522D01*
X226085368Y-41729255D01*
X226087607Y-41709383D01*
X226105565Y-41550003D01*
X226105565Y-41549996D01*
X226085369Y-41370750D01*
X226085368Y-41370745D01*
X226072987Y-41335361D01*
X226025789Y-41200478D01*
X226016946Y-41186405D01*
X225946506Y-41074300D01*
X225927500Y-41008328D01*
X225927500Y-38808440D01*
X225947185Y-38741401D01*
X225958125Y-38727824D01*
X225957975Y-38727705D01*
X225962311Y-38722266D01*
X225962316Y-38722262D01*
X226058289Y-38569522D01*
X226117868Y-38399255D01*
X226133522Y-38260320D01*
X226138065Y-38220003D01*
X226138065Y-38219996D01*
X228336935Y-38219996D01*
X228336935Y-38220003D01*
X228357130Y-38399249D01*
X228357131Y-38399254D01*
X228416711Y-38569523D01*
X228512684Y-38722262D01*
X228536181Y-38745759D01*
X228569666Y-38807082D01*
X228572500Y-38833440D01*
X228572500Y-40908328D01*
X228553494Y-40974300D01*
X228474211Y-41100476D01*
X228414631Y-41270745D01*
X228414630Y-41270750D01*
X228394435Y-41449996D01*
X228394435Y-41450003D01*
X228414630Y-41629249D01*
X228414631Y-41629254D01*
X228474211Y-41799523D01*
X228551673Y-41922802D01*
X228570184Y-41952262D01*
X228697738Y-42079816D01*
X228850478Y-42175789D01*
X228968247Y-42216998D01*
X229020745Y-42235368D01*
X229020750Y-42235369D01*
X229199996Y-42255565D01*
X229200000Y-42255565D01*
X229200004Y-42255565D01*
X229379249Y-42235369D01*
X229379252Y-42235368D01*
X229379255Y-42235368D01*
X229549522Y-42175789D01*
X229702262Y-42079816D01*
X229829816Y-41952262D01*
X229925789Y-41799522D01*
X229985368Y-41629255D01*
X229987246Y-41612589D01*
X230005565Y-41450003D01*
X230005565Y-41449996D01*
X229985369Y-41270750D01*
X229985368Y-41270745D01*
X229978249Y-41250401D01*
X229925789Y-41100478D01*
X229846505Y-40974299D01*
X229827500Y-40908328D01*
X229827500Y-38670161D01*
X229846507Y-38604188D01*
X229868288Y-38569524D01*
X229927868Y-38399254D01*
X229927869Y-38399249D01*
X229948065Y-38220003D01*
X229948065Y-38219996D01*
X229927869Y-38040750D01*
X229927868Y-38040745D01*
X229868289Y-37870478D01*
X229772316Y-37717738D01*
X229644762Y-37590184D01*
X229607808Y-37566964D01*
X229492023Y-37494211D01*
X229321754Y-37434631D01*
X229321749Y-37434630D01*
X229142504Y-37414435D01*
X229142496Y-37414435D01*
X228963250Y-37434630D01*
X228963245Y-37434631D01*
X228792976Y-37494211D01*
X228640237Y-37590184D01*
X228512684Y-37717737D01*
X228416711Y-37870476D01*
X228357131Y-38040745D01*
X228357130Y-38040750D01*
X228336935Y-38219996D01*
X226138065Y-38219996D01*
X226117869Y-38040750D01*
X226117868Y-38040745D01*
X226058289Y-37870478D01*
X225962316Y-37717738D01*
X225834762Y-37590184D01*
X225797808Y-37566964D01*
X225682023Y-37494211D01*
X225511754Y-37434631D01*
X225511749Y-37434630D01*
X225332504Y-37414435D01*
X225332496Y-37414435D01*
X225153250Y-37434630D01*
X225153245Y-37434631D01*
X224982976Y-37494211D01*
X224830237Y-37590184D01*
X224702684Y-37717737D01*
X224606711Y-37870476D01*
X224547131Y-38040745D01*
X224547130Y-38040750D01*
X224526935Y-38219996D01*
X224526935Y-38220003D01*
X224547130Y-38399249D01*
X224547131Y-38399254D01*
X224606711Y-38569524D01*
X224653493Y-38643975D01*
X224672500Y-38709948D01*
X224672500Y-41008328D01*
X224653494Y-41074300D01*
X224574211Y-41200476D01*
X224514631Y-41370745D01*
X224514630Y-41370750D01*
X224494435Y-41549996D01*
X223420000Y-41549996D01*
X223420000Y-38761671D01*
X223439007Y-38695698D01*
X223518288Y-38569524D01*
X223577868Y-38399254D01*
X223577869Y-38399249D01*
X223598065Y-38220003D01*
X223598065Y-38219996D01*
X223577869Y-38040750D01*
X223577868Y-38040745D01*
X223518289Y-37870478D01*
X223422316Y-37717738D01*
X223294762Y-37590184D01*
X223257808Y-37566964D01*
X223142023Y-37494211D01*
X222971754Y-37434631D01*
X222971749Y-37434630D01*
X222792504Y-37414435D01*
X222792496Y-37414435D01*
X222613250Y-37434630D01*
X222613245Y-37434631D01*
X222442976Y-37494211D01*
X222290237Y-37590184D01*
X222162684Y-37717737D01*
X222066711Y-37870476D01*
X222007131Y-38040745D01*
X222007130Y-38040750D01*
X221986935Y-38219996D01*
X221986935Y-38220003D01*
X222007130Y-38399249D01*
X222007131Y-38399254D01*
X222066711Y-38569524D01*
X222145993Y-38695698D01*
X222165000Y-38761671D01*
X222165000Y-42246219D01*
X222145315Y-42313258D01*
X222128681Y-42333900D01*
X221826400Y-42636181D01*
X221765077Y-42669666D01*
X221738719Y-42672500D01*
X216511281Y-42672500D01*
X216444242Y-42652815D01*
X216423600Y-42636181D01*
X215942740Y-42155320D01*
X215909255Y-42093997D01*
X215914239Y-42024305D01*
X215956111Y-41968372D01*
X216021575Y-41943955D01*
X216071376Y-41950598D01*
X216170737Y-41985366D01*
X216170743Y-41985367D01*
X216170745Y-41985368D01*
X216170746Y-41985368D01*
X216170750Y-41985369D01*
X216349996Y-42005565D01*
X216350000Y-42005565D01*
X216350004Y-42005565D01*
X216529249Y-41985369D01*
X216529252Y-41985368D01*
X216529255Y-41985368D01*
X216699522Y-41925789D01*
X216852262Y-41829816D01*
X216979816Y-41702262D01*
X217075789Y-41549522D01*
X217135368Y-41379255D01*
X217135369Y-41379249D01*
X217155565Y-41200003D01*
X217155565Y-41199996D01*
X217135369Y-41020750D01*
X217135368Y-41020745D01*
X217130135Y-41005791D01*
X217075789Y-40850478D01*
X217075188Y-40849522D01*
X217027483Y-40773600D01*
X216979816Y-40697738D01*
X216852262Y-40570184D01*
X216715633Y-40484334D01*
X216699521Y-40474210D01*
X216529249Y-40414630D01*
X216485361Y-40409685D01*
X216420948Y-40382617D01*
X216411566Y-40374146D01*
X216050010Y-40012590D01*
X216027780Y-39997737D01*
X215974001Y-39961803D01*
X215973997Y-39961800D01*
X215947235Y-39943918D01*
X215947228Y-39943914D01*
X215913785Y-39930062D01*
X215833035Y-39896614D01*
X215833027Y-39896612D01*
X215711807Y-39872500D01*
X215711803Y-39872500D01*
X211641672Y-39872500D01*
X211575700Y-39853494D01*
X211449523Y-39774211D01*
X211279254Y-39714631D01*
X211279249Y-39714630D01*
X211100004Y-39694435D01*
X211099996Y-39694435D01*
X210920750Y-39714630D01*
X210920745Y-39714631D01*
X210750476Y-39774211D01*
X210597737Y-39870184D01*
X210470184Y-39997737D01*
X210374211Y-40150476D01*
X210314631Y-40320745D01*
X210314630Y-40320750D01*
X210294435Y-40499996D01*
X210294435Y-40500003D01*
X210314630Y-40679249D01*
X210314631Y-40679254D01*
X210356296Y-40798325D01*
X210374211Y-40849522D01*
X210452614Y-40974300D01*
X210455909Y-40979543D01*
X210474909Y-41046779D01*
X210454541Y-41113615D01*
X210401274Y-41158829D01*
X210350650Y-41168084D01*
X210350650Y-41169500D01*
X209008281Y-41169500D01*
X208941242Y-41149815D01*
X208920600Y-41133181D01*
X208778810Y-40991391D01*
X208745325Y-40930068D01*
X208750309Y-40860376D01*
X208792181Y-40804443D01*
X208825537Y-40786668D01*
X208829250Y-40785368D01*
X208829255Y-40785368D01*
X208999522Y-40725789D01*
X209152262Y-40629816D01*
X209279816Y-40502262D01*
X209375789Y-40349522D01*
X209435368Y-40179255D01*
X209437547Y-40159919D01*
X209455565Y-40000003D01*
X209455565Y-39999996D01*
X209435369Y-39820750D01*
X209435368Y-39820745D01*
X209411689Y-39753075D01*
X209375789Y-39650478D01*
X209343035Y-39598351D01*
X209296506Y-39524300D01*
X209277500Y-39458328D01*
X209277500Y-38061281D01*
X209297185Y-37994242D01*
X209313819Y-37973600D01*
X210173600Y-37113819D01*
X210234923Y-37080334D01*
X210261281Y-37077500D01*
X234338719Y-37077500D01*
X234405758Y-37097185D01*
X234426400Y-37113819D01*
X234828681Y-37516100D01*
X234862166Y-37577423D01*
X234865000Y-37603781D01*
X234865000Y-37678328D01*
X234845994Y-37744300D01*
X234766711Y-37870476D01*
X234707131Y-38040745D01*
X234707130Y-38040750D01*
X234686935Y-38219996D01*
X234686935Y-38220003D01*
X234707130Y-38399249D01*
X234707131Y-38399254D01*
X234766711Y-38569523D01*
X234845993Y-38695698D01*
X234862684Y-38722262D01*
X234990238Y-38849816D01*
X235142978Y-38945789D01*
X235313245Y-39005368D01*
X235313250Y-39005369D01*
X235492496Y-39025565D01*
X235492500Y-39025565D01*
X235492504Y-39025565D01*
X235671749Y-39005369D01*
X235671752Y-39005368D01*
X235671755Y-39005368D01*
X235842022Y-38945789D01*
X235994762Y-38849816D01*
X236122316Y-38722262D01*
X236218289Y-38569522D01*
X236277868Y-38399255D01*
X236293522Y-38260320D01*
X236298065Y-38220003D01*
X236298065Y-38219996D01*
X236277869Y-38040750D01*
X236277868Y-38040745D01*
X236218289Y-37870478D01*
X236139005Y-37744299D01*
X236120000Y-37678328D01*
X236120000Y-37230697D01*
X236113088Y-37195950D01*
X236112684Y-37193917D01*
X236109472Y-37177771D01*
X236104227Y-37151401D01*
X236095886Y-37109465D01*
X236051690Y-37002768D01*
X236048583Y-36995267D01*
X236048579Y-36995260D01*
X235979912Y-36892493D01*
X235979911Y-36892492D01*
X235892508Y-36805089D01*
X235476510Y-36389091D01*
X235050011Y-35962591D01*
X235050007Y-35962588D01*
X234947239Y-35893920D01*
X234947226Y-35893913D01*
X234913785Y-35880062D01*
X234833035Y-35846614D01*
X234833027Y-35846612D01*
X234711807Y-35822500D01*
X234711803Y-35822500D01*
X210011804Y-35822500D01*
X209888197Y-35822500D01*
X209888192Y-35822500D01*
X209766973Y-35846611D01*
X209766973Y-35846612D01*
X209766970Y-35846613D01*
X209766966Y-35846614D01*
X209700070Y-35874323D01*
X209700068Y-35874323D01*
X209652770Y-35893915D01*
X209549989Y-35962590D01*
X209549988Y-35962591D01*
X208524992Y-36987589D01*
X208249992Y-37262589D01*
X208206289Y-37306291D01*
X208162587Y-37349993D01*
X208093920Y-37452760D01*
X208093915Y-37452769D01*
X208084486Y-37475535D01*
X208046614Y-37566965D01*
X208025301Y-37674115D01*
X208024463Y-37678328D01*
X208022500Y-37688198D01*
X208022500Y-37986381D01*
X208002815Y-38053420D01*
X207950011Y-38099175D01*
X207884618Y-38109601D01*
X207750005Y-38094435D01*
X207749996Y-38094435D01*
X207570750Y-38114630D01*
X207570745Y-38114631D01*
X207400476Y-38174211D01*
X207274300Y-38253494D01*
X207208328Y-38272500D01*
X206405011Y-38272500D01*
X206337972Y-38252815D01*
X206292217Y-38200011D01*
X206282273Y-38130853D01*
X206287969Y-38107546D01*
X206297867Y-38079257D01*
X206297868Y-38079255D01*
X206299205Y-38067392D01*
X206318065Y-37900003D01*
X206318065Y-37899996D01*
X206297869Y-37720750D01*
X206297868Y-37720745D01*
X206283026Y-37678328D01*
X206238289Y-37550478D01*
X206142316Y-37397738D01*
X206014762Y-37270184D01*
X205988200Y-37253494D01*
X205862023Y-37174211D01*
X205691754Y-37114631D01*
X205691749Y-37114630D01*
X205512504Y-37094435D01*
X205512496Y-37094435D01*
X205333250Y-37114630D01*
X205333245Y-37114631D01*
X205162976Y-37174211D01*
X205036800Y-37253494D01*
X204970828Y-37272500D01*
X201753176Y-37272500D01*
X201686137Y-37252815D01*
X201640382Y-37200011D01*
X201638624Y-37195974D01*
X201631083Y-37177767D01*
X201588896Y-37114630D01*
X201562414Y-37074996D01*
X201562413Y-37074994D01*
X201562411Y-37074992D01*
X201475008Y-36987589D01*
X201300008Y-36812589D01*
X201300006Y-36812588D01*
X201300003Y-36812585D01*
X201288855Y-36805136D01*
X201288780Y-36805087D01*
X201197238Y-36743920D01*
X201197226Y-36743913D01*
X201163785Y-36730062D01*
X201083035Y-36696614D01*
X201083027Y-36696612D01*
X200961807Y-36672500D01*
X200961803Y-36672500D01*
X200770747Y-36672500D01*
X200703708Y-36652815D01*
X200665209Y-36613597D01*
X200657840Y-36601650D01*
X200535850Y-36479660D01*
X200389016Y-36389092D01*
X200225253Y-36334826D01*
X200225251Y-36334825D01*
X200124178Y-36324500D01*
X199525830Y-36324500D01*
X199525812Y-36324501D01*
X199424747Y-36334825D01*
X199260984Y-36389092D01*
X199260981Y-36389093D01*
X199114148Y-36479661D01*
X199000181Y-36593629D01*
X198938858Y-36627114D01*
X198869166Y-36622130D01*
X198824819Y-36593629D01*
X198710851Y-36479661D01*
X198710850Y-36479660D01*
X198564016Y-36389092D01*
X198400253Y-36334826D01*
X198400251Y-36334825D01*
X198299178Y-36324500D01*
X197700830Y-36324500D01*
X197700812Y-36324501D01*
X197599747Y-36334825D01*
X197435984Y-36389092D01*
X197435981Y-36389093D01*
X197289148Y-36479661D01*
X197167161Y-36601648D01*
X197167160Y-36601650D01*
X197159791Y-36613596D01*
X197107846Y-36660320D01*
X197054253Y-36672500D01*
X192838195Y-36672500D01*
X192716970Y-36696613D01*
X192716960Y-36696616D01*
X192602773Y-36743913D01*
X192602760Y-36743920D01*
X192499992Y-36812588D01*
X192499988Y-36812591D01*
X190530503Y-38782078D01*
X189899992Y-39412589D01*
X189856289Y-39456292D01*
X189812586Y-39499994D01*
X189812585Y-39499996D01*
X189743233Y-39603789D01*
X189741586Y-39608393D01*
X189697580Y-39714632D01*
X189696614Y-39716965D01*
X189677928Y-39810908D01*
X189674309Y-39829100D01*
X189672500Y-39838196D01*
X189250000Y-39838196D01*
X189250000Y-35124000D01*
X189269685Y-35056961D01*
X189322489Y-35011206D01*
X189374000Y-35000000D01*
X239526000Y-35000000D01*
X239593039Y-35019685D01*
G37*
%TD.AperFunction*%
%TD*%
M02*
