%TF.GenerationSoftware,KiCad,Pcbnew,8.0.5*%
%TF.CreationDate,2024-11-24T20:06:06+03:00*%
%TF.ProjectId,pmod_esp32,706d6f64-5f65-4737-9033-322e6b696361,0.1*%
%TF.SameCoordinates,Original*%
%TF.FileFunction,Legend,Top*%
%TF.FilePolarity,Positive*%
%FSLAX46Y46*%
G04 Gerber Fmt 4.6, Leading zero omitted, Abs format (unit mm)*
G04 Created by KiCad (PCBNEW 8.0.5) date 2024-11-24 20:06:06*
%MOMM*%
%LPD*%
G01*
G04 APERTURE LIST*
%ADD10C,0.254000*%
%ADD11C,0.100000*%
%ADD12C,0.150000*%
%ADD13C,0.120000*%
%ADD14C,0.127000*%
%ADD15C,0.200000*%
%ADD16C,0.010000*%
G04 APERTURE END LIST*
D10*
X188304318Y-47673332D02*
X189211461Y-47673332D01*
X189211461Y-47673332D02*
X189392889Y-47733809D01*
X189392889Y-47733809D02*
X189513842Y-47854761D01*
X189513842Y-47854761D02*
X189574318Y-48036190D01*
X189574318Y-48036190D02*
X189574318Y-48157142D01*
X188425270Y-47129047D02*
X188364794Y-47068571D01*
X188364794Y-47068571D02*
X188304318Y-46947618D01*
X188304318Y-46947618D02*
X188304318Y-46645237D01*
X188304318Y-46645237D02*
X188364794Y-46524285D01*
X188364794Y-46524285D02*
X188425270Y-46463809D01*
X188425270Y-46463809D02*
X188546222Y-46403332D01*
X188546222Y-46403332D02*
X188667175Y-46403332D01*
X188667175Y-46403332D02*
X188848603Y-46463809D01*
X188848603Y-46463809D02*
X189574318Y-47189523D01*
X189574318Y-47189523D02*
X189574318Y-46403332D01*
D11*
X196496109Y-55083333D02*
X196258014Y-55249999D01*
X196496109Y-55369047D02*
X195996109Y-55369047D01*
X195996109Y-55369047D02*
X195996109Y-55178571D01*
X195996109Y-55178571D02*
X196019919Y-55130952D01*
X196019919Y-55130952D02*
X196043728Y-55107142D01*
X196043728Y-55107142D02*
X196091347Y-55083333D01*
X196091347Y-55083333D02*
X196162776Y-55083333D01*
X196162776Y-55083333D02*
X196210395Y-55107142D01*
X196210395Y-55107142D02*
X196234204Y-55130952D01*
X196234204Y-55130952D02*
X196258014Y-55178571D01*
X196258014Y-55178571D02*
X196258014Y-55369047D01*
X195996109Y-54916666D02*
X195996109Y-54583333D01*
X195996109Y-54583333D02*
X196496109Y-54797618D01*
X198516666Y-59206109D02*
X198350000Y-58968014D01*
X198230952Y-59206109D02*
X198230952Y-58706109D01*
X198230952Y-58706109D02*
X198421428Y-58706109D01*
X198421428Y-58706109D02*
X198469047Y-58729919D01*
X198469047Y-58729919D02*
X198492857Y-58753728D01*
X198492857Y-58753728D02*
X198516666Y-58801347D01*
X198516666Y-58801347D02*
X198516666Y-58872776D01*
X198516666Y-58872776D02*
X198492857Y-58920395D01*
X198492857Y-58920395D02*
X198469047Y-58944204D01*
X198469047Y-58944204D02*
X198421428Y-58968014D01*
X198421428Y-58968014D02*
X198230952Y-58968014D01*
X198945238Y-58706109D02*
X198850000Y-58706109D01*
X198850000Y-58706109D02*
X198802381Y-58729919D01*
X198802381Y-58729919D02*
X198778571Y-58753728D01*
X198778571Y-58753728D02*
X198730952Y-58825157D01*
X198730952Y-58825157D02*
X198707143Y-58920395D01*
X198707143Y-58920395D02*
X198707143Y-59110871D01*
X198707143Y-59110871D02*
X198730952Y-59158490D01*
X198730952Y-59158490D02*
X198754762Y-59182300D01*
X198754762Y-59182300D02*
X198802381Y-59206109D01*
X198802381Y-59206109D02*
X198897619Y-59206109D01*
X198897619Y-59206109D02*
X198945238Y-59182300D01*
X198945238Y-59182300D02*
X198969047Y-59158490D01*
X198969047Y-59158490D02*
X198992857Y-59110871D01*
X198992857Y-59110871D02*
X198992857Y-58991823D01*
X198992857Y-58991823D02*
X198969047Y-58944204D01*
X198969047Y-58944204D02*
X198945238Y-58920395D01*
X198945238Y-58920395D02*
X198897619Y-58896585D01*
X198897619Y-58896585D02*
X198802381Y-58896585D01*
X198802381Y-58896585D02*
X198754762Y-58920395D01*
X198754762Y-58920395D02*
X198730952Y-58944204D01*
X198730952Y-58944204D02*
X198707143Y-58991823D01*
X207116666Y-50876109D02*
X206950000Y-50638014D01*
X206830952Y-50876109D02*
X206830952Y-50376109D01*
X206830952Y-50376109D02*
X207021428Y-50376109D01*
X207021428Y-50376109D02*
X207069047Y-50399919D01*
X207069047Y-50399919D02*
X207092857Y-50423728D01*
X207092857Y-50423728D02*
X207116666Y-50471347D01*
X207116666Y-50471347D02*
X207116666Y-50542776D01*
X207116666Y-50542776D02*
X207092857Y-50590395D01*
X207092857Y-50590395D02*
X207069047Y-50614204D01*
X207069047Y-50614204D02*
X207021428Y-50638014D01*
X207021428Y-50638014D02*
X206830952Y-50638014D01*
X207569047Y-50376109D02*
X207330952Y-50376109D01*
X207330952Y-50376109D02*
X207307143Y-50614204D01*
X207307143Y-50614204D02*
X207330952Y-50590395D01*
X207330952Y-50590395D02*
X207378571Y-50566585D01*
X207378571Y-50566585D02*
X207497619Y-50566585D01*
X207497619Y-50566585D02*
X207545238Y-50590395D01*
X207545238Y-50590395D02*
X207569047Y-50614204D01*
X207569047Y-50614204D02*
X207592857Y-50661823D01*
X207592857Y-50661823D02*
X207592857Y-50780871D01*
X207592857Y-50780871D02*
X207569047Y-50828490D01*
X207569047Y-50828490D02*
X207545238Y-50852300D01*
X207545238Y-50852300D02*
X207497619Y-50876109D01*
X207497619Y-50876109D02*
X207378571Y-50876109D01*
X207378571Y-50876109D02*
X207330952Y-50852300D01*
X207330952Y-50852300D02*
X207307143Y-50828490D01*
X207166666Y-58626109D02*
X207000000Y-58388014D01*
X206880952Y-58626109D02*
X206880952Y-58126109D01*
X206880952Y-58126109D02*
X207071428Y-58126109D01*
X207071428Y-58126109D02*
X207119047Y-58149919D01*
X207119047Y-58149919D02*
X207142857Y-58173728D01*
X207142857Y-58173728D02*
X207166666Y-58221347D01*
X207166666Y-58221347D02*
X207166666Y-58292776D01*
X207166666Y-58292776D02*
X207142857Y-58340395D01*
X207142857Y-58340395D02*
X207119047Y-58364204D01*
X207119047Y-58364204D02*
X207071428Y-58388014D01*
X207071428Y-58388014D02*
X206880952Y-58388014D01*
X207595238Y-58292776D02*
X207595238Y-58626109D01*
X207476190Y-58102300D02*
X207357143Y-58459442D01*
X207357143Y-58459442D02*
X207666666Y-58459442D01*
X207816666Y-46728490D02*
X207792857Y-46752300D01*
X207792857Y-46752300D02*
X207721428Y-46776109D01*
X207721428Y-46776109D02*
X207673809Y-46776109D01*
X207673809Y-46776109D02*
X207602381Y-46752300D01*
X207602381Y-46752300D02*
X207554762Y-46704680D01*
X207554762Y-46704680D02*
X207530952Y-46657061D01*
X207530952Y-46657061D02*
X207507143Y-46561823D01*
X207507143Y-46561823D02*
X207507143Y-46490395D01*
X207507143Y-46490395D02*
X207530952Y-46395157D01*
X207530952Y-46395157D02*
X207554762Y-46347538D01*
X207554762Y-46347538D02*
X207602381Y-46299919D01*
X207602381Y-46299919D02*
X207673809Y-46276109D01*
X207673809Y-46276109D02*
X207721428Y-46276109D01*
X207721428Y-46276109D02*
X207792857Y-46299919D01*
X207792857Y-46299919D02*
X207816666Y-46323728D01*
X208245238Y-46442776D02*
X208245238Y-46776109D01*
X208126190Y-46252300D02*
X208007143Y-46609442D01*
X208007143Y-46609442D02*
X208316666Y-46609442D01*
X205716666Y-36978490D02*
X205692857Y-37002300D01*
X205692857Y-37002300D02*
X205621428Y-37026109D01*
X205621428Y-37026109D02*
X205573809Y-37026109D01*
X205573809Y-37026109D02*
X205502381Y-37002300D01*
X205502381Y-37002300D02*
X205454762Y-36954680D01*
X205454762Y-36954680D02*
X205430952Y-36907061D01*
X205430952Y-36907061D02*
X205407143Y-36811823D01*
X205407143Y-36811823D02*
X205407143Y-36740395D01*
X205407143Y-36740395D02*
X205430952Y-36645157D01*
X205430952Y-36645157D02*
X205454762Y-36597538D01*
X205454762Y-36597538D02*
X205502381Y-36549919D01*
X205502381Y-36549919D02*
X205573809Y-36526109D01*
X205573809Y-36526109D02*
X205621428Y-36526109D01*
X205621428Y-36526109D02*
X205692857Y-36549919D01*
X205692857Y-36549919D02*
X205716666Y-36573728D01*
X205883333Y-36526109D02*
X206192857Y-36526109D01*
X206192857Y-36526109D02*
X206026190Y-36716585D01*
X206026190Y-36716585D02*
X206097619Y-36716585D01*
X206097619Y-36716585D02*
X206145238Y-36740395D01*
X206145238Y-36740395D02*
X206169047Y-36764204D01*
X206169047Y-36764204D02*
X206192857Y-36811823D01*
X206192857Y-36811823D02*
X206192857Y-36930871D01*
X206192857Y-36930871D02*
X206169047Y-36978490D01*
X206169047Y-36978490D02*
X206145238Y-37002300D01*
X206145238Y-37002300D02*
X206097619Y-37026109D01*
X206097619Y-37026109D02*
X205954762Y-37026109D01*
X205954762Y-37026109D02*
X205907143Y-37002300D01*
X205907143Y-37002300D02*
X205883333Y-36978490D01*
D12*
X246207823Y-43402981D02*
X247280264Y-43402981D01*
X247280264Y-43402981D02*
X247406434Y-43339896D01*
X247406434Y-43339896D02*
X247469519Y-43276811D01*
X247469519Y-43276811D02*
X247532603Y-43150642D01*
X247532603Y-43150642D02*
X247532603Y-42898303D01*
X247532603Y-42898303D02*
X247469519Y-42772133D01*
X247469519Y-42772133D02*
X247406434Y-42709048D01*
X247406434Y-42709048D02*
X247280264Y-42645964D01*
X247280264Y-42645964D02*
X246207823Y-42645964D01*
X247532603Y-41321183D02*
X247532603Y-42078200D01*
X247532603Y-41699692D02*
X246207823Y-41699692D01*
X246207823Y-41699692D02*
X246397078Y-41825861D01*
X246397078Y-41825861D02*
X246523247Y-41952031D01*
X246523247Y-41952031D02*
X246586332Y-42078200D01*
D11*
X202166666Y-36926109D02*
X202000000Y-36688014D01*
X201880952Y-36926109D02*
X201880952Y-36426109D01*
X201880952Y-36426109D02*
X202071428Y-36426109D01*
X202071428Y-36426109D02*
X202119047Y-36449919D01*
X202119047Y-36449919D02*
X202142857Y-36473728D01*
X202142857Y-36473728D02*
X202166666Y-36521347D01*
X202166666Y-36521347D02*
X202166666Y-36592776D01*
X202166666Y-36592776D02*
X202142857Y-36640395D01*
X202142857Y-36640395D02*
X202119047Y-36664204D01*
X202119047Y-36664204D02*
X202071428Y-36688014D01*
X202071428Y-36688014D02*
X201880952Y-36688014D01*
X202333333Y-36426109D02*
X202642857Y-36426109D01*
X202642857Y-36426109D02*
X202476190Y-36616585D01*
X202476190Y-36616585D02*
X202547619Y-36616585D01*
X202547619Y-36616585D02*
X202595238Y-36640395D01*
X202595238Y-36640395D02*
X202619047Y-36664204D01*
X202619047Y-36664204D02*
X202642857Y-36711823D01*
X202642857Y-36711823D02*
X202642857Y-36830871D01*
X202642857Y-36830871D02*
X202619047Y-36878490D01*
X202619047Y-36878490D02*
X202595238Y-36902300D01*
X202595238Y-36902300D02*
X202547619Y-36926109D01*
X202547619Y-36926109D02*
X202404762Y-36926109D01*
X202404762Y-36926109D02*
X202357143Y-36902300D01*
X202357143Y-36902300D02*
X202333333Y-36878490D01*
X230516666Y-36178490D02*
X230492857Y-36202300D01*
X230492857Y-36202300D02*
X230421428Y-36226109D01*
X230421428Y-36226109D02*
X230373809Y-36226109D01*
X230373809Y-36226109D02*
X230302381Y-36202300D01*
X230302381Y-36202300D02*
X230254762Y-36154680D01*
X230254762Y-36154680D02*
X230230952Y-36107061D01*
X230230952Y-36107061D02*
X230207143Y-36011823D01*
X230207143Y-36011823D02*
X230207143Y-35940395D01*
X230207143Y-35940395D02*
X230230952Y-35845157D01*
X230230952Y-35845157D02*
X230254762Y-35797538D01*
X230254762Y-35797538D02*
X230302381Y-35749919D01*
X230302381Y-35749919D02*
X230373809Y-35726109D01*
X230373809Y-35726109D02*
X230421428Y-35726109D01*
X230421428Y-35726109D02*
X230492857Y-35749919D01*
X230492857Y-35749919D02*
X230516666Y-35773728D01*
X230707143Y-35773728D02*
X230730952Y-35749919D01*
X230730952Y-35749919D02*
X230778571Y-35726109D01*
X230778571Y-35726109D02*
X230897619Y-35726109D01*
X230897619Y-35726109D02*
X230945238Y-35749919D01*
X230945238Y-35749919D02*
X230969047Y-35773728D01*
X230969047Y-35773728D02*
X230992857Y-35821347D01*
X230992857Y-35821347D02*
X230992857Y-35868966D01*
X230992857Y-35868966D02*
X230969047Y-35940395D01*
X230969047Y-35940395D02*
X230683333Y-36226109D01*
X230683333Y-36226109D02*
X230992857Y-36226109D01*
X231616666Y-36178490D02*
X231592857Y-36202300D01*
X231592857Y-36202300D02*
X231521428Y-36226109D01*
X231521428Y-36226109D02*
X231473809Y-36226109D01*
X231473809Y-36226109D02*
X231402381Y-36202300D01*
X231402381Y-36202300D02*
X231354762Y-36154680D01*
X231354762Y-36154680D02*
X231330952Y-36107061D01*
X231330952Y-36107061D02*
X231307143Y-36011823D01*
X231307143Y-36011823D02*
X231307143Y-35940395D01*
X231307143Y-35940395D02*
X231330952Y-35845157D01*
X231330952Y-35845157D02*
X231354762Y-35797538D01*
X231354762Y-35797538D02*
X231402381Y-35749919D01*
X231402381Y-35749919D02*
X231473809Y-35726109D01*
X231473809Y-35726109D02*
X231521428Y-35726109D01*
X231521428Y-35726109D02*
X231592857Y-35749919D01*
X231592857Y-35749919D02*
X231616666Y-35773728D01*
X232092857Y-36226109D02*
X231807143Y-36226109D01*
X231950000Y-36226109D02*
X231950000Y-35726109D01*
X231950000Y-35726109D02*
X231902381Y-35797538D01*
X231902381Y-35797538D02*
X231854762Y-35845157D01*
X231854762Y-35845157D02*
X231807143Y-35868966D01*
X194416666Y-59576109D02*
X194178571Y-59576109D01*
X194178571Y-59576109D02*
X194178571Y-59076109D01*
X194583333Y-59576109D02*
X194583333Y-59076109D01*
X194583333Y-59076109D02*
X194702381Y-59076109D01*
X194702381Y-59076109D02*
X194773809Y-59099919D01*
X194773809Y-59099919D02*
X194821428Y-59147538D01*
X194821428Y-59147538D02*
X194845238Y-59195157D01*
X194845238Y-59195157D02*
X194869047Y-59290395D01*
X194869047Y-59290395D02*
X194869047Y-59361823D01*
X194869047Y-59361823D02*
X194845238Y-59457061D01*
X194845238Y-59457061D02*
X194821428Y-59504680D01*
X194821428Y-59504680D02*
X194773809Y-59552300D01*
X194773809Y-59552300D02*
X194702381Y-59576109D01*
X194702381Y-59576109D02*
X194583333Y-59576109D01*
X195345238Y-59576109D02*
X195059524Y-59576109D01*
X195202381Y-59576109D02*
X195202381Y-59076109D01*
X195202381Y-59076109D02*
X195154762Y-59147538D01*
X195154762Y-59147538D02*
X195107143Y-59195157D01*
X195107143Y-59195157D02*
X195059524Y-59218966D01*
X212008333Y-52941109D02*
X212008333Y-53298252D01*
X212008333Y-53298252D02*
X211984524Y-53369680D01*
X211984524Y-53369680D02*
X211936905Y-53417300D01*
X211936905Y-53417300D02*
X211865476Y-53441109D01*
X211865476Y-53441109D02*
X211817857Y-53441109D01*
X212508333Y-53441109D02*
X212222619Y-53441109D01*
X212365476Y-53441109D02*
X212365476Y-52941109D01*
X212365476Y-52941109D02*
X212317857Y-53012538D01*
X212317857Y-53012538D02*
X212270238Y-53060157D01*
X212270238Y-53060157D02*
X212222619Y-53083966D01*
X210679166Y-39476109D02*
X210512500Y-39238014D01*
X210393452Y-39476109D02*
X210393452Y-38976109D01*
X210393452Y-38976109D02*
X210583928Y-38976109D01*
X210583928Y-38976109D02*
X210631547Y-38999919D01*
X210631547Y-38999919D02*
X210655357Y-39023728D01*
X210655357Y-39023728D02*
X210679166Y-39071347D01*
X210679166Y-39071347D02*
X210679166Y-39142776D01*
X210679166Y-39142776D02*
X210655357Y-39190395D01*
X210655357Y-39190395D02*
X210631547Y-39214204D01*
X210631547Y-39214204D02*
X210583928Y-39238014D01*
X210583928Y-39238014D02*
X210393452Y-39238014D01*
X211155357Y-39476109D02*
X210869643Y-39476109D01*
X211012500Y-39476109D02*
X211012500Y-38976109D01*
X211012500Y-38976109D02*
X210964881Y-39047538D01*
X210964881Y-39047538D02*
X210917262Y-39095157D01*
X210917262Y-39095157D02*
X210869643Y-39118966D01*
X205719048Y-48452300D02*
X205790476Y-48476109D01*
X205790476Y-48476109D02*
X205909524Y-48476109D01*
X205909524Y-48476109D02*
X205957143Y-48452300D01*
X205957143Y-48452300D02*
X205980952Y-48428490D01*
X205980952Y-48428490D02*
X206004762Y-48380871D01*
X206004762Y-48380871D02*
X206004762Y-48333252D01*
X206004762Y-48333252D02*
X205980952Y-48285633D01*
X205980952Y-48285633D02*
X205957143Y-48261823D01*
X205957143Y-48261823D02*
X205909524Y-48238014D01*
X205909524Y-48238014D02*
X205814286Y-48214204D01*
X205814286Y-48214204D02*
X205766667Y-48190395D01*
X205766667Y-48190395D02*
X205742857Y-48166585D01*
X205742857Y-48166585D02*
X205719048Y-48118966D01*
X205719048Y-48118966D02*
X205719048Y-48071347D01*
X205719048Y-48071347D02*
X205742857Y-48023728D01*
X205742857Y-48023728D02*
X205766667Y-47999919D01*
X205766667Y-47999919D02*
X205814286Y-47976109D01*
X205814286Y-47976109D02*
X205933333Y-47976109D01*
X205933333Y-47976109D02*
X206004762Y-47999919D01*
X206195238Y-48023728D02*
X206219047Y-47999919D01*
X206219047Y-47999919D02*
X206266666Y-47976109D01*
X206266666Y-47976109D02*
X206385714Y-47976109D01*
X206385714Y-47976109D02*
X206433333Y-47999919D01*
X206433333Y-47999919D02*
X206457142Y-48023728D01*
X206457142Y-48023728D02*
X206480952Y-48071347D01*
X206480952Y-48071347D02*
X206480952Y-48118966D01*
X206480952Y-48118966D02*
X206457142Y-48190395D01*
X206457142Y-48190395D02*
X206171428Y-48476109D01*
X206171428Y-48476109D02*
X206480952Y-48476109D01*
X213966666Y-36726109D02*
X213728571Y-36726109D01*
X213728571Y-36726109D02*
X213728571Y-36226109D01*
X214133333Y-36726109D02*
X214133333Y-36226109D01*
X214133333Y-36226109D02*
X214252381Y-36226109D01*
X214252381Y-36226109D02*
X214323809Y-36249919D01*
X214323809Y-36249919D02*
X214371428Y-36297538D01*
X214371428Y-36297538D02*
X214395238Y-36345157D01*
X214395238Y-36345157D02*
X214419047Y-36440395D01*
X214419047Y-36440395D02*
X214419047Y-36511823D01*
X214419047Y-36511823D02*
X214395238Y-36607061D01*
X214395238Y-36607061D02*
X214371428Y-36654680D01*
X214371428Y-36654680D02*
X214323809Y-36702300D01*
X214323809Y-36702300D02*
X214252381Y-36726109D01*
X214252381Y-36726109D02*
X214133333Y-36726109D01*
X214728571Y-36226109D02*
X214776190Y-36226109D01*
X214776190Y-36226109D02*
X214823809Y-36249919D01*
X214823809Y-36249919D02*
X214847619Y-36273728D01*
X214847619Y-36273728D02*
X214871428Y-36321347D01*
X214871428Y-36321347D02*
X214895238Y-36416585D01*
X214895238Y-36416585D02*
X214895238Y-36535633D01*
X214895238Y-36535633D02*
X214871428Y-36630871D01*
X214871428Y-36630871D02*
X214847619Y-36678490D01*
X214847619Y-36678490D02*
X214823809Y-36702300D01*
X214823809Y-36702300D02*
X214776190Y-36726109D01*
X214776190Y-36726109D02*
X214728571Y-36726109D01*
X214728571Y-36726109D02*
X214680952Y-36702300D01*
X214680952Y-36702300D02*
X214657143Y-36678490D01*
X214657143Y-36678490D02*
X214633333Y-36630871D01*
X214633333Y-36630871D02*
X214609524Y-36535633D01*
X214609524Y-36535633D02*
X214609524Y-36416585D01*
X214609524Y-36416585D02*
X214633333Y-36321347D01*
X214633333Y-36321347D02*
X214657143Y-36273728D01*
X214657143Y-36273728D02*
X214680952Y-36249919D01*
X214680952Y-36249919D02*
X214728571Y-36226109D01*
X196519048Y-45552300D02*
X196590476Y-45576109D01*
X196590476Y-45576109D02*
X196709524Y-45576109D01*
X196709524Y-45576109D02*
X196757143Y-45552300D01*
X196757143Y-45552300D02*
X196780952Y-45528490D01*
X196780952Y-45528490D02*
X196804762Y-45480871D01*
X196804762Y-45480871D02*
X196804762Y-45433252D01*
X196804762Y-45433252D02*
X196780952Y-45385633D01*
X196780952Y-45385633D02*
X196757143Y-45361823D01*
X196757143Y-45361823D02*
X196709524Y-45338014D01*
X196709524Y-45338014D02*
X196614286Y-45314204D01*
X196614286Y-45314204D02*
X196566667Y-45290395D01*
X196566667Y-45290395D02*
X196542857Y-45266585D01*
X196542857Y-45266585D02*
X196519048Y-45218966D01*
X196519048Y-45218966D02*
X196519048Y-45171347D01*
X196519048Y-45171347D02*
X196542857Y-45123728D01*
X196542857Y-45123728D02*
X196566667Y-45099919D01*
X196566667Y-45099919D02*
X196614286Y-45076109D01*
X196614286Y-45076109D02*
X196733333Y-45076109D01*
X196733333Y-45076109D02*
X196804762Y-45099919D01*
X197280952Y-45576109D02*
X196995238Y-45576109D01*
X197138095Y-45576109D02*
X197138095Y-45076109D01*
X197138095Y-45076109D02*
X197090476Y-45147538D01*
X197090476Y-45147538D02*
X197042857Y-45195157D01*
X197042857Y-45195157D02*
X196995238Y-45218966D01*
%TO.C,J2*%
X188256000Y-54870000D02*
X188256000Y-39630000D01*
X190796000Y-54870000D02*
X188256000Y-54870000D01*
X188256000Y-39630000D02*
X190796000Y-39630000D01*
X190796000Y-39630000D02*
X190796000Y-54870000D01*
D13*
%TO.C,R7*%
X197177500Y-55254724D02*
X197177500Y-54745276D01*
X198222500Y-55254724D02*
X198222500Y-54745276D01*
%TO.C,R6*%
X198854724Y-58072500D02*
X198345276Y-58072500D01*
X198854724Y-57027500D02*
X198345276Y-57027500D01*
%TO.C,R5*%
X206677500Y-52954724D02*
X206677500Y-52445276D01*
X207722500Y-52954724D02*
X207722500Y-52445276D01*
%TO.C,R4*%
X207722500Y-55945276D02*
X207722500Y-56454724D01*
X206677500Y-55945276D02*
X206677500Y-56454724D01*
%TO.C,C4*%
X208846267Y-47240000D02*
X208553733Y-47240000D01*
X208846267Y-48260000D02*
X208553733Y-48260000D01*
%TO.C,C3*%
X204796267Y-38410000D02*
X204503733Y-38410000D01*
X204796267Y-37390000D02*
X204503733Y-37390000D01*
D14*
%TO.C,U1*%
X220027500Y-38220000D02*
X220027500Y-40720000D01*
X220027500Y-53720000D02*
X220027500Y-56220000D01*
X220027500Y-56220000D02*
X220777500Y-56220000D01*
X220777500Y-38220000D02*
X220027500Y-38220000D01*
X239027500Y-38220000D02*
X245527500Y-38220000D01*
X245527500Y-38220000D02*
X245527500Y-56220000D01*
X245527500Y-56220000D02*
X239027500Y-56220000D01*
D15*
X238152900Y-36855000D02*
G75*
G02*
X237952900Y-36855000I-100000J0D01*
G01*
X237952900Y-36855000D02*
G75*
G02*
X238152900Y-36855000I100000J0D01*
G01*
D16*
X239777500Y-52220000D02*
X239294570Y-52220000D01*
X239294570Y-51728090D01*
X239777500Y-51728090D01*
X239777500Y-52220000D01*
G36*
X239777500Y-52220000D02*
G01*
X239294570Y-52220000D01*
X239294570Y-51728090D01*
X239777500Y-51728090D01*
X239777500Y-52220000D01*
G37*
X239777500Y-54720000D02*
X239303110Y-54720000D01*
X239303110Y-54238870D01*
X239777500Y-54238870D01*
X239777500Y-54720000D01*
G36*
X239777500Y-54720000D02*
G01*
X239303110Y-54720000D01*
X239303110Y-54238870D01*
X239777500Y-54238870D01*
X239777500Y-54720000D01*
G37*
X240277500Y-39720000D02*
X239802900Y-39720000D01*
X239802900Y-39199670D01*
X240277500Y-39199670D01*
X240277500Y-39720000D01*
G36*
X240277500Y-39720000D02*
G01*
X239802900Y-39720000D01*
X239802900Y-39199670D01*
X240277500Y-39199670D01*
X240277500Y-39720000D01*
G37*
X242277500Y-44720000D02*
X241795600Y-44720000D01*
X241795600Y-41711710D01*
X242277500Y-41711710D01*
X242277500Y-44720000D01*
G36*
X242277500Y-44720000D02*
G01*
X241795600Y-44720000D01*
X241795600Y-41711710D01*
X242277500Y-41711710D01*
X242277500Y-44720000D01*
G37*
X242277500Y-49720000D02*
X241827600Y-49720000D01*
X241827600Y-46717912D01*
X242277500Y-46717912D01*
X242277500Y-49720000D01*
G36*
X242277500Y-49720000D02*
G01*
X241827600Y-49720000D01*
X241827600Y-46717912D01*
X242277500Y-46717912D01*
X242277500Y-49720000D01*
G37*
X244277500Y-42220000D02*
X241824900Y-42220000D01*
X241824900Y-41698320D01*
X244277500Y-41698320D01*
X244277500Y-42220000D01*
G36*
X244277500Y-42220000D02*
G01*
X241824900Y-42220000D01*
X241824900Y-41698320D01*
X244277500Y-41698320D01*
X244277500Y-42220000D01*
G37*
X244277500Y-44720000D02*
X241818300Y-44720000D01*
X241818300Y-44209770D01*
X244277500Y-44209770D01*
X244277500Y-44720000D01*
G36*
X244277500Y-44720000D02*
G01*
X241818300Y-44720000D01*
X241818300Y-44209770D01*
X244277500Y-44209770D01*
X244277500Y-44720000D01*
G37*
X244277500Y-47220000D02*
X241826300Y-47220000D01*
X241826300Y-46717966D01*
X244277500Y-46717966D01*
X244277500Y-47220000D01*
G36*
X244277500Y-47220000D02*
G01*
X241826300Y-47220000D01*
X241826300Y-46717966D01*
X244277500Y-46717966D01*
X244277500Y-47220000D01*
G37*
X244277500Y-49720000D02*
X241830300Y-49720000D01*
X241830300Y-49228800D01*
X244277500Y-49228800D01*
X244277500Y-49720000D01*
G36*
X244277500Y-49720000D02*
G01*
X241830300Y-49720000D01*
X241830300Y-49228800D01*
X244277500Y-49228800D01*
X244277500Y-49720000D01*
G37*
X244777500Y-39720000D02*
X240306400Y-39720000D01*
X240306400Y-39197970D01*
X244777500Y-39197970D01*
X244777500Y-39720000D01*
G36*
X244777500Y-39720000D02*
G01*
X240306400Y-39720000D01*
X240306400Y-39197970D01*
X244777500Y-39197970D01*
X244777500Y-39720000D01*
G37*
X244777500Y-42220000D02*
X244294000Y-42220000D01*
X244294000Y-39210890D01*
X244777500Y-39210890D01*
X244777500Y-42220000D01*
G36*
X244777500Y-42220000D02*
G01*
X244294000Y-42220000D01*
X244294000Y-39210890D01*
X244777500Y-39210890D01*
X244777500Y-42220000D01*
G37*
X244777500Y-47220000D02*
X244326300Y-47220000D01*
X244326300Y-44209880D01*
X244777500Y-44209880D01*
X244777500Y-47220000D01*
G36*
X244777500Y-47220000D02*
G01*
X244326300Y-47220000D01*
X244326300Y-44209880D01*
X244777500Y-44209880D01*
X244777500Y-47220000D01*
G37*
X244777500Y-49720000D02*
X243331100Y-49720000D01*
X243331100Y-49227940D01*
X244777500Y-49227940D01*
X244777500Y-49720000D01*
G36*
X244777500Y-49720000D02*
G01*
X243331100Y-49720000D01*
X243331100Y-49227940D01*
X244777500Y-49227940D01*
X244777500Y-49720000D01*
G37*
X244777500Y-54720000D02*
X244291200Y-54720000D01*
X244291200Y-49231570D01*
X244777500Y-49231570D01*
X244777500Y-54720000D01*
G36*
X244777500Y-54720000D02*
G01*
X244291200Y-54720000D01*
X244291200Y-49231570D01*
X244777500Y-49231570D01*
X244777500Y-54720000D01*
G37*
X244777500Y-52220000D02*
X239808600Y-52220000D01*
X239808600Y-51733960D01*
X244777500Y-51733960D01*
X244777500Y-52220000D01*
G36*
X244777500Y-52220000D02*
G01*
X239808600Y-52220000D01*
X239808600Y-51733960D01*
X244777500Y-51733960D01*
X244777500Y-52220000D01*
G37*
X244777500Y-54720000D02*
X239807100Y-54720000D01*
X239807100Y-54240700D01*
X244777500Y-54240700D01*
X244777500Y-54720000D01*
G36*
X244777500Y-54720000D02*
G01*
X239807100Y-54720000D01*
X239807100Y-54240700D01*
X244777500Y-54240700D01*
X244777500Y-54720000D01*
G37*
D13*
%TO.C,R3*%
X201404724Y-38422500D02*
X200895276Y-38422500D01*
X201404724Y-37377500D02*
X200895276Y-37377500D01*
%TO.C,C2*%
X233841233Y-35540000D02*
X234133767Y-35540000D01*
X233841233Y-36560000D02*
X234133767Y-36560000D01*
%TO.C,C1*%
X237546267Y-35540000D02*
X237253733Y-35540000D01*
X237546267Y-36560000D02*
X237253733Y-36560000D01*
%TO.C,LD1*%
X194650000Y-56465000D02*
X190590000Y-56465000D01*
X190590000Y-56465000D02*
X190590000Y-58735000D01*
X190590000Y-58735000D02*
X194650000Y-58735000D01*
D14*
%TO.C,J1*%
X219080000Y-56805000D02*
X208920000Y-56805000D01*
X219080000Y-54395000D02*
X219080000Y-56805000D01*
X219080000Y-54395000D02*
X208920000Y-54395000D01*
X208920000Y-56805000D02*
X208920000Y-54395000D01*
D15*
X208350000Y-55600000D02*
G75*
G02*
X208150000Y-55600000I-100000J0D01*
G01*
X208150000Y-55600000D02*
G75*
G02*
X208350000Y-55600000I100000J0D01*
G01*
D13*
%TO.C,R1*%
X212117224Y-37627500D02*
X211607776Y-37627500D01*
X212117224Y-38672500D02*
X211607776Y-38672500D01*
D15*
%TO.C,S2*%
X201080000Y-55400000D02*
G75*
G02*
X200880000Y-55400000I-100000J0D01*
G01*
X200880000Y-55400000D02*
G75*
G02*
X201080000Y-55400000I100000J0D01*
G01*
X199640000Y-55900000D02*
X200580000Y-55900000D01*
X202350000Y-55900000D02*
X203150000Y-55900000D01*
X205860000Y-55900000D02*
X204920000Y-55900000D01*
X199640000Y-49500000D02*
X199640000Y-55900000D01*
X200580000Y-49500000D02*
X199640000Y-49500000D01*
X203150000Y-49500000D02*
X202350000Y-49500000D01*
X204920000Y-49500000D02*
X205860000Y-49500000D01*
X205860000Y-49500000D02*
X205860000Y-55900000D01*
D13*
%TO.C,LD0*%
X213640000Y-37015000D02*
X213640000Y-39285000D01*
X213640000Y-39285000D02*
X217700000Y-39285000D01*
X217700000Y-37015000D02*
X213640000Y-37015000D01*
D15*
%TO.C,S1*%
X199550000Y-41400000D02*
X199550000Y-43800000D01*
X199650000Y-39400000D02*
X205850000Y-39400000D01*
X205850000Y-45800000D02*
X199650000Y-45800000D01*
X205950000Y-43800000D02*
X205950000Y-41400000D01*
X200150000Y-40000000D02*
G75*
G02*
X199950000Y-40000000I-100000J0D01*
G01*
X199950000Y-40000000D02*
G75*
G02*
X200150000Y-40000000I100000J0D01*
G01*
%TD*%
M02*
