%TF.GenerationSoftware,KiCad,Pcbnew,8.0.5*%
%TF.CreationDate,2024-11-24T20:06:06+03:00*%
%TF.ProjectId,pmod_esp32,706d6f64-5f65-4737-9033-322e6b696361,0.1*%
%TF.SameCoordinates,Original*%
%TF.FileFunction,Copper,L1,Top*%
%TF.FilePolarity,Positive*%
%FSLAX46Y46*%
G04 Gerber Fmt 4.6, Leading zero omitted, Abs format (unit mm)*
G04 Created by KiCad (PCBNEW 8.0.5) date 2024-11-24 20:06:06*
%MOMM*%
%LPD*%
G01*
G04 APERTURE LIST*
G04 Aperture macros list*
%AMRoundRect*
0 Rectangle with rounded corners*
0 $1 Rounding radius*
0 $2 $3 $4 $5 $6 $7 $8 $9 X,Y pos of 4 corners*
0 Add a 4 corners polygon primitive as box body*
4,1,4,$2,$3,$4,$5,$6,$7,$8,$9,$2,$3,0*
0 Add four circle primitives for the rounded corners*
1,1,$1+$1,$2,$3*
1,1,$1+$1,$4,$5*
1,1,$1+$1,$6,$7*
1,1,$1+$1,$8,$9*
0 Add four rect primitives between the rounded corners*
20,1,$1+$1,$2,$3,$4,$5,0*
20,1,$1+$1,$4,$5,$6,$7,0*
20,1,$1+$1,$6,$7,$8,$9,0*
20,1,$1+$1,$8,$9,$2,$3,0*%
G04 Aperture macros list end*
%TA.AperFunction,Conductor*%
%ADD10C,0.200000*%
%TD*%
%TA.AperFunction,ComponentPad*%
%ADD11C,1.695000*%
%TD*%
%TA.AperFunction,SMDPad,CuDef*%
%ADD12RoundRect,0.237500X0.237500X-0.250000X0.237500X0.250000X-0.237500X0.250000X-0.237500X-0.250000X0*%
%TD*%
%TA.AperFunction,SMDPad,CuDef*%
%ADD13RoundRect,0.237500X0.250000X0.237500X-0.250000X0.237500X-0.250000X-0.237500X0.250000X-0.237500X0*%
%TD*%
%TA.AperFunction,SMDPad,CuDef*%
%ADD14RoundRect,0.237500X-0.237500X0.250000X-0.237500X-0.250000X0.237500X-0.250000X0.237500X0.250000X0*%
%TD*%
%TA.AperFunction,SMDPad,CuDef*%
%ADD15RoundRect,0.237500X0.300000X0.237500X-0.300000X0.237500X-0.300000X-0.237500X0.300000X-0.237500X0*%
%TD*%
%TA.AperFunction,SMDPad,CuDef*%
%ADD16RoundRect,0.099000X-0.351000X0.751000X-0.351000X-0.751000X0.351000X-0.751000X0.351000X0.751000X0*%
%TD*%
%TA.AperFunction,SMDPad,CuDef*%
%ADD17R,4.000000X4.000000*%
%TD*%
%TA.AperFunction,SMDPad,CuDef*%
%ADD18RoundRect,0.099000X-0.751000X0.351000X-0.751000X-0.351000X0.751000X-0.351000X0.751000X0.351000X0*%
%TD*%
%TA.AperFunction,SMDPad,CuDef*%
%ADD19RoundRect,0.237500X-0.300000X-0.237500X0.300000X-0.237500X0.300000X0.237500X-0.300000X0.237500X0*%
%TD*%
%TA.AperFunction,SMDPad,CuDef*%
%ADD20RoundRect,0.250001X-0.462499X-0.624999X0.462499X-0.624999X0.462499X0.624999X-0.462499X0.624999X0*%
%TD*%
%TA.AperFunction,ComponentPad*%
%ADD21R,1.650000X1.650000*%
%TD*%
%TA.AperFunction,ComponentPad*%
%ADD22C,1.650000*%
%TD*%
%TA.AperFunction,SMDPad,CuDef*%
%ADD23R,1.100000X2.200000*%
%TD*%
%TA.AperFunction,SMDPad,CuDef*%
%ADD24R,1.550000X1.300000*%
%TD*%
%TA.AperFunction,ViaPad*%
%ADD25C,0.600000*%
%TD*%
%TA.AperFunction,Conductor*%
%ADD26C,0.254000*%
%TD*%
%TA.AperFunction,Conductor*%
%ADD27C,0.635000*%
%TD*%
G04 APERTURE END LIST*
%TO.N,/IO0*%
D10*
X189250000Y-35000000D02*
X239650000Y-35000000D01*
X239650000Y-59500000D01*
X189250000Y-59500000D01*
X189250000Y-35000000D01*
%TD*%
D11*
%TO.P,J2,1,1*%
%TO.N,Net-(J2-Pad1)*%
X194696000Y-40900000D03*
%TO.P,J2,2,2*%
%TO.N,Net-(J2-Pad2)*%
X194696000Y-43440000D03*
%TO.P,J2,3,3*%
%TO.N,Net-(J2-Pad3)*%
X194696000Y-45980000D03*
%TO.P,J2,4,4*%
%TO.N,Net-(J2-Pad4)*%
X194696000Y-48520000D03*
%TO.P,J2,5,5*%
%TO.N,/GND*%
X194696000Y-51060000D03*
%TO.P,J2,6,6*%
%TO.N,/VCC3V3*%
X194696000Y-53600000D03*
%TO.P,J2,7,7*%
%TO.N,Net-(J2-Pad7)*%
X192156000Y-40900000D03*
%TO.P,J2,8,8*%
%TO.N,Net-(J2-Pad8)*%
X192156000Y-43440000D03*
%TO.P,J2,9,9*%
%TO.N,Net-(J2-Pad9)*%
X192156000Y-45980000D03*
%TO.P,J2,10,10*%
%TO.N,Net-(J2-Pad10)*%
X192156000Y-48520000D03*
%TO.P,J2,11,11*%
%TO.N,/GND*%
X192156000Y-51060000D03*
%TO.P,J2,12,12*%
%TO.N,/VCC3V3*%
X192156000Y-53600000D03*
%TD*%
D12*
%TO.P,R7,1*%
%TO.N,/SELECT*%
X197700000Y-55912500D03*
%TO.P,R7,2*%
%TO.N,/GND*%
X197700000Y-54087500D03*
%TD*%
D13*
%TO.P,R6,1*%
%TO.N,Net-(R6-Pad1)*%
X199512500Y-57550000D03*
%TO.P,R6,2*%
%TO.N,/SELECT*%
X197687500Y-57550000D03*
%TD*%
D12*
%TO.P,R5,1*%
%TO.N,/IO0*%
X207200000Y-53612500D03*
%TO.P,R5,2*%
%TO.N,/VCC3V3*%
X207200000Y-51787500D03*
%TD*%
D14*
%TO.P,R4,1*%
%TO.N,/IO0*%
X207200000Y-55287500D03*
%TO.P,R4,2*%
%TO.N,Net-(R4-Pad2)*%
X207200000Y-57112500D03*
%TD*%
D15*
%TO.P,C4,2*%
%TO.N,/GND*%
X207837500Y-47750000D03*
%TO.P,C4,1*%
%TO.N,/VCC3V3*%
X209562500Y-47750000D03*
%TD*%
%TO.P,C3,2*%
%TO.N,/GND*%
X203787500Y-37900000D03*
%TO.P,C3,1*%
%TO.N,/EN*%
X205512500Y-37900000D03*
%TD*%
D16*
%TO.P,U1,1,GND*%
%TO.N,/GND*%
X238032500Y-38220000D03*
D17*
%TO.P,U1,1.1,GND*%
X230622500Y-46520000D03*
D16*
%TO.P,U1,2,3V3*%
%TO.N,/VCC3V3*%
X236762500Y-38220000D03*
%TO.P,U1,3,EN*%
%TO.N,/EN*%
X235492500Y-38220000D03*
%TO.P,U1,4,SENSOR_VP*%
%TO.N,unconnected-(U1-SENSOR_VP-Pad4)*%
X234222500Y-38220000D03*
%TO.P,U1,5,SENSOR_VN*%
%TO.N,unconnected-(U1-SENSOR_VN-Pad5)*%
X232952500Y-38220000D03*
%TO.P,U1,6,IO34*%
%TO.N,unconnected-(U1-IO34-Pad6)*%
X231682500Y-38220000D03*
%TO.P,U1,7,IO35*%
%TO.N,unconnected-(U1-IO35-Pad7)*%
X230412500Y-38220000D03*
%TO.P,U1,8,IO32*%
%TO.N,/GPIO*%
X229142500Y-38220000D03*
%TO.P,U1,9,IO33*%
%TO.N,unconnected-(U1-IO33-Pad9)*%
X227872500Y-38220000D03*
%TO.P,U1,10,IO25*%
%TO.N,unconnected-(U1-IO25-Pad10)*%
X226602500Y-38220000D03*
%TO.P,U1,11,IO26*%
%TO.N,/SELECT*%
X225332500Y-38220000D03*
%TO.P,U1,12,IO27*%
%TO.N,unconnected-(U1-IO27-Pad12)*%
X224062500Y-38220000D03*
%TO.P,U1,13,IO14*%
%TO.N,/RTS*%
X222792500Y-38220000D03*
%TO.P,U1,14,IO12*%
%TO.N,/LD0*%
X221522500Y-38220000D03*
D18*
%TO.P,U1,15,GND*%
%TO.N,/GND*%
X220022500Y-41505000D03*
%TO.P,U1,16,IO13*%
%TO.N,unconnected-(U1-IO13-Pad16)*%
X220022500Y-42775000D03*
%TO.P,U1,17,SHD/SD2*%
%TO.N,unconnected-(U1-SHD{slash}SD2-Pad17)*%
X220022500Y-44045000D03*
%TO.P,U1,18,SWP/SD3*%
%TO.N,unconnected-(U1-SWP{slash}SD3-Pad18)*%
X220022500Y-45315000D03*
%TO.P,U1,19,SCS/CMD*%
%TO.N,unconnected-(U1-SCS{slash}CMD-Pad19)*%
X220022500Y-46585000D03*
%TO.P,U1,20,SCK/CLK*%
%TO.N,unconnected-(U1-SCK{slash}CLK-Pad20)*%
X220022500Y-47855000D03*
%TO.P,U1,21,SDO/SD0*%
%TO.N,unconnected-(U1-SDO{slash}SD0-Pad21)*%
X220022500Y-49125000D03*
%TO.P,U1,22,SDI/SD1*%
%TO.N,unconnected-(U1-SDI{slash}SD1-Pad22)*%
X220022500Y-50395000D03*
%TO.P,U1,23,IO15*%
%TO.N,/CTS*%
X220022500Y-51665000D03*
%TO.P,U1,24,IO2*%
%TO.N,/INT*%
X220022500Y-52935000D03*
D16*
%TO.P,U1,25,IO0*%
%TO.N,/IO0*%
X221522500Y-56220000D03*
%TO.P,U1,26,IO4*%
%TO.N,unconnected-(U1-IO4-Pad26)*%
X222792500Y-56220000D03*
%TO.P,U1,27,IO16*%
%TO.N,/RXD*%
X224062500Y-56220000D03*
%TO.P,U1,28,IO17*%
%TO.N,/TXD*%
X225332500Y-56220000D03*
%TO.P,U1,29,IO5*%
%TO.N,/SS*%
X226602500Y-56220000D03*
%TO.P,U1,30,IO18*%
%TO.N,/SCK*%
X227872500Y-56220000D03*
%TO.P,U1,31,IO19*%
%TO.N,/MISO*%
X229142500Y-56220000D03*
%TO.P,U1,32*%
%TO.N,N/C*%
X230412500Y-56220000D03*
%TO.P,U1,33,IO21*%
%TO.N,unconnected-(U1-IO21-Pad33)*%
X231682500Y-56220000D03*
%TO.P,U1,34,RXD0*%
%TO.N,/RXD0*%
X232952500Y-56220000D03*
%TO.P,U1,35,TXD0*%
%TO.N,/TXD0*%
X234222500Y-56220000D03*
%TO.P,U1,36,IO22*%
%TO.N,unconnected-(U1-IO22-Pad36)*%
X235492500Y-56220000D03*
%TO.P,U1,37,IO23*%
%TO.N,/MOSI*%
X236762500Y-56220000D03*
%TO.P,U1,38,GND*%
%TO.N,/GND*%
X238032500Y-56220000D03*
%TD*%
D13*
%TO.P,R3,1*%
%TO.N,/VCC3V3*%
X202062500Y-37900000D03*
%TO.P,R3,2*%
%TO.N,/EN*%
X200237500Y-37900000D03*
%TD*%
D19*
%TO.P,C2,1*%
%TO.N,/GND*%
X233125000Y-36050000D03*
%TO.P,C2,2*%
%TO.N,/VCC3V3*%
X234850000Y-36050000D03*
%TD*%
D15*
%TO.P,C1,1*%
%TO.N,/GND*%
X238262500Y-36050000D03*
%TO.P,C1,2*%
%TO.N,/VCC3V3*%
X236537500Y-36050000D03*
%TD*%
D20*
%TO.P,LD1,1,K*%
%TO.N,Net-(LD1-K)*%
X191562500Y-57600000D03*
%TO.P,LD1,2,A*%
%TO.N,/VCC3V3*%
X194537500Y-57600000D03*
%TD*%
D21*
%TO.P,J1,1,1*%
%TO.N,/TXD0*%
X210190000Y-55600000D03*
D22*
%TO.P,J1,2,2*%
%TO.N,/RXD0*%
X212730000Y-55600000D03*
%TO.P,J1,3,3*%
%TO.N,/GND*%
X215270000Y-55600000D03*
%TO.P,J1,4,4*%
%TO.N,/IO0*%
X217810000Y-55600000D03*
%TD*%
D13*
%TO.P,R1,1*%
%TO.N,Net-(LD0-K)*%
X212775000Y-38150000D03*
%TO.P,R1,2*%
%TO.N,/GND*%
X210950000Y-38150000D03*
%TD*%
D23*
%TO.P,S2,A2*%
%TO.N,/GND*%
X204020000Y-48300000D03*
%TO.P,S2,A1*%
%TO.N,/VCC3V3*%
X201480000Y-48300000D03*
%TO.P,S2,2*%
%TO.N,Net-(R4-Pad2)*%
X204020000Y-57100000D03*
%TO.P,S2,1*%
%TO.N,Net-(R6-Pad1)*%
X201480000Y-57100000D03*
%TD*%
D20*
%TO.P,LD0,1,K*%
%TO.N,Net-(LD0-K)*%
X214612500Y-38150000D03*
%TO.P,LD0,2,A*%
%TO.N,/LD0*%
X217587500Y-38150000D03*
%TD*%
D24*
%TO.P,S1,1*%
%TO.N,/EN*%
X198775000Y-40350000D03*
%TO.P,S1,2*%
%TO.N,/GND*%
X198775000Y-44850000D03*
%TO.P,S1,3*%
%TO.N,/EN*%
X206725000Y-40350000D03*
%TO.P,S1,4*%
%TO.N,/GND*%
X206725000Y-44850000D03*
%TD*%
D25*
%TO.N,/GND*%
X238050000Y-58200000D03*
X238050000Y-54200000D03*
X238050000Y-53400000D03*
X238050000Y-52600000D03*
X238050000Y-51800000D03*
X238050000Y-51000000D03*
X238050000Y-50200000D03*
X238050000Y-49400000D03*
X238050000Y-48600000D03*
X238050000Y-47800000D03*
X238050000Y-47000000D03*
X238050000Y-46200000D03*
X238050000Y-45400000D03*
X238050000Y-44600000D03*
X238050000Y-43800000D03*
X238050000Y-43000000D03*
X238050000Y-42200000D03*
X238050000Y-41400000D03*
X238050000Y-40600000D03*
X237250000Y-58200000D03*
X237250000Y-51000000D03*
X237250000Y-50200000D03*
X237250000Y-49400000D03*
X237250000Y-48600000D03*
X237250000Y-47800000D03*
X237250000Y-47000000D03*
X237250000Y-46200000D03*
X237250000Y-45400000D03*
X237250000Y-44600000D03*
X237250000Y-43800000D03*
X237250000Y-43000000D03*
X237250000Y-42200000D03*
X237250000Y-41400000D03*
X236450000Y-58200000D03*
X236450000Y-51000000D03*
X236450000Y-50200000D03*
X236450000Y-49400000D03*
X236450000Y-48600000D03*
X236450000Y-47800000D03*
X236450000Y-47000000D03*
X236450000Y-46200000D03*
X236450000Y-45400000D03*
X236450000Y-44600000D03*
X236450000Y-43800000D03*
X236450000Y-43000000D03*
X236450000Y-42200000D03*
X236450000Y-41400000D03*
X235650000Y-58200000D03*
X235650000Y-54200000D03*
X235650000Y-51000000D03*
X235650000Y-50200000D03*
X235650000Y-49400000D03*
X235650000Y-48600000D03*
X235650000Y-47800000D03*
X235650000Y-47000000D03*
X235650000Y-46200000D03*
X235650000Y-45400000D03*
X235650000Y-44600000D03*
X235650000Y-43800000D03*
X235650000Y-43000000D03*
X235650000Y-42200000D03*
X235650000Y-41400000D03*
X234850000Y-54200000D03*
X234850000Y-53400000D03*
X234850000Y-51000000D03*
X234850000Y-50200000D03*
X234850000Y-49400000D03*
X234850000Y-48600000D03*
X234850000Y-47800000D03*
X234850000Y-47000000D03*
X234850000Y-46200000D03*
X234850000Y-45400000D03*
X234850000Y-44600000D03*
X234850000Y-43800000D03*
X234850000Y-43000000D03*
X234850000Y-42200000D03*
X234850000Y-41400000D03*
X234050000Y-54200000D03*
X234050000Y-53400000D03*
X234050000Y-51000000D03*
X234050000Y-50200000D03*
X234050000Y-49400000D03*
X234050000Y-48600000D03*
X234050000Y-47800000D03*
X234050000Y-47000000D03*
X234050000Y-46200000D03*
X234050000Y-45400000D03*
X234050000Y-44600000D03*
X234050000Y-43800000D03*
X234050000Y-43000000D03*
X234050000Y-42200000D03*
X234050000Y-41400000D03*
X233250000Y-54200000D03*
X233250000Y-53400000D03*
X233250000Y-51000000D03*
X233250000Y-50200000D03*
X233250000Y-49400000D03*
X233250000Y-43000000D03*
X233250000Y-42200000D03*
X233250000Y-41400000D03*
X232450000Y-54200000D03*
X232450000Y-53400000D03*
X232450000Y-51000000D03*
X232450000Y-50200000D03*
X232450000Y-49400000D03*
X232450000Y-43000000D03*
X232450000Y-42200000D03*
X232450000Y-41400000D03*
X231650000Y-54200000D03*
X231650000Y-53400000D03*
X231650000Y-51000000D03*
X231650000Y-50200000D03*
X231650000Y-49400000D03*
X231650000Y-43000000D03*
X231650000Y-42200000D03*
X231650000Y-41400000D03*
X230850000Y-54200000D03*
X230850000Y-53400000D03*
X230850000Y-51000000D03*
X230850000Y-50200000D03*
X230850000Y-49400000D03*
X230850000Y-43000000D03*
X230850000Y-42200000D03*
X230850000Y-41400000D03*
X230050000Y-51000000D03*
X230050000Y-50200000D03*
X230050000Y-49400000D03*
X230050000Y-43000000D03*
X229250000Y-51000000D03*
X229250000Y-50200000D03*
X229250000Y-49400000D03*
X228450000Y-50200000D03*
X228450000Y-49400000D03*
X227650000Y-41400000D03*
X226850000Y-42200000D03*
X226850000Y-41400000D03*
X225250000Y-51000000D03*
X223650000Y-43800000D03*
X222050000Y-47800000D03*
X215650000Y-47800000D03*
X215650000Y-47000000D03*
X215650000Y-46200000D03*
X214850000Y-47800000D03*
X214850000Y-47000000D03*
X214850000Y-46200000D03*
X214050000Y-47800000D03*
X214050000Y-47000000D03*
X213250000Y-47800000D03*
X213250000Y-47000000D03*
X209250000Y-58200000D03*
X209250000Y-57400000D03*
X207650000Y-36600000D03*
X206850000Y-43000000D03*
X206850000Y-36600000D03*
X206050000Y-50200000D03*
X206050000Y-42200000D03*
X205250000Y-55000000D03*
X205250000Y-54200000D03*
X205250000Y-53400000D03*
X204450000Y-55000000D03*
X204450000Y-54200000D03*
X204450000Y-53400000D03*
X203650000Y-55000000D03*
X203650000Y-54200000D03*
X203650000Y-36600000D03*
X202850000Y-55000000D03*
X202850000Y-54200000D03*
X202850000Y-36600000D03*
X202050000Y-55000000D03*
X199650000Y-50200000D03*
X198850000Y-50200000D03*
X198050000Y-50200000D03*
X197250000Y-50200000D03*
X196450000Y-50200000D03*
X191650000Y-36600000D03*
X190850000Y-37400000D03*
X190850000Y-36600000D03*
%TO.N,/VCC3V3*%
X209564382Y-46985618D03*
%TO.N,/EN*%
X205512500Y-37900000D03*
%TO.N,/RTS*%
X222792500Y-38220000D03*
%TO.N,/SS*%
X226600000Y-48950000D03*
%TO.N,/INT*%
X216350000Y-41200000D03*
X211100000Y-40500000D03*
X207750000Y-38900000D03*
%TO.N,/CTS*%
X218077000Y-45250000D03*
%TO.N,/SCK*%
X227900000Y-52600000D03*
X216500000Y-44627000D03*
X212850000Y-45100000D03*
%TO.N,/RXD*%
X221750000Y-51200000D03*
%TO.N,/MOSI*%
X227273000Y-51958591D03*
%TO.N,/TXD*%
X224850000Y-52600000D03*
%TO.N,/MISO*%
X229100000Y-54550000D03*
%TO.N,/SELECT*%
X225332500Y-38220000D03*
X225300000Y-41550000D03*
X221750000Y-49250000D03*
X214700000Y-49300000D03*
X212000000Y-51300000D03*
%TO.N,/GPIO*%
X229142500Y-38220000D03*
X229200000Y-41450000D03*
X221700000Y-50100000D03*
X214906131Y-50072991D03*
X211500000Y-52100000D03*
%TO.N,/EN*%
X235492500Y-38220000D03*
X201075000Y-37900000D03*
X208650000Y-40000000D03*
%TO.N,/SELECT*%
X202550000Y-47000000D03*
X202550000Y-50970000D03*
X202550000Y-52605000D03*
%TO.N,Net-(LD1-K)*%
X192950000Y-57600000D03*
%TO.N,/CTS{slash}SCK*%
X202200000Y-41750000D03*
X201150000Y-45977000D03*
%TO.N,/SCK*%
X223800000Y-47450000D03*
X221350000Y-44627000D03*
%TD*%
D26*
%TO.N,/VCC3V3*%
X209564382Y-46985618D02*
X209564382Y-47748118D01*
X209564382Y-47748118D02*
X209562500Y-47750000D01*
D27*
X211700000Y-47750000D02*
X209562500Y-47750000D01*
X211750000Y-47700000D02*
X211700000Y-47750000D01*
X211750000Y-47700000D02*
X211750000Y-41400000D01*
X211750000Y-50300000D02*
X211750000Y-47700000D01*
D26*
%TO.N,/CTS*%
X218615000Y-51665000D02*
X220022500Y-51665000D01*
X218350000Y-51400000D02*
X218615000Y-51665000D01*
X218350000Y-45523000D02*
X218350000Y-51400000D01*
X218077000Y-45250000D02*
X218350000Y-45523000D01*
%TO.N,/SCK*%
X221350000Y-44627000D02*
X221350000Y-45000000D01*
X221350000Y-45000000D02*
X223800000Y-47450000D01*
X213450000Y-44500000D02*
X212850000Y-45100000D01*
X216373000Y-44500000D02*
X213450000Y-44500000D01*
X216500000Y-44627000D02*
X216373000Y-44500000D01*
%TO.N,/TXD0*%
X233346000Y-58204000D02*
X234222500Y-57327500D01*
X234222500Y-57327500D02*
X234222500Y-56220000D01*
X210190000Y-56790000D02*
X211604000Y-58204000D01*
X210190000Y-55600000D02*
X210190000Y-56790000D01*
X211604000Y-58204000D02*
X233346000Y-58204000D01*
%TO.N,/RXD0*%
X232952500Y-57397500D02*
X232952500Y-56220000D01*
X232600000Y-57750000D02*
X232952500Y-57397500D01*
X213450000Y-57750000D02*
X232600000Y-57750000D01*
X212730000Y-57030000D02*
X213450000Y-57750000D01*
X212730000Y-55600000D02*
X212730000Y-57030000D01*
%TO.N,/SS*%
X226602500Y-51302500D02*
X226602500Y-56220000D01*
X226600000Y-51300000D02*
X226602500Y-51302500D01*
X226600000Y-48950000D02*
X226600000Y-51300000D01*
%TO.N,/MOSI*%
X236762500Y-52712500D02*
X236762500Y-56220000D01*
X236000000Y-51950000D02*
X236762500Y-52712500D01*
X227281591Y-51950000D02*
X236000000Y-51950000D01*
X227273000Y-51958591D02*
X227281591Y-51950000D01*
%TO.N,/INT*%
X218735000Y-52935000D02*
X220022500Y-52935000D01*
X217450000Y-46486712D02*
X216750000Y-47186712D01*
X217450000Y-42300000D02*
X217450000Y-46486712D01*
X216750000Y-50950000D02*
X218735000Y-52935000D01*
X216350000Y-41200000D02*
X217450000Y-42300000D01*
X216750000Y-47186712D02*
X216750000Y-50950000D01*
%TO.N,/GPIO*%
X214906131Y-50072991D02*
X212879122Y-52100000D01*
X212879122Y-52100000D02*
X211500000Y-52100000D01*
%TO.N,/SELECT*%
X212700000Y-51300000D02*
X212000000Y-51300000D01*
X214700000Y-49300000D02*
X212700000Y-51300000D01*
%TO.N,/INT*%
X209500000Y-38900000D02*
X211100000Y-40500000D01*
X207750000Y-38900000D02*
X209500000Y-38900000D01*
%TO.N,/SCK*%
X227900000Y-52600000D02*
X227872500Y-52627500D01*
X227872500Y-52627500D02*
X227872500Y-56220000D01*
%TO.N,/RXD*%
X224062500Y-53212500D02*
X224062500Y-56220000D01*
X222050000Y-51200000D02*
X224062500Y-53212500D01*
X221750000Y-51200000D02*
X222050000Y-51200000D01*
%TO.N,/TXD*%
X225332500Y-53082500D02*
X225332500Y-56220000D01*
X224850000Y-52600000D02*
X225332500Y-53082500D01*
%TO.N,/MISO*%
X229100000Y-54550000D02*
X229100000Y-56177500D01*
X229100000Y-56177500D02*
X229142500Y-56220000D01*
%TO.N,/SELECT*%
X225300000Y-47400000D02*
X225300000Y-41550000D01*
X221750000Y-49250000D02*
X223450000Y-49250000D01*
X223450000Y-49250000D02*
X225300000Y-47400000D01*
%TO.N,/GPIO*%
X229200000Y-41800000D02*
X229200000Y-41450000D01*
X226950000Y-44050000D02*
X229200000Y-41800000D01*
X223600000Y-50100000D02*
X226950000Y-46750000D01*
X221700000Y-50100000D02*
X223600000Y-50100000D01*
X226950000Y-46750000D02*
X226950000Y-44050000D01*
%TO.N,/EN*%
X200237500Y-37900000D02*
X201075000Y-37900000D01*
X208300000Y-40350000D02*
X208650000Y-40000000D01*
X206725000Y-40350000D02*
X208300000Y-40350000D01*
D27*
%TO.N,/VCC3V3*%
X236762500Y-38926606D02*
X236762500Y-38220000D01*
X235589106Y-40100000D02*
X236762500Y-38926606D01*
X213050000Y-40100000D02*
X235589106Y-40100000D01*
X211750000Y-41400000D02*
X213050000Y-40100000D01*
X207200000Y-51787500D02*
X210262500Y-51787500D01*
X210262500Y-51787500D02*
X211750000Y-50300000D01*
D26*
%TO.N,/SELECT*%
X198587500Y-55912500D02*
X197700000Y-55912500D01*
X202550000Y-52605000D02*
X201055000Y-54100000D01*
X201055000Y-54100000D02*
X200400000Y-54100000D01*
X200400000Y-54100000D02*
X198587500Y-55912500D01*
X202550000Y-50970000D02*
X202550000Y-47000000D01*
X197700000Y-57537500D02*
X197687500Y-57550000D01*
X197700000Y-55912500D02*
X197700000Y-57537500D01*
%TO.N,Net-(R6-Pad1)*%
X200750000Y-57550000D02*
X199512500Y-57550000D01*
X201200000Y-57100000D02*
X200750000Y-57550000D01*
X201480000Y-57100000D02*
X201200000Y-57100000D01*
%TO.N,/IO0*%
X219620000Y-56220000D02*
X221522500Y-56220000D01*
X217810000Y-55600000D02*
X219000000Y-55600000D01*
X219000000Y-55600000D02*
X219620000Y-56220000D01*
X217262500Y-53612500D02*
X207200000Y-53612500D01*
X217810000Y-54160000D02*
X217262500Y-53612500D01*
X217810000Y-55600000D02*
X217810000Y-54160000D01*
X207200000Y-53612500D02*
X207200000Y-55287500D01*
D27*
%TO.N,/VCC3V3*%
X236762500Y-36275000D02*
X236537500Y-36050000D01*
X236762500Y-38220000D02*
X236762500Y-36275000D01*
X234850000Y-36050000D02*
X236537500Y-36050000D01*
%TO.N,/LD0*%
X217657500Y-38220000D02*
X217587500Y-38150000D01*
X221522500Y-38220000D02*
X217657500Y-38220000D01*
D26*
%TO.N,/VCC3V3*%
X203200000Y-45450000D02*
X201480000Y-47170000D01*
X201480000Y-47170000D02*
X201480000Y-48300000D01*
X203200000Y-40750000D02*
X203200000Y-45450000D01*
X202062500Y-39612500D02*
X203200000Y-40750000D01*
X202062500Y-37900000D02*
X202062500Y-39612500D01*
D27*
X201480000Y-51757500D02*
X201480000Y-48300000D01*
X201450000Y-51787500D02*
X201480000Y-51757500D01*
X201450000Y-51787500D02*
X207200000Y-51787500D01*
X197812500Y-51787500D02*
X201450000Y-51787500D01*
X196000000Y-53600000D02*
X197812500Y-51787500D01*
X194696000Y-53600000D02*
X196000000Y-53600000D01*
D26*
%TO.N,Net-(LD1-K)*%
X191562500Y-57600000D02*
X192950000Y-57600000D01*
%TO.N,/EN*%
X206725000Y-38275000D02*
X206725000Y-40350000D01*
X206350000Y-37900000D02*
X206725000Y-38275000D01*
X205512500Y-37900000D02*
X206350000Y-37900000D01*
X199200000Y-37900000D02*
X198775000Y-38325000D01*
X200237500Y-37900000D02*
X199200000Y-37900000D01*
X198775000Y-38325000D02*
X198775000Y-40350000D01*
%TO.N,/CTS{slash}SCK*%
X202200000Y-45550000D02*
X202200000Y-41750000D01*
X201150000Y-45977000D02*
X201773000Y-45977000D01*
X201773000Y-45977000D02*
X202200000Y-45550000D01*
%TO.N,Net-(R4-Pad2)*%
X207187500Y-57100000D02*
X207200000Y-57112500D01*
X204020000Y-57100000D02*
X207187500Y-57100000D01*
D27*
%TO.N,Net-(LD0-K)*%
X212775000Y-38150000D02*
X214612500Y-38150000D01*
%TD*%
%TA.AperFunction,Conductor*%
%TO.N,/GND*%
G36*
X206443487Y-52625185D02*
G01*
X206489242Y-52677989D01*
X206499186Y-52747147D01*
X206470161Y-52810703D01*
X206464129Y-52817181D01*
X206379661Y-52901648D01*
X206289093Y-53048481D01*
X206289091Y-53048486D01*
X206286463Y-53056417D01*
X206234826Y-53212247D01*
X206234826Y-53212248D01*
X206234825Y-53212248D01*
X206224500Y-53313315D01*
X206224500Y-53911669D01*
X206224501Y-53911687D01*
X206234825Y-54012752D01*
X206271109Y-54122249D01*
X206289092Y-54176516D01*
X206375252Y-54316204D01*
X206379661Y-54323351D01*
X206418629Y-54362319D01*
X206452114Y-54423642D01*
X206447130Y-54493334D01*
X206418629Y-54537681D01*
X206379661Y-54576648D01*
X206289093Y-54723481D01*
X206289091Y-54723486D01*
X206286822Y-54730334D01*
X206234826Y-54887247D01*
X206234826Y-54887248D01*
X206234825Y-54887248D01*
X206224500Y-54988315D01*
X206224500Y-55586669D01*
X206224501Y-55586687D01*
X206234825Y-55687752D01*
X206271109Y-55797249D01*
X206289092Y-55851516D01*
X206351154Y-55952135D01*
X206379661Y-55998351D01*
X206493629Y-56112319D01*
X206527114Y-56173642D01*
X206522130Y-56243334D01*
X206493629Y-56287681D01*
X206379661Y-56401648D01*
X206379660Y-56401650D01*
X206372291Y-56413596D01*
X206320346Y-56460320D01*
X206266753Y-56472500D01*
X205194499Y-56472500D01*
X205127460Y-56452815D01*
X205081705Y-56400011D01*
X205070499Y-56348500D01*
X205070499Y-55952129D01*
X205070498Y-55952123D01*
X205070497Y-55952116D01*
X205064091Y-55892517D01*
X205048799Y-55851518D01*
X205013797Y-55757671D01*
X205013793Y-55757664D01*
X204927547Y-55642455D01*
X204927544Y-55642452D01*
X204812335Y-55556206D01*
X204812328Y-55556202D01*
X204677482Y-55505908D01*
X204677483Y-55505908D01*
X204617883Y-55499501D01*
X204617881Y-55499500D01*
X204617873Y-55499500D01*
X204617864Y-55499500D01*
X203422129Y-55499500D01*
X203422123Y-55499501D01*
X203362516Y-55505908D01*
X203227671Y-55556202D01*
X203227664Y-55556206D01*
X203112455Y-55642452D01*
X203112452Y-55642455D01*
X203026206Y-55757664D01*
X203026202Y-55757671D01*
X202975908Y-55892517D01*
X202969501Y-55952116D01*
X202969501Y-55952123D01*
X202969500Y-55952135D01*
X202969500Y-58247870D01*
X202969501Y-58247876D01*
X202975908Y-58307483D01*
X203026202Y-58442328D01*
X203026206Y-58442335D01*
X203112452Y-58557544D01*
X203112455Y-58557547D01*
X203227664Y-58643793D01*
X203227671Y-58643797D01*
X203269285Y-58659318D01*
X203325219Y-58701189D01*
X203349636Y-58766653D01*
X203334785Y-58834926D01*
X203285380Y-58884332D01*
X203225952Y-58899500D01*
X202274048Y-58899500D01*
X202207009Y-58879815D01*
X202161254Y-58827011D01*
X202151310Y-58757853D01*
X202180335Y-58694297D01*
X202230715Y-58659318D01*
X202272328Y-58643797D01*
X202272327Y-58643797D01*
X202272331Y-58643796D01*
X202387546Y-58557546D01*
X202473796Y-58442331D01*
X202524091Y-58307483D01*
X202530500Y-58247873D01*
X202530499Y-55952128D01*
X202524091Y-55892517D01*
X202508799Y-55851518D01*
X202473797Y-55757671D01*
X202473793Y-55757664D01*
X202387547Y-55642455D01*
X202387544Y-55642452D01*
X202272335Y-55556206D01*
X202272328Y-55556202D01*
X202137482Y-55505908D01*
X202137483Y-55505908D01*
X202077883Y-55499501D01*
X202077881Y-55499500D01*
X202077873Y-55499500D01*
X202077864Y-55499500D01*
X200882129Y-55499500D01*
X200882123Y-55499501D01*
X200822516Y-55505908D01*
X200687671Y-55556202D01*
X200687664Y-55556206D01*
X200572455Y-55642452D01*
X200572452Y-55642455D01*
X200486206Y-55757664D01*
X200486202Y-55757671D01*
X200435908Y-55892517D01*
X200429501Y-55952116D01*
X200429501Y-55952123D01*
X200429500Y-55952135D01*
X200429500Y-56636536D01*
X200409815Y-56703575D01*
X200357011Y-56749330D01*
X200287853Y-56759274D01*
X200228593Y-56733805D01*
X200223355Y-56729663D01*
X200076518Y-56639093D01*
X200076513Y-56639091D01*
X200075069Y-56638612D01*
X199912753Y-56584826D01*
X199912751Y-56584825D01*
X199811678Y-56574500D01*
X199213330Y-56574500D01*
X199213312Y-56574501D01*
X199114104Y-56584636D01*
X199045411Y-56571866D01*
X198994527Y-56523985D01*
X198977607Y-56456195D01*
X199000023Y-56390019D01*
X199013822Y-56373597D01*
X200623600Y-54763819D01*
X200684923Y-54730334D01*
X200711281Y-54727500D01*
X201116804Y-54727500D01*
X201116805Y-54727499D01*
X201238035Y-54703386D01*
X201320906Y-54669059D01*
X201352233Y-54656083D01*
X201455008Y-54587411D01*
X201542411Y-54500008D01*
X202611567Y-53430850D01*
X202672888Y-53397367D01*
X202685345Y-53395315D01*
X202729255Y-53390368D01*
X202899522Y-53330789D01*
X203052262Y-53234816D01*
X203179816Y-53107262D01*
X203275789Y-52954522D01*
X203335368Y-52784255D01*
X203335871Y-52779797D01*
X203343102Y-52715617D01*
X203370168Y-52651203D01*
X203427763Y-52611648D01*
X203466322Y-52605500D01*
X206376448Y-52605500D01*
X206443487Y-52625185D01*
G37*
%TD.AperFunction*%
%TA.AperFunction,Conductor*%
G36*
X208959613Y-54259685D02*
G01*
X209005368Y-54312489D01*
X209015312Y-54381647D01*
X208991840Y-54438311D01*
X208921206Y-54532664D01*
X208921202Y-54532671D01*
X208870908Y-54667517D01*
X208864501Y-54727116D01*
X208864500Y-54727135D01*
X208864500Y-56472870D01*
X208864501Y-56472876D01*
X208870908Y-56532483D01*
X208921202Y-56667328D01*
X208921206Y-56667335D01*
X209007452Y-56782544D01*
X209007455Y-56782547D01*
X209122664Y-56868793D01*
X209122671Y-56868797D01*
X209151842Y-56879677D01*
X209257517Y-56919091D01*
X209317127Y-56925500D01*
X209484070Y-56925499D01*
X209551109Y-56945183D01*
X209596864Y-56997987D01*
X209598629Y-57002042D01*
X209613604Y-57038191D01*
X209613605Y-57038197D01*
X209613606Y-57038197D01*
X209633913Y-57087226D01*
X209633920Y-57087238D01*
X209667499Y-57137492D01*
X209667500Y-57137493D01*
X209702590Y-57190010D01*
X209702591Y-57190011D01*
X211116589Y-58604008D01*
X211171899Y-58659318D01*
X211200400Y-58687819D01*
X211233884Y-58749143D01*
X211228900Y-58818834D01*
X211187028Y-58874768D01*
X211121563Y-58899184D01*
X211112718Y-58899500D01*
X204814048Y-58899500D01*
X204747009Y-58879815D01*
X204701254Y-58827011D01*
X204691310Y-58757853D01*
X204720335Y-58694297D01*
X204770715Y-58659318D01*
X204812328Y-58643797D01*
X204812327Y-58643797D01*
X204812331Y-58643796D01*
X204927546Y-58557546D01*
X205013796Y-58442331D01*
X205064091Y-58307483D01*
X205070500Y-58247873D01*
X205070500Y-57851500D01*
X205090185Y-57784461D01*
X205142989Y-57738706D01*
X205194500Y-57727500D01*
X206251332Y-57727500D01*
X206318371Y-57747185D01*
X206356870Y-57786403D01*
X206379657Y-57823346D01*
X206379660Y-57823350D01*
X206501650Y-57945340D01*
X206648484Y-58035908D01*
X206812247Y-58090174D01*
X206913323Y-58100500D01*
X207486676Y-58100499D01*
X207486684Y-58100498D01*
X207486687Y-58100498D01*
X207542030Y-58094844D01*
X207587753Y-58090174D01*
X207751516Y-58035908D01*
X207898350Y-57945340D01*
X208020340Y-57823350D01*
X208110908Y-57676516D01*
X208165174Y-57512753D01*
X208175500Y-57411677D01*
X208175499Y-56813324D01*
X208171694Y-56776079D01*
X208165174Y-56712247D01*
X208163571Y-56707411D01*
X208110908Y-56548484D01*
X208020340Y-56401650D01*
X207906371Y-56287681D01*
X207872886Y-56226358D01*
X207877870Y-56156666D01*
X207906371Y-56112319D01*
X207909765Y-56108925D01*
X208020340Y-55998350D01*
X208110908Y-55851516D01*
X208165174Y-55687753D01*
X208175500Y-55586677D01*
X208175499Y-54988324D01*
X208168979Y-54924501D01*
X208165174Y-54887247D01*
X208159381Y-54869766D01*
X208110908Y-54723484D01*
X208020340Y-54576650D01*
X207981371Y-54537681D01*
X207947886Y-54476358D01*
X207952870Y-54406666D01*
X207981371Y-54362319D01*
X207994010Y-54349680D01*
X208020340Y-54323350D01*
X208035418Y-54298905D01*
X208087365Y-54252179D01*
X208140957Y-54240000D01*
X208892574Y-54240000D01*
X208959613Y-54259685D01*
G37*
%TD.AperFunction*%
%TA.AperFunction,Conductor*%
G36*
X238992539Y-35620185D02*
G01*
X239038294Y-35672989D01*
X239049500Y-35724500D01*
X239049500Y-38070150D01*
X239029815Y-38137189D01*
X238977011Y-38182944D01*
X238925500Y-38194150D01*
X238803350Y-38194150D01*
X238803350Y-56220000D01*
X238925500Y-56220000D01*
X238992539Y-56239685D01*
X239038294Y-56292489D01*
X239049500Y-56344000D01*
X239049500Y-58775500D01*
X239029815Y-58842539D01*
X238977011Y-58888294D01*
X238925500Y-58899500D01*
X233837282Y-58899500D01*
X233770243Y-58879815D01*
X233724488Y-58827011D01*
X233714544Y-58757853D01*
X233743569Y-58694297D01*
X233749600Y-58687819D01*
X233778101Y-58659318D01*
X233833411Y-58604008D01*
X234709911Y-57727508D01*
X234717207Y-57716589D01*
X234778583Y-57624733D01*
X234785987Y-57606855D01*
X234829824Y-57552452D01*
X234896117Y-57530384D01*
X234948000Y-57539743D01*
X234984999Y-57555069D01*
X235102208Y-57570500D01*
X235102215Y-57570500D01*
X235882785Y-57570500D01*
X235882792Y-57570500D01*
X236000001Y-57555069D01*
X236080049Y-57521911D01*
X236149516Y-57514443D01*
X236174946Y-57521910D01*
X236254999Y-57555069D01*
X236372208Y-57570500D01*
X236372215Y-57570500D01*
X237152785Y-57570500D01*
X237152792Y-57570500D01*
X237270001Y-57555069D01*
X237415837Y-57494662D01*
X237541068Y-57398568D01*
X237637162Y-57273337D01*
X237697569Y-57127501D01*
X237713000Y-57010292D01*
X237713000Y-55429708D01*
X237697569Y-55312499D01*
X237637162Y-55166663D01*
X237541068Y-55041432D01*
X237541066Y-55041430D01*
X237541065Y-55041429D01*
X237438513Y-54962737D01*
X237397311Y-54906309D01*
X237390000Y-54864362D01*
X237390000Y-52650697D01*
X237385929Y-52630233D01*
X237380910Y-52605000D01*
X237380365Y-52602262D01*
X237368919Y-52544714D01*
X237365886Y-52529466D01*
X237330677Y-52444465D01*
X237318583Y-52415267D01*
X237273271Y-52347453D01*
X237249914Y-52312496D01*
X237249913Y-52312494D01*
X237215403Y-52277984D01*
X237162508Y-52225089D01*
X236781919Y-51844500D01*
X236400011Y-51462591D01*
X236398817Y-51461793D01*
X236398817Y-51461792D01*
X236297239Y-51393920D01*
X236297226Y-51393913D01*
X236261837Y-51379255D01*
X236261836Y-51379255D01*
X236183035Y-51346614D01*
X236183027Y-51346612D01*
X236061807Y-51322500D01*
X236061803Y-51322500D01*
X227800999Y-51322500D01*
X227735027Y-51303494D01*
X227729466Y-51300000D01*
X227622522Y-51232802D01*
X227568172Y-51213784D01*
X227452254Y-51173222D01*
X227452250Y-51173221D01*
X227337616Y-51160305D01*
X227273202Y-51133238D01*
X227233647Y-51075643D01*
X227227500Y-51037085D01*
X227227500Y-49491671D01*
X227246507Y-49425698D01*
X227325788Y-49299524D01*
X227350448Y-49229051D01*
X227385368Y-49129255D01*
X227385369Y-49129249D01*
X227405565Y-48950003D01*
X227405565Y-48949996D01*
X227385369Y-48770750D01*
X227385368Y-48770745D01*
X227365923Y-48715174D01*
X227325789Y-48600478D01*
X227229816Y-48447738D01*
X227102262Y-48320184D01*
X227072552Y-48301516D01*
X226949523Y-48224211D01*
X226779252Y-48164631D01*
X226714751Y-48157363D01*
X226650338Y-48130296D01*
X226610783Y-48072701D01*
X226608646Y-48002864D01*
X226640953Y-47946464D01*
X227437411Y-47150008D01*
X227506083Y-47047233D01*
X227553385Y-46933035D01*
X227562924Y-46885081D01*
X227577500Y-46811806D01*
X227577500Y-44361281D01*
X227597185Y-44294242D01*
X227613819Y-44273600D01*
X229687409Y-42200010D01*
X229687411Y-42200008D01*
X229700903Y-42179816D01*
X229756083Y-42097233D01*
X229794053Y-42005565D01*
X229797022Y-41998396D01*
X229823900Y-41958178D01*
X229829813Y-41952265D01*
X229829813Y-41952264D01*
X229829816Y-41952262D01*
X229925789Y-41799522D01*
X229985368Y-41629255D01*
X229991960Y-41570750D01*
X230005565Y-41450003D01*
X230005565Y-41449996D01*
X229985369Y-41270750D01*
X229985368Y-41270745D01*
X229925787Y-41100472D01*
X229923537Y-41095800D01*
X229912186Y-41026858D01*
X229939910Y-40962724D01*
X229997906Y-40923760D01*
X230035258Y-40918000D01*
X235669673Y-40918000D01*
X235669674Y-40917999D01*
X235827708Y-40886565D01*
X235924155Y-40846615D01*
X235976574Y-40824903D01*
X236110551Y-40735382D01*
X237273734Y-39572196D01*
X237273744Y-39572189D01*
X237283943Y-39561988D01*
X237283945Y-39561988D01*
X237288172Y-39557760D01*
X237328400Y-39530878D01*
X237415837Y-39494662D01*
X237541068Y-39398568D01*
X237637162Y-39273337D01*
X237697569Y-39127501D01*
X237713000Y-39010292D01*
X237713000Y-37429708D01*
X237697569Y-37312499D01*
X237667163Y-37239092D01*
X237637163Y-37166664D01*
X237637161Y-37166662D01*
X237606124Y-37126213D01*
X237580930Y-37061044D01*
X237580500Y-37050727D01*
X237580500Y-36194433D01*
X237577882Y-36181273D01*
X237575499Y-36157079D01*
X237575499Y-35763330D01*
X237575499Y-35763324D01*
X237574880Y-35757267D01*
X237572821Y-35737099D01*
X237585592Y-35668407D01*
X237633473Y-35617523D01*
X237696179Y-35600500D01*
X238925500Y-35600500D01*
X238992539Y-35620185D01*
G37*
%TD.AperFunction*%
%TA.AperFunction,Conductor*%
G36*
X217018258Y-54259685D02*
G01*
X217038900Y-54276319D01*
X217078785Y-54316204D01*
X217112270Y-54377527D01*
X217107286Y-54447219D01*
X217065414Y-54503152D01*
X217062228Y-54505460D01*
X216954730Y-54580730D01*
X216790731Y-54744729D01*
X216790726Y-54744735D01*
X216657701Y-54934714D01*
X216657699Y-54934718D01*
X216559681Y-55144917D01*
X216499651Y-55368948D01*
X216499650Y-55368955D01*
X216479437Y-55599998D01*
X216479437Y-55600001D01*
X216499650Y-55831044D01*
X216499651Y-55831051D01*
X216559678Y-56055074D01*
X216559679Y-56055076D01*
X216559680Y-56055079D01*
X216657699Y-56265282D01*
X216790730Y-56455269D01*
X216954731Y-56619270D01*
X217144718Y-56752301D01*
X217354921Y-56850320D01*
X217460929Y-56878725D01*
X217520589Y-56915090D01*
X217551118Y-56977937D01*
X217542823Y-57047313D01*
X217498338Y-57101191D01*
X217431786Y-57122465D01*
X217428835Y-57122500D01*
X213761281Y-57122500D01*
X213694242Y-57102815D01*
X213673600Y-57086181D01*
X213467096Y-56879677D01*
X213433611Y-56818354D01*
X213438595Y-56748662D01*
X213480467Y-56692729D01*
X213483614Y-56690449D01*
X213585269Y-56619270D01*
X213749270Y-56455269D01*
X213882301Y-56265282D01*
X213980320Y-56055079D01*
X214040349Y-55831050D01*
X214060563Y-55600000D01*
X214059397Y-55586677D01*
X214052331Y-55505908D01*
X214040349Y-55368950D01*
X213980320Y-55144921D01*
X213882301Y-54934719D01*
X213882299Y-54934716D01*
X213882298Y-54934714D01*
X213749273Y-54744735D01*
X213749268Y-54744729D01*
X213585269Y-54580730D01*
X213541382Y-54550000D01*
X213420810Y-54465574D01*
X213377186Y-54410998D01*
X213369994Y-54341499D01*
X213401516Y-54279145D01*
X213461746Y-54243731D01*
X213491935Y-54240000D01*
X216951219Y-54240000D01*
X217018258Y-54259685D01*
G37*
%TD.AperFunction*%
%TA.AperFunction,Conductor*%
G36*
X201429758Y-52625185D02*
G01*
X201475513Y-52677989D01*
X201485457Y-52747147D01*
X201456432Y-52810703D01*
X201450400Y-52817181D01*
X200831400Y-53436181D01*
X200770077Y-53469666D01*
X200743719Y-53472500D01*
X200338195Y-53472500D01*
X200216970Y-53496613D01*
X200216960Y-53496616D01*
X200102773Y-53543913D01*
X200102760Y-53543920D01*
X200036289Y-53588335D01*
X200036288Y-53588337D01*
X200002390Y-53610987D01*
X199999986Y-53612593D01*
X198550911Y-55061668D01*
X198489588Y-55095153D01*
X198419896Y-55090169D01*
X198398134Y-55079526D01*
X198251522Y-54989095D01*
X198251517Y-54989093D01*
X198251516Y-54989092D01*
X198087753Y-54934826D01*
X198087751Y-54934825D01*
X197986678Y-54924500D01*
X197413330Y-54924500D01*
X197413312Y-54924501D01*
X197312247Y-54934825D01*
X197148484Y-54989092D01*
X197148481Y-54989093D01*
X197001648Y-55079661D01*
X196967181Y-55114129D01*
X196905858Y-55147614D01*
X196836166Y-55142630D01*
X196780233Y-55100758D01*
X196755816Y-55035294D01*
X196755500Y-55026448D01*
X196755500Y-54052689D01*
X196775185Y-53985650D01*
X196791819Y-53965008D01*
X198115008Y-52641819D01*
X198176331Y-52608334D01*
X198202689Y-52605500D01*
X201362719Y-52605500D01*
X201429758Y-52625185D01*
G37*
%TD.AperFunction*%
%TA.AperFunction,Conductor*%
G36*
X235755758Y-52597185D02*
G01*
X235776400Y-52613819D01*
X236098681Y-52936100D01*
X236132166Y-52997423D01*
X236135000Y-53023781D01*
X236135000Y-54761309D01*
X236115315Y-54828348D01*
X236062511Y-54874103D01*
X235994815Y-54884248D01*
X235882801Y-54869501D01*
X235882798Y-54869500D01*
X235882792Y-54869500D01*
X235102208Y-54869500D01*
X235102200Y-54869500D01*
X234984999Y-54884931D01*
X234904951Y-54918087D01*
X234835482Y-54925554D01*
X234810049Y-54918087D01*
X234765227Y-54899522D01*
X234730001Y-54884931D01*
X234715349Y-54883002D01*
X234612799Y-54869500D01*
X234612792Y-54869500D01*
X233832208Y-54869500D01*
X233832200Y-54869500D01*
X233714999Y-54884931D01*
X233634951Y-54918087D01*
X233565482Y-54925554D01*
X233540049Y-54918087D01*
X233495227Y-54899522D01*
X233460001Y-54884931D01*
X233445349Y-54883002D01*
X233342799Y-54869500D01*
X233342792Y-54869500D01*
X232562208Y-54869500D01*
X232562200Y-54869500D01*
X232444999Y-54884931D01*
X232364951Y-54918087D01*
X232295482Y-54925554D01*
X232270049Y-54918087D01*
X232225227Y-54899522D01*
X232190001Y-54884931D01*
X232175349Y-54883002D01*
X232072799Y-54869500D01*
X232072792Y-54869500D01*
X231292208Y-54869500D01*
X231292200Y-54869500D01*
X231174999Y-54884931D01*
X231094951Y-54918087D01*
X231025482Y-54925554D01*
X231000049Y-54918087D01*
X230955227Y-54899522D01*
X230920001Y-54884931D01*
X230905349Y-54883002D01*
X230802799Y-54869500D01*
X230802792Y-54869500D01*
X230022208Y-54869500D01*
X230022201Y-54869500D01*
X230018156Y-54869766D01*
X230018054Y-54868224D01*
X229955351Y-54858427D01*
X229903109Y-54812031D01*
X229884244Y-54744756D01*
X229885015Y-54732385D01*
X229885566Y-54727500D01*
X229905565Y-54550000D01*
X229903612Y-54532669D01*
X229885369Y-54370750D01*
X229885368Y-54370745D01*
X229825788Y-54200476D01*
X229786582Y-54138080D01*
X229729816Y-54047738D01*
X229602262Y-53920184D01*
X229588722Y-53911676D01*
X229449523Y-53824211D01*
X229279254Y-53764631D01*
X229279249Y-53764630D01*
X229100004Y-53744435D01*
X229099996Y-53744435D01*
X228920750Y-53764630D01*
X228920745Y-53764631D01*
X228750476Y-53824211D01*
X228689972Y-53862229D01*
X228622735Y-53881229D01*
X228555900Y-53860861D01*
X228510686Y-53807593D01*
X228500000Y-53757235D01*
X228500000Y-53183039D01*
X228519685Y-53116000D01*
X228527055Y-53105724D01*
X228529810Y-53102267D01*
X228529816Y-53102262D01*
X228625789Y-52949522D01*
X228685368Y-52779255D01*
X228685369Y-52779250D01*
X228695694Y-52687616D01*
X228722761Y-52623202D01*
X228780356Y-52583647D01*
X228818914Y-52577500D01*
X235688719Y-52577500D01*
X235755758Y-52597185D01*
G37*
%TD.AperFunction*%
%TA.AperFunction,Conductor*%
G36*
X233758360Y-35620185D02*
G01*
X233804115Y-35672989D01*
X233814679Y-35737104D01*
X233812000Y-35763318D01*
X233812000Y-36336669D01*
X233812001Y-36336687D01*
X233822325Y-36437752D01*
X233858609Y-36547249D01*
X233876592Y-36601516D01*
X233925578Y-36680935D01*
X233944018Y-36748327D01*
X233923096Y-36814990D01*
X233869454Y-36859760D01*
X233836226Y-36868970D01*
X233714999Y-36884931D01*
X233634951Y-36918087D01*
X233565482Y-36925554D01*
X233540049Y-36918087D01*
X233498121Y-36900720D01*
X233460001Y-36884931D01*
X233445349Y-36883002D01*
X233342799Y-36869500D01*
X233342792Y-36869500D01*
X232562208Y-36869500D01*
X232562200Y-36869500D01*
X232444999Y-36884931D01*
X232364951Y-36918087D01*
X232295482Y-36925554D01*
X232270049Y-36918087D01*
X232228121Y-36900720D01*
X232190001Y-36884931D01*
X232175349Y-36883002D01*
X232072799Y-36869500D01*
X232072792Y-36869500D01*
X231292208Y-36869500D01*
X231292200Y-36869500D01*
X231174999Y-36884931D01*
X231094951Y-36918087D01*
X231025482Y-36925554D01*
X231000049Y-36918087D01*
X230958121Y-36900720D01*
X230920001Y-36884931D01*
X230905349Y-36883002D01*
X230802799Y-36869500D01*
X230802792Y-36869500D01*
X230022208Y-36869500D01*
X230022200Y-36869500D01*
X229904999Y-36884931D01*
X229824951Y-36918087D01*
X229755482Y-36925554D01*
X229730049Y-36918087D01*
X229688121Y-36900720D01*
X229650001Y-36884931D01*
X229635349Y-36883002D01*
X229532799Y-36869500D01*
X229532792Y-36869500D01*
X228752208Y-36869500D01*
X228752200Y-36869500D01*
X228634999Y-36884931D01*
X228554951Y-36918087D01*
X228485482Y-36925554D01*
X228460049Y-36918087D01*
X228418121Y-36900720D01*
X228380001Y-36884931D01*
X228365349Y-36883002D01*
X228262799Y-36869500D01*
X228262792Y-36869500D01*
X227482208Y-36869500D01*
X227482200Y-36869500D01*
X227364999Y-36884931D01*
X227284951Y-36918087D01*
X227215482Y-36925554D01*
X227190049Y-36918087D01*
X227148121Y-36900720D01*
X227110001Y-36884931D01*
X227095349Y-36883002D01*
X226992799Y-36869500D01*
X226992792Y-36869500D01*
X226212208Y-36869500D01*
X226212200Y-36869500D01*
X226094999Y-36884931D01*
X226014951Y-36918087D01*
X225945482Y-36925554D01*
X225920049Y-36918087D01*
X225878121Y-36900720D01*
X225840001Y-36884931D01*
X225825349Y-36883002D01*
X225722799Y-36869500D01*
X225722792Y-36869500D01*
X224942208Y-36869500D01*
X224942200Y-36869500D01*
X224824999Y-36884931D01*
X224744951Y-36918087D01*
X224675482Y-36925554D01*
X224650049Y-36918087D01*
X224608121Y-36900720D01*
X224570001Y-36884931D01*
X224555349Y-36883002D01*
X224452799Y-36869500D01*
X224452792Y-36869500D01*
X223672208Y-36869500D01*
X223672200Y-36869500D01*
X223554999Y-36884931D01*
X223474951Y-36918087D01*
X223405482Y-36925554D01*
X223380049Y-36918087D01*
X223338121Y-36900720D01*
X223300001Y-36884931D01*
X223285349Y-36883002D01*
X223182799Y-36869500D01*
X223182792Y-36869500D01*
X222402208Y-36869500D01*
X222402200Y-36869500D01*
X222284999Y-36884931D01*
X222204951Y-36918087D01*
X222135482Y-36925554D01*
X222110049Y-36918087D01*
X222068121Y-36900720D01*
X222030001Y-36884931D01*
X222015349Y-36883002D01*
X221912799Y-36869500D01*
X221912792Y-36869500D01*
X221132208Y-36869500D01*
X221132200Y-36869500D01*
X221014999Y-36884931D01*
X221014995Y-36884932D01*
X220869165Y-36945336D01*
X220743932Y-37041432D01*
X220647836Y-37166665D01*
X220584321Y-37320007D01*
X220582494Y-37319250D01*
X220551711Y-37369754D01*
X220488864Y-37400283D01*
X220468301Y-37402000D01*
X218889413Y-37402000D01*
X218822374Y-37382315D01*
X218776619Y-37329511D01*
X218771707Y-37317003D01*
X218770214Y-37312498D01*
X218734814Y-37205666D01*
X218715590Y-37174500D01*
X218642713Y-37056348D01*
X218642710Y-37056344D01*
X218518655Y-36932289D01*
X218518651Y-36932286D01*
X218369337Y-36840187D01*
X218369335Y-36840186D01*
X218286065Y-36812593D01*
X218202797Y-36785001D01*
X218202795Y-36785000D01*
X218100015Y-36774500D01*
X218100008Y-36774500D01*
X217074992Y-36774500D01*
X217074984Y-36774500D01*
X216972204Y-36785000D01*
X216972203Y-36785001D01*
X216805664Y-36840186D01*
X216805662Y-36840187D01*
X216656348Y-36932286D01*
X216656344Y-36932289D01*
X216532289Y-37056344D01*
X216532286Y-37056348D01*
X216440187Y-37205662D01*
X216440186Y-37205664D01*
X216385001Y-37372203D01*
X216385000Y-37372204D01*
X216374500Y-37474984D01*
X216374500Y-38825015D01*
X216385000Y-38927795D01*
X216385001Y-38927797D01*
X216405189Y-38988721D01*
X216440186Y-39094335D01*
X216443238Y-39100879D01*
X216441683Y-39101603D01*
X216457744Y-39160293D01*
X216436823Y-39226957D01*
X216383182Y-39271728D01*
X216333765Y-39282000D01*
X215866235Y-39282000D01*
X215799196Y-39262315D01*
X215753441Y-39209511D01*
X215743497Y-39140353D01*
X215757655Y-39101295D01*
X215756762Y-39100879D01*
X215759813Y-39094335D01*
X215759814Y-39094334D01*
X215814999Y-38927797D01*
X215825500Y-38825008D01*
X215825500Y-37474992D01*
X215814999Y-37372203D01*
X215759814Y-37205666D01*
X215740590Y-37174500D01*
X215667713Y-37056348D01*
X215667710Y-37056344D01*
X215543655Y-36932289D01*
X215543651Y-36932286D01*
X215394337Y-36840187D01*
X215394335Y-36840186D01*
X215311065Y-36812593D01*
X215227797Y-36785001D01*
X215227795Y-36785000D01*
X215125015Y-36774500D01*
X215125008Y-36774500D01*
X214099992Y-36774500D01*
X214099984Y-36774500D01*
X213997204Y-36785000D01*
X213997203Y-36785001D01*
X213830664Y-36840186D01*
X213830662Y-36840187D01*
X213681348Y-36932286D01*
X213681344Y-36932289D01*
X213557288Y-37056345D01*
X213478127Y-37184684D01*
X213426179Y-37231408D01*
X213357216Y-37242629D01*
X213333585Y-37237292D01*
X213254064Y-37210941D01*
X213175253Y-37184826D01*
X213175251Y-37184825D01*
X213074178Y-37174500D01*
X212475830Y-37174500D01*
X212475812Y-37174501D01*
X212374747Y-37184825D01*
X212210984Y-37239092D01*
X212210981Y-37239093D01*
X212064148Y-37329661D01*
X211942161Y-37451648D01*
X211851593Y-37598481D01*
X211851592Y-37598484D01*
X211797326Y-37762247D01*
X211797326Y-37762248D01*
X211797325Y-37762248D01*
X211787000Y-37863315D01*
X211787000Y-38436669D01*
X211787001Y-38436687D01*
X211797325Y-38537752D01*
X211817406Y-38598350D01*
X211851028Y-38699815D01*
X211851592Y-38701515D01*
X211851593Y-38701518D01*
X211863202Y-38720339D01*
X211942160Y-38848350D01*
X212064150Y-38970340D01*
X212210984Y-39060908D01*
X212374747Y-39115174D01*
X212475823Y-39125500D01*
X212641724Y-39125499D01*
X212708762Y-39145183D01*
X212754517Y-39197987D01*
X212764461Y-39267145D01*
X212735436Y-39330701D01*
X212689177Y-39364059D01*
X212662538Y-39375093D01*
X212662534Y-39375095D01*
X212582219Y-39428761D01*
X212582218Y-39428762D01*
X212528554Y-39464618D01*
X212498512Y-39494661D01*
X212414618Y-39578555D01*
X212414616Y-39578557D01*
X211942261Y-40050911D01*
X211880938Y-40084396D01*
X211811246Y-40079412D01*
X211755313Y-40037540D01*
X211749586Y-40029202D01*
X211746870Y-40024880D01*
X211729816Y-39997738D01*
X211602262Y-39870184D01*
X211569336Y-39849495D01*
X211449521Y-39774210D01*
X211279249Y-39714630D01*
X211235361Y-39709685D01*
X211170947Y-39682617D01*
X211161565Y-39674146D01*
X209900013Y-38412593D01*
X209900011Y-38412591D01*
X209888888Y-38405159D01*
X209888888Y-38405158D01*
X209797239Y-38343920D01*
X209797226Y-38343913D01*
X209763785Y-38330062D01*
X209683035Y-38296614D01*
X209683027Y-38296612D01*
X209561807Y-38272500D01*
X209561803Y-38272500D01*
X208291672Y-38272500D01*
X208225700Y-38253494D01*
X208099523Y-38174211D01*
X207929254Y-38114631D01*
X207929249Y-38114630D01*
X207750004Y-38094435D01*
X207749996Y-38094435D01*
X207570750Y-38114630D01*
X207570742Y-38114632D01*
X207477918Y-38147113D01*
X207408140Y-38150674D01*
X207347512Y-38115945D01*
X207322403Y-38077523D01*
X207281086Y-37977773D01*
X207281079Y-37977760D01*
X207212412Y-37874993D01*
X207175008Y-37837589D01*
X207125008Y-37787589D01*
X206950731Y-37613312D01*
X206750011Y-37412591D01*
X206750010Y-37412590D01*
X206738820Y-37405114D01*
X206727782Y-37397738D01*
X206654064Y-37348481D01*
X206647238Y-37343920D01*
X206647229Y-37343915D01*
X206612813Y-37329660D01*
X206589509Y-37320007D01*
X206533035Y-37296614D01*
X206533032Y-37296613D01*
X206533028Y-37296612D01*
X206495835Y-37289214D01*
X206433924Y-37256829D01*
X206414490Y-37232698D01*
X206395340Y-37201650D01*
X206273350Y-37079660D01*
X206126516Y-36989092D01*
X205962753Y-36934826D01*
X205962751Y-36934825D01*
X205861678Y-36924500D01*
X205163330Y-36924500D01*
X205163312Y-36924501D01*
X205062247Y-36934825D01*
X204898484Y-36989092D01*
X204898481Y-36989093D01*
X204751648Y-37079661D01*
X204629661Y-37201648D01*
X204539093Y-37348481D01*
X204539092Y-37348484D01*
X204484826Y-37512247D01*
X204484826Y-37512248D01*
X204484825Y-37512248D01*
X204474500Y-37613315D01*
X204474500Y-38186669D01*
X204474501Y-38186687D01*
X204484825Y-38287752D01*
X204503437Y-38343917D01*
X204539092Y-38451516D01*
X204629660Y-38598350D01*
X204751650Y-38720340D01*
X204898484Y-38810908D01*
X205062247Y-38865174D01*
X205163323Y-38875500D01*
X205861676Y-38875499D01*
X205960899Y-38865363D01*
X206029591Y-38878133D01*
X206080475Y-38926013D01*
X206097500Y-38988721D01*
X206097500Y-39075500D01*
X206077815Y-39142539D01*
X206025011Y-39188294D01*
X205973502Y-39199500D01*
X205902130Y-39199500D01*
X205902123Y-39199501D01*
X205842516Y-39205908D01*
X205707671Y-39256202D01*
X205707664Y-39256206D01*
X205592455Y-39342452D01*
X205592452Y-39342455D01*
X205506206Y-39457664D01*
X205506202Y-39457671D01*
X205455908Y-39592517D01*
X205449501Y-39652116D01*
X205449501Y-39652123D01*
X205449500Y-39652135D01*
X205449500Y-41047870D01*
X205449501Y-41047876D01*
X205455908Y-41107483D01*
X205506202Y-41242328D01*
X205506206Y-41242335D01*
X205592452Y-41357544D01*
X205592455Y-41357547D01*
X205707664Y-41443793D01*
X205707671Y-41443797D01*
X205842517Y-41494091D01*
X205842516Y-41494091D01*
X205849444Y-41494835D01*
X205902127Y-41500500D01*
X207547872Y-41500499D01*
X207607483Y-41494091D01*
X207742331Y-41443796D01*
X207857546Y-41357546D01*
X207943796Y-41242331D01*
X207994091Y-41107483D01*
X207996160Y-41088243D01*
X208022899Y-41023692D01*
X208080292Y-40983845D01*
X208119449Y-40977500D01*
X208361804Y-40977500D01*
X208361805Y-40977499D01*
X208483035Y-40953386D01*
X208563784Y-40919937D01*
X208597233Y-40906083D01*
X208681884Y-40849521D01*
X208700004Y-40837414D01*
X208700004Y-40837413D01*
X208700008Y-40837411D01*
X208711564Y-40825855D01*
X208772886Y-40792368D01*
X208785352Y-40790314D01*
X208829255Y-40785368D01*
X208999522Y-40725789D01*
X209152262Y-40629816D01*
X209279816Y-40502262D01*
X209375789Y-40349522D01*
X209435368Y-40179255D01*
X209437200Y-40163002D01*
X209452762Y-40024880D01*
X209479828Y-39960466D01*
X209537423Y-39920911D01*
X209607260Y-39918773D01*
X209663663Y-39951082D01*
X210274146Y-40561565D01*
X210307631Y-40622888D01*
X210309685Y-40635361D01*
X210314630Y-40679249D01*
X210374210Y-40849521D01*
X210470184Y-41002262D01*
X210597738Y-41129816D01*
X210750478Y-41225789D01*
X210848954Y-41260247D01*
X210905730Y-41300969D01*
X210931478Y-41365921D01*
X210932000Y-41377289D01*
X210932000Y-46808000D01*
X210912315Y-46875039D01*
X210859511Y-46920794D01*
X210808000Y-46932000D01*
X210474719Y-46932000D01*
X210407680Y-46912315D01*
X210361925Y-46859511D01*
X210351498Y-46821881D01*
X210349750Y-46806368D01*
X210349750Y-46806363D01*
X210290171Y-46636096D01*
X210194198Y-46483356D01*
X210066644Y-46355802D01*
X210020045Y-46326522D01*
X209913905Y-46259829D01*
X209743636Y-46200249D01*
X209743631Y-46200248D01*
X209564386Y-46180053D01*
X209564378Y-46180053D01*
X209385132Y-46200248D01*
X209385127Y-46200249D01*
X209214858Y-46259829D01*
X209062119Y-46355802D01*
X208934566Y-46483355D01*
X208838592Y-46636096D01*
X208779012Y-46806368D01*
X208765341Y-46927708D01*
X208738275Y-46992122D01*
X208729803Y-47001505D01*
X208679663Y-47051645D01*
X208589093Y-47198481D01*
X208589092Y-47198484D01*
X208534826Y-47362247D01*
X208534826Y-47362248D01*
X208534825Y-47362248D01*
X208524500Y-47463315D01*
X208524500Y-48036669D01*
X208524501Y-48036687D01*
X208534825Y-48137752D01*
X208570459Y-48245285D01*
X208583628Y-48285028D01*
X208589092Y-48301515D01*
X208589093Y-48301518D01*
X208617751Y-48347979D01*
X208679660Y-48448350D01*
X208801650Y-48570340D01*
X208948484Y-48660908D01*
X209112247Y-48715174D01*
X209213323Y-48725500D01*
X209911676Y-48725499D01*
X209911684Y-48725498D01*
X209911687Y-48725498D01*
X209967030Y-48719844D01*
X210012753Y-48715174D01*
X210176516Y-48660908D01*
X210297214Y-48586460D01*
X210362310Y-48568000D01*
X210808000Y-48568000D01*
X210875039Y-48587685D01*
X210920794Y-48640489D01*
X210932000Y-48692000D01*
X210932000Y-49909811D01*
X210912315Y-49976850D01*
X210895681Y-49997492D01*
X209959992Y-50933181D01*
X209898669Y-50966666D01*
X209872311Y-50969500D01*
X207957576Y-50969500D01*
X207892479Y-50951039D01*
X207873254Y-50939181D01*
X207804886Y-50897011D01*
X207751518Y-50864093D01*
X207751513Y-50864091D01*
X207734212Y-50858358D01*
X207587753Y-50809826D01*
X207587751Y-50809825D01*
X207486678Y-50799500D01*
X206913330Y-50799500D01*
X206913312Y-50799501D01*
X206812247Y-50809825D01*
X206648484Y-50864092D01*
X206648481Y-50864093D01*
X206569939Y-50912539D01*
X206526746Y-50939181D01*
X206507521Y-50951039D01*
X206442424Y-50969500D01*
X203466322Y-50969500D01*
X203399283Y-50949815D01*
X203353528Y-50897011D01*
X203343102Y-50859383D01*
X203335369Y-50790750D01*
X203335368Y-50790748D01*
X203335368Y-50790745D01*
X203275789Y-50620478D01*
X203196505Y-50494299D01*
X203177500Y-50428328D01*
X203177500Y-47541671D01*
X203196507Y-47475698D01*
X203275788Y-47349524D01*
X203280921Y-47334855D01*
X203335368Y-47179255D01*
X203338663Y-47150011D01*
X203355565Y-47000003D01*
X203355565Y-46999996D01*
X203335369Y-46820750D01*
X203335368Y-46820745D01*
X203330336Y-46806365D01*
X203275789Y-46650478D01*
X203179816Y-46497738D01*
X203179815Y-46497737D01*
X203178351Y-46495407D01*
X203159351Y-46428171D01*
X203179719Y-46361335D01*
X203195664Y-46341754D01*
X203415319Y-46122100D01*
X203687411Y-45850008D01*
X203756083Y-45747233D01*
X203803385Y-45633035D01*
X203822889Y-45534984D01*
X203827500Y-45511805D01*
X203827500Y-40688199D01*
X203825720Y-40679250D01*
X203825720Y-40679249D01*
X203814509Y-40622888D01*
X203803386Y-40566965D01*
X203758412Y-40458392D01*
X203756764Y-40453786D01*
X203687414Y-40349996D01*
X203687413Y-40349994D01*
X203686941Y-40349522D01*
X203600008Y-40262589D01*
X202726319Y-39388900D01*
X202692834Y-39327577D01*
X202690000Y-39301219D01*
X202690000Y-38840956D01*
X202709685Y-38773917D01*
X202748903Y-38735418D01*
X202773350Y-38720340D01*
X202895340Y-38598350D01*
X202985908Y-38451516D01*
X203040174Y-38287753D01*
X203050500Y-38186677D01*
X203050499Y-37613324D01*
X203040174Y-37512247D01*
X202985908Y-37348484D01*
X202895340Y-37201650D01*
X202773350Y-37079660D01*
X202626516Y-36989092D01*
X202462753Y-36934826D01*
X202462751Y-36934825D01*
X202361678Y-36924500D01*
X201763330Y-36924500D01*
X201763312Y-36924501D01*
X201662247Y-36934825D01*
X201498484Y-36989092D01*
X201498481Y-36989093D01*
X201351644Y-37079663D01*
X201345982Y-37084141D01*
X201344984Y-37082879D01*
X201291244Y-37112215D01*
X201251017Y-37114266D01*
X201075004Y-37094435D01*
X201075002Y-37094435D01*
X201075000Y-37094435D01*
X201062170Y-37095880D01*
X201030704Y-37099425D01*
X200961883Y-37087368D01*
X200951727Y-37081743D01*
X200801518Y-36989093D01*
X200801513Y-36989091D01*
X200800069Y-36988612D01*
X200637753Y-36934826D01*
X200637751Y-36934825D01*
X200536678Y-36924500D01*
X199938330Y-36924500D01*
X199938312Y-36924501D01*
X199837247Y-36934825D01*
X199673484Y-36989092D01*
X199673481Y-36989093D01*
X199526648Y-37079661D01*
X199404661Y-37201648D01*
X199404660Y-37201650D01*
X199397291Y-37213596D01*
X199345346Y-37260320D01*
X199291753Y-37272500D01*
X199138192Y-37272500D01*
X199016973Y-37296612D01*
X199016961Y-37296615D01*
X198978615Y-37312498D01*
X198978616Y-37312499D01*
X198902770Y-37343915D01*
X198902760Y-37343920D01*
X198822218Y-37397738D01*
X198822217Y-37397739D01*
X198799989Y-37412590D01*
X198799988Y-37412591D01*
X198450334Y-37762247D01*
X198374992Y-37837589D01*
X198349266Y-37863315D01*
X198287586Y-37924994D01*
X198287585Y-37924996D01*
X198218923Y-38027756D01*
X198218917Y-38027767D01*
X198206884Y-38056818D01*
X198171614Y-38141964D01*
X198171612Y-38141972D01*
X198150219Y-38249520D01*
X198150220Y-38249521D01*
X198147500Y-38263196D01*
X198147500Y-39075500D01*
X198127815Y-39142539D01*
X198075011Y-39188294D01*
X198023502Y-39199500D01*
X197952130Y-39199500D01*
X197952123Y-39199501D01*
X197892516Y-39205908D01*
X197757671Y-39256202D01*
X197757664Y-39256206D01*
X197642455Y-39342452D01*
X197642452Y-39342455D01*
X197556206Y-39457664D01*
X197556202Y-39457671D01*
X197505908Y-39592517D01*
X197499501Y-39652116D01*
X197499501Y-39652123D01*
X197499500Y-39652135D01*
X197499500Y-41047870D01*
X197499501Y-41047876D01*
X197505908Y-41107483D01*
X197556202Y-41242328D01*
X197556206Y-41242335D01*
X197642452Y-41357544D01*
X197642455Y-41357547D01*
X197757664Y-41443793D01*
X197757671Y-41443797D01*
X197892517Y-41494091D01*
X197892516Y-41494091D01*
X197899444Y-41494835D01*
X197952127Y-41500500D01*
X199597872Y-41500499D01*
X199657483Y-41494091D01*
X199792331Y-41443796D01*
X199907546Y-41357546D01*
X199993796Y-41242331D01*
X200044091Y-41107483D01*
X200050500Y-41047873D01*
X200050499Y-39652128D01*
X200044091Y-39592517D01*
X200038884Y-39578557D01*
X199993797Y-39457671D01*
X199993793Y-39457664D01*
X199907547Y-39342455D01*
X199907544Y-39342452D01*
X199792335Y-39256206D01*
X199792328Y-39256202D01*
X199657482Y-39205908D01*
X199657483Y-39205908D01*
X199597883Y-39199501D01*
X199597881Y-39199500D01*
X199597873Y-39199500D01*
X199597865Y-39199500D01*
X199526500Y-39199500D01*
X199459461Y-39179815D01*
X199413706Y-39127011D01*
X199402500Y-39075500D01*
X199402500Y-38865938D01*
X199422185Y-38798899D01*
X199474989Y-38753144D01*
X199544147Y-38743200D01*
X199591594Y-38760398D01*
X199673484Y-38810908D01*
X199837247Y-38865174D01*
X199938323Y-38875500D01*
X200536676Y-38875499D01*
X200536684Y-38875498D01*
X200536687Y-38875498D01*
X200592030Y-38869844D01*
X200637753Y-38865174D01*
X200801516Y-38810908D01*
X200948350Y-38720340D01*
X200948351Y-38720338D01*
X200951728Y-38718256D01*
X201019120Y-38699815D01*
X201030694Y-38700572D01*
X201075000Y-38705565D01*
X201075003Y-38705565D01*
X201251017Y-38685733D01*
X201319839Y-38697787D01*
X201345639Y-38716292D01*
X201345983Y-38715859D01*
X201351648Y-38720338D01*
X201351650Y-38720340D01*
X201376095Y-38735418D01*
X201422820Y-38787363D01*
X201435000Y-38840956D01*
X201435000Y-39674307D01*
X201459112Y-39795528D01*
X201459113Y-39795532D01*
X201459114Y-39795535D01*
X201481468Y-39849500D01*
X201506413Y-39909725D01*
X201506423Y-39909743D01*
X201575085Y-40012503D01*
X201575091Y-40012511D01*
X202295422Y-40732841D01*
X202328907Y-40794164D01*
X202323923Y-40863855D01*
X202282051Y-40919789D01*
X202216587Y-40944206D01*
X202206964Y-40944013D01*
X202206964Y-40944435D01*
X202199996Y-40944435D01*
X202020750Y-40964630D01*
X202020745Y-40964631D01*
X201850476Y-41024211D01*
X201697737Y-41120184D01*
X201570184Y-41247737D01*
X201474211Y-41400476D01*
X201414631Y-41570745D01*
X201414630Y-41570750D01*
X201394435Y-41749996D01*
X201394435Y-41750003D01*
X201414630Y-41929249D01*
X201414631Y-41929254D01*
X201474211Y-42099524D01*
X201553493Y-42225698D01*
X201572500Y-42291671D01*
X201572500Y-45101985D01*
X201552815Y-45169024D01*
X201500011Y-45214779D01*
X201430853Y-45224723D01*
X201407545Y-45219026D01*
X201329262Y-45191633D01*
X201329249Y-45191630D01*
X201150004Y-45171435D01*
X201149996Y-45171435D01*
X200970750Y-45191630D01*
X200970745Y-45191631D01*
X200800476Y-45251211D01*
X200647737Y-45347184D01*
X200520184Y-45474737D01*
X200424211Y-45627476D01*
X200364631Y-45797745D01*
X200364630Y-45797750D01*
X200344435Y-45976996D01*
X200344435Y-45977003D01*
X200364630Y-46156249D01*
X200364631Y-46156254D01*
X200424211Y-46326523D01*
X200520184Y-46479262D01*
X200649077Y-46608155D01*
X200682562Y-46669478D01*
X200677578Y-46739170D01*
X200635707Y-46795102D01*
X200572455Y-46842452D01*
X200572452Y-46842455D01*
X200486206Y-46957664D01*
X200486202Y-46957671D01*
X200435908Y-47092517D01*
X200429501Y-47152116D01*
X200429500Y-47152135D01*
X200429500Y-49447870D01*
X200429501Y-49447876D01*
X200435908Y-49507483D01*
X200486202Y-49642328D01*
X200486206Y-49642335D01*
X200572451Y-49757543D01*
X200572452Y-49757544D01*
X200572454Y-49757546D01*
X200612312Y-49787384D01*
X200654182Y-49843316D01*
X200662000Y-49886649D01*
X200662000Y-50845500D01*
X200642315Y-50912539D01*
X200589511Y-50958294D01*
X200538000Y-50969500D01*
X197731929Y-50969500D01*
X197573905Y-51000933D01*
X197573897Y-51000935D01*
X197459461Y-51048337D01*
X197459460Y-51048337D01*
X197425035Y-51062595D01*
X197291052Y-51152119D01*
X196549459Y-51893712D01*
X196488136Y-51927197D01*
X196418444Y-51922213D01*
X196410266Y-51918825D01*
X196335465Y-51884664D01*
X196335460Y-51884662D01*
X196335459Y-51884662D01*
X196271734Y-51865950D01*
X196268417Y-51864976D01*
X196190496Y-51853773D01*
X196126000Y-51844500D01*
X195106252Y-51844500D01*
X195073751Y-51846629D01*
X195040296Y-51848821D01*
X195040285Y-51848822D01*
X195008201Y-51853045D01*
X195008195Y-51853046D01*
X194943319Y-51865950D01*
X194943317Y-51865950D01*
X194853334Y-51890061D01*
X194832049Y-51893814D01*
X194711017Y-51904404D01*
X194711016Y-51904401D01*
X194710986Y-51904407D01*
X194706781Y-51904774D01*
X194685221Y-51904775D01*
X194684468Y-51904709D01*
X194681009Y-51904406D01*
X194680983Y-51904401D01*
X194680983Y-51904404D01*
X194559952Y-51893814D01*
X194538667Y-51890061D01*
X194448678Y-51865949D01*
X194383805Y-51853046D01*
X194383803Y-51853045D01*
X194356575Y-51849462D01*
X194351712Y-51848822D01*
X194285748Y-51844500D01*
X192566252Y-51844500D01*
X192533751Y-51846629D01*
X192500296Y-51848821D01*
X192500285Y-51848822D01*
X192468201Y-51853045D01*
X192468195Y-51853046D01*
X192403319Y-51865950D01*
X192403317Y-51865950D01*
X192313334Y-51890061D01*
X192292049Y-51893814D01*
X192171017Y-51904404D01*
X192171016Y-51904401D01*
X192170986Y-51904407D01*
X192166781Y-51904774D01*
X192145221Y-51904775D01*
X192144468Y-51904709D01*
X192141009Y-51904406D01*
X192140983Y-51904401D01*
X192140983Y-51904404D01*
X192019952Y-51893814D01*
X191998667Y-51890061D01*
X191908678Y-51865949D01*
X191843805Y-51853046D01*
X191843803Y-51853045D01*
X191816575Y-51849462D01*
X191811712Y-51848822D01*
X191745748Y-51844500D01*
X190074000Y-51844500D01*
X189987753Y-51853772D01*
X189918995Y-51841367D01*
X189867858Y-51793756D01*
X189850500Y-51730483D01*
X189850500Y-40899997D01*
X190802851Y-40899997D01*
X190802851Y-40900002D01*
X190823407Y-41134966D01*
X190823408Y-41134973D01*
X190852174Y-41242328D01*
X190883047Y-41357547D01*
X190884457Y-41362807D01*
X190984138Y-41576574D01*
X190984139Y-41576575D01*
X191119428Y-41769787D01*
X191286213Y-41936572D01*
X191474520Y-42068426D01*
X191518144Y-42123002D01*
X191525336Y-42192501D01*
X191493814Y-42254855D01*
X191474518Y-42271575D01*
X191286211Y-42403428D01*
X191119428Y-42570211D01*
X190984141Y-42763421D01*
X190984139Y-42763425D01*
X190884457Y-42977192D01*
X190823408Y-43205026D01*
X190823407Y-43205033D01*
X190802851Y-43439997D01*
X190802851Y-43440002D01*
X190823407Y-43674966D01*
X190823408Y-43674973D01*
X190844527Y-43753789D01*
X190881495Y-43891755D01*
X190884457Y-43902807D01*
X190984138Y-44116574D01*
X190984139Y-44116575D01*
X191119428Y-44309787D01*
X191286213Y-44476572D01*
X191474520Y-44608426D01*
X191518144Y-44663002D01*
X191525336Y-44732501D01*
X191493814Y-44794855D01*
X191474518Y-44811575D01*
X191286211Y-44943428D01*
X191119428Y-45110211D01*
X190984141Y-45303421D01*
X190984139Y-45303425D01*
X190884457Y-45517192D01*
X190823408Y-45745026D01*
X190823407Y-45745033D01*
X190802851Y-45979997D01*
X190802851Y-45980002D01*
X190823407Y-46214966D01*
X190823408Y-46214973D01*
X190836307Y-46263112D01*
X190883361Y-46438719D01*
X190884457Y-46442807D01*
X190984138Y-46656574D01*
X190993174Y-46669478D01*
X191119428Y-46849787D01*
X191286213Y-47016572D01*
X191474520Y-47148426D01*
X191518144Y-47203002D01*
X191525336Y-47272501D01*
X191493814Y-47334855D01*
X191474518Y-47351575D01*
X191286211Y-47483428D01*
X191119428Y-47650211D01*
X190984141Y-47843421D01*
X190984139Y-47843425D01*
X190884457Y-48057192D01*
X190823408Y-48285026D01*
X190823407Y-48285033D01*
X190802851Y-48519997D01*
X190802851Y-48520002D01*
X190823407Y-48754966D01*
X190823408Y-48754973D01*
X190884457Y-48982807D01*
X190984138Y-49196574D01*
X190984139Y-49196575D01*
X191119428Y-49389787D01*
X191286213Y-49556572D01*
X191479425Y-49691861D01*
X191693196Y-49791544D01*
X191921028Y-49852592D01*
X192088865Y-49867275D01*
X192155998Y-49873149D01*
X192156000Y-49873149D01*
X192156002Y-49873149D01*
X192214743Y-49868009D01*
X192390972Y-49852592D01*
X192618804Y-49791544D01*
X192832575Y-49691861D01*
X193025787Y-49556572D01*
X193192572Y-49389787D01*
X193324426Y-49201479D01*
X193379002Y-49157856D01*
X193448501Y-49150664D01*
X193510855Y-49182186D01*
X193527570Y-49201476D01*
X193659428Y-49389787D01*
X193826213Y-49556572D01*
X194019425Y-49691861D01*
X194233196Y-49791544D01*
X194461028Y-49852592D01*
X194628865Y-49867275D01*
X194695998Y-49873149D01*
X194696000Y-49873149D01*
X194696002Y-49873149D01*
X194754743Y-49868009D01*
X194930972Y-49852592D01*
X195158804Y-49791544D01*
X195372575Y-49691861D01*
X195565787Y-49556572D01*
X195732572Y-49389787D01*
X195867861Y-49196575D01*
X195967544Y-48982804D01*
X196028592Y-48754972D01*
X196049149Y-48520000D01*
X196048679Y-48514632D01*
X196041440Y-48431885D01*
X196028592Y-48285028D01*
X195967544Y-48057196D01*
X195867861Y-47843426D01*
X195867859Y-47843423D01*
X195867858Y-47843421D01*
X195732571Y-47650211D01*
X195565791Y-47483432D01*
X195565787Y-47483428D01*
X195377479Y-47351573D01*
X195333856Y-47296998D01*
X195326664Y-47227499D01*
X195358186Y-47165145D01*
X195377476Y-47148429D01*
X195565787Y-47016572D01*
X195732572Y-46849787D01*
X195867861Y-46656575D01*
X195967544Y-46442804D01*
X196028592Y-46214972D01*
X196049149Y-45980000D01*
X196046524Y-45950000D01*
X196037776Y-45850007D01*
X196028592Y-45745028D01*
X195967544Y-45517196D01*
X195867861Y-45303426D01*
X195867859Y-45303423D01*
X195867858Y-45303421D01*
X195732571Y-45110211D01*
X195565791Y-44943432D01*
X195565787Y-44943428D01*
X195377479Y-44811573D01*
X195333856Y-44756998D01*
X195326664Y-44687499D01*
X195358186Y-44625145D01*
X195377476Y-44608429D01*
X195565787Y-44476572D01*
X195732572Y-44309787D01*
X195867861Y-44116575D01*
X195967544Y-43902804D01*
X196028592Y-43674972D01*
X196049149Y-43440000D01*
X196046524Y-43410000D01*
X196028592Y-43205033D01*
X196028592Y-43205028D01*
X195967544Y-42977196D01*
X195867861Y-42763426D01*
X195867859Y-42763423D01*
X195867858Y-42763421D01*
X195732571Y-42570211D01*
X195565791Y-42403432D01*
X195565787Y-42403428D01*
X195377479Y-42271573D01*
X195333856Y-42216998D01*
X195326664Y-42147499D01*
X195358186Y-42085145D01*
X195377476Y-42068429D01*
X195565787Y-41936572D01*
X195732572Y-41769787D01*
X195867861Y-41576575D01*
X195967544Y-41362804D01*
X196028592Y-41134972D01*
X196049149Y-40900000D01*
X196044478Y-40846614D01*
X196033908Y-40725789D01*
X196028592Y-40665028D01*
X195967544Y-40437196D01*
X195867861Y-40223426D01*
X195867859Y-40223423D01*
X195867858Y-40223421D01*
X195732571Y-40030211D01*
X195565791Y-39863432D01*
X195565787Y-39863428D01*
X195372575Y-39728139D01*
X195372576Y-39728139D01*
X195372574Y-39728138D01*
X195158807Y-39628457D01*
X195158804Y-39628456D01*
X195024679Y-39592517D01*
X194930973Y-39567408D01*
X194930966Y-39567407D01*
X194696002Y-39546851D01*
X194695998Y-39546851D01*
X194461033Y-39567407D01*
X194461026Y-39567408D01*
X194233192Y-39628457D01*
X194019425Y-39728139D01*
X194019421Y-39728141D01*
X193826211Y-39863428D01*
X193659428Y-40030211D01*
X193527575Y-40218518D01*
X193472998Y-40262143D01*
X193403500Y-40269336D01*
X193341145Y-40237814D01*
X193324425Y-40218518D01*
X193192571Y-40030211D01*
X193025791Y-39863432D01*
X193025787Y-39863428D01*
X192832575Y-39728139D01*
X192832576Y-39728139D01*
X192832574Y-39728138D01*
X192618807Y-39628457D01*
X192618804Y-39628456D01*
X192484679Y-39592517D01*
X192390973Y-39567408D01*
X192390966Y-39567407D01*
X192156002Y-39546851D01*
X192155998Y-39546851D01*
X191921033Y-39567407D01*
X191921026Y-39567408D01*
X191693192Y-39628457D01*
X191479425Y-39728139D01*
X191479421Y-39728141D01*
X191286211Y-39863428D01*
X191119428Y-40030211D01*
X190984141Y-40223421D01*
X190984139Y-40223425D01*
X190884457Y-40437192D01*
X190823408Y-40665026D01*
X190823407Y-40665033D01*
X190802851Y-40899997D01*
X189850500Y-40899997D01*
X189850500Y-35724500D01*
X189870185Y-35657461D01*
X189922989Y-35611706D01*
X189974500Y-35600500D01*
X233691321Y-35600500D01*
X233758360Y-35620185D01*
G37*
%TD.AperFunction*%
%TA.AperFunction,Conductor*%
G36*
X224594381Y-40937685D02*
G01*
X224640136Y-40990489D01*
X224650080Y-41059647D01*
X224632336Y-41107972D01*
X224574211Y-41200476D01*
X224514631Y-41370745D01*
X224514630Y-41370750D01*
X224494435Y-41549996D01*
X224494435Y-41550003D01*
X224514630Y-41729249D01*
X224514631Y-41729254D01*
X224574211Y-41899524D01*
X224653493Y-42025698D01*
X224672500Y-42091671D01*
X224672500Y-46903553D01*
X224652815Y-46970592D01*
X224600011Y-47016347D01*
X224530853Y-47026291D01*
X224467297Y-46997266D01*
X224443507Y-46969527D01*
X224436053Y-46957664D01*
X224429816Y-46947738D01*
X224302262Y-46820184D01*
X224200439Y-46756204D01*
X224149521Y-46724210D01*
X223979249Y-46664630D01*
X223935361Y-46659685D01*
X223870947Y-46632617D01*
X223861565Y-46624146D01*
X222166693Y-44929274D01*
X222133208Y-44867951D01*
X222136555Y-44813664D01*
X222133819Y-44813040D01*
X222135365Y-44806261D01*
X222135368Y-44806255D01*
X222135369Y-44806247D01*
X222155565Y-44627003D01*
X222155565Y-44626996D01*
X222135369Y-44447750D01*
X222135368Y-44447745D01*
X222134229Y-44444491D01*
X222075789Y-44277478D01*
X222073352Y-44273600D01*
X221979815Y-44124737D01*
X221852262Y-43997184D01*
X221699521Y-43901210D01*
X221529249Y-43841630D01*
X221483115Y-43836432D01*
X221418701Y-43809364D01*
X221379147Y-43751769D01*
X221373000Y-43713212D01*
X221373000Y-43654714D01*
X221372999Y-43654700D01*
X221360872Y-43562590D01*
X221357569Y-43537499D01*
X221324411Y-43457450D01*
X221316943Y-43387984D01*
X221324410Y-43362553D01*
X221357569Y-43282501D01*
X221373000Y-43165292D01*
X221373000Y-42384708D01*
X221357569Y-42267499D01*
X221297162Y-42121663D01*
X221201068Y-41996432D01*
X221075837Y-41900338D01*
X221075836Y-41900337D01*
X221075834Y-41900336D01*
X220930004Y-41839932D01*
X220930002Y-41839931D01*
X220930001Y-41839931D01*
X220915349Y-41838002D01*
X220812799Y-41824500D01*
X220812792Y-41824500D01*
X219232208Y-41824500D01*
X219232200Y-41824500D01*
X219114999Y-41839931D01*
X219114995Y-41839932D01*
X218969165Y-41900336D01*
X218843932Y-41996432D01*
X218747836Y-42121665D01*
X218687432Y-42267495D01*
X218687431Y-42267499D01*
X218672000Y-42384700D01*
X218672000Y-43165299D01*
X218687431Y-43282500D01*
X218720587Y-43362549D01*
X218728054Y-43432018D01*
X218720587Y-43457451D01*
X218687431Y-43537499D01*
X218672000Y-43654700D01*
X218672000Y-44435299D01*
X218672471Y-44438870D01*
X218661706Y-44507905D01*
X218615326Y-44560161D01*
X218548057Y-44579047D01*
X218483560Y-44560050D01*
X218426521Y-44524210D01*
X218256249Y-44464630D01*
X218187616Y-44456897D01*
X218123202Y-44429830D01*
X218083647Y-44372235D01*
X218077500Y-44333677D01*
X218077500Y-42238195D01*
X218076387Y-42232602D01*
X218076387Y-42232591D01*
X218076386Y-42232592D01*
X218059459Y-42147499D01*
X218053386Y-42116965D01*
X218008412Y-42008392D01*
X218006764Y-42003786D01*
X217937414Y-41899996D01*
X217937413Y-41899994D01*
X217936941Y-41899522D01*
X217850008Y-41812589D01*
X217175852Y-41138433D01*
X217142367Y-41077110D01*
X217140313Y-41064634D01*
X217139327Y-41055882D01*
X217151382Y-40987060D01*
X217198732Y-40935681D01*
X217262547Y-40918000D01*
X224527342Y-40918000D01*
X224594381Y-40937685D01*
G37*
%TD.AperFunction*%
%TA.AperFunction,Conductor*%
G36*
X228431781Y-40937685D02*
G01*
X228477536Y-40990489D01*
X228487480Y-41059647D01*
X228476463Y-41095800D01*
X228474212Y-41100472D01*
X228414631Y-41270745D01*
X228414630Y-41270750D01*
X228394435Y-41449996D01*
X228394435Y-41450004D01*
X228414901Y-41631653D01*
X228402846Y-41700475D01*
X228379362Y-41733217D01*
X226947296Y-43165285D01*
X226549992Y-43562589D01*
X226506289Y-43606292D01*
X226462586Y-43649994D01*
X226462585Y-43649996D01*
X226393233Y-43753789D01*
X226391586Y-43758393D01*
X226346615Y-43866962D01*
X226346612Y-43866972D01*
X226324827Y-43976495D01*
X226324827Y-43976500D01*
X226322500Y-43988197D01*
X226322500Y-43988200D01*
X226322500Y-46438719D01*
X226302815Y-46505758D01*
X226286181Y-46526400D01*
X226139181Y-46673400D01*
X226077858Y-46706885D01*
X226008166Y-46701901D01*
X225952233Y-46660029D01*
X225927816Y-46594565D01*
X225927500Y-46585719D01*
X225927500Y-42091671D01*
X225946507Y-42025698D01*
X225959165Y-42005554D01*
X226002512Y-41936567D01*
X226025788Y-41899524D01*
X226046640Y-41839932D01*
X226085368Y-41729255D01*
X226088382Y-41702507D01*
X226105565Y-41550003D01*
X226105565Y-41549996D01*
X226085369Y-41370750D01*
X226085368Y-41370745D01*
X226080749Y-41357544D01*
X226025789Y-41200478D01*
X225986804Y-41138433D01*
X225967664Y-41107972D01*
X225948664Y-41040735D01*
X225969032Y-40973900D01*
X226022300Y-40928686D01*
X226072658Y-40918000D01*
X228364742Y-40918000D01*
X228431781Y-40937685D01*
G37*
%TD.AperFunction*%
%TD*%
%TA.AperFunction,Conductor*%
%TO.N,/VCC3V3*%
G36*
X191777841Y-52354224D02*
G01*
X191921028Y-52392592D01*
X192085270Y-52406961D01*
X192155998Y-52413149D01*
X192156000Y-52413149D01*
X192156002Y-52413149D01*
X192226730Y-52406961D01*
X192390972Y-52392592D01*
X192534158Y-52354224D01*
X192566252Y-52350000D01*
X194285748Y-52350000D01*
X194317841Y-52354224D01*
X194461028Y-52392592D01*
X194625270Y-52406961D01*
X194695998Y-52413149D01*
X194696000Y-52413149D01*
X194696002Y-52413149D01*
X194766730Y-52406961D01*
X194930972Y-52392592D01*
X195074158Y-52354224D01*
X195106252Y-52350000D01*
X196126000Y-52350000D01*
X196193039Y-52369685D01*
X196238794Y-52422489D01*
X196250000Y-52474000D01*
X196250000Y-58775500D01*
X196230315Y-58842539D01*
X196177511Y-58888294D01*
X196126000Y-58899500D01*
X193324000Y-58899500D01*
X193256961Y-58879815D01*
X193211206Y-58827011D01*
X193200000Y-58775500D01*
X193200000Y-58448596D01*
X193219685Y-58381557D01*
X193272489Y-58335802D01*
X193283042Y-58331555D01*
X193299522Y-58325789D01*
X193452262Y-58229816D01*
X193579816Y-58102262D01*
X193675789Y-57949522D01*
X193735368Y-57779255D01*
X193755565Y-57600000D01*
X193735368Y-57420745D01*
X193675789Y-57250478D01*
X193579816Y-57097738D01*
X193452262Y-56970184D01*
X193299524Y-56874212D01*
X193299525Y-56874212D01*
X193296803Y-56873259D01*
X193283042Y-56868444D01*
X193226268Y-56827722D01*
X193200522Y-56762769D01*
X193200000Y-56751404D01*
X193200000Y-55650000D01*
X190074000Y-55650000D01*
X190006961Y-55630315D01*
X189961206Y-55577511D01*
X189950000Y-55526000D01*
X189950000Y-52474000D01*
X189969685Y-52406961D01*
X190022489Y-52361206D01*
X190074000Y-52350000D01*
X191745748Y-52350000D01*
X191777841Y-52354224D01*
G37*
%TD.AperFunction*%
%TD*%
M02*
