%TF.GenerationSoftware,KiCad,Pcbnew,8.0.5*%
%TF.CreationDate,2024-11-30T18:41:16+03:00*%
%TF.ProjectId,pmod_esp32_4_layer.kicad_sch,706d6f64-5f65-4737-9033-325f345f6c61,rev?*%
%TF.SameCoordinates,Original*%
%TF.FileFunction,Legend,Top*%
%TF.FilePolarity,Positive*%
%FSLAX46Y46*%
G04 Gerber Fmt 4.6, Leading zero omitted, Abs format (unit mm)*
G04 Created by KiCad (PCBNEW 8.0.5) date 2024-11-30 18:41:16*
%MOMM*%
%LPD*%
G01*
G04 APERTURE LIST*
%ADD10C,0.100000*%
%ADD11C,0.120000*%
%ADD12C,0.127000*%
%ADD13C,0.200000*%
%ADD14C,0.010000*%
G04 APERTURE END LIST*
D10*
X148266071Y-111676109D02*
X148099405Y-111438014D01*
X147980357Y-111676109D02*
X147980357Y-111176109D01*
X147980357Y-111176109D02*
X148170833Y-111176109D01*
X148170833Y-111176109D02*
X148218452Y-111199919D01*
X148218452Y-111199919D02*
X148242262Y-111223728D01*
X148242262Y-111223728D02*
X148266071Y-111271347D01*
X148266071Y-111271347D02*
X148266071Y-111342776D01*
X148266071Y-111342776D02*
X148242262Y-111390395D01*
X148242262Y-111390395D02*
X148218452Y-111414204D01*
X148218452Y-111414204D02*
X148170833Y-111438014D01*
X148170833Y-111438014D02*
X147980357Y-111438014D01*
X148742262Y-111676109D02*
X148456548Y-111676109D01*
X148599405Y-111676109D02*
X148599405Y-111176109D01*
X148599405Y-111176109D02*
X148551786Y-111247538D01*
X148551786Y-111247538D02*
X148504167Y-111295157D01*
X148504167Y-111295157D02*
X148456548Y-111318966D01*
X149051785Y-111176109D02*
X149099404Y-111176109D01*
X149099404Y-111176109D02*
X149147023Y-111199919D01*
X149147023Y-111199919D02*
X149170833Y-111223728D01*
X149170833Y-111223728D02*
X149194642Y-111271347D01*
X149194642Y-111271347D02*
X149218452Y-111366585D01*
X149218452Y-111366585D02*
X149218452Y-111485633D01*
X149218452Y-111485633D02*
X149194642Y-111580871D01*
X149194642Y-111580871D02*
X149170833Y-111628490D01*
X149170833Y-111628490D02*
X149147023Y-111652300D01*
X149147023Y-111652300D02*
X149099404Y-111676109D01*
X149099404Y-111676109D02*
X149051785Y-111676109D01*
X149051785Y-111676109D02*
X149004166Y-111652300D01*
X149004166Y-111652300D02*
X148980357Y-111628490D01*
X148980357Y-111628490D02*
X148956547Y-111580871D01*
X148956547Y-111580871D02*
X148932738Y-111485633D01*
X148932738Y-111485633D02*
X148932738Y-111366585D01*
X148932738Y-111366585D02*
X148956547Y-111271347D01*
X148956547Y-111271347D02*
X148980357Y-111223728D01*
X148980357Y-111223728D02*
X149004166Y-111199919D01*
X149004166Y-111199919D02*
X149051785Y-111176109D01*
X148266071Y-109926109D02*
X148099405Y-109688014D01*
X147980357Y-109926109D02*
X147980357Y-109426109D01*
X147980357Y-109426109D02*
X148170833Y-109426109D01*
X148170833Y-109426109D02*
X148218452Y-109449919D01*
X148218452Y-109449919D02*
X148242262Y-109473728D01*
X148242262Y-109473728D02*
X148266071Y-109521347D01*
X148266071Y-109521347D02*
X148266071Y-109592776D01*
X148266071Y-109592776D02*
X148242262Y-109640395D01*
X148242262Y-109640395D02*
X148218452Y-109664204D01*
X148218452Y-109664204D02*
X148170833Y-109688014D01*
X148170833Y-109688014D02*
X147980357Y-109688014D01*
X148742262Y-109926109D02*
X148456548Y-109926109D01*
X148599405Y-109926109D02*
X148599405Y-109426109D01*
X148599405Y-109426109D02*
X148551786Y-109497538D01*
X148551786Y-109497538D02*
X148504167Y-109545157D01*
X148504167Y-109545157D02*
X148456548Y-109568966D01*
X148908928Y-109426109D02*
X149218452Y-109426109D01*
X149218452Y-109426109D02*
X149051785Y-109616585D01*
X149051785Y-109616585D02*
X149123214Y-109616585D01*
X149123214Y-109616585D02*
X149170833Y-109640395D01*
X149170833Y-109640395D02*
X149194642Y-109664204D01*
X149194642Y-109664204D02*
X149218452Y-109711823D01*
X149218452Y-109711823D02*
X149218452Y-109830871D01*
X149218452Y-109830871D02*
X149194642Y-109878490D01*
X149194642Y-109878490D02*
X149170833Y-109902300D01*
X149170833Y-109902300D02*
X149123214Y-109926109D01*
X149123214Y-109926109D02*
X148980357Y-109926109D01*
X148980357Y-109926109D02*
X148932738Y-109902300D01*
X148932738Y-109902300D02*
X148908928Y-109878490D01*
X134878571Y-116226109D02*
X134711905Y-115988014D01*
X134592857Y-116226109D02*
X134592857Y-115726109D01*
X134592857Y-115726109D02*
X134783333Y-115726109D01*
X134783333Y-115726109D02*
X134830952Y-115749919D01*
X134830952Y-115749919D02*
X134854762Y-115773728D01*
X134854762Y-115773728D02*
X134878571Y-115821347D01*
X134878571Y-115821347D02*
X134878571Y-115892776D01*
X134878571Y-115892776D02*
X134854762Y-115940395D01*
X134854762Y-115940395D02*
X134830952Y-115964204D01*
X134830952Y-115964204D02*
X134783333Y-115988014D01*
X134783333Y-115988014D02*
X134592857Y-115988014D01*
X135354762Y-116226109D02*
X135069048Y-116226109D01*
X135211905Y-116226109D02*
X135211905Y-115726109D01*
X135211905Y-115726109D02*
X135164286Y-115797538D01*
X135164286Y-115797538D02*
X135116667Y-115845157D01*
X135116667Y-115845157D02*
X135069048Y-115868966D01*
X135830952Y-116226109D02*
X135545238Y-116226109D01*
X135688095Y-116226109D02*
X135688095Y-115726109D01*
X135688095Y-115726109D02*
X135640476Y-115797538D01*
X135640476Y-115797538D02*
X135592857Y-115845157D01*
X135592857Y-115845157D02*
X135545238Y-115868966D01*
X167854166Y-93678490D02*
X167830357Y-93702300D01*
X167830357Y-93702300D02*
X167758928Y-93726109D01*
X167758928Y-93726109D02*
X167711309Y-93726109D01*
X167711309Y-93726109D02*
X167639881Y-93702300D01*
X167639881Y-93702300D02*
X167592262Y-93654680D01*
X167592262Y-93654680D02*
X167568452Y-93607061D01*
X167568452Y-93607061D02*
X167544643Y-93511823D01*
X167544643Y-93511823D02*
X167544643Y-93440395D01*
X167544643Y-93440395D02*
X167568452Y-93345157D01*
X167568452Y-93345157D02*
X167592262Y-93297538D01*
X167592262Y-93297538D02*
X167639881Y-93249919D01*
X167639881Y-93249919D02*
X167711309Y-93226109D01*
X167711309Y-93226109D02*
X167758928Y-93226109D01*
X167758928Y-93226109D02*
X167830357Y-93249919D01*
X167830357Y-93249919D02*
X167854166Y-93273728D01*
X168020833Y-93226109D02*
X168330357Y-93226109D01*
X168330357Y-93226109D02*
X168163690Y-93416585D01*
X168163690Y-93416585D02*
X168235119Y-93416585D01*
X168235119Y-93416585D02*
X168282738Y-93440395D01*
X168282738Y-93440395D02*
X168306547Y-93464204D01*
X168306547Y-93464204D02*
X168330357Y-93511823D01*
X168330357Y-93511823D02*
X168330357Y-93630871D01*
X168330357Y-93630871D02*
X168306547Y-93678490D01*
X168306547Y-93678490D02*
X168282738Y-93702300D01*
X168282738Y-93702300D02*
X168235119Y-93726109D01*
X168235119Y-93726109D02*
X168092262Y-93726109D01*
X168092262Y-93726109D02*
X168044643Y-93702300D01*
X168044643Y-93702300D02*
X168020833Y-93678490D01*
X175706547Y-115726109D02*
X175706547Y-116130871D01*
X175706547Y-116130871D02*
X175730357Y-116178490D01*
X175730357Y-116178490D02*
X175754166Y-116202300D01*
X175754166Y-116202300D02*
X175801785Y-116226109D01*
X175801785Y-116226109D02*
X175897023Y-116226109D01*
X175897023Y-116226109D02*
X175944642Y-116202300D01*
X175944642Y-116202300D02*
X175968452Y-116178490D01*
X175968452Y-116178490D02*
X175992261Y-116130871D01*
X175992261Y-116130871D02*
X175992261Y-115726109D01*
X176492262Y-116226109D02*
X176206548Y-116226109D01*
X176349405Y-116226109D02*
X176349405Y-115726109D01*
X176349405Y-115726109D02*
X176301786Y-115797538D01*
X176301786Y-115797538D02*
X176254167Y-115845157D01*
X176254167Y-115845157D02*
X176206548Y-115868966D01*
X129778571Y-116226109D02*
X129611905Y-115988014D01*
X129492857Y-116226109D02*
X129492857Y-115726109D01*
X129492857Y-115726109D02*
X129683333Y-115726109D01*
X129683333Y-115726109D02*
X129730952Y-115749919D01*
X129730952Y-115749919D02*
X129754762Y-115773728D01*
X129754762Y-115773728D02*
X129778571Y-115821347D01*
X129778571Y-115821347D02*
X129778571Y-115892776D01*
X129778571Y-115892776D02*
X129754762Y-115940395D01*
X129754762Y-115940395D02*
X129730952Y-115964204D01*
X129730952Y-115964204D02*
X129683333Y-115988014D01*
X129683333Y-115988014D02*
X129492857Y-115988014D01*
X130254762Y-116226109D02*
X129969048Y-116226109D01*
X130111905Y-116226109D02*
X130111905Y-115726109D01*
X130111905Y-115726109D02*
X130064286Y-115797538D01*
X130064286Y-115797538D02*
X130016667Y-115845157D01*
X130016667Y-115845157D02*
X129969048Y-115868966D01*
X130445238Y-115773728D02*
X130469047Y-115749919D01*
X130469047Y-115749919D02*
X130516666Y-115726109D01*
X130516666Y-115726109D02*
X130635714Y-115726109D01*
X130635714Y-115726109D02*
X130683333Y-115749919D01*
X130683333Y-115749919D02*
X130707142Y-115773728D01*
X130707142Y-115773728D02*
X130730952Y-115821347D01*
X130730952Y-115821347D02*
X130730952Y-115868966D01*
X130730952Y-115868966D02*
X130707142Y-115940395D01*
X130707142Y-115940395D02*
X130421428Y-116226109D01*
X130421428Y-116226109D02*
X130730952Y-116226109D01*
X144228490Y-99283333D02*
X144252300Y-99307142D01*
X144252300Y-99307142D02*
X144276109Y-99378571D01*
X144276109Y-99378571D02*
X144276109Y-99426190D01*
X144276109Y-99426190D02*
X144252300Y-99497618D01*
X144252300Y-99497618D02*
X144204680Y-99545237D01*
X144204680Y-99545237D02*
X144157061Y-99569047D01*
X144157061Y-99569047D02*
X144061823Y-99592856D01*
X144061823Y-99592856D02*
X143990395Y-99592856D01*
X143990395Y-99592856D02*
X143895157Y-99569047D01*
X143895157Y-99569047D02*
X143847538Y-99545237D01*
X143847538Y-99545237D02*
X143799919Y-99497618D01*
X143799919Y-99497618D02*
X143776109Y-99426190D01*
X143776109Y-99426190D02*
X143776109Y-99378571D01*
X143776109Y-99378571D02*
X143799919Y-99307142D01*
X143799919Y-99307142D02*
X143823728Y-99283333D01*
X144276109Y-98807142D02*
X144276109Y-99092856D01*
X144276109Y-98949999D02*
X143776109Y-98949999D01*
X143776109Y-98949999D02*
X143847538Y-98997618D01*
X143847538Y-98997618D02*
X143895157Y-99045237D01*
X143895157Y-99045237D02*
X143918966Y-99092856D01*
X127570833Y-113776109D02*
X127570833Y-114133252D01*
X127570833Y-114133252D02*
X127547024Y-114204680D01*
X127547024Y-114204680D02*
X127499405Y-114252300D01*
X127499405Y-114252300D02*
X127427976Y-114276109D01*
X127427976Y-114276109D02*
X127380357Y-114276109D01*
X127785119Y-113823728D02*
X127808928Y-113799919D01*
X127808928Y-113799919D02*
X127856547Y-113776109D01*
X127856547Y-113776109D02*
X127975595Y-113776109D01*
X127975595Y-113776109D02*
X128023214Y-113799919D01*
X128023214Y-113799919D02*
X128047023Y-113823728D01*
X128047023Y-113823728D02*
X128070833Y-113871347D01*
X128070833Y-113871347D02*
X128070833Y-113918966D01*
X128070833Y-113918966D02*
X128047023Y-113990395D01*
X128047023Y-113990395D02*
X127761309Y-114276109D01*
X127761309Y-114276109D02*
X128070833Y-114276109D01*
X144276109Y-97683333D02*
X144038014Y-97849999D01*
X144276109Y-97969047D02*
X143776109Y-97969047D01*
X143776109Y-97969047D02*
X143776109Y-97778571D01*
X143776109Y-97778571D02*
X143799919Y-97730952D01*
X143799919Y-97730952D02*
X143823728Y-97707142D01*
X143823728Y-97707142D02*
X143871347Y-97683333D01*
X143871347Y-97683333D02*
X143942776Y-97683333D01*
X143942776Y-97683333D02*
X143990395Y-97707142D01*
X143990395Y-97707142D02*
X144014204Y-97730952D01*
X144014204Y-97730952D02*
X144038014Y-97778571D01*
X144038014Y-97778571D02*
X144038014Y-97969047D01*
X143776109Y-97230952D02*
X143776109Y-97469047D01*
X143776109Y-97469047D02*
X144014204Y-97492856D01*
X144014204Y-97492856D02*
X143990395Y-97469047D01*
X143990395Y-97469047D02*
X143966585Y-97421428D01*
X143966585Y-97421428D02*
X143966585Y-97302380D01*
X143966585Y-97302380D02*
X143990395Y-97254761D01*
X143990395Y-97254761D02*
X144014204Y-97230952D01*
X144014204Y-97230952D02*
X144061823Y-97207142D01*
X144061823Y-97207142D02*
X144180871Y-97207142D01*
X144180871Y-97207142D02*
X144228490Y-97230952D01*
X144228490Y-97230952D02*
X144252300Y-97254761D01*
X144252300Y-97254761D02*
X144276109Y-97302380D01*
X144276109Y-97302380D02*
X144276109Y-97421428D01*
X144276109Y-97421428D02*
X144252300Y-97469047D01*
X144252300Y-97469047D02*
X144228490Y-97492856D01*
X153316666Y-101826109D02*
X153078571Y-101826109D01*
X153078571Y-101826109D02*
X153078571Y-101326109D01*
X153483333Y-101826109D02*
X153483333Y-101326109D01*
X153483333Y-101326109D02*
X153602381Y-101326109D01*
X153602381Y-101326109D02*
X153673809Y-101349919D01*
X153673809Y-101349919D02*
X153721428Y-101397538D01*
X153721428Y-101397538D02*
X153745238Y-101445157D01*
X153745238Y-101445157D02*
X153769047Y-101540395D01*
X153769047Y-101540395D02*
X153769047Y-101611823D01*
X153769047Y-101611823D02*
X153745238Y-101707061D01*
X153745238Y-101707061D02*
X153721428Y-101754680D01*
X153721428Y-101754680D02*
X153673809Y-101802300D01*
X153673809Y-101802300D02*
X153602381Y-101826109D01*
X153602381Y-101826109D02*
X153483333Y-101826109D01*
X153959524Y-101373728D02*
X153983333Y-101349919D01*
X153983333Y-101349919D02*
X154030952Y-101326109D01*
X154030952Y-101326109D02*
X154150000Y-101326109D01*
X154150000Y-101326109D02*
X154197619Y-101349919D01*
X154197619Y-101349919D02*
X154221428Y-101373728D01*
X154221428Y-101373728D02*
X154245238Y-101421347D01*
X154245238Y-101421347D02*
X154245238Y-101468966D01*
X154245238Y-101468966D02*
X154221428Y-101540395D01*
X154221428Y-101540395D02*
X153935714Y-101826109D01*
X153935714Y-101826109D02*
X154245238Y-101826109D01*
X153378571Y-102626109D02*
X153211905Y-102388014D01*
X153092857Y-102626109D02*
X153092857Y-102126109D01*
X153092857Y-102126109D02*
X153283333Y-102126109D01*
X153283333Y-102126109D02*
X153330952Y-102149919D01*
X153330952Y-102149919D02*
X153354762Y-102173728D01*
X153354762Y-102173728D02*
X153378571Y-102221347D01*
X153378571Y-102221347D02*
X153378571Y-102292776D01*
X153378571Y-102292776D02*
X153354762Y-102340395D01*
X153354762Y-102340395D02*
X153330952Y-102364204D01*
X153330952Y-102364204D02*
X153283333Y-102388014D01*
X153283333Y-102388014D02*
X153092857Y-102388014D01*
X153854762Y-102626109D02*
X153569048Y-102626109D01*
X153711905Y-102626109D02*
X153711905Y-102126109D01*
X153711905Y-102126109D02*
X153664286Y-102197538D01*
X153664286Y-102197538D02*
X153616667Y-102245157D01*
X153616667Y-102245157D02*
X153569048Y-102268966D01*
X154307142Y-102126109D02*
X154069047Y-102126109D01*
X154069047Y-102126109D02*
X154045238Y-102364204D01*
X154045238Y-102364204D02*
X154069047Y-102340395D01*
X154069047Y-102340395D02*
X154116666Y-102316585D01*
X154116666Y-102316585D02*
X154235714Y-102316585D01*
X154235714Y-102316585D02*
X154283333Y-102340395D01*
X154283333Y-102340395D02*
X154307142Y-102364204D01*
X154307142Y-102364204D02*
X154330952Y-102411823D01*
X154330952Y-102411823D02*
X154330952Y-102530871D01*
X154330952Y-102530871D02*
X154307142Y-102578490D01*
X154307142Y-102578490D02*
X154283333Y-102602300D01*
X154283333Y-102602300D02*
X154235714Y-102626109D01*
X154235714Y-102626109D02*
X154116666Y-102626109D01*
X154116666Y-102626109D02*
X154069047Y-102602300D01*
X154069047Y-102602300D02*
X154045238Y-102578490D01*
X153478571Y-94176109D02*
X153311905Y-93938014D01*
X153192857Y-94176109D02*
X153192857Y-93676109D01*
X153192857Y-93676109D02*
X153383333Y-93676109D01*
X153383333Y-93676109D02*
X153430952Y-93699919D01*
X153430952Y-93699919D02*
X153454762Y-93723728D01*
X153454762Y-93723728D02*
X153478571Y-93771347D01*
X153478571Y-93771347D02*
X153478571Y-93842776D01*
X153478571Y-93842776D02*
X153454762Y-93890395D01*
X153454762Y-93890395D02*
X153430952Y-93914204D01*
X153430952Y-93914204D02*
X153383333Y-93938014D01*
X153383333Y-93938014D02*
X153192857Y-93938014D01*
X153954762Y-94176109D02*
X153669048Y-94176109D01*
X153811905Y-94176109D02*
X153811905Y-93676109D01*
X153811905Y-93676109D02*
X153764286Y-93747538D01*
X153764286Y-93747538D02*
X153716667Y-93795157D01*
X153716667Y-93795157D02*
X153669048Y-93818966D01*
X154383333Y-93842776D02*
X154383333Y-94176109D01*
X154264285Y-93652300D02*
X154145238Y-94009442D01*
X154145238Y-94009442D02*
X154454761Y-94009442D01*
X135766548Y-114802300D02*
X135837976Y-114826109D01*
X135837976Y-114826109D02*
X135957024Y-114826109D01*
X135957024Y-114826109D02*
X136004643Y-114802300D01*
X136004643Y-114802300D02*
X136028452Y-114778490D01*
X136028452Y-114778490D02*
X136052262Y-114730871D01*
X136052262Y-114730871D02*
X136052262Y-114683252D01*
X136052262Y-114683252D02*
X136028452Y-114635633D01*
X136028452Y-114635633D02*
X136004643Y-114611823D01*
X136004643Y-114611823D02*
X135957024Y-114588014D01*
X135957024Y-114588014D02*
X135861786Y-114564204D01*
X135861786Y-114564204D02*
X135814167Y-114540395D01*
X135814167Y-114540395D02*
X135790357Y-114516585D01*
X135790357Y-114516585D02*
X135766548Y-114468966D01*
X135766548Y-114468966D02*
X135766548Y-114421347D01*
X135766548Y-114421347D02*
X135790357Y-114373728D01*
X135790357Y-114373728D02*
X135814167Y-114349919D01*
X135814167Y-114349919D02*
X135861786Y-114326109D01*
X135861786Y-114326109D02*
X135980833Y-114326109D01*
X135980833Y-114326109D02*
X136052262Y-114349919D01*
X136242738Y-114373728D02*
X136266547Y-114349919D01*
X136266547Y-114349919D02*
X136314166Y-114326109D01*
X136314166Y-114326109D02*
X136433214Y-114326109D01*
X136433214Y-114326109D02*
X136480833Y-114349919D01*
X136480833Y-114349919D02*
X136504642Y-114373728D01*
X136504642Y-114373728D02*
X136528452Y-114421347D01*
X136528452Y-114421347D02*
X136528452Y-114468966D01*
X136528452Y-114468966D02*
X136504642Y-114540395D01*
X136504642Y-114540395D02*
X136218928Y-114826109D01*
X136218928Y-114826109D02*
X136528452Y-114826109D01*
X135719048Y-104002300D02*
X135790476Y-104026109D01*
X135790476Y-104026109D02*
X135909524Y-104026109D01*
X135909524Y-104026109D02*
X135957143Y-104002300D01*
X135957143Y-104002300D02*
X135980952Y-103978490D01*
X135980952Y-103978490D02*
X136004762Y-103930871D01*
X136004762Y-103930871D02*
X136004762Y-103883252D01*
X136004762Y-103883252D02*
X135980952Y-103835633D01*
X135980952Y-103835633D02*
X135957143Y-103811823D01*
X135957143Y-103811823D02*
X135909524Y-103788014D01*
X135909524Y-103788014D02*
X135814286Y-103764204D01*
X135814286Y-103764204D02*
X135766667Y-103740395D01*
X135766667Y-103740395D02*
X135742857Y-103716585D01*
X135742857Y-103716585D02*
X135719048Y-103668966D01*
X135719048Y-103668966D02*
X135719048Y-103621347D01*
X135719048Y-103621347D02*
X135742857Y-103573728D01*
X135742857Y-103573728D02*
X135766667Y-103549919D01*
X135766667Y-103549919D02*
X135814286Y-103526109D01*
X135814286Y-103526109D02*
X135933333Y-103526109D01*
X135933333Y-103526109D02*
X136004762Y-103549919D01*
X136480952Y-104026109D02*
X136195238Y-104026109D01*
X136338095Y-104026109D02*
X136338095Y-103526109D01*
X136338095Y-103526109D02*
X136290476Y-103597538D01*
X136290476Y-103597538D02*
X136242857Y-103645157D01*
X136242857Y-103645157D02*
X136195238Y-103668966D01*
X176054166Y-93678490D02*
X176030357Y-93702300D01*
X176030357Y-93702300D02*
X175958928Y-93726109D01*
X175958928Y-93726109D02*
X175911309Y-93726109D01*
X175911309Y-93726109D02*
X175839881Y-93702300D01*
X175839881Y-93702300D02*
X175792262Y-93654680D01*
X175792262Y-93654680D02*
X175768452Y-93607061D01*
X175768452Y-93607061D02*
X175744643Y-93511823D01*
X175744643Y-93511823D02*
X175744643Y-93440395D01*
X175744643Y-93440395D02*
X175768452Y-93345157D01*
X175768452Y-93345157D02*
X175792262Y-93297538D01*
X175792262Y-93297538D02*
X175839881Y-93249919D01*
X175839881Y-93249919D02*
X175911309Y-93226109D01*
X175911309Y-93226109D02*
X175958928Y-93226109D01*
X175958928Y-93226109D02*
X176030357Y-93249919D01*
X176030357Y-93249919D02*
X176054166Y-93273728D01*
X176244643Y-93273728D02*
X176268452Y-93249919D01*
X176268452Y-93249919D02*
X176316071Y-93226109D01*
X176316071Y-93226109D02*
X176435119Y-93226109D01*
X176435119Y-93226109D02*
X176482738Y-93249919D01*
X176482738Y-93249919D02*
X176506547Y-93273728D01*
X176506547Y-93273728D02*
X176530357Y-93321347D01*
X176530357Y-93321347D02*
X176530357Y-93368966D01*
X176530357Y-93368966D02*
X176506547Y-93440395D01*
X176506547Y-93440395D02*
X176220833Y-93726109D01*
X176220833Y-93726109D02*
X176530357Y-93726109D01*
X153466666Y-95076109D02*
X153228571Y-95076109D01*
X153228571Y-95076109D02*
X153228571Y-94576109D01*
X153633333Y-95076109D02*
X153633333Y-94576109D01*
X153633333Y-94576109D02*
X153752381Y-94576109D01*
X153752381Y-94576109D02*
X153823809Y-94599919D01*
X153823809Y-94599919D02*
X153871428Y-94647538D01*
X153871428Y-94647538D02*
X153895238Y-94695157D01*
X153895238Y-94695157D02*
X153919047Y-94790395D01*
X153919047Y-94790395D02*
X153919047Y-94861823D01*
X153919047Y-94861823D02*
X153895238Y-94957061D01*
X153895238Y-94957061D02*
X153871428Y-95004680D01*
X153871428Y-95004680D02*
X153823809Y-95052300D01*
X153823809Y-95052300D02*
X153752381Y-95076109D01*
X153752381Y-95076109D02*
X153633333Y-95076109D01*
X154395238Y-95076109D02*
X154109524Y-95076109D01*
X154252381Y-95076109D02*
X154252381Y-94576109D01*
X154252381Y-94576109D02*
X154204762Y-94647538D01*
X154204762Y-94647538D02*
X154157143Y-94695157D01*
X154157143Y-94695157D02*
X154109524Y-94718966D01*
X143520833Y-115226109D02*
X143520833Y-115583252D01*
X143520833Y-115583252D02*
X143497024Y-115654680D01*
X143497024Y-115654680D02*
X143449405Y-115702300D01*
X143449405Y-115702300D02*
X143377976Y-115726109D01*
X143377976Y-115726109D02*
X143330357Y-115726109D01*
X144020833Y-115726109D02*
X143735119Y-115726109D01*
X143877976Y-115726109D02*
X143877976Y-115226109D01*
X143877976Y-115226109D02*
X143830357Y-115297538D01*
X143830357Y-115297538D02*
X143782738Y-115345157D01*
X143782738Y-115345157D02*
X143735119Y-115368966D01*
D11*
%TO.C,R10*%
X146292224Y-110977500D02*
X145782776Y-110977500D01*
X146292224Y-112022500D02*
X145782776Y-112022500D01*
%TO.C,R13*%
X146292224Y-109227500D02*
X145782776Y-109227500D01*
X146292224Y-110272500D02*
X145782776Y-110272500D01*
%TO.C,R11*%
X133027500Y-114345276D02*
X133027500Y-114854724D01*
X134072500Y-114345276D02*
X134072500Y-114854724D01*
%TO.C,C3*%
X170091233Y-92990000D02*
X170383767Y-92990000D01*
X170091233Y-94010000D02*
X170383767Y-94010000D01*
D12*
%TO.C,U1*%
X156965000Y-95870000D02*
X156965000Y-98370000D01*
X156965000Y-111370000D02*
X156965000Y-113870000D01*
X156965000Y-113870000D02*
X157715000Y-113870000D01*
X157715000Y-95870000D02*
X156965000Y-95870000D01*
X175965000Y-95870000D02*
X182465000Y-95870000D01*
X182465000Y-95870000D02*
X182465000Y-113870000D01*
X182465000Y-113870000D02*
X175965000Y-113870000D01*
D13*
X175090400Y-94505000D02*
G75*
G02*
X174890400Y-94505000I-100000J0D01*
G01*
X174890400Y-94505000D02*
G75*
G02*
X175090400Y-94505000I100000J0D01*
G01*
D14*
X176715000Y-109870000D02*
X176232070Y-109870000D01*
X176232070Y-109378090D01*
X176715000Y-109378090D01*
X176715000Y-109870000D01*
G36*
X176715000Y-109870000D02*
G01*
X176232070Y-109870000D01*
X176232070Y-109378090D01*
X176715000Y-109378090D01*
X176715000Y-109870000D01*
G37*
X176715000Y-112370000D02*
X176240610Y-112370000D01*
X176240610Y-111888870D01*
X176715000Y-111888870D01*
X176715000Y-112370000D01*
G36*
X176715000Y-112370000D02*
G01*
X176240610Y-112370000D01*
X176240610Y-111888870D01*
X176715000Y-111888870D01*
X176715000Y-112370000D01*
G37*
X177215000Y-97370000D02*
X176740400Y-97370000D01*
X176740400Y-96849670D01*
X177215000Y-96849670D01*
X177215000Y-97370000D01*
G36*
X177215000Y-97370000D02*
G01*
X176740400Y-97370000D01*
X176740400Y-96849670D01*
X177215000Y-96849670D01*
X177215000Y-97370000D01*
G37*
X179215000Y-102370000D02*
X178733100Y-102370000D01*
X178733100Y-99361710D01*
X179215000Y-99361710D01*
X179215000Y-102370000D01*
G36*
X179215000Y-102370000D02*
G01*
X178733100Y-102370000D01*
X178733100Y-99361710D01*
X179215000Y-99361710D01*
X179215000Y-102370000D01*
G37*
X179215000Y-107370000D02*
X178765100Y-107370000D01*
X178765100Y-104367912D01*
X179215000Y-104367912D01*
X179215000Y-107370000D01*
G36*
X179215000Y-107370000D02*
G01*
X178765100Y-107370000D01*
X178765100Y-104367912D01*
X179215000Y-104367912D01*
X179215000Y-107370000D01*
G37*
X181215000Y-99870000D02*
X178762400Y-99870000D01*
X178762400Y-99348320D01*
X181215000Y-99348320D01*
X181215000Y-99870000D01*
G36*
X181215000Y-99870000D02*
G01*
X178762400Y-99870000D01*
X178762400Y-99348320D01*
X181215000Y-99348320D01*
X181215000Y-99870000D01*
G37*
X181215000Y-102370000D02*
X178755800Y-102370000D01*
X178755800Y-101859770D01*
X181215000Y-101859770D01*
X181215000Y-102370000D01*
G36*
X181215000Y-102370000D02*
G01*
X178755800Y-102370000D01*
X178755800Y-101859770D01*
X181215000Y-101859770D01*
X181215000Y-102370000D01*
G37*
X181215000Y-104870000D02*
X178763800Y-104870000D01*
X178763800Y-104367966D01*
X181215000Y-104367966D01*
X181215000Y-104870000D01*
G36*
X181215000Y-104870000D02*
G01*
X178763800Y-104870000D01*
X178763800Y-104367966D01*
X181215000Y-104367966D01*
X181215000Y-104870000D01*
G37*
X181215000Y-107370000D02*
X178767800Y-107370000D01*
X178767800Y-106878800D01*
X181215000Y-106878800D01*
X181215000Y-107370000D01*
G36*
X181215000Y-107370000D02*
G01*
X178767800Y-107370000D01*
X178767800Y-106878800D01*
X181215000Y-106878800D01*
X181215000Y-107370000D01*
G37*
X181715000Y-97370000D02*
X177243900Y-97370000D01*
X177243900Y-96847970D01*
X181715000Y-96847970D01*
X181715000Y-97370000D01*
G36*
X181715000Y-97370000D02*
G01*
X177243900Y-97370000D01*
X177243900Y-96847970D01*
X181715000Y-96847970D01*
X181715000Y-97370000D01*
G37*
X181715000Y-99870000D02*
X181231500Y-99870000D01*
X181231500Y-96860890D01*
X181715000Y-96860890D01*
X181715000Y-99870000D01*
G36*
X181715000Y-99870000D02*
G01*
X181231500Y-99870000D01*
X181231500Y-96860890D01*
X181715000Y-96860890D01*
X181715000Y-99870000D01*
G37*
X181715000Y-104870000D02*
X181263800Y-104870000D01*
X181263800Y-101859880D01*
X181715000Y-101859880D01*
X181715000Y-104870000D01*
G36*
X181715000Y-104870000D02*
G01*
X181263800Y-104870000D01*
X181263800Y-101859880D01*
X181715000Y-101859880D01*
X181715000Y-104870000D01*
G37*
X181715000Y-107370000D02*
X180268600Y-107370000D01*
X180268600Y-106877940D01*
X181715000Y-106877940D01*
X181715000Y-107370000D01*
G36*
X181715000Y-107370000D02*
G01*
X180268600Y-107370000D01*
X180268600Y-106877940D01*
X181715000Y-106877940D01*
X181715000Y-107370000D01*
G37*
X181715000Y-112370000D02*
X181228700Y-112370000D01*
X181228700Y-106881570D01*
X181715000Y-106881570D01*
X181715000Y-112370000D01*
G36*
X181715000Y-112370000D02*
G01*
X181228700Y-112370000D01*
X181228700Y-106881570D01*
X181715000Y-106881570D01*
X181715000Y-112370000D01*
G37*
X181715000Y-109870000D02*
X176746100Y-109870000D01*
X176746100Y-109383960D01*
X181715000Y-109383960D01*
X181715000Y-109870000D01*
G36*
X181715000Y-109870000D02*
G01*
X176746100Y-109870000D01*
X176746100Y-109383960D01*
X181715000Y-109383960D01*
X181715000Y-109870000D01*
G37*
X181715000Y-112370000D02*
X176744600Y-112370000D01*
X176744600Y-111890700D01*
X181715000Y-111890700D01*
X181715000Y-112370000D01*
G36*
X181715000Y-112370000D02*
G01*
X176744600Y-112370000D01*
X176744600Y-111890700D01*
X181715000Y-111890700D01*
X181715000Y-112370000D01*
G37*
D11*
%TO.C,R12*%
X131177500Y-114854724D02*
X131177500Y-114345276D01*
X132222500Y-114854724D02*
X132222500Y-114345276D01*
%TO.C,C1*%
X143540000Y-101596267D02*
X143540000Y-101303733D01*
X144560000Y-101596267D02*
X144560000Y-101303733D01*
D10*
%TO.C,J2*%
X125593500Y-97030000D02*
X128133500Y-97030000D01*
X125593500Y-112270000D02*
X125593500Y-97030000D01*
X128133500Y-97030000D02*
X128133500Y-112270000D01*
X128133500Y-112270000D02*
X125593500Y-112270000D01*
D11*
%TO.C,R5*%
X143527500Y-95554724D02*
X143527500Y-95045276D01*
X144572500Y-95554724D02*
X144572500Y-95045276D01*
%TO.C,LD2*%
X150350000Y-100885000D02*
X154410000Y-100885000D01*
X154410000Y-98615000D02*
X150350000Y-98615000D01*
X154410000Y-100885000D02*
X154410000Y-98615000D01*
%TO.C,R15*%
X151354724Y-101427500D02*
X150845276Y-101427500D01*
X151354724Y-102472500D02*
X150845276Y-102472500D01*
%TO.C,R14*%
X150845276Y-93827500D02*
X151354724Y-93827500D01*
X150845276Y-94872500D02*
X151354724Y-94872500D01*
D13*
%TO.C,S2*%
X135887500Y-107300000D02*
X135887500Y-113700000D01*
X135887500Y-113700000D02*
X136827500Y-113700000D01*
X136827500Y-107300000D02*
X135887500Y-107300000D01*
X138597500Y-113700000D02*
X139397500Y-113700000D01*
X139397500Y-107300000D02*
X138597500Y-107300000D01*
X141167500Y-107300000D02*
X142107500Y-107300000D01*
X142107500Y-107300000D02*
X142107500Y-113700000D01*
X142107500Y-113700000D02*
X141167500Y-113700000D01*
X137327500Y-113200000D02*
G75*
G02*
X137127500Y-113200000I-100000J0D01*
G01*
X137127500Y-113200000D02*
G75*
G02*
X137327500Y-113200000I100000J0D01*
G01*
%TO.C,S1*%
X135887500Y-101450000D02*
X135887500Y-95250000D01*
X137887500Y-101550000D02*
X140287500Y-101550000D01*
X140287500Y-95150000D02*
X137887500Y-95150000D01*
X142287500Y-95250000D02*
X142287500Y-101450000D01*
X141787500Y-95650000D02*
G75*
G02*
X141587500Y-95650000I-100000J0D01*
G01*
X141587500Y-95650000D02*
G75*
G02*
X141787500Y-95650000I100000J0D01*
G01*
D11*
%TO.C,C2*%
X174033767Y-92990000D02*
X173741233Y-92990000D01*
X174033767Y-94010000D02*
X173741233Y-94010000D01*
%TO.C,LD1*%
X149490000Y-95365000D02*
X149490000Y-97635000D01*
X149490000Y-97635000D02*
X153550000Y-97635000D01*
X153550000Y-95365000D02*
X149490000Y-95365000D01*
D12*
%TO.C,J1*%
X144577500Y-115555000D02*
X144577500Y-113145000D01*
X154737500Y-113145000D02*
X144577500Y-113145000D01*
X154737500Y-113145000D02*
X154737500Y-115555000D01*
X154737500Y-115555000D02*
X144577500Y-115555000D01*
D13*
X144007500Y-114350000D02*
G75*
G02*
X143807500Y-114350000I-100000J0D01*
G01*
X143807500Y-114350000D02*
G75*
G02*
X144007500Y-114350000I100000J0D01*
G01*
%TD*%
M02*
