%TF.GenerationSoftware,KiCad,Pcbnew,8.0.5*%
%TF.CreationDate,2024-11-30T18:41:16+03:00*%
%TF.ProjectId,pmod_esp32_4_layer.kicad_sch,706d6f64-5f65-4737-9033-325f345f6c61,rev?*%
%TF.SameCoordinates,Original*%
%TF.FileFunction,Soldermask,Top*%
%TF.FilePolarity,Negative*%
%FSLAX46Y46*%
G04 Gerber Fmt 4.6, Leading zero omitted, Abs format (unit mm)*
G04 Created by KiCad (PCBNEW 8.0.5) date 2024-11-30 18:41:16*
%MOMM*%
%LPD*%
G01*
G04 APERTURE LIST*
G04 Aperture macros list*
%AMRoundRect*
0 Rectangle with rounded corners*
0 $1 Rounding radius*
0 $2 $3 $4 $5 $6 $7 $8 $9 X,Y pos of 4 corners*
0 Add a 4 corners polygon primitive as box body*
4,1,4,$2,$3,$4,$5,$6,$7,$8,$9,$2,$3,0*
0 Add four circle primitives for the rounded corners*
1,1,$1+$1,$2,$3*
1,1,$1+$1,$4,$5*
1,1,$1+$1,$6,$7*
1,1,$1+$1,$8,$9*
0 Add four rect primitives between the rounded corners*
20,1,$1+$1,$2,$3,$4,$5,0*
20,1,$1+$1,$4,$5,$6,$7,0*
20,1,$1+$1,$6,$7,$8,$9,0*
20,1,$1+$1,$8,$9,$2,$3,0*%
G04 Aperture macros list end*
%ADD10RoundRect,0.237500X0.250000X0.237500X-0.250000X0.237500X-0.250000X-0.237500X0.250000X-0.237500X0*%
%ADD11RoundRect,0.237500X-0.237500X0.250000X-0.237500X-0.250000X0.237500X-0.250000X0.237500X0.250000X0*%
%ADD12RoundRect,0.237500X-0.300000X-0.237500X0.300000X-0.237500X0.300000X0.237500X-0.300000X0.237500X0*%
%ADD13RoundRect,0.121440X-0.430560X0.830560X-0.430560X-0.830560X0.430560X-0.830560X0.430560X0.830560X0*%
%ADD14RoundRect,0.102000X-2.000000X2.000000X-2.000000X-2.000000X2.000000X-2.000000X2.000000X2.000000X0*%
%ADD15RoundRect,0.121440X-0.830560X0.430560X-0.830560X-0.430560X0.830560X-0.430560X0.830560X0.430560X0*%
%ADD16RoundRect,0.237500X0.237500X-0.250000X0.237500X0.250000X-0.237500X0.250000X-0.237500X-0.250000X0*%
%ADD17RoundRect,0.237500X0.237500X-0.300000X0.237500X0.300000X-0.237500X0.300000X-0.237500X-0.300000X0*%
%ADD18C,1.695000*%
%ADD19RoundRect,0.250001X0.462499X0.624999X-0.462499X0.624999X-0.462499X-0.624999X0.462499X-0.624999X0*%
%ADD20RoundRect,0.237500X-0.250000X-0.237500X0.250000X-0.237500X0.250000X0.237500X-0.250000X0.237500X0*%
%ADD21RoundRect,0.102000X-0.550000X-1.100000X0.550000X-1.100000X0.550000X1.100000X-0.550000X1.100000X0*%
%ADD22RoundRect,0.102000X-0.650000X0.775000X-0.650000X-0.775000X0.650000X-0.775000X0.650000X0.775000X0*%
%ADD23RoundRect,0.237500X0.300000X0.237500X-0.300000X0.237500X-0.300000X-0.237500X0.300000X-0.237500X0*%
%ADD24RoundRect,0.250001X-0.462499X-0.624999X0.462499X-0.624999X0.462499X0.624999X-0.462499X0.624999X0*%
%ADD25RoundRect,0.102000X-0.825000X-0.825000X0.825000X-0.825000X0.825000X0.825000X-0.825000X0.825000X0*%
%ADD26C,1.854000*%
G04 APERTURE END LIST*
D10*
%TO.C,R10*%
X146950000Y-111500000D03*
X145125000Y-111500000D03*
%TD*%
%TO.C,R13*%
X146950000Y-109750000D03*
X145125000Y-109750000D03*
%TD*%
D11*
%TO.C,R11*%
X133550000Y-113687500D03*
X133550000Y-115512500D03*
%TD*%
D12*
%TO.C,C3*%
X169375000Y-93500000D03*
X171100000Y-93500000D03*
%TD*%
D13*
%TO.C,U1*%
X174970000Y-95870000D03*
D14*
X167560000Y-104170000D03*
D13*
X173700000Y-95870000D03*
X172430000Y-95870000D03*
X171160000Y-95870000D03*
X169890000Y-95870000D03*
X168620000Y-95870000D03*
X167350000Y-95870000D03*
X166080000Y-95870000D03*
X164810000Y-95870000D03*
X163540000Y-95870000D03*
X162270000Y-95870000D03*
X161000000Y-95870000D03*
X159730000Y-95870000D03*
X158460000Y-95870000D03*
D15*
X156960000Y-99155000D03*
X156960000Y-100425000D03*
X156960000Y-101695000D03*
X156960000Y-102965000D03*
X156960000Y-104235000D03*
X156960000Y-105505000D03*
X156960000Y-106775000D03*
X156960000Y-108045000D03*
X156960000Y-109315000D03*
X156960000Y-110585000D03*
D13*
X158460000Y-113870000D03*
X159730000Y-113870000D03*
X161000000Y-113870000D03*
X162270000Y-113870000D03*
X163540000Y-113870000D03*
X164810000Y-113870000D03*
X166080000Y-113870000D03*
X167350000Y-113870000D03*
X168620000Y-113870000D03*
X169890000Y-113870000D03*
X171160000Y-113870000D03*
X172430000Y-113870000D03*
X173700000Y-113870000D03*
X174970000Y-113870000D03*
%TD*%
D16*
%TO.C,R12*%
X131700000Y-115512500D03*
X131700000Y-113687500D03*
%TD*%
D17*
%TO.C,C1*%
X144050000Y-102312500D03*
X144050000Y-100587500D03*
%TD*%
D18*
%TO.C,J2*%
X132033500Y-98300000D03*
X132033500Y-100840000D03*
X132033500Y-103380000D03*
X132033500Y-105920000D03*
X132033500Y-108460000D03*
X132033500Y-111000000D03*
X129493500Y-98300000D03*
X129493500Y-100840000D03*
X129493500Y-103380000D03*
X129493500Y-105920000D03*
X129493500Y-108460000D03*
X129493500Y-111000000D03*
%TD*%
D16*
%TO.C,R5*%
X144050000Y-96212500D03*
X144050000Y-94387500D03*
%TD*%
D19*
%TO.C,LD2*%
X153437500Y-99750000D03*
X150462500Y-99750000D03*
%TD*%
D10*
%TO.C,R15*%
X152012500Y-101950000D03*
X150187500Y-101950000D03*
%TD*%
D20*
%TO.C,R14*%
X150187500Y-94350000D03*
X152012500Y-94350000D03*
%TD*%
D21*
%TO.C,S2*%
X137727500Y-114900000D03*
X140267500Y-114900000D03*
X137727500Y-106100000D03*
X140267500Y-106100000D03*
%TD*%
D22*
%TO.C,S1*%
X141337500Y-94375000D03*
X136837500Y-94375000D03*
X141337500Y-102325000D03*
X136837500Y-102325000D03*
%TD*%
D23*
%TO.C,C2*%
X174750000Y-93500000D03*
X173025000Y-93500000D03*
%TD*%
D24*
%TO.C,LD1*%
X150462500Y-96500000D03*
X153437500Y-96500000D03*
%TD*%
D25*
%TO.C,J1*%
X145847500Y-114350000D03*
D26*
X148387500Y-114350000D03*
X150927500Y-114350000D03*
X153467500Y-114350000D03*
%TD*%
M02*
