%TF.GenerationSoftware,KiCad,Pcbnew,8.0.5*%
%TF.CreationDate,2024-11-30T18:41:16+03:00*%
%TF.ProjectId,pmod_esp32_4_layer.kicad_sch,706d6f64-5f65-4737-9033-325f345f6c61,rev?*%
%TF.SameCoordinates,Original*%
%TF.FileFunction,Legend,Bot*%
%TF.FilePolarity,Positive*%
%FSLAX46Y46*%
G04 Gerber Fmt 4.6, Leading zero omitted, Abs format (unit mm)*
G04 Created by KiCad (PCBNEW 8.0.5) date 2024-11-30 18:41:16*
%MOMM*%
%LPD*%
G01*
G04 APERTURE LIST*
%ADD10C,0.100000*%
%ADD11C,0.120000*%
%ADD12C,0.127000*%
%ADD13C,0.200000*%
G04 APERTURE END LIST*
D10*
X139933333Y-108842777D02*
X140099999Y-108604682D01*
X140219047Y-108842777D02*
X140219047Y-108342777D01*
X140219047Y-108342777D02*
X140028571Y-108342777D01*
X140028571Y-108342777D02*
X139980952Y-108366587D01*
X139980952Y-108366587D02*
X139957142Y-108390396D01*
X139957142Y-108390396D02*
X139933333Y-108438015D01*
X139933333Y-108438015D02*
X139933333Y-108509444D01*
X139933333Y-108509444D02*
X139957142Y-108557063D01*
X139957142Y-108557063D02*
X139980952Y-108580872D01*
X139980952Y-108580872D02*
X140028571Y-108604682D01*
X140028571Y-108604682D02*
X140219047Y-108604682D01*
X139766666Y-108342777D02*
X139433333Y-108342777D01*
X139433333Y-108342777D02*
X139647618Y-108842777D01*
X139933333Y-98604683D02*
X140099999Y-98366588D01*
X140219047Y-98604683D02*
X140219047Y-98104683D01*
X140219047Y-98104683D02*
X140028571Y-98104683D01*
X140028571Y-98104683D02*
X139980952Y-98128493D01*
X139980952Y-98128493D02*
X139957142Y-98152302D01*
X139957142Y-98152302D02*
X139933333Y-98199921D01*
X139933333Y-98199921D02*
X139933333Y-98271350D01*
X139933333Y-98271350D02*
X139957142Y-98318969D01*
X139957142Y-98318969D02*
X139980952Y-98342778D01*
X139980952Y-98342778D02*
X140028571Y-98366588D01*
X140028571Y-98366588D02*
X140219047Y-98366588D01*
X139457142Y-98604683D02*
X139742856Y-98604683D01*
X139599999Y-98604683D02*
X139599999Y-98104683D01*
X139599999Y-98104683D02*
X139647618Y-98176112D01*
X139647618Y-98176112D02*
X139695237Y-98223731D01*
X139695237Y-98223731D02*
X139742856Y-98247540D01*
X139995833Y-107061822D02*
X140162499Y-106823727D01*
X140281547Y-107061822D02*
X140281547Y-106561822D01*
X140281547Y-106561822D02*
X140091071Y-106561822D01*
X140091071Y-106561822D02*
X140043452Y-106585632D01*
X140043452Y-106585632D02*
X140019642Y-106609441D01*
X140019642Y-106609441D02*
X139995833Y-106657060D01*
X139995833Y-106657060D02*
X139995833Y-106728489D01*
X139995833Y-106728489D02*
X140019642Y-106776108D01*
X140019642Y-106776108D02*
X140043452Y-106799917D01*
X140043452Y-106799917D02*
X140091071Y-106823727D01*
X140091071Y-106823727D02*
X140281547Y-106823727D01*
X139567261Y-106728489D02*
X139567261Y-107061822D01*
X139686309Y-106538013D02*
X139805356Y-106895155D01*
X139805356Y-106895155D02*
X139495833Y-106895155D01*
X139945833Y-103776109D02*
X140112499Y-103538014D01*
X140231547Y-103776109D02*
X140231547Y-103276109D01*
X140231547Y-103276109D02*
X140041071Y-103276109D01*
X140041071Y-103276109D02*
X139993452Y-103299919D01*
X139993452Y-103299919D02*
X139969642Y-103323728D01*
X139969642Y-103323728D02*
X139945833Y-103371347D01*
X139945833Y-103371347D02*
X139945833Y-103442776D01*
X139945833Y-103442776D02*
X139969642Y-103490395D01*
X139969642Y-103490395D02*
X139993452Y-103514204D01*
X139993452Y-103514204D02*
X140041071Y-103538014D01*
X140041071Y-103538014D02*
X140231547Y-103538014D01*
X139660118Y-103490395D02*
X139707737Y-103466585D01*
X139707737Y-103466585D02*
X139731547Y-103442776D01*
X139731547Y-103442776D02*
X139755356Y-103395157D01*
X139755356Y-103395157D02*
X139755356Y-103371347D01*
X139755356Y-103371347D02*
X139731547Y-103323728D01*
X139731547Y-103323728D02*
X139707737Y-103299919D01*
X139707737Y-103299919D02*
X139660118Y-103276109D01*
X139660118Y-103276109D02*
X139564880Y-103276109D01*
X139564880Y-103276109D02*
X139517261Y-103299919D01*
X139517261Y-103299919D02*
X139493452Y-103323728D01*
X139493452Y-103323728D02*
X139469642Y-103371347D01*
X139469642Y-103371347D02*
X139469642Y-103395157D01*
X139469642Y-103395157D02*
X139493452Y-103442776D01*
X139493452Y-103442776D02*
X139517261Y-103466585D01*
X139517261Y-103466585D02*
X139564880Y-103490395D01*
X139564880Y-103490395D02*
X139660118Y-103490395D01*
X139660118Y-103490395D02*
X139707737Y-103514204D01*
X139707737Y-103514204D02*
X139731547Y-103538014D01*
X139731547Y-103538014D02*
X139755356Y-103585633D01*
X139755356Y-103585633D02*
X139755356Y-103680871D01*
X139755356Y-103680871D02*
X139731547Y-103728490D01*
X139731547Y-103728490D02*
X139707737Y-103752300D01*
X139707737Y-103752300D02*
X139660118Y-103776109D01*
X139660118Y-103776109D02*
X139564880Y-103776109D01*
X139564880Y-103776109D02*
X139517261Y-103752300D01*
X139517261Y-103752300D02*
X139493452Y-103728490D01*
X139493452Y-103728490D02*
X139469642Y-103680871D01*
X139469642Y-103680871D02*
X139469642Y-103585633D01*
X139469642Y-103585633D02*
X139493452Y-103538014D01*
X139493452Y-103538014D02*
X139517261Y-103514204D01*
X139517261Y-103514204D02*
X139564880Y-103490395D01*
X139983333Y-100283254D02*
X140149999Y-100045159D01*
X140269047Y-100283254D02*
X140269047Y-99783254D01*
X140269047Y-99783254D02*
X140078571Y-99783254D01*
X140078571Y-99783254D02*
X140030952Y-99807064D01*
X140030952Y-99807064D02*
X140007142Y-99830873D01*
X140007142Y-99830873D02*
X139983333Y-99878492D01*
X139983333Y-99878492D02*
X139983333Y-99949921D01*
X139983333Y-99949921D02*
X140007142Y-99997540D01*
X140007142Y-99997540D02*
X140030952Y-100021349D01*
X140030952Y-100021349D02*
X140078571Y-100045159D01*
X140078571Y-100045159D02*
X140269047Y-100045159D01*
X139792856Y-99830873D02*
X139769047Y-99807064D01*
X139769047Y-99807064D02*
X139721428Y-99783254D01*
X139721428Y-99783254D02*
X139602380Y-99783254D01*
X139602380Y-99783254D02*
X139554761Y-99807064D01*
X139554761Y-99807064D02*
X139530952Y-99830873D01*
X139530952Y-99830873D02*
X139507142Y-99878492D01*
X139507142Y-99878492D02*
X139507142Y-99926111D01*
X139507142Y-99926111D02*
X139530952Y-99997540D01*
X139530952Y-99997540D02*
X139816666Y-100283254D01*
X139816666Y-100283254D02*
X139507142Y-100283254D01*
X142360952Y-101151109D02*
X142360952Y-101555871D01*
X142360952Y-101555871D02*
X142337142Y-101603490D01*
X142337142Y-101603490D02*
X142313333Y-101627300D01*
X142313333Y-101627300D02*
X142265714Y-101651109D01*
X142265714Y-101651109D02*
X142170476Y-101651109D01*
X142170476Y-101651109D02*
X142122857Y-101627300D01*
X142122857Y-101627300D02*
X142099047Y-101603490D01*
X142099047Y-101603490D02*
X142075238Y-101555871D01*
X142075238Y-101555871D02*
X142075238Y-101151109D01*
X141860951Y-101198728D02*
X141837142Y-101174919D01*
X141837142Y-101174919D02*
X141789523Y-101151109D01*
X141789523Y-101151109D02*
X141670475Y-101151109D01*
X141670475Y-101151109D02*
X141622856Y-101174919D01*
X141622856Y-101174919D02*
X141599047Y-101198728D01*
X141599047Y-101198728D02*
X141575237Y-101246347D01*
X141575237Y-101246347D02*
X141575237Y-101293966D01*
X141575237Y-101293966D02*
X141599047Y-101365395D01*
X141599047Y-101365395D02*
X141884761Y-101651109D01*
X141884761Y-101651109D02*
X141575237Y-101651109D01*
X139933333Y-102026109D02*
X140099999Y-101788014D01*
X140219047Y-102026109D02*
X140219047Y-101526109D01*
X140219047Y-101526109D02*
X140028571Y-101526109D01*
X140028571Y-101526109D02*
X139980952Y-101549919D01*
X139980952Y-101549919D02*
X139957142Y-101573728D01*
X139957142Y-101573728D02*
X139933333Y-101621347D01*
X139933333Y-101621347D02*
X139933333Y-101692776D01*
X139933333Y-101692776D02*
X139957142Y-101740395D01*
X139957142Y-101740395D02*
X139980952Y-101764204D01*
X139980952Y-101764204D02*
X140028571Y-101788014D01*
X140028571Y-101788014D02*
X140219047Y-101788014D01*
X139695237Y-102026109D02*
X139599999Y-102026109D01*
X139599999Y-102026109D02*
X139552380Y-102002300D01*
X139552380Y-102002300D02*
X139528571Y-101978490D01*
X139528571Y-101978490D02*
X139480952Y-101907061D01*
X139480952Y-101907061D02*
X139457142Y-101811823D01*
X139457142Y-101811823D02*
X139457142Y-101621347D01*
X139457142Y-101621347D02*
X139480952Y-101573728D01*
X139480952Y-101573728D02*
X139504761Y-101549919D01*
X139504761Y-101549919D02*
X139552380Y-101526109D01*
X139552380Y-101526109D02*
X139647618Y-101526109D01*
X139647618Y-101526109D02*
X139695237Y-101549919D01*
X139695237Y-101549919D02*
X139719047Y-101573728D01*
X139719047Y-101573728D02*
X139742856Y-101621347D01*
X139742856Y-101621347D02*
X139742856Y-101740395D01*
X139742856Y-101740395D02*
X139719047Y-101788014D01*
X139719047Y-101788014D02*
X139695237Y-101811823D01*
X139695237Y-101811823D02*
X139647618Y-101835633D01*
X139647618Y-101835633D02*
X139552380Y-101835633D01*
X139552380Y-101835633D02*
X139504761Y-101811823D01*
X139504761Y-101811823D02*
X139480952Y-101788014D01*
X139480952Y-101788014D02*
X139457142Y-101740395D01*
X139945833Y-110533251D02*
X140112499Y-110295156D01*
X140231547Y-110533251D02*
X140231547Y-110033251D01*
X140231547Y-110033251D02*
X140041071Y-110033251D01*
X140041071Y-110033251D02*
X139993452Y-110057061D01*
X139993452Y-110057061D02*
X139969642Y-110080870D01*
X139969642Y-110080870D02*
X139945833Y-110128489D01*
X139945833Y-110128489D02*
X139945833Y-110199918D01*
X139945833Y-110199918D02*
X139969642Y-110247537D01*
X139969642Y-110247537D02*
X139993452Y-110271346D01*
X139993452Y-110271346D02*
X140041071Y-110295156D01*
X140041071Y-110295156D02*
X140231547Y-110295156D01*
X139517261Y-110033251D02*
X139612499Y-110033251D01*
X139612499Y-110033251D02*
X139660118Y-110057061D01*
X139660118Y-110057061D02*
X139683928Y-110080870D01*
X139683928Y-110080870D02*
X139731547Y-110152299D01*
X139731547Y-110152299D02*
X139755356Y-110247537D01*
X139755356Y-110247537D02*
X139755356Y-110438013D01*
X139755356Y-110438013D02*
X139731547Y-110485632D01*
X139731547Y-110485632D02*
X139707737Y-110509442D01*
X139707737Y-110509442D02*
X139660118Y-110533251D01*
X139660118Y-110533251D02*
X139564880Y-110533251D01*
X139564880Y-110533251D02*
X139517261Y-110509442D01*
X139517261Y-110509442D02*
X139493452Y-110485632D01*
X139493452Y-110485632D02*
X139469642Y-110438013D01*
X139469642Y-110438013D02*
X139469642Y-110318965D01*
X139469642Y-110318965D02*
X139493452Y-110271346D01*
X139493452Y-110271346D02*
X139517261Y-110247537D01*
X139517261Y-110247537D02*
X139564880Y-110223727D01*
X139564880Y-110223727D02*
X139660118Y-110223727D01*
X139660118Y-110223727D02*
X139707737Y-110247537D01*
X139707737Y-110247537D02*
X139731547Y-110271346D01*
X139731547Y-110271346D02*
X139755356Y-110318965D01*
X149970833Y-97678490D02*
X149994642Y-97702300D01*
X149994642Y-97702300D02*
X150066071Y-97726109D01*
X150066071Y-97726109D02*
X150113690Y-97726109D01*
X150113690Y-97726109D02*
X150185118Y-97702300D01*
X150185118Y-97702300D02*
X150232737Y-97654680D01*
X150232737Y-97654680D02*
X150256547Y-97607061D01*
X150256547Y-97607061D02*
X150280356Y-97511823D01*
X150280356Y-97511823D02*
X150280356Y-97440395D01*
X150280356Y-97440395D02*
X150256547Y-97345157D01*
X150256547Y-97345157D02*
X150232737Y-97297538D01*
X150232737Y-97297538D02*
X150185118Y-97249919D01*
X150185118Y-97249919D02*
X150113690Y-97226109D01*
X150113690Y-97226109D02*
X150066071Y-97226109D01*
X150066071Y-97226109D02*
X149994642Y-97249919D01*
X149994642Y-97249919D02*
X149970833Y-97273728D01*
X149542261Y-97392776D02*
X149542261Y-97726109D01*
X149661309Y-97202300D02*
X149780356Y-97559442D01*
X149780356Y-97559442D02*
X149470833Y-97559442D01*
X139983333Y-105359443D02*
X140149999Y-105121348D01*
X140269047Y-105359443D02*
X140269047Y-104859443D01*
X140269047Y-104859443D02*
X140078571Y-104859443D01*
X140078571Y-104859443D02*
X140030952Y-104883253D01*
X140030952Y-104883253D02*
X140007142Y-104907062D01*
X140007142Y-104907062D02*
X139983333Y-104954681D01*
X139983333Y-104954681D02*
X139983333Y-105026110D01*
X139983333Y-105026110D02*
X140007142Y-105073729D01*
X140007142Y-105073729D02*
X140030952Y-105097538D01*
X140030952Y-105097538D02*
X140078571Y-105121348D01*
X140078571Y-105121348D02*
X140269047Y-105121348D01*
X139816666Y-104859443D02*
X139507142Y-104859443D01*
X139507142Y-104859443D02*
X139673809Y-105049919D01*
X139673809Y-105049919D02*
X139602380Y-105049919D01*
X139602380Y-105049919D02*
X139554761Y-105073729D01*
X139554761Y-105073729D02*
X139530952Y-105097538D01*
X139530952Y-105097538D02*
X139507142Y-105145157D01*
X139507142Y-105145157D02*
X139507142Y-105264205D01*
X139507142Y-105264205D02*
X139530952Y-105311824D01*
X139530952Y-105311824D02*
X139554761Y-105335634D01*
X139554761Y-105335634D02*
X139602380Y-105359443D01*
X139602380Y-105359443D02*
X139745237Y-105359443D01*
X139745237Y-105359443D02*
X139792856Y-105335634D01*
X139792856Y-105335634D02*
X139816666Y-105311824D01*
D11*
%TO.C,R7*%
X137904724Y-108077500D02*
X137395276Y-108077500D01*
X137904724Y-109122500D02*
X137395276Y-109122500D01*
%TO.C,R1*%
X137904724Y-97806074D02*
X137395276Y-97806074D01*
X137904724Y-98851074D02*
X137395276Y-98851074D01*
%TO.C,R4*%
X137904724Y-106327500D02*
X137395276Y-106327500D01*
X137904724Y-107372500D02*
X137395276Y-107372500D01*
%TO.C,R8*%
X137904724Y-102977500D02*
X137395276Y-102977500D01*
X137904724Y-104022500D02*
X137395276Y-104022500D01*
%TO.C,R2*%
X137904724Y-99534645D02*
X137395276Y-99534645D01*
X137904724Y-100579645D02*
X137395276Y-100579645D01*
D12*
%TO.C,U2*%
X144815000Y-101425000D02*
X148345000Y-101425000D01*
X148345000Y-106425000D02*
X144815000Y-106425000D01*
D13*
X142490000Y-106200000D02*
G75*
G02*
X142290000Y-106200000I-100000J0D01*
G01*
X142290000Y-106200000D02*
G75*
G02*
X142490000Y-106200000I100000J0D01*
G01*
D11*
%TO.C,R9*%
X137904724Y-101277500D02*
X137395276Y-101277500D01*
X137904724Y-102322500D02*
X137395276Y-102322500D01*
%TO.C,R6*%
X137904724Y-109777500D02*
X137395276Y-109777500D01*
X137904724Y-110822500D02*
X137395276Y-110822500D01*
%TO.C,C4*%
X147491233Y-96990000D02*
X147783767Y-96990000D01*
X147491233Y-98010000D02*
X147783767Y-98010000D01*
%TO.C,R3*%
X137904724Y-104627500D02*
X137395276Y-104627500D01*
X137904724Y-105672500D02*
X137395276Y-105672500D01*
%TD*%
M02*
