%TF.GenerationSoftware,KiCad,Pcbnew,8.0.5*%
%TF.CreationDate,2024-11-30T18:41:16+03:00*%
%TF.ProjectId,pmod_esp32_4_layer.kicad_sch,706d6f64-5f65-4737-9033-325f345f6c61,rev?*%
%TF.SameCoordinates,Original*%
%TF.FileFunction,Copper,L4,Bot*%
%TF.FilePolarity,Positive*%
%FSLAX46Y46*%
G04 Gerber Fmt 4.6, Leading zero omitted, Abs format (unit mm)*
G04 Created by KiCad (PCBNEW 8.0.5) date 2024-11-30 18:41:16*
%MOMM*%
%LPD*%
G01*
G04 APERTURE LIST*
G04 Aperture macros list*
%AMRoundRect*
0 Rectangle with rounded corners*
0 $1 Rounding radius*
0 $2 $3 $4 $5 $6 $7 $8 $9 X,Y pos of 4 corners*
0 Add a 4 corners polygon primitive as box body*
4,1,4,$2,$3,$4,$5,$6,$7,$8,$9,$2,$3,0*
0 Add four circle primitives for the rounded corners*
1,1,$1+$1,$2,$3*
1,1,$1+$1,$4,$5*
1,1,$1+$1,$6,$7*
1,1,$1+$1,$8,$9*
0 Add four rect primitives between the rounded corners*
20,1,$1+$1,$2,$3,$4,$5,0*
20,1,$1+$1,$4,$5,$6,$7,0*
20,1,$1+$1,$6,$7,$8,$9,0*
20,1,$1+$1,$8,$9,$2,$3,0*%
G04 Aperture macros list end*
%TA.AperFunction,ComponentPad*%
%ADD10C,1.695000*%
%TD*%
%TA.AperFunction,ComponentPad*%
%ADD11R,1.650000X1.650000*%
%TD*%
%TA.AperFunction,ComponentPad*%
%ADD12C,1.650000*%
%TD*%
%TA.AperFunction,SMDPad,CuDef*%
%ADD13RoundRect,0.237500X-0.250000X-0.237500X0.250000X-0.237500X0.250000X0.237500X-0.250000X0.237500X0*%
%TD*%
%TA.AperFunction,SMDPad,CuDef*%
%ADD14RoundRect,0.051250X-0.733750X-0.153750X0.733750X-0.153750X0.733750X0.153750X-0.733750X0.153750X0*%
%TD*%
%TA.AperFunction,SMDPad,CuDef*%
%ADD15RoundRect,0.237500X0.300000X0.237500X-0.300000X0.237500X-0.300000X-0.237500X0.300000X-0.237500X0*%
%TD*%
%TA.AperFunction,ViaPad*%
%ADD16C,0.600000*%
%TD*%
%TA.AperFunction,Conductor*%
%ADD17C,0.254000*%
%TD*%
G04 APERTURE END LIST*
D10*
%TO.P,J2,1,1*%
%TO.N,Net-(J2-Pad1)*%
X132033500Y-98300000D03*
%TO.P,J2,2,2*%
%TO.N,Net-(J2-Pad2)*%
X132033500Y-100840000D03*
%TO.P,J2,3,3*%
%TO.N,Net-(J2-Pad3)*%
X132033500Y-103380000D03*
%TO.P,J2,4,4*%
%TO.N,Net-(J2-Pad4)*%
X132033500Y-105920000D03*
%TO.P,J2,5,5*%
%TO.N,/GND*%
X132033500Y-108460000D03*
%TO.P,J2,6,6*%
%TO.N,/VCC3V3*%
X132033500Y-111000000D03*
%TO.P,J2,7,7*%
%TO.N,Net-(J2-Pad7)*%
X129493500Y-98300000D03*
%TO.P,J2,8,8*%
%TO.N,Net-(J2-Pad8)*%
X129493500Y-100840000D03*
%TO.P,J2,9,9*%
%TO.N,Net-(J2-Pad9)*%
X129493500Y-103380000D03*
%TO.P,J2,10,10*%
%TO.N,Net-(J2-Pad10)*%
X129493500Y-105920000D03*
%TO.P,J2,11,11*%
%TO.N,/GND*%
X129493500Y-108460000D03*
%TO.P,J2,12,12*%
%TO.N,/VCC3V3*%
X129493500Y-111000000D03*
%TD*%
D11*
%TO.P,J1,1,1*%
%TO.N,/TXD0*%
X145847500Y-114350000D03*
D12*
%TO.P,J1,2,2*%
%TO.N,/RXD0*%
X148387500Y-114350000D03*
%TO.P,J1,3,3*%
%TO.N,/GND*%
X150927500Y-114350000D03*
%TO.P,J1,4,4*%
%TO.N,/IO0*%
X153467500Y-114350000D03*
%TD*%
D13*
%TO.P,R7,1*%
%TO.N,Net-(J2-Pad4)*%
X136737500Y-108600000D03*
%TO.P,R7,2*%
%TO.N,/CTS{slash}SCK*%
X138562500Y-108600000D03*
%TD*%
%TO.P,R1,1*%
%TO.N,Net-(J2-Pad1)*%
X136737500Y-98328574D03*
%TO.P,R1,2*%
%TO.N,/RTS{slash}SS*%
X138562500Y-98328574D03*
%TD*%
%TO.P,R4,1*%
%TO.N,Net-(J2-Pad9)*%
X136737500Y-106850000D03*
%TO.P,R4,2*%
%TO.N,/SELECT*%
X138562500Y-106850000D03*
%TD*%
%TO.P,R8,1*%
%TO.N,Net-(J2-Pad8)*%
X136737500Y-103500000D03*
%TO.P,R8,2*%
%TO.N,/EN*%
X138562500Y-103500000D03*
%TD*%
%TO.P,R2,1*%
%TO.N,Net-(J2-Pad7)*%
X136737500Y-100057145D03*
%TO.P,R2,2*%
%TO.N,/INT*%
X138562500Y-100057145D03*
%TD*%
D14*
%TO.P,U2,1,IN*%
%TO.N,/SELECT*%
X143710000Y-106200000D03*
%TO.P,U2,2,NC1*%
%TO.N,/MISO*%
X143710000Y-105550000D03*
%TO.P,U2,3,NO1*%
%TO.N,/TXD*%
X143710000Y-104900000D03*
%TO.P,U2,4,COM1*%
%TO.N,/TXD{slash}MISO*%
X143710000Y-104250000D03*
%TO.P,U2,5,NC2*%
%TO.N,/MOSI*%
X143710000Y-103600000D03*
%TO.P,U2,6,NO2*%
%TO.N,/RXD*%
X143710000Y-102950000D03*
%TO.P,U2,7,COM2*%
%TO.N,/RXD{slash}MOSI*%
X143710000Y-102300000D03*
%TO.P,U2,8,GND*%
%TO.N,/GND*%
X143710000Y-101650000D03*
%TO.P,U2,9,COM3*%
%TO.N,/RTS{slash}SS*%
X149450000Y-101650000D03*
%TO.P,U2,10,NO3*%
%TO.N,/RTS*%
X149450000Y-102300000D03*
%TO.P,U2,11,NC3*%
%TO.N,/SS*%
X149450000Y-102950000D03*
%TO.P,U2,12,COM4*%
%TO.N,/CTS{slash}SCK*%
X149450000Y-103600000D03*
%TO.P,U2,13,NO4*%
%TO.N,/CTS*%
X149450000Y-104250000D03*
%TO.P,U2,14,NC4*%
%TO.N,/SCK*%
X149450000Y-104900000D03*
%TO.P,U2,15,~{EN}*%
%TO.N,/GND*%
X149450000Y-105550000D03*
%TO.P,U2,16,V+*%
%TO.N,/VCC3V3*%
X149450000Y-106200000D03*
%TD*%
D13*
%TO.P,R9,1*%
%TO.N,Net-(J2-Pad2)*%
X136737500Y-101800000D03*
%TO.P,R9,2*%
%TO.N,/RXD{slash}MOSI*%
X138562500Y-101800000D03*
%TD*%
%TO.P,R6,1*%
%TO.N,Net-(J2-Pad10)*%
X136737500Y-110300000D03*
%TO.P,R6,2*%
%TO.N,/GPIO*%
X138562500Y-110300000D03*
%TD*%
D15*
%TO.P,C4,1*%
%TO.N,/VCC3V3*%
X148500000Y-97500000D03*
%TO.P,C4,2*%
%TO.N,/GND*%
X146775000Y-97500000D03*
%TD*%
D13*
%TO.P,R3,1*%
%TO.N,Net-(J2-Pad3)*%
X136737500Y-105150000D03*
%TO.P,R3,2*%
%TO.N,/TXD{slash}MISO*%
X138562500Y-105150000D03*
%TD*%
D16*
%TO.N,/EN*%
X139850000Y-103500000D03*
X167750000Y-93200000D03*
X172400000Y-94600000D03*
X141300000Y-95750000D03*
X141300000Y-100800000D03*
%TO.N,/GND*%
X146779828Y-96270172D03*
X147850000Y-105977000D03*
%TO.N,/VCC3V3*%
X148500000Y-96350000D03*
X150750000Y-106200000D03*
%TO.N,/RTS{slash}SS*%
X147400000Y-101600000D03*
X138550000Y-97150000D03*
%TO.N,/INT*%
X140450000Y-99050000D03*
%TO.N,/SELECT*%
X141307097Y-107301471D03*
X144673001Y-107163711D03*
X147200000Y-105350000D03*
X145823001Y-105341290D03*
X134550000Y-115500000D03*
X138500000Y-111600000D03*
%TO.N,/GPIO*%
X153350000Y-111300000D03*
%TO.N,/CTS{slash}SCK*%
X143750000Y-107200000D03*
X145823000Y-103700000D03*
%TO.N,/TXD*%
X162250000Y-112500000D03*
%TO.N,/SS*%
X163500000Y-112450000D03*
%TO.N,/MOSI*%
X163050000Y-103800000D03*
X158900000Y-103800000D03*
X173700000Y-112550000D03*
X151050000Y-103600000D03*
X147700000Y-102973000D03*
%TO.N,/CTS*%
X155300000Y-109300000D03*
%TO.N,/MISO*%
X166050000Y-115150000D03*
%TO.N,/RTS*%
X159750000Y-97150000D03*
%TO.N,/SCK*%
X163100000Y-105000000D03*
X158900000Y-104950000D03*
X153968356Y-105268356D03*
X164800000Y-112500000D03*
X155150000Y-104450000D03*
%TO.N,/RXD*%
X161000000Y-115150000D03*
X142000000Y-103623000D03*
X142600000Y-109650000D03*
%TD*%
D17*
%TO.N,/EN*%
X141300000Y-100800000D02*
X141300000Y-95750000D01*
X138562500Y-103500000D02*
X139850000Y-103500000D01*
X171000000Y-93200000D02*
X167750000Y-93200000D01*
X172400000Y-94600000D02*
X171000000Y-93200000D01*
%TO.N,/GND*%
X148277000Y-105550000D02*
X147850000Y-105977000D01*
X143710000Y-101650000D02*
X143710000Y-98040000D01*
X149450000Y-105550000D02*
X148277000Y-105550000D01*
X143710000Y-98040000D02*
X144250000Y-97500000D01*
X146775000Y-97500000D02*
X146775000Y-96275000D01*
X144250000Y-97500000D02*
X146775000Y-97500000D01*
X146775000Y-96275000D02*
X146779828Y-96270172D01*
%TO.N,/VCC3V3*%
X148500000Y-97500000D02*
X148500000Y-96350000D01*
X149450000Y-106200000D02*
X150750000Y-106200000D01*
%TO.N,Net-(J2-Pad10)*%
X136737500Y-110300000D02*
X136737500Y-110287500D01*
X130773500Y-107200000D02*
X129493500Y-105920000D01*
X136737500Y-110287500D02*
X133650000Y-107200000D01*
X133650000Y-107200000D02*
X130773500Y-107200000D01*
%TO.N,Net-(J2-Pad2)*%
X136737500Y-101800000D02*
X135400000Y-101800000D01*
X135400000Y-101800000D02*
X134440000Y-100840000D01*
X134440000Y-100840000D02*
X132033500Y-100840000D01*
%TO.N,Net-(J2-Pad7)*%
X134600000Y-99550000D02*
X130743500Y-99550000D01*
X130743500Y-99550000D02*
X129493500Y-98300000D01*
X136737500Y-100057145D02*
X135107145Y-100057145D01*
X135107145Y-100057145D02*
X134600000Y-99550000D01*
%TO.N,Net-(J2-Pad1)*%
X132062074Y-98328574D02*
X132033500Y-98300000D01*
X136737500Y-98328574D02*
X132062074Y-98328574D01*
%TO.N,Net-(J2-Pad3)*%
X136050000Y-105150000D02*
X134280000Y-103380000D01*
X136737500Y-105150000D02*
X136050000Y-105150000D01*
X134280000Y-103380000D02*
X132033500Y-103380000D01*
%TO.N,Net-(J2-Pad8)*%
X134350000Y-102100000D02*
X130753500Y-102100000D01*
X136737500Y-103500000D02*
X135750000Y-103500000D01*
X130753500Y-102100000D02*
X129493500Y-100840000D01*
X135750000Y-103500000D02*
X134350000Y-102100000D01*
%TO.N,Net-(J2-Pad4)*%
X133570000Y-105920000D02*
X132033500Y-105920000D01*
X136250000Y-108600000D02*
X133570000Y-105920000D01*
X136737500Y-108600000D02*
X136250000Y-108600000D01*
%TO.N,Net-(J2-Pad9)*%
X135850000Y-106850000D02*
X133650000Y-104650000D01*
X130763500Y-104650000D02*
X129493500Y-103380000D01*
X136737500Y-106850000D02*
X135850000Y-106850000D01*
X133650000Y-104650000D02*
X130763500Y-104650000D01*
%TO.N,/RTS{slash}SS*%
X138562500Y-97162500D02*
X138550000Y-97150000D01*
X138562500Y-98328574D02*
X138562500Y-97162500D01*
X147400000Y-101600000D02*
X149400000Y-101600000D01*
X149400000Y-101600000D02*
X149450000Y-101650000D01*
%TO.N,/INT*%
X138562500Y-100057145D02*
X139442855Y-100057145D01*
X139442855Y-100057145D02*
X140450000Y-99050000D01*
%TO.N,/TXD{slash}MISO*%
X141600000Y-104250000D02*
X143710000Y-104250000D01*
X140700000Y-105150000D02*
X141600000Y-104250000D01*
X138562500Y-105150000D02*
X140700000Y-105150000D01*
%TO.N,/SELECT*%
X134550000Y-115500000D02*
X137250000Y-115500000D01*
X141307097Y-107301471D02*
X141307097Y-106807097D01*
X138500000Y-114250000D02*
X138500000Y-114150000D01*
X145823001Y-105341290D02*
X147191290Y-105341290D01*
X143710000Y-106200710D02*
X144673001Y-107163711D01*
X141400000Y-106200000D02*
X143710000Y-106200000D01*
X143710000Y-106200000D02*
X143710000Y-106200710D01*
X140750000Y-106850000D02*
X141050000Y-106550000D01*
X141050000Y-106550000D02*
X141400000Y-106200000D01*
X147191290Y-105341290D02*
X147200000Y-105350000D01*
X138562500Y-106850000D02*
X140750000Y-106850000D01*
X137250000Y-115500000D02*
X138500000Y-114250000D01*
X141307097Y-106807097D02*
X141050000Y-106550000D01*
X138500000Y-114150000D02*
X138500000Y-111600000D01*
%TO.N,/GPIO*%
X152350000Y-110300000D02*
X138562500Y-110300000D01*
X153350000Y-111300000D02*
X152350000Y-110300000D01*
%TO.N,/CTS{slash}SCK*%
X142400000Y-107200000D02*
X141000000Y-108600000D01*
X143750000Y-107200000D02*
X142400000Y-107200000D01*
X145923000Y-103600000D02*
X149450000Y-103600000D01*
X141000000Y-108600000D02*
X138562500Y-108600000D01*
X145823000Y-103700000D02*
X145923000Y-103600000D01*
%TO.N,/RXD{slash}MOSI*%
X138562500Y-101800000D02*
X140900000Y-101800000D01*
X141400000Y-102300000D02*
X143710000Y-102300000D01*
X140900000Y-101800000D02*
X141400000Y-102300000D01*
%TO.N,/TXD*%
X156170818Y-111950000D02*
X152820818Y-108600000D01*
X161700000Y-111950000D02*
X156170818Y-111950000D01*
X144494999Y-104900000D02*
X143710000Y-104900000D01*
X162250000Y-112500000D02*
X161700000Y-111950000D01*
X152820818Y-108600000D02*
X146200000Y-108600000D01*
X146050000Y-106455001D02*
X144494999Y-104900000D01*
X146200000Y-108600000D02*
X146050000Y-108450000D01*
X146050000Y-108450000D02*
X146050000Y-106455001D01*
%TO.N,/SS*%
X162800000Y-110900000D02*
X163500000Y-111600000D01*
X159527000Y-103540288D02*
X159527000Y-110327000D01*
X149450000Y-102950000D02*
X158936712Y-102950000D01*
X158936712Y-102950000D02*
X159527000Y-103540288D01*
X160100000Y-110900000D02*
X162800000Y-110900000D01*
X163500000Y-111600000D02*
X163500000Y-112450000D01*
X159527000Y-110327000D02*
X160100000Y-110900000D01*
%TO.N,/MOSI*%
X145110846Y-102973000D02*
X144483846Y-103600000D01*
X173700000Y-106200000D02*
X171300000Y-103800000D01*
X144483846Y-103600000D02*
X143710000Y-103600000D01*
X158900000Y-103800000D02*
X158700000Y-103600000D01*
X158700000Y-103600000D02*
X151050000Y-103600000D01*
X173700000Y-112550000D02*
X173700000Y-106200000D01*
X171300000Y-103800000D02*
X163050000Y-103800000D01*
X147700000Y-102973000D02*
X145110846Y-102973000D01*
%TO.N,/CTS*%
X149450000Y-104250000D02*
X153900000Y-104250000D01*
X154900000Y-108900000D02*
X155300000Y-109300000D01*
X153900000Y-104250000D02*
X154900000Y-105250000D01*
X154900000Y-105250000D02*
X154900000Y-108900000D01*
%TO.N,/MISO*%
X162500000Y-115450000D02*
X161573000Y-114523000D01*
X166050000Y-115150000D02*
X165750000Y-115450000D01*
X152678765Y-109100000D02*
X145800000Y-109100000D01*
X145300000Y-106355001D02*
X144494999Y-105550000D01*
X165750000Y-115450000D02*
X162500000Y-115450000D01*
X144494999Y-105550000D02*
X143710000Y-105550000D01*
X145300000Y-108600000D02*
X145300000Y-106355001D01*
X156673000Y-114523000D02*
X155900000Y-113750000D01*
X155900000Y-112321235D02*
X152678765Y-109100000D01*
X161573000Y-114523000D02*
X156673000Y-114523000D01*
X155900000Y-113750000D02*
X155900000Y-112321235D01*
X145800000Y-109100000D02*
X145300000Y-108600000D01*
%TO.N,/RTS*%
X156850000Y-102300000D02*
X159750000Y-99400000D01*
X159750000Y-99400000D02*
X159750000Y-97150000D01*
X149450000Y-102300000D02*
X156850000Y-102300000D01*
%TO.N,/SCK*%
X164800000Y-112500000D02*
X164800000Y-106700000D01*
X158900000Y-104950000D02*
X155650000Y-104950000D01*
X153600000Y-104900000D02*
X149450000Y-104900000D01*
X164800000Y-106700000D02*
X163100000Y-105000000D01*
X155650000Y-104950000D02*
X155150000Y-104450000D01*
X153968356Y-105268356D02*
X153600000Y-104900000D01*
%TO.N,/RXD*%
X161000000Y-115150000D02*
X160000000Y-116150000D01*
X155250000Y-115300000D02*
X155250000Y-112313288D01*
X160000000Y-116150000D02*
X156100000Y-116150000D01*
X156100000Y-116150000D02*
X155250000Y-115300000D01*
X152586712Y-109650000D02*
X142600000Y-109650000D01*
X142000000Y-103623000D02*
X142673000Y-102950000D01*
X142673000Y-102950000D02*
X143710000Y-102950000D01*
X155250000Y-112313288D02*
X152586712Y-109650000D01*
%TD*%
M02*
