%TF.GenerationSoftware,KiCad,Pcbnew,8.0.5*%
%TF.CreationDate,2024-11-30T18:41:16+03:00*%
%TF.ProjectId,pmod_esp32_4_layer.kicad_sch,706d6f64-5f65-4737-9033-325f345f6c61,rev?*%
%TF.SameCoordinates,Original*%
%TF.FileFunction,Soldermask,Bot*%
%TF.FilePolarity,Negative*%
%FSLAX46Y46*%
G04 Gerber Fmt 4.6, Leading zero omitted, Abs format (unit mm)*
G04 Created by KiCad (PCBNEW 8.0.5) date 2024-11-30 18:41:16*
%MOMM*%
%LPD*%
G01*
G04 APERTURE LIST*
G04 Aperture macros list*
%AMRoundRect*
0 Rectangle with rounded corners*
0 $1 Rounding radius*
0 $2 $3 $4 $5 $6 $7 $8 $9 X,Y pos of 4 corners*
0 Add a 4 corners polygon primitive as box body*
4,1,4,$2,$3,$4,$5,$6,$7,$8,$9,$2,$3,0*
0 Add four circle primitives for the rounded corners*
1,1,$1+$1,$2,$3*
1,1,$1+$1,$4,$5*
1,1,$1+$1,$6,$7*
1,1,$1+$1,$8,$9*
0 Add four rect primitives between the rounded corners*
20,1,$1+$1,$2,$3,$4,$5,0*
20,1,$1+$1,$4,$5,$6,$7,0*
20,1,$1+$1,$6,$7,$8,$9,0*
20,1,$1+$1,$8,$9,$2,$3,0*%
G04 Aperture macros list end*
%ADD10C,1.695000*%
%ADD11RoundRect,0.102000X-0.825000X-0.825000X0.825000X-0.825000X0.825000X0.825000X-0.825000X0.825000X0*%
%ADD12C,1.854000*%
%ADD13RoundRect,0.237500X-0.250000X-0.237500X0.250000X-0.237500X0.250000X0.237500X-0.250000X0.237500X0*%
%ADD14RoundRect,0.076750X-0.810250X-0.230250X0.810250X-0.230250X0.810250X0.230250X-0.810250X0.230250X0*%
%ADD15RoundRect,0.237500X0.300000X0.237500X-0.300000X0.237500X-0.300000X-0.237500X0.300000X-0.237500X0*%
G04 APERTURE END LIST*
D10*
%TO.C,J2*%
X132033500Y-98300000D03*
X132033500Y-100840000D03*
X132033500Y-103380000D03*
X132033500Y-105920000D03*
X132033500Y-108460000D03*
X132033500Y-111000000D03*
X129493500Y-98300000D03*
X129493500Y-100840000D03*
X129493500Y-103380000D03*
X129493500Y-105920000D03*
X129493500Y-108460000D03*
X129493500Y-111000000D03*
%TD*%
D11*
%TO.C,J1*%
X145847500Y-114350000D03*
D12*
X148387500Y-114350000D03*
X150927500Y-114350000D03*
X153467500Y-114350000D03*
%TD*%
D13*
%TO.C,R7*%
X136737500Y-108600000D03*
X138562500Y-108600000D03*
%TD*%
%TO.C,R1*%
X136737500Y-98328574D03*
X138562500Y-98328574D03*
%TD*%
%TO.C,R4*%
X136737500Y-106850000D03*
X138562500Y-106850000D03*
%TD*%
%TO.C,R8*%
X136737500Y-103500000D03*
X138562500Y-103500000D03*
%TD*%
%TO.C,R2*%
X136737500Y-100057145D03*
X138562500Y-100057145D03*
%TD*%
D14*
%TO.C,U2*%
X143710000Y-106200000D03*
X143710000Y-105550000D03*
X143710000Y-104900000D03*
X143710000Y-104250000D03*
X143710000Y-103600000D03*
X143710000Y-102950000D03*
X143710000Y-102300000D03*
X143710000Y-101650000D03*
X149450000Y-101650000D03*
X149450000Y-102300000D03*
X149450000Y-102950000D03*
X149450000Y-103600000D03*
X149450000Y-104250000D03*
X149450000Y-104900000D03*
X149450000Y-105550000D03*
X149450000Y-106200000D03*
%TD*%
D13*
%TO.C,R9*%
X136737500Y-101800000D03*
X138562500Y-101800000D03*
%TD*%
%TO.C,R6*%
X136737500Y-110300000D03*
X138562500Y-110300000D03*
%TD*%
D15*
%TO.C,C4*%
X148500000Y-97500000D03*
X146775000Y-97500000D03*
%TD*%
D13*
%TO.C,R3*%
X136737500Y-105150000D03*
X138562500Y-105150000D03*
%TD*%
M02*
