%TF.GenerationSoftware,KiCad,Pcbnew,8.0.7*%
%TF.CreationDate,2024-12-14T18:23:45+03:00*%
%TF.ProjectId,pmod_esp32,706d6f64-5f65-4737-9033-322e6b696361,0.1*%
%TF.SameCoordinates,Original*%
%TF.FileFunction,Soldermask,Bot*%
%TF.FilePolarity,Negative*%
%FSLAX46Y46*%
G04 Gerber Fmt 4.6, Leading zero omitted, Abs format (unit mm)*
G04 Created by KiCad (PCBNEW 8.0.7) date 2024-12-14 18:23:45*
%MOMM*%
%LPD*%
G01*
G04 APERTURE LIST*
G04 Aperture macros list*
%AMRoundRect*
0 Rectangle with rounded corners*
0 $1 Rounding radius*
0 $2 $3 $4 $5 $6 $7 $8 $9 X,Y pos of 4 corners*
0 Add a 4 corners polygon primitive as box body*
4,1,4,$2,$3,$4,$5,$6,$7,$8,$9,$2,$3,0*
0 Add four circle primitives for the rounded corners*
1,1,$1+$1,$2,$3*
1,1,$1+$1,$4,$5*
1,1,$1+$1,$6,$7*
1,1,$1+$1,$8,$9*
0 Add four rect primitives between the rounded corners*
20,1,$1+$1,$2,$3,$4,$5,0*
20,1,$1+$1,$4,$5,$6,$7,0*
20,1,$1+$1,$6,$7,$8,$9,0*
20,1,$1+$1,$8,$9,$2,$3,0*%
G04 Aperture macros list end*
%ADD10C,1.695000*%
%ADD11RoundRect,0.102000X-0.802500X-0.802500X0.802500X-0.802500X0.802500X0.802500X-0.802500X0.802500X0*%
%ADD12C,1.809000*%
%ADD13RoundRect,0.237500X-0.250000X-0.237500X0.250000X-0.237500X0.250000X0.237500X-0.250000X0.237500X0*%
%ADD14RoundRect,0.237500X-0.237500X0.250000X-0.237500X-0.250000X0.237500X-0.250000X0.237500X0.250000X0*%
%ADD15RoundRect,0.076750X-0.795250X-0.230250X0.795250X-0.230250X0.795250X0.230250X-0.795250X0.230250X0*%
G04 APERTURE END LIST*
D10*
%TO.C,J2*%
X194696000Y-40900000D03*
X194696000Y-43440000D03*
X194696000Y-45980000D03*
X194696000Y-48520000D03*
X194696000Y-51060000D03*
X194696000Y-53600000D03*
X192156000Y-40900000D03*
X192156000Y-43440000D03*
X192156000Y-45980000D03*
X192156000Y-48520000D03*
X192156000Y-51060000D03*
X192156000Y-53600000D03*
%TD*%
D11*
%TO.C,J1*%
X210190000Y-55600000D03*
D12*
X212730000Y-55600000D03*
X215270000Y-55600000D03*
X217810000Y-55600000D03*
%TD*%
D13*
%TO.C,R21*%
X197987500Y-48800000D03*
X199812500Y-48800000D03*
%TD*%
%TO.C,R20*%
X197987500Y-38900000D03*
X199812500Y-38900000D03*
%TD*%
%TO.C,R17*%
X197987500Y-42100000D03*
X199812500Y-42100000D03*
%TD*%
D14*
%TO.C,R2*%
X194550000Y-56387500D03*
X194550000Y-58212500D03*
%TD*%
D15*
%TO.C,U2*%
X203810000Y-46425000D03*
X203810000Y-45775000D03*
X203810000Y-45125000D03*
X203810000Y-44475000D03*
X203810000Y-43825000D03*
X203810000Y-43175000D03*
X203810000Y-42525000D03*
X203810000Y-41875000D03*
X209590000Y-41875000D03*
X209590000Y-42525000D03*
X209590000Y-43175000D03*
X209590000Y-43825000D03*
X209590000Y-44475000D03*
X209590000Y-45125000D03*
X209590000Y-45775000D03*
X209590000Y-46425000D03*
%TD*%
D13*
%TO.C,R22*%
X198000000Y-37300000D03*
X199825000Y-37300000D03*
%TD*%
%TO.C,R18*%
X197975000Y-40500000D03*
X199800000Y-40500000D03*
%TD*%
%TO.C,R19*%
X197987500Y-45350000D03*
X199812500Y-45350000D03*
%TD*%
%TO.C,R16*%
X197987500Y-43650000D03*
X199812500Y-43650000D03*
%TD*%
%TO.C,R15*%
X197987500Y-47100000D03*
X199812500Y-47100000D03*
%TD*%
M02*
