%TF.GenerationSoftware,KiCad,Pcbnew,8.0.7*%
%TF.CreationDate,2024-12-14T18:23:45+03:00*%
%TF.ProjectId,pmod_esp32,706d6f64-5f65-4737-9033-322e6b696361,0.1*%
%TF.SameCoordinates,Original*%
%TF.FileFunction,Legend,Top*%
%TF.FilePolarity,Positive*%
%FSLAX46Y46*%
G04 Gerber Fmt 4.6, Leading zero omitted, Abs format (unit mm)*
G04 Created by KiCad (PCBNEW 8.0.7) date 2024-12-14 18:23:45*
%MOMM*%
%LPD*%
G01*
G04 APERTURE LIST*
%ADD10C,0.125000*%
%ADD11C,0.100000*%
%ADD12C,0.120000*%
%ADD13C,0.127000*%
%ADD14C,0.200000*%
%ADD15C,0.010000*%
%ADD16C,0.000000*%
G04 APERTURE END LIST*
D10*
X193451283Y-36722365D02*
X193451283Y-36222365D01*
X193451283Y-36222365D02*
X193617950Y-36579508D01*
X193617950Y-36579508D02*
X193784616Y-36222365D01*
X193784616Y-36222365D02*
X193784616Y-36722365D01*
X194236998Y-36389032D02*
X194236998Y-36722365D01*
X194022712Y-36389032D02*
X194022712Y-36650936D01*
X194022712Y-36650936D02*
X194046522Y-36698556D01*
X194046522Y-36698556D02*
X194094141Y-36722365D01*
X194094141Y-36722365D02*
X194165569Y-36722365D01*
X194165569Y-36722365D02*
X194213188Y-36698556D01*
X194213188Y-36698556D02*
X194236998Y-36674746D01*
X194475093Y-36722365D02*
X194475093Y-36222365D01*
X194689379Y-36722365D02*
X194689379Y-36460460D01*
X194689379Y-36460460D02*
X194665569Y-36412841D01*
X194665569Y-36412841D02*
X194617950Y-36389032D01*
X194617950Y-36389032D02*
X194546522Y-36389032D01*
X194546522Y-36389032D02*
X194498903Y-36412841D01*
X194498903Y-36412841D02*
X194475093Y-36436651D01*
X194856046Y-36389032D02*
X195046522Y-36389032D01*
X194927474Y-36222365D02*
X194927474Y-36650936D01*
X194927474Y-36650936D02*
X194951284Y-36698556D01*
X194951284Y-36698556D02*
X194998903Y-36722365D01*
X194998903Y-36722365D02*
X195046522Y-36722365D01*
X195427474Y-36722365D02*
X195427474Y-36460460D01*
X195427474Y-36460460D02*
X195403664Y-36412841D01*
X195403664Y-36412841D02*
X195356045Y-36389032D01*
X195356045Y-36389032D02*
X195260807Y-36389032D01*
X195260807Y-36389032D02*
X195213188Y-36412841D01*
X195427474Y-36698556D02*
X195379855Y-36722365D01*
X195379855Y-36722365D02*
X195260807Y-36722365D01*
X195260807Y-36722365D02*
X195213188Y-36698556D01*
X195213188Y-36698556D02*
X195189379Y-36650936D01*
X195189379Y-36650936D02*
X195189379Y-36603317D01*
X195189379Y-36603317D02*
X195213188Y-36555698D01*
X195213188Y-36555698D02*
X195260807Y-36531889D01*
X195260807Y-36531889D02*
X195379855Y-36531889D01*
X195379855Y-36531889D02*
X195427474Y-36508079D01*
X195641760Y-36698556D02*
X195689379Y-36722365D01*
X195689379Y-36722365D02*
X195784617Y-36722365D01*
X195784617Y-36722365D02*
X195832236Y-36698556D01*
X195832236Y-36698556D02*
X195856045Y-36650936D01*
X195856045Y-36650936D02*
X195856045Y-36627127D01*
X195856045Y-36627127D02*
X195832236Y-36579508D01*
X195832236Y-36579508D02*
X195784617Y-36555698D01*
X195784617Y-36555698D02*
X195713188Y-36555698D01*
X195713188Y-36555698D02*
X195665569Y-36531889D01*
X195665569Y-36531889D02*
X195641760Y-36484270D01*
X195641760Y-36484270D02*
X195641760Y-36460460D01*
X195641760Y-36460460D02*
X195665569Y-36412841D01*
X195665569Y-36412841D02*
X195713188Y-36389032D01*
X195713188Y-36389032D02*
X195784617Y-36389032D01*
X195784617Y-36389032D02*
X195832236Y-36412841D01*
X196713188Y-36722365D02*
X196427474Y-36722365D01*
X196570331Y-36722365D02*
X196570331Y-36222365D01*
X196570331Y-36222365D02*
X196522712Y-36293794D01*
X196522712Y-36293794D02*
X196475093Y-36341413D01*
X196475093Y-36341413D02*
X196427474Y-36365222D01*
X197308425Y-36722365D02*
X197308425Y-36222365D01*
X197308425Y-36222365D02*
X197498901Y-36222365D01*
X197498901Y-36222365D02*
X197546520Y-36246175D01*
X197546520Y-36246175D02*
X197570330Y-36269984D01*
X197570330Y-36269984D02*
X197594139Y-36317603D01*
X197594139Y-36317603D02*
X197594139Y-36389032D01*
X197594139Y-36389032D02*
X197570330Y-36436651D01*
X197570330Y-36436651D02*
X197546520Y-36460460D01*
X197546520Y-36460460D02*
X197498901Y-36484270D01*
X197498901Y-36484270D02*
X197308425Y-36484270D01*
X197808425Y-36722365D02*
X197808425Y-36389032D01*
X197808425Y-36484270D02*
X197832235Y-36436651D01*
X197832235Y-36436651D02*
X197856044Y-36412841D01*
X197856044Y-36412841D02*
X197903663Y-36389032D01*
X197903663Y-36389032D02*
X197951282Y-36389032D01*
X198189378Y-36722365D02*
X198141759Y-36698556D01*
X198141759Y-36698556D02*
X198117949Y-36674746D01*
X198117949Y-36674746D02*
X198094140Y-36627127D01*
X198094140Y-36627127D02*
X198094140Y-36484270D01*
X198094140Y-36484270D02*
X198117949Y-36436651D01*
X198117949Y-36436651D02*
X198141759Y-36412841D01*
X198141759Y-36412841D02*
X198189378Y-36389032D01*
X198189378Y-36389032D02*
X198260806Y-36389032D01*
X198260806Y-36389032D02*
X198308425Y-36412841D01*
X198308425Y-36412841D02*
X198332235Y-36436651D01*
X198332235Y-36436651D02*
X198356044Y-36484270D01*
X198356044Y-36484270D02*
X198356044Y-36627127D01*
X198356044Y-36627127D02*
X198332235Y-36674746D01*
X198332235Y-36674746D02*
X198308425Y-36698556D01*
X198308425Y-36698556D02*
X198260806Y-36722365D01*
X198260806Y-36722365D02*
X198189378Y-36722365D01*
X198570330Y-36389032D02*
X198570330Y-36817603D01*
X198570330Y-36817603D02*
X198546521Y-36865222D01*
X198546521Y-36865222D02*
X198498902Y-36889032D01*
X198498902Y-36889032D02*
X198475092Y-36889032D01*
X198570330Y-36222365D02*
X198546521Y-36246175D01*
X198546521Y-36246175D02*
X198570330Y-36269984D01*
X198570330Y-36269984D02*
X198594140Y-36246175D01*
X198594140Y-36246175D02*
X198570330Y-36222365D01*
X198570330Y-36222365D02*
X198570330Y-36269984D01*
X198998901Y-36698556D02*
X198951282Y-36722365D01*
X198951282Y-36722365D02*
X198856044Y-36722365D01*
X198856044Y-36722365D02*
X198808425Y-36698556D01*
X198808425Y-36698556D02*
X198784616Y-36650936D01*
X198784616Y-36650936D02*
X198784616Y-36460460D01*
X198784616Y-36460460D02*
X198808425Y-36412841D01*
X198808425Y-36412841D02*
X198856044Y-36389032D01*
X198856044Y-36389032D02*
X198951282Y-36389032D01*
X198951282Y-36389032D02*
X198998901Y-36412841D01*
X198998901Y-36412841D02*
X199022711Y-36460460D01*
X199022711Y-36460460D02*
X199022711Y-36508079D01*
X199022711Y-36508079D02*
X198784616Y-36555698D01*
X199451282Y-36698556D02*
X199403663Y-36722365D01*
X199403663Y-36722365D02*
X199308425Y-36722365D01*
X199308425Y-36722365D02*
X199260806Y-36698556D01*
X199260806Y-36698556D02*
X199236996Y-36674746D01*
X199236996Y-36674746D02*
X199213187Y-36627127D01*
X199213187Y-36627127D02*
X199213187Y-36484270D01*
X199213187Y-36484270D02*
X199236996Y-36436651D01*
X199236996Y-36436651D02*
X199260806Y-36412841D01*
X199260806Y-36412841D02*
X199308425Y-36389032D01*
X199308425Y-36389032D02*
X199403663Y-36389032D01*
X199403663Y-36389032D02*
X199451282Y-36412841D01*
X199594139Y-36389032D02*
X199784615Y-36389032D01*
X199665567Y-36222365D02*
X199665567Y-36650936D01*
X199665567Y-36650936D02*
X199689377Y-36698556D01*
X199689377Y-36698556D02*
X199736996Y-36722365D01*
X199736996Y-36722365D02*
X199784615Y-36722365D01*
X193427474Y-37074956D02*
X193451283Y-37051147D01*
X193451283Y-37051147D02*
X193498902Y-37027337D01*
X193498902Y-37027337D02*
X193617950Y-37027337D01*
X193617950Y-37027337D02*
X193665569Y-37051147D01*
X193665569Y-37051147D02*
X193689378Y-37074956D01*
X193689378Y-37074956D02*
X193713188Y-37122575D01*
X193713188Y-37122575D02*
X193713188Y-37170194D01*
X193713188Y-37170194D02*
X193689378Y-37241623D01*
X193689378Y-37241623D02*
X193403664Y-37527337D01*
X193403664Y-37527337D02*
X193713188Y-37527337D01*
X194022711Y-37027337D02*
X194070330Y-37027337D01*
X194070330Y-37027337D02*
X194117949Y-37051147D01*
X194117949Y-37051147D02*
X194141759Y-37074956D01*
X194141759Y-37074956D02*
X194165568Y-37122575D01*
X194165568Y-37122575D02*
X194189378Y-37217813D01*
X194189378Y-37217813D02*
X194189378Y-37336861D01*
X194189378Y-37336861D02*
X194165568Y-37432099D01*
X194165568Y-37432099D02*
X194141759Y-37479718D01*
X194141759Y-37479718D02*
X194117949Y-37503528D01*
X194117949Y-37503528D02*
X194070330Y-37527337D01*
X194070330Y-37527337D02*
X194022711Y-37527337D01*
X194022711Y-37527337D02*
X193975092Y-37503528D01*
X193975092Y-37503528D02*
X193951283Y-37479718D01*
X193951283Y-37479718D02*
X193927473Y-37432099D01*
X193927473Y-37432099D02*
X193903664Y-37336861D01*
X193903664Y-37336861D02*
X193903664Y-37217813D01*
X193903664Y-37217813D02*
X193927473Y-37122575D01*
X193927473Y-37122575D02*
X193951283Y-37074956D01*
X193951283Y-37074956D02*
X193975092Y-37051147D01*
X193975092Y-37051147D02*
X194022711Y-37027337D01*
X194498901Y-37027337D02*
X194546520Y-37027337D01*
X194546520Y-37027337D02*
X194594139Y-37051147D01*
X194594139Y-37051147D02*
X194617949Y-37074956D01*
X194617949Y-37074956D02*
X194641758Y-37122575D01*
X194641758Y-37122575D02*
X194665568Y-37217813D01*
X194665568Y-37217813D02*
X194665568Y-37336861D01*
X194665568Y-37336861D02*
X194641758Y-37432099D01*
X194641758Y-37432099D02*
X194617949Y-37479718D01*
X194617949Y-37479718D02*
X194594139Y-37503528D01*
X194594139Y-37503528D02*
X194546520Y-37527337D01*
X194546520Y-37527337D02*
X194498901Y-37527337D01*
X194498901Y-37527337D02*
X194451282Y-37503528D01*
X194451282Y-37503528D02*
X194427473Y-37479718D01*
X194427473Y-37479718D02*
X194403663Y-37432099D01*
X194403663Y-37432099D02*
X194379854Y-37336861D01*
X194379854Y-37336861D02*
X194379854Y-37217813D01*
X194379854Y-37217813D02*
X194403663Y-37122575D01*
X194403663Y-37122575D02*
X194427473Y-37074956D01*
X194427473Y-37074956D02*
X194451282Y-37051147D01*
X194451282Y-37051147D02*
X194498901Y-37027337D01*
X194856044Y-37074956D02*
X194879853Y-37051147D01*
X194879853Y-37051147D02*
X194927472Y-37027337D01*
X194927472Y-37027337D02*
X195046520Y-37027337D01*
X195046520Y-37027337D02*
X195094139Y-37051147D01*
X195094139Y-37051147D02*
X195117948Y-37074956D01*
X195117948Y-37074956D02*
X195141758Y-37122575D01*
X195141758Y-37122575D02*
X195141758Y-37170194D01*
X195141758Y-37170194D02*
X195117948Y-37241623D01*
X195117948Y-37241623D02*
X194832234Y-37527337D01*
X194832234Y-37527337D02*
X195141758Y-37527337D01*
X195451281Y-37027337D02*
X195498900Y-37027337D01*
X195498900Y-37027337D02*
X195546519Y-37051147D01*
X195546519Y-37051147D02*
X195570329Y-37074956D01*
X195570329Y-37074956D02*
X195594138Y-37122575D01*
X195594138Y-37122575D02*
X195617948Y-37217813D01*
X195617948Y-37217813D02*
X195617948Y-37336861D01*
X195617948Y-37336861D02*
X195594138Y-37432099D01*
X195594138Y-37432099D02*
X195570329Y-37479718D01*
X195570329Y-37479718D02*
X195546519Y-37503528D01*
X195546519Y-37503528D02*
X195498900Y-37527337D01*
X195498900Y-37527337D02*
X195451281Y-37527337D01*
X195451281Y-37527337D02*
X195403662Y-37503528D01*
X195403662Y-37503528D02*
X195379853Y-37479718D01*
X195379853Y-37479718D02*
X195356043Y-37432099D01*
X195356043Y-37432099D02*
X195332234Y-37336861D01*
X195332234Y-37336861D02*
X195332234Y-37217813D01*
X195332234Y-37217813D02*
X195356043Y-37122575D01*
X195356043Y-37122575D02*
X195379853Y-37074956D01*
X195379853Y-37074956D02*
X195403662Y-37051147D01*
X195403662Y-37051147D02*
X195451281Y-37027337D01*
X195784614Y-37027337D02*
X196117947Y-37027337D01*
X196117947Y-37027337D02*
X195903662Y-37527337D01*
X196403661Y-37027337D02*
X196451280Y-37027337D01*
X196451280Y-37027337D02*
X196498899Y-37051147D01*
X196498899Y-37051147D02*
X196522709Y-37074956D01*
X196522709Y-37074956D02*
X196546518Y-37122575D01*
X196546518Y-37122575D02*
X196570328Y-37217813D01*
X196570328Y-37217813D02*
X196570328Y-37336861D01*
X196570328Y-37336861D02*
X196546518Y-37432099D01*
X196546518Y-37432099D02*
X196522709Y-37479718D01*
X196522709Y-37479718D02*
X196498899Y-37503528D01*
X196498899Y-37503528D02*
X196451280Y-37527337D01*
X196451280Y-37527337D02*
X196403661Y-37527337D01*
X196403661Y-37527337D02*
X196356042Y-37503528D01*
X196356042Y-37503528D02*
X196332233Y-37479718D01*
X196332233Y-37479718D02*
X196308423Y-37432099D01*
X196308423Y-37432099D02*
X196284614Y-37336861D01*
X196284614Y-37336861D02*
X196284614Y-37217813D01*
X196284614Y-37217813D02*
X196308423Y-37122575D01*
X196308423Y-37122575D02*
X196332233Y-37074956D01*
X196332233Y-37074956D02*
X196356042Y-37051147D01*
X196356042Y-37051147D02*
X196403661Y-37027337D01*
X196736994Y-37027337D02*
X197046518Y-37027337D01*
X197046518Y-37027337D02*
X196879851Y-37217813D01*
X196879851Y-37217813D02*
X196951280Y-37217813D01*
X196951280Y-37217813D02*
X196998899Y-37241623D01*
X196998899Y-37241623D02*
X197022708Y-37265432D01*
X197022708Y-37265432D02*
X197046518Y-37313051D01*
X197046518Y-37313051D02*
X197046518Y-37432099D01*
X197046518Y-37432099D02*
X197022708Y-37479718D01*
X197022708Y-37479718D02*
X196998899Y-37503528D01*
X196998899Y-37503528D02*
X196951280Y-37527337D01*
X196951280Y-37527337D02*
X196808423Y-37527337D01*
X196808423Y-37527337D02*
X196760804Y-37503528D01*
X196760804Y-37503528D02*
X196736994Y-37479718D01*
X197236994Y-37074956D02*
X197260803Y-37051147D01*
X197260803Y-37051147D02*
X197308422Y-37027337D01*
X197308422Y-37027337D02*
X197427470Y-37027337D01*
X197427470Y-37027337D02*
X197475089Y-37051147D01*
X197475089Y-37051147D02*
X197498898Y-37074956D01*
X197498898Y-37074956D02*
X197522708Y-37122575D01*
X197522708Y-37122575D02*
X197522708Y-37170194D01*
X197522708Y-37170194D02*
X197498898Y-37241623D01*
X197498898Y-37241623D02*
X197213184Y-37527337D01*
X197213184Y-37527337D02*
X197522708Y-37527337D01*
X193451283Y-38332309D02*
X193451283Y-37832309D01*
X193451283Y-37832309D02*
X193736997Y-38332309D01*
X193736997Y-38332309D02*
X193736997Y-37832309D01*
X193975093Y-38332309D02*
X193975093Y-37998976D01*
X193975093Y-37832309D02*
X193951284Y-37856119D01*
X193951284Y-37856119D02*
X193975093Y-37879928D01*
X193975093Y-37879928D02*
X193998903Y-37856119D01*
X193998903Y-37856119D02*
X193975093Y-37832309D01*
X193975093Y-37832309D02*
X193975093Y-37879928D01*
X194427474Y-38332309D02*
X194427474Y-37832309D01*
X194427474Y-38308500D02*
X194379855Y-38332309D01*
X194379855Y-38332309D02*
X194284617Y-38332309D01*
X194284617Y-38332309D02*
X194236998Y-38308500D01*
X194236998Y-38308500D02*
X194213188Y-38284690D01*
X194213188Y-38284690D02*
X194189379Y-38237071D01*
X194189379Y-38237071D02*
X194189379Y-38094214D01*
X194189379Y-38094214D02*
X194213188Y-38046595D01*
X194213188Y-38046595D02*
X194236998Y-38022785D01*
X194236998Y-38022785D02*
X194284617Y-37998976D01*
X194284617Y-37998976D02*
X194379855Y-37998976D01*
X194379855Y-37998976D02*
X194427474Y-38022785D01*
X194879855Y-38332309D02*
X194879855Y-38070404D01*
X194879855Y-38070404D02*
X194856045Y-38022785D01*
X194856045Y-38022785D02*
X194808426Y-37998976D01*
X194808426Y-37998976D02*
X194713188Y-37998976D01*
X194713188Y-37998976D02*
X194665569Y-38022785D01*
X194879855Y-38308500D02*
X194832236Y-38332309D01*
X194832236Y-38332309D02*
X194713188Y-38332309D01*
X194713188Y-38332309D02*
X194665569Y-38308500D01*
X194665569Y-38308500D02*
X194641760Y-38260880D01*
X194641760Y-38260880D02*
X194641760Y-38213261D01*
X194641760Y-38213261D02*
X194665569Y-38165642D01*
X194665569Y-38165642D02*
X194713188Y-38141833D01*
X194713188Y-38141833D02*
X194832236Y-38141833D01*
X194832236Y-38141833D02*
X194879855Y-38118023D01*
X195498902Y-38332309D02*
X195498902Y-37832309D01*
X195498902Y-37832309D02*
X195665569Y-38189452D01*
X195665569Y-38189452D02*
X195832235Y-37832309D01*
X195832235Y-37832309D02*
X195832235Y-38332309D01*
X196260807Y-38308500D02*
X196213188Y-38332309D01*
X196213188Y-38332309D02*
X196117950Y-38332309D01*
X196117950Y-38332309D02*
X196070331Y-38308500D01*
X196070331Y-38308500D02*
X196046522Y-38260880D01*
X196046522Y-38260880D02*
X196046522Y-38070404D01*
X196046522Y-38070404D02*
X196070331Y-38022785D01*
X196070331Y-38022785D02*
X196117950Y-37998976D01*
X196117950Y-37998976D02*
X196213188Y-37998976D01*
X196213188Y-37998976D02*
X196260807Y-38022785D01*
X196260807Y-38022785D02*
X196284617Y-38070404D01*
X196284617Y-38070404D02*
X196284617Y-38118023D01*
X196284617Y-38118023D02*
X196046522Y-38165642D01*
X196498902Y-38332309D02*
X196498902Y-37998976D01*
X196498902Y-38094214D02*
X196522712Y-38046595D01*
X196522712Y-38046595D02*
X196546521Y-38022785D01*
X196546521Y-38022785D02*
X196594140Y-37998976D01*
X196594140Y-37998976D02*
X196641759Y-37998976D01*
X196736998Y-37998976D02*
X196927474Y-37998976D01*
X196808426Y-37832309D02*
X196808426Y-38260880D01*
X196808426Y-38260880D02*
X196832236Y-38308500D01*
X196832236Y-38308500D02*
X196879855Y-38332309D01*
X196879855Y-38332309D02*
X196927474Y-38332309D01*
D11*
X196726109Y-55983333D02*
X196488014Y-56149999D01*
X196726109Y-56269047D02*
X196226109Y-56269047D01*
X196226109Y-56269047D02*
X196226109Y-56078571D01*
X196226109Y-56078571D02*
X196249919Y-56030952D01*
X196249919Y-56030952D02*
X196273728Y-56007142D01*
X196273728Y-56007142D02*
X196321347Y-55983333D01*
X196321347Y-55983333D02*
X196392776Y-55983333D01*
X196392776Y-55983333D02*
X196440395Y-56007142D01*
X196440395Y-56007142D02*
X196464204Y-56030952D01*
X196464204Y-56030952D02*
X196488014Y-56078571D01*
X196488014Y-56078571D02*
X196488014Y-56269047D01*
X196226109Y-55816666D02*
X196226109Y-55483333D01*
X196226109Y-55483333D02*
X196726109Y-55697618D01*
X196676109Y-57683333D02*
X196438014Y-57849999D01*
X196676109Y-57969047D02*
X196176109Y-57969047D01*
X196176109Y-57969047D02*
X196176109Y-57778571D01*
X196176109Y-57778571D02*
X196199919Y-57730952D01*
X196199919Y-57730952D02*
X196223728Y-57707142D01*
X196223728Y-57707142D02*
X196271347Y-57683333D01*
X196271347Y-57683333D02*
X196342776Y-57683333D01*
X196342776Y-57683333D02*
X196390395Y-57707142D01*
X196390395Y-57707142D02*
X196414204Y-57730952D01*
X196414204Y-57730952D02*
X196438014Y-57778571D01*
X196438014Y-57778571D02*
X196438014Y-57969047D01*
X196176109Y-57254761D02*
X196176109Y-57349999D01*
X196176109Y-57349999D02*
X196199919Y-57397618D01*
X196199919Y-57397618D02*
X196223728Y-57421428D01*
X196223728Y-57421428D02*
X196295157Y-57469047D01*
X196295157Y-57469047D02*
X196390395Y-57492856D01*
X196390395Y-57492856D02*
X196580871Y-57492856D01*
X196580871Y-57492856D02*
X196628490Y-57469047D01*
X196628490Y-57469047D02*
X196652300Y-57445237D01*
X196652300Y-57445237D02*
X196676109Y-57397618D01*
X196676109Y-57397618D02*
X196676109Y-57302380D01*
X196676109Y-57302380D02*
X196652300Y-57254761D01*
X196652300Y-57254761D02*
X196628490Y-57230952D01*
X196628490Y-57230952D02*
X196580871Y-57207142D01*
X196580871Y-57207142D02*
X196461823Y-57207142D01*
X196461823Y-57207142D02*
X196414204Y-57230952D01*
X196414204Y-57230952D02*
X196390395Y-57254761D01*
X196390395Y-57254761D02*
X196366585Y-57302380D01*
X196366585Y-57302380D02*
X196366585Y-57397618D01*
X196366585Y-57397618D02*
X196390395Y-57445237D01*
X196390395Y-57445237D02*
X196414204Y-57469047D01*
X196414204Y-57469047D02*
X196461823Y-57492856D01*
X205366666Y-36978490D02*
X205342857Y-37002300D01*
X205342857Y-37002300D02*
X205271428Y-37026109D01*
X205271428Y-37026109D02*
X205223809Y-37026109D01*
X205223809Y-37026109D02*
X205152381Y-37002300D01*
X205152381Y-37002300D02*
X205104762Y-36954680D01*
X205104762Y-36954680D02*
X205080952Y-36907061D01*
X205080952Y-36907061D02*
X205057143Y-36811823D01*
X205057143Y-36811823D02*
X205057143Y-36740395D01*
X205057143Y-36740395D02*
X205080952Y-36645157D01*
X205080952Y-36645157D02*
X205104762Y-36597538D01*
X205104762Y-36597538D02*
X205152381Y-36549919D01*
X205152381Y-36549919D02*
X205223809Y-36526109D01*
X205223809Y-36526109D02*
X205271428Y-36526109D01*
X205271428Y-36526109D02*
X205342857Y-36549919D01*
X205342857Y-36549919D02*
X205366666Y-36573728D01*
X205533333Y-36526109D02*
X205842857Y-36526109D01*
X205842857Y-36526109D02*
X205676190Y-36716585D01*
X205676190Y-36716585D02*
X205747619Y-36716585D01*
X205747619Y-36716585D02*
X205795238Y-36740395D01*
X205795238Y-36740395D02*
X205819047Y-36764204D01*
X205819047Y-36764204D02*
X205842857Y-36811823D01*
X205842857Y-36811823D02*
X205842857Y-36930871D01*
X205842857Y-36930871D02*
X205819047Y-36978490D01*
X205819047Y-36978490D02*
X205795238Y-37002300D01*
X205795238Y-37002300D02*
X205747619Y-37026109D01*
X205747619Y-37026109D02*
X205604762Y-37026109D01*
X205604762Y-37026109D02*
X205557143Y-37002300D01*
X205557143Y-37002300D02*
X205533333Y-36978490D01*
X191533333Y-37826109D02*
X191533333Y-38183252D01*
X191533333Y-38183252D02*
X191509524Y-38254680D01*
X191509524Y-38254680D02*
X191461905Y-38302300D01*
X191461905Y-38302300D02*
X191390476Y-38326109D01*
X191390476Y-38326109D02*
X191342857Y-38326109D01*
X191747619Y-37873728D02*
X191771428Y-37849919D01*
X191771428Y-37849919D02*
X191819047Y-37826109D01*
X191819047Y-37826109D02*
X191938095Y-37826109D01*
X191938095Y-37826109D02*
X191985714Y-37849919D01*
X191985714Y-37849919D02*
X192009523Y-37873728D01*
X192009523Y-37873728D02*
X192033333Y-37921347D01*
X192033333Y-37921347D02*
X192033333Y-37968966D01*
X192033333Y-37968966D02*
X192009523Y-38040395D01*
X192009523Y-38040395D02*
X191723809Y-38326109D01*
X191723809Y-38326109D02*
X192033333Y-38326109D01*
X207166666Y-58626109D02*
X207000000Y-58388014D01*
X206880952Y-58626109D02*
X206880952Y-58126109D01*
X206880952Y-58126109D02*
X207071428Y-58126109D01*
X207071428Y-58126109D02*
X207119047Y-58149919D01*
X207119047Y-58149919D02*
X207142857Y-58173728D01*
X207142857Y-58173728D02*
X207166666Y-58221347D01*
X207166666Y-58221347D02*
X207166666Y-58292776D01*
X207166666Y-58292776D02*
X207142857Y-58340395D01*
X207142857Y-58340395D02*
X207119047Y-58364204D01*
X207119047Y-58364204D02*
X207071428Y-58388014D01*
X207071428Y-58388014D02*
X206880952Y-58388014D01*
X207595238Y-58292776D02*
X207595238Y-58626109D01*
X207476190Y-58102300D02*
X207357143Y-58459442D01*
X207357143Y-58459442D02*
X207666666Y-58459442D01*
X206778490Y-47833333D02*
X206802300Y-47857142D01*
X206802300Y-47857142D02*
X206826109Y-47928571D01*
X206826109Y-47928571D02*
X206826109Y-47976190D01*
X206826109Y-47976190D02*
X206802300Y-48047618D01*
X206802300Y-48047618D02*
X206754680Y-48095237D01*
X206754680Y-48095237D02*
X206707061Y-48119047D01*
X206707061Y-48119047D02*
X206611823Y-48142856D01*
X206611823Y-48142856D02*
X206540395Y-48142856D01*
X206540395Y-48142856D02*
X206445157Y-48119047D01*
X206445157Y-48119047D02*
X206397538Y-48095237D01*
X206397538Y-48095237D02*
X206349919Y-48047618D01*
X206349919Y-48047618D02*
X206326109Y-47976190D01*
X206326109Y-47976190D02*
X206326109Y-47928571D01*
X206326109Y-47928571D02*
X206349919Y-47857142D01*
X206349919Y-47857142D02*
X206373728Y-47833333D01*
X206492776Y-47404761D02*
X206826109Y-47404761D01*
X206302300Y-47523809D02*
X206659442Y-47642856D01*
X206659442Y-47642856D02*
X206659442Y-47333333D01*
X207116666Y-50876109D02*
X206950000Y-50638014D01*
X206830952Y-50876109D02*
X206830952Y-50376109D01*
X206830952Y-50376109D02*
X207021428Y-50376109D01*
X207021428Y-50376109D02*
X207069047Y-50399919D01*
X207069047Y-50399919D02*
X207092857Y-50423728D01*
X207092857Y-50423728D02*
X207116666Y-50471347D01*
X207116666Y-50471347D02*
X207116666Y-50542776D01*
X207116666Y-50542776D02*
X207092857Y-50590395D01*
X207092857Y-50590395D02*
X207069047Y-50614204D01*
X207069047Y-50614204D02*
X207021428Y-50638014D01*
X207021428Y-50638014D02*
X206830952Y-50638014D01*
X207569047Y-50376109D02*
X207330952Y-50376109D01*
X207330952Y-50376109D02*
X207307143Y-50614204D01*
X207307143Y-50614204D02*
X207330952Y-50590395D01*
X207330952Y-50590395D02*
X207378571Y-50566585D01*
X207378571Y-50566585D02*
X207497619Y-50566585D01*
X207497619Y-50566585D02*
X207545238Y-50590395D01*
X207545238Y-50590395D02*
X207569047Y-50614204D01*
X207569047Y-50614204D02*
X207592857Y-50661823D01*
X207592857Y-50661823D02*
X207592857Y-50780871D01*
X207592857Y-50780871D02*
X207569047Y-50828490D01*
X207569047Y-50828490D02*
X207545238Y-50852300D01*
X207545238Y-50852300D02*
X207497619Y-50876109D01*
X207497619Y-50876109D02*
X207378571Y-50876109D01*
X207378571Y-50876109D02*
X207330952Y-50852300D01*
X207330952Y-50852300D02*
X207307143Y-50828490D01*
X221169047Y-57626109D02*
X221169047Y-58030871D01*
X221169047Y-58030871D02*
X221192857Y-58078490D01*
X221192857Y-58078490D02*
X221216666Y-58102300D01*
X221216666Y-58102300D02*
X221264285Y-58126109D01*
X221264285Y-58126109D02*
X221359523Y-58126109D01*
X221359523Y-58126109D02*
X221407142Y-58102300D01*
X221407142Y-58102300D02*
X221430952Y-58078490D01*
X221430952Y-58078490D02*
X221454761Y-58030871D01*
X221454761Y-58030871D02*
X221454761Y-57626109D01*
X221954762Y-58126109D02*
X221669048Y-58126109D01*
X221811905Y-58126109D02*
X221811905Y-57626109D01*
X221811905Y-57626109D02*
X221764286Y-57697538D01*
X221764286Y-57697538D02*
X221716667Y-57745157D01*
X221716667Y-57745157D02*
X221669048Y-57768966D01*
X201916666Y-36926109D02*
X201750000Y-36688014D01*
X201630952Y-36926109D02*
X201630952Y-36426109D01*
X201630952Y-36426109D02*
X201821428Y-36426109D01*
X201821428Y-36426109D02*
X201869047Y-36449919D01*
X201869047Y-36449919D02*
X201892857Y-36473728D01*
X201892857Y-36473728D02*
X201916666Y-36521347D01*
X201916666Y-36521347D02*
X201916666Y-36592776D01*
X201916666Y-36592776D02*
X201892857Y-36640395D01*
X201892857Y-36640395D02*
X201869047Y-36664204D01*
X201869047Y-36664204D02*
X201821428Y-36688014D01*
X201821428Y-36688014D02*
X201630952Y-36688014D01*
X202083333Y-36426109D02*
X202392857Y-36426109D01*
X202392857Y-36426109D02*
X202226190Y-36616585D01*
X202226190Y-36616585D02*
X202297619Y-36616585D01*
X202297619Y-36616585D02*
X202345238Y-36640395D01*
X202345238Y-36640395D02*
X202369047Y-36664204D01*
X202369047Y-36664204D02*
X202392857Y-36711823D01*
X202392857Y-36711823D02*
X202392857Y-36830871D01*
X202392857Y-36830871D02*
X202369047Y-36878490D01*
X202369047Y-36878490D02*
X202345238Y-36902300D01*
X202345238Y-36902300D02*
X202297619Y-36926109D01*
X202297619Y-36926109D02*
X202154762Y-36926109D01*
X202154762Y-36926109D02*
X202107143Y-36902300D01*
X202107143Y-36902300D02*
X202083333Y-36878490D01*
X230616666Y-36278490D02*
X230592857Y-36302300D01*
X230592857Y-36302300D02*
X230521428Y-36326109D01*
X230521428Y-36326109D02*
X230473809Y-36326109D01*
X230473809Y-36326109D02*
X230402381Y-36302300D01*
X230402381Y-36302300D02*
X230354762Y-36254680D01*
X230354762Y-36254680D02*
X230330952Y-36207061D01*
X230330952Y-36207061D02*
X230307143Y-36111823D01*
X230307143Y-36111823D02*
X230307143Y-36040395D01*
X230307143Y-36040395D02*
X230330952Y-35945157D01*
X230330952Y-35945157D02*
X230354762Y-35897538D01*
X230354762Y-35897538D02*
X230402381Y-35849919D01*
X230402381Y-35849919D02*
X230473809Y-35826109D01*
X230473809Y-35826109D02*
X230521428Y-35826109D01*
X230521428Y-35826109D02*
X230592857Y-35849919D01*
X230592857Y-35849919D02*
X230616666Y-35873728D01*
X230807143Y-35873728D02*
X230830952Y-35849919D01*
X230830952Y-35849919D02*
X230878571Y-35826109D01*
X230878571Y-35826109D02*
X230997619Y-35826109D01*
X230997619Y-35826109D02*
X231045238Y-35849919D01*
X231045238Y-35849919D02*
X231069047Y-35873728D01*
X231069047Y-35873728D02*
X231092857Y-35921347D01*
X231092857Y-35921347D02*
X231092857Y-35968966D01*
X231092857Y-35968966D02*
X231069047Y-36040395D01*
X231069047Y-36040395D02*
X230783333Y-36326109D01*
X230783333Y-36326109D02*
X231092857Y-36326109D01*
X231666666Y-36278490D02*
X231642857Y-36302300D01*
X231642857Y-36302300D02*
X231571428Y-36326109D01*
X231571428Y-36326109D02*
X231523809Y-36326109D01*
X231523809Y-36326109D02*
X231452381Y-36302300D01*
X231452381Y-36302300D02*
X231404762Y-36254680D01*
X231404762Y-36254680D02*
X231380952Y-36207061D01*
X231380952Y-36207061D02*
X231357143Y-36111823D01*
X231357143Y-36111823D02*
X231357143Y-36040395D01*
X231357143Y-36040395D02*
X231380952Y-35945157D01*
X231380952Y-35945157D02*
X231404762Y-35897538D01*
X231404762Y-35897538D02*
X231452381Y-35849919D01*
X231452381Y-35849919D02*
X231523809Y-35826109D01*
X231523809Y-35826109D02*
X231571428Y-35826109D01*
X231571428Y-35826109D02*
X231642857Y-35849919D01*
X231642857Y-35849919D02*
X231666666Y-35873728D01*
X232142857Y-36326109D02*
X231857143Y-36326109D01*
X232000000Y-36326109D02*
X232000000Y-35826109D01*
X232000000Y-35826109D02*
X231952381Y-35897538D01*
X231952381Y-35897538D02*
X231904762Y-35945157D01*
X231904762Y-35945157D02*
X231857143Y-35968966D01*
X190326109Y-57933333D02*
X190326109Y-58171428D01*
X190326109Y-58171428D02*
X189826109Y-58171428D01*
X190326109Y-57766666D02*
X189826109Y-57766666D01*
X189826109Y-57766666D02*
X189826109Y-57647618D01*
X189826109Y-57647618D02*
X189849919Y-57576190D01*
X189849919Y-57576190D02*
X189897538Y-57528571D01*
X189897538Y-57528571D02*
X189945157Y-57504761D01*
X189945157Y-57504761D02*
X190040395Y-57480952D01*
X190040395Y-57480952D02*
X190111823Y-57480952D01*
X190111823Y-57480952D02*
X190207061Y-57504761D01*
X190207061Y-57504761D02*
X190254680Y-57528571D01*
X190254680Y-57528571D02*
X190302300Y-57576190D01*
X190302300Y-57576190D02*
X190326109Y-57647618D01*
X190326109Y-57647618D02*
X190326109Y-57766666D01*
X190326109Y-57004761D02*
X190326109Y-57290475D01*
X190326109Y-57147618D02*
X189826109Y-57147618D01*
X189826109Y-57147618D02*
X189897538Y-57195237D01*
X189897538Y-57195237D02*
X189945157Y-57242856D01*
X189945157Y-57242856D02*
X189968966Y-57290475D01*
X208933333Y-53326109D02*
X208933333Y-53683252D01*
X208933333Y-53683252D02*
X208909524Y-53754680D01*
X208909524Y-53754680D02*
X208861905Y-53802300D01*
X208861905Y-53802300D02*
X208790476Y-53826109D01*
X208790476Y-53826109D02*
X208742857Y-53826109D01*
X209433333Y-53826109D02*
X209147619Y-53826109D01*
X209290476Y-53826109D02*
X209290476Y-53326109D01*
X209290476Y-53326109D02*
X209242857Y-53397538D01*
X209242857Y-53397538D02*
X209195238Y-53445157D01*
X209195238Y-53445157D02*
X209147619Y-53468966D01*
X210866666Y-37226109D02*
X210700000Y-36988014D01*
X210580952Y-37226109D02*
X210580952Y-36726109D01*
X210580952Y-36726109D02*
X210771428Y-36726109D01*
X210771428Y-36726109D02*
X210819047Y-36749919D01*
X210819047Y-36749919D02*
X210842857Y-36773728D01*
X210842857Y-36773728D02*
X210866666Y-36821347D01*
X210866666Y-36821347D02*
X210866666Y-36892776D01*
X210866666Y-36892776D02*
X210842857Y-36940395D01*
X210842857Y-36940395D02*
X210819047Y-36964204D01*
X210819047Y-36964204D02*
X210771428Y-36988014D01*
X210771428Y-36988014D02*
X210580952Y-36988014D01*
X211342857Y-37226109D02*
X211057143Y-37226109D01*
X211200000Y-37226109D02*
X211200000Y-36726109D01*
X211200000Y-36726109D02*
X211152381Y-36797538D01*
X211152381Y-36797538D02*
X211104762Y-36845157D01*
X211104762Y-36845157D02*
X211057143Y-36868966D01*
X199569048Y-49002300D02*
X199640476Y-49026109D01*
X199640476Y-49026109D02*
X199759524Y-49026109D01*
X199759524Y-49026109D02*
X199807143Y-49002300D01*
X199807143Y-49002300D02*
X199830952Y-48978490D01*
X199830952Y-48978490D02*
X199854762Y-48930871D01*
X199854762Y-48930871D02*
X199854762Y-48883252D01*
X199854762Y-48883252D02*
X199830952Y-48835633D01*
X199830952Y-48835633D02*
X199807143Y-48811823D01*
X199807143Y-48811823D02*
X199759524Y-48788014D01*
X199759524Y-48788014D02*
X199664286Y-48764204D01*
X199664286Y-48764204D02*
X199616667Y-48740395D01*
X199616667Y-48740395D02*
X199592857Y-48716585D01*
X199592857Y-48716585D02*
X199569048Y-48668966D01*
X199569048Y-48668966D02*
X199569048Y-48621347D01*
X199569048Y-48621347D02*
X199592857Y-48573728D01*
X199592857Y-48573728D02*
X199616667Y-48549919D01*
X199616667Y-48549919D02*
X199664286Y-48526109D01*
X199664286Y-48526109D02*
X199783333Y-48526109D01*
X199783333Y-48526109D02*
X199854762Y-48549919D01*
X200045238Y-48573728D02*
X200069047Y-48549919D01*
X200069047Y-48549919D02*
X200116666Y-48526109D01*
X200116666Y-48526109D02*
X200235714Y-48526109D01*
X200235714Y-48526109D02*
X200283333Y-48549919D01*
X200283333Y-48549919D02*
X200307142Y-48573728D01*
X200307142Y-48573728D02*
X200330952Y-48621347D01*
X200330952Y-48621347D02*
X200330952Y-48668966D01*
X200330952Y-48668966D02*
X200307142Y-48740395D01*
X200307142Y-48740395D02*
X200021428Y-49026109D01*
X200021428Y-49026109D02*
X200330952Y-49026109D01*
X214216666Y-36726109D02*
X213978571Y-36726109D01*
X213978571Y-36726109D02*
X213978571Y-36226109D01*
X214383333Y-36726109D02*
X214383333Y-36226109D01*
X214383333Y-36226109D02*
X214502381Y-36226109D01*
X214502381Y-36226109D02*
X214573809Y-36249919D01*
X214573809Y-36249919D02*
X214621428Y-36297538D01*
X214621428Y-36297538D02*
X214645238Y-36345157D01*
X214645238Y-36345157D02*
X214669047Y-36440395D01*
X214669047Y-36440395D02*
X214669047Y-36511823D01*
X214669047Y-36511823D02*
X214645238Y-36607061D01*
X214645238Y-36607061D02*
X214621428Y-36654680D01*
X214621428Y-36654680D02*
X214573809Y-36702300D01*
X214573809Y-36702300D02*
X214502381Y-36726109D01*
X214502381Y-36726109D02*
X214383333Y-36726109D01*
X214978571Y-36226109D02*
X215026190Y-36226109D01*
X215026190Y-36226109D02*
X215073809Y-36249919D01*
X215073809Y-36249919D02*
X215097619Y-36273728D01*
X215097619Y-36273728D02*
X215121428Y-36321347D01*
X215121428Y-36321347D02*
X215145238Y-36416585D01*
X215145238Y-36416585D02*
X215145238Y-36535633D01*
X215145238Y-36535633D02*
X215121428Y-36630871D01*
X215121428Y-36630871D02*
X215097619Y-36678490D01*
X215097619Y-36678490D02*
X215073809Y-36702300D01*
X215073809Y-36702300D02*
X215026190Y-36726109D01*
X215026190Y-36726109D02*
X214978571Y-36726109D01*
X214978571Y-36726109D02*
X214930952Y-36702300D01*
X214930952Y-36702300D02*
X214907143Y-36678490D01*
X214907143Y-36678490D02*
X214883333Y-36630871D01*
X214883333Y-36630871D02*
X214859524Y-36535633D01*
X214859524Y-36535633D02*
X214859524Y-36416585D01*
X214859524Y-36416585D02*
X214883333Y-36321347D01*
X214883333Y-36321347D02*
X214907143Y-36273728D01*
X214907143Y-36273728D02*
X214930952Y-36249919D01*
X214930952Y-36249919D02*
X214978571Y-36226109D01*
X197819048Y-46752300D02*
X197890476Y-46776109D01*
X197890476Y-46776109D02*
X198009524Y-46776109D01*
X198009524Y-46776109D02*
X198057143Y-46752300D01*
X198057143Y-46752300D02*
X198080952Y-46728490D01*
X198080952Y-46728490D02*
X198104762Y-46680871D01*
X198104762Y-46680871D02*
X198104762Y-46633252D01*
X198104762Y-46633252D02*
X198080952Y-46585633D01*
X198080952Y-46585633D02*
X198057143Y-46561823D01*
X198057143Y-46561823D02*
X198009524Y-46538014D01*
X198009524Y-46538014D02*
X197914286Y-46514204D01*
X197914286Y-46514204D02*
X197866667Y-46490395D01*
X197866667Y-46490395D02*
X197842857Y-46466585D01*
X197842857Y-46466585D02*
X197819048Y-46418966D01*
X197819048Y-46418966D02*
X197819048Y-46371347D01*
X197819048Y-46371347D02*
X197842857Y-46323728D01*
X197842857Y-46323728D02*
X197866667Y-46299919D01*
X197866667Y-46299919D02*
X197914286Y-46276109D01*
X197914286Y-46276109D02*
X198033333Y-46276109D01*
X198033333Y-46276109D02*
X198104762Y-46299919D01*
X198580952Y-46776109D02*
X198295238Y-46776109D01*
X198438095Y-46776109D02*
X198438095Y-46276109D01*
X198438095Y-46276109D02*
X198390476Y-46347538D01*
X198390476Y-46347538D02*
X198342857Y-46395157D01*
X198342857Y-46395157D02*
X198295238Y-46418966D01*
D12*
%TO.C,R7*%
X197177500Y-55254724D02*
X197177500Y-54745276D01*
X198222500Y-55254724D02*
X198222500Y-54745276D01*
%TO.C,R6*%
X198854724Y-57027500D02*
X198345276Y-57027500D01*
X198854724Y-58072500D02*
X198345276Y-58072500D01*
%TO.C,C3*%
X204796267Y-37390000D02*
X204503733Y-37390000D01*
X204796267Y-38410000D02*
X204503733Y-38410000D01*
D11*
%TO.C,J2*%
X188256000Y-39630000D02*
X190796000Y-39630000D01*
X188256000Y-54870000D02*
X188256000Y-39630000D01*
X190796000Y-39630000D02*
X190796000Y-54870000D01*
X190796000Y-54870000D02*
X188256000Y-54870000D01*
D12*
%TO.C,R4*%
X206677500Y-55945276D02*
X206677500Y-56454724D01*
X207722500Y-55945276D02*
X207722500Y-56454724D01*
%TO.C,C4*%
X208846267Y-47240000D02*
X208553733Y-47240000D01*
X208846267Y-48260000D02*
X208553733Y-48260000D01*
%TO.C,R5*%
X206677500Y-52954724D02*
X206677500Y-52445276D01*
X207722500Y-52954724D02*
X207722500Y-52445276D01*
D13*
%TO.C,U1*%
X220027500Y-38220000D02*
X220027500Y-40720000D01*
X220027500Y-53720000D02*
X220027500Y-56220000D01*
X220027500Y-56220000D02*
X220777500Y-56220000D01*
X220777500Y-38220000D02*
X220027500Y-38220000D01*
X239027500Y-38220000D02*
X245527500Y-38220000D01*
X245527500Y-38220000D02*
X245527500Y-56220000D01*
X245527500Y-56220000D02*
X239027500Y-56220000D01*
D14*
X238152900Y-36855000D02*
G75*
G02*
X237952900Y-36855000I-100000J0D01*
G01*
X237952900Y-36855000D02*
G75*
G02*
X238152900Y-36855000I100000J0D01*
G01*
D15*
X239777500Y-52220000D02*
X239294570Y-52220000D01*
X239294570Y-51728090D01*
X239777500Y-51728090D01*
X239777500Y-52220000D01*
G36*
X239777500Y-52220000D02*
G01*
X239294570Y-52220000D01*
X239294570Y-51728090D01*
X239777500Y-51728090D01*
X239777500Y-52220000D01*
G37*
X239777500Y-54720000D02*
X239303110Y-54720000D01*
X239303110Y-54238870D01*
X239777500Y-54238870D01*
X239777500Y-54720000D01*
G36*
X239777500Y-54720000D02*
G01*
X239303110Y-54720000D01*
X239303110Y-54238870D01*
X239777500Y-54238870D01*
X239777500Y-54720000D01*
G37*
X240277500Y-39720000D02*
X239802900Y-39720000D01*
X239802900Y-39199670D01*
X240277500Y-39199670D01*
X240277500Y-39720000D01*
G36*
X240277500Y-39720000D02*
G01*
X239802900Y-39720000D01*
X239802900Y-39199670D01*
X240277500Y-39199670D01*
X240277500Y-39720000D01*
G37*
X242277500Y-44720000D02*
X241795600Y-44720000D01*
X241795600Y-41711710D01*
X242277500Y-41711710D01*
X242277500Y-44720000D01*
G36*
X242277500Y-44720000D02*
G01*
X241795600Y-44720000D01*
X241795600Y-41711710D01*
X242277500Y-41711710D01*
X242277500Y-44720000D01*
G37*
X242277500Y-49720000D02*
X241827600Y-49720000D01*
X241827600Y-46717912D01*
X242277500Y-46717912D01*
X242277500Y-49720000D01*
G36*
X242277500Y-49720000D02*
G01*
X241827600Y-49720000D01*
X241827600Y-46717912D01*
X242277500Y-46717912D01*
X242277500Y-49720000D01*
G37*
X244277500Y-42220000D02*
X241824900Y-42220000D01*
X241824900Y-41698320D01*
X244277500Y-41698320D01*
X244277500Y-42220000D01*
G36*
X244277500Y-42220000D02*
G01*
X241824900Y-42220000D01*
X241824900Y-41698320D01*
X244277500Y-41698320D01*
X244277500Y-42220000D01*
G37*
X244277500Y-44720000D02*
X241818300Y-44720000D01*
X241818300Y-44209770D01*
X244277500Y-44209770D01*
X244277500Y-44720000D01*
G36*
X244277500Y-44720000D02*
G01*
X241818300Y-44720000D01*
X241818300Y-44209770D01*
X244277500Y-44209770D01*
X244277500Y-44720000D01*
G37*
X244277500Y-47220000D02*
X241826300Y-47220000D01*
X241826300Y-46717966D01*
X244277500Y-46717966D01*
X244277500Y-47220000D01*
G36*
X244277500Y-47220000D02*
G01*
X241826300Y-47220000D01*
X241826300Y-46717966D01*
X244277500Y-46717966D01*
X244277500Y-47220000D01*
G37*
X244277500Y-49720000D02*
X241830300Y-49720000D01*
X241830300Y-49228800D01*
X244277500Y-49228800D01*
X244277500Y-49720000D01*
G36*
X244277500Y-49720000D02*
G01*
X241830300Y-49720000D01*
X241830300Y-49228800D01*
X244277500Y-49228800D01*
X244277500Y-49720000D01*
G37*
X244777500Y-39720000D02*
X240306400Y-39720000D01*
X240306400Y-39197970D01*
X244777500Y-39197970D01*
X244777500Y-39720000D01*
G36*
X244777500Y-39720000D02*
G01*
X240306400Y-39720000D01*
X240306400Y-39197970D01*
X244777500Y-39197970D01*
X244777500Y-39720000D01*
G37*
X244777500Y-42220000D02*
X244294000Y-42220000D01*
X244294000Y-39210890D01*
X244777500Y-39210890D01*
X244777500Y-42220000D01*
G36*
X244777500Y-42220000D02*
G01*
X244294000Y-42220000D01*
X244294000Y-39210890D01*
X244777500Y-39210890D01*
X244777500Y-42220000D01*
G37*
X244777500Y-47220000D02*
X244326300Y-47220000D01*
X244326300Y-44209880D01*
X244777500Y-44209880D01*
X244777500Y-47220000D01*
G36*
X244777500Y-47220000D02*
G01*
X244326300Y-47220000D01*
X244326300Y-44209880D01*
X244777500Y-44209880D01*
X244777500Y-47220000D01*
G37*
X244777500Y-49720000D02*
X243331100Y-49720000D01*
X243331100Y-49227940D01*
X244777500Y-49227940D01*
X244777500Y-49720000D01*
G36*
X244777500Y-49720000D02*
G01*
X243331100Y-49720000D01*
X243331100Y-49227940D01*
X244777500Y-49227940D01*
X244777500Y-49720000D01*
G37*
X244777500Y-54720000D02*
X244291200Y-54720000D01*
X244291200Y-49231570D01*
X244777500Y-49231570D01*
X244777500Y-54720000D01*
G36*
X244777500Y-54720000D02*
G01*
X244291200Y-54720000D01*
X244291200Y-49231570D01*
X244777500Y-49231570D01*
X244777500Y-54720000D01*
G37*
X244777500Y-52220000D02*
X239808600Y-52220000D01*
X239808600Y-51733960D01*
X244777500Y-51733960D01*
X244777500Y-52220000D01*
G36*
X244777500Y-52220000D02*
G01*
X239808600Y-52220000D01*
X239808600Y-51733960D01*
X244777500Y-51733960D01*
X244777500Y-52220000D01*
G37*
X244777500Y-54720000D02*
X239807100Y-54720000D01*
X239807100Y-54240700D01*
X244777500Y-54240700D01*
X244777500Y-54720000D01*
G36*
X244777500Y-54720000D02*
G01*
X239807100Y-54720000D01*
X239807100Y-54240700D01*
X244777500Y-54240700D01*
X244777500Y-54720000D01*
G37*
D12*
%TO.C,R3*%
X201404724Y-37377500D02*
X200895276Y-37377500D01*
X201404724Y-38422500D02*
X200895276Y-38422500D01*
%TO.C,C2*%
X233841233Y-35540000D02*
X234133767Y-35540000D01*
X233841233Y-36560000D02*
X234133767Y-36560000D01*
%TO.C,C1*%
X237546267Y-35540000D02*
X237253733Y-35540000D01*
X237546267Y-36560000D02*
X237253733Y-36560000D01*
%TO.C,LD1*%
X190590000Y-56465000D02*
X190590000Y-58735000D01*
X190590000Y-58735000D02*
X194650000Y-58735000D01*
X194650000Y-56465000D02*
X190590000Y-56465000D01*
D13*
%TO.C,J1*%
X208920000Y-54330000D02*
X219080000Y-54330000D01*
X208920000Y-56870000D02*
X208920000Y-54330000D01*
X219080000Y-54330000D02*
X219080000Y-56870000D01*
X219080000Y-56870000D02*
X208920000Y-56870000D01*
D14*
X208460000Y-55600000D02*
G75*
G02*
X208260000Y-55600000I-100000J0D01*
G01*
X208260000Y-55600000D02*
G75*
G02*
X208460000Y-55600000I100000J0D01*
G01*
D16*
%TO.C,G\u002A\u002A\u002A*%
G36*
X211867154Y-41551072D02*
G01*
X211890465Y-41556774D01*
X211894991Y-41570833D01*
X211890916Y-41587500D01*
X211875427Y-41625678D01*
X211855076Y-41637538D01*
X211822010Y-41624721D01*
X211795216Y-41607515D01*
X211758055Y-41580704D01*
X211735980Y-41561764D01*
X211733333Y-41557732D01*
X211748345Y-41553345D01*
X211786773Y-41550543D01*
X211817789Y-41550000D01*
X211867154Y-41551072D01*
G37*
G36*
X215110670Y-40975386D02*
G01*
X215111941Y-40977115D01*
X215131880Y-41018993D01*
X215121811Y-41053659D01*
X215113333Y-41063333D01*
X215079647Y-41082019D01*
X215044629Y-41068967D01*
X215026713Y-41051893D01*
X215009733Y-41029276D01*
X215013327Y-41011615D01*
X215040555Y-40987193D01*
X215044405Y-40984156D01*
X215076281Y-40961241D01*
X215094473Y-40958724D01*
X215110670Y-40975386D01*
G37*
G36*
X211881411Y-42494035D02*
G01*
X211930599Y-42525813D01*
X211960587Y-42578535D01*
X211966666Y-42621337D01*
X211951767Y-42679231D01*
X211912917Y-42724972D01*
X211858889Y-42752756D01*
X211798456Y-42756778D01*
X211772616Y-42749729D01*
X211727360Y-42717414D01*
X211694218Y-42667889D01*
X211683333Y-42622220D01*
X211698352Y-42572630D01*
X211737337Y-42527798D01*
X211791178Y-42496621D01*
X211819608Y-42489121D01*
X211881411Y-42494035D01*
G37*
G36*
X213753144Y-39696332D02*
G01*
X213899221Y-39705552D01*
X214030751Y-39722612D01*
X214156924Y-39748828D01*
X214286928Y-39785514D01*
X214335536Y-39801238D01*
X214582135Y-39896140D01*
X214806273Y-40010602D01*
X215014398Y-40148617D01*
X215212957Y-40314175D01*
X215301039Y-40398859D01*
X215479110Y-40594080D01*
X215628858Y-40796564D01*
X215752983Y-41011244D01*
X215854184Y-41243051D01*
X215935160Y-41496917D01*
X215963097Y-41608333D01*
X215979266Y-41681793D01*
X215990889Y-41747358D01*
X215998719Y-41813338D01*
X216003512Y-41888040D01*
X216006022Y-41979774D01*
X216006985Y-42091666D01*
X216006466Y-42219886D01*
X216003497Y-42322095D01*
X215997595Y-42405557D01*
X215988280Y-42477538D01*
X215977793Y-42532934D01*
X215904241Y-42812218D01*
X215807748Y-43068874D01*
X215686713Y-43305879D01*
X215539535Y-43526208D01*
X215364615Y-43732840D01*
X215294004Y-43804979D01*
X215076222Y-43998636D01*
X214847805Y-44160773D01*
X214608075Y-44291682D01*
X214356350Y-44391657D01*
X214091950Y-44460990D01*
X213814194Y-44499974D01*
X213658333Y-44508511D01*
X213560393Y-44509612D01*
X213462088Y-44508159D01*
X213374312Y-44504468D01*
X213307955Y-44498852D01*
X213303395Y-44498261D01*
X213077170Y-44455083D01*
X212844877Y-44387364D01*
X212617797Y-44299025D01*
X212407210Y-44193991D01*
X212375138Y-44175508D01*
X212139333Y-44017811D01*
X211926087Y-43836239D01*
X211736674Y-43632568D01*
X211572366Y-43408575D01*
X211434435Y-43166034D01*
X211324154Y-42906724D01*
X211242796Y-42632419D01*
X211230582Y-42578140D01*
X211209779Y-42448618D01*
X211196609Y-42297080D01*
X211191159Y-42133979D01*
X211193006Y-42005442D01*
X211286066Y-42005442D01*
X211287632Y-42180678D01*
X211291913Y-42294894D01*
X211297639Y-42385261D01*
X211305988Y-42461258D01*
X211318136Y-42532369D01*
X211335262Y-42608074D01*
X211345899Y-42650000D01*
X211432604Y-42921468D01*
X211546451Y-43175415D01*
X211686009Y-43410345D01*
X211849846Y-43624758D01*
X212036534Y-43817157D01*
X212244640Y-43986044D01*
X212472734Y-44129922D01*
X212719385Y-44247291D01*
X212947168Y-44326445D01*
X213167092Y-44377229D01*
X213402316Y-44407335D01*
X213641417Y-44416013D01*
X213872971Y-44402510D01*
X213950000Y-44392423D01*
X214188927Y-44341559D01*
X214428879Y-44262921D01*
X214660793Y-44160191D01*
X214875603Y-44037053D01*
X214950595Y-43985866D01*
X215050272Y-43907948D01*
X215158422Y-43812586D01*
X215266273Y-43708321D01*
X215365049Y-43603694D01*
X215445977Y-43507247D01*
X215456560Y-43493310D01*
X215607634Y-43263331D01*
X215730586Y-43016957D01*
X215823967Y-42757785D01*
X215886328Y-42489414D01*
X215901062Y-42389998D01*
X215910675Y-42274584D01*
X215914023Y-42140011D01*
X215911475Y-41997083D01*
X215903400Y-41856608D01*
X215890165Y-41729393D01*
X215875537Y-41641666D01*
X215802607Y-41371675D01*
X215701037Y-41117005D01*
X215572586Y-40879296D01*
X215419009Y-40660190D01*
X215242065Y-40461326D01*
X215043512Y-40284347D01*
X214825106Y-40130893D01*
X214588605Y-40002605D01*
X214335766Y-39901123D01*
X214068348Y-39828089D01*
X213901521Y-39798590D01*
X213807895Y-39789996D01*
X213691463Y-39786365D01*
X213562060Y-39787355D01*
X213429519Y-39792621D01*
X213303675Y-39801819D01*
X213194361Y-39814608D01*
X213133333Y-39825427D01*
X212862395Y-39900308D01*
X212606618Y-40003885D01*
X212367765Y-40134577D01*
X212147598Y-40290805D01*
X211947879Y-40470989D01*
X211770371Y-40673551D01*
X211616835Y-40896911D01*
X211489035Y-41139490D01*
X211393649Y-41384525D01*
X211346716Y-41543032D01*
X211314069Y-41692387D01*
X211294316Y-41843040D01*
X211286066Y-42005442D01*
X211193006Y-42005442D01*
X211193519Y-41969766D01*
X211203776Y-41814894D01*
X211222020Y-41679815D01*
X211222912Y-41675000D01*
X211290813Y-41400308D01*
X211388164Y-41138662D01*
X211513229Y-40892070D01*
X211664268Y-40662538D01*
X211839544Y-40452075D01*
X212037318Y-40262688D01*
X212255852Y-40096385D01*
X212493408Y-39955175D01*
X212748247Y-39841064D01*
X212838620Y-39808763D01*
X212980691Y-39764546D01*
X213110315Y-39732582D01*
X213238021Y-39711245D01*
X213374337Y-39698906D01*
X213529791Y-39693938D01*
X213583333Y-39693640D01*
X213753144Y-39696332D01*
G37*
G36*
X212856777Y-41124896D02*
G01*
X212893039Y-41170013D01*
X212922086Y-41215882D01*
X212923293Y-41218253D01*
X212936295Y-41249807D01*
X212932005Y-41271806D01*
X212906216Y-41297008D01*
X212894141Y-41306719D01*
X212841666Y-41348434D01*
X212895833Y-41349217D01*
X212937607Y-41356417D01*
X212950000Y-41375000D01*
X212935092Y-41394847D01*
X212900000Y-41400000D01*
X212864250Y-41404500D01*
X212851178Y-41423559D01*
X212850000Y-41441403D01*
X212860858Y-41480239D01*
X212887761Y-41524419D01*
X212895833Y-41534099D01*
X212955437Y-41579362D01*
X213022263Y-41596568D01*
X213088751Y-41587374D01*
X213147345Y-41553433D01*
X213190484Y-41496401D01*
X213201844Y-41467082D01*
X213213046Y-41422407D01*
X213209563Y-41393202D01*
X213187662Y-41363455D01*
X213174419Y-41349393D01*
X213133617Y-41287958D01*
X213125681Y-41225322D01*
X213150497Y-41164654D01*
X213182288Y-41129412D01*
X213223523Y-41097660D01*
X213259460Y-41086506D01*
X213298121Y-41089294D01*
X213364290Y-41113976D01*
X213409254Y-41159112D01*
X213430548Y-41217589D01*
X213425709Y-41282296D01*
X213392271Y-41346121D01*
X213388644Y-41350551D01*
X213361449Y-41385727D01*
X213352683Y-41413075D01*
X213359661Y-41448327D01*
X213367811Y-41472664D01*
X213404223Y-41535773D01*
X213463223Y-41576998D01*
X213546602Y-41597317D01*
X213600000Y-41599948D01*
X213696303Y-41590243D01*
X213767369Y-41560341D01*
X213815341Y-41509055D01*
X213832678Y-41471243D01*
X213846558Y-41426506D01*
X213846404Y-41398525D01*
X213829639Y-41372753D01*
X213811844Y-41353665D01*
X213775208Y-41295770D01*
X213765711Y-41233859D01*
X213780450Y-41175354D01*
X213816524Y-41127677D01*
X213871033Y-41098251D01*
X213913958Y-41092424D01*
X213982281Y-41106184D01*
X214032903Y-41142709D01*
X214062857Y-41194861D01*
X214069175Y-41255504D01*
X214048890Y-41317502D01*
X214022247Y-41352872D01*
X213994850Y-41384827D01*
X213986248Y-41411985D01*
X213993153Y-41449932D01*
X213998155Y-41467082D01*
X214032877Y-41533002D01*
X214086116Y-41576503D01*
X214150315Y-41595929D01*
X214217915Y-41589625D01*
X214281358Y-41555936D01*
X214304166Y-41534099D01*
X214333705Y-41491233D01*
X214349283Y-41449497D01*
X214350000Y-41441403D01*
X214344565Y-41411800D01*
X214321548Y-41400976D01*
X214300000Y-41400000D01*
X214260304Y-41392546D01*
X214250000Y-41375000D01*
X214264033Y-41355665D01*
X214304166Y-41349551D01*
X214358333Y-41349103D01*
X214305737Y-41303718D01*
X214253142Y-41258333D01*
X214291229Y-41192266D01*
X214322619Y-41146072D01*
X214355252Y-41110131D01*
X214364658Y-41102733D01*
X214390582Y-41088401D01*
X214399260Y-41097169D01*
X214400000Y-41113355D01*
X214410354Y-41148088D01*
X214435851Y-41189716D01*
X214441666Y-41196960D01*
X214473952Y-41242417D01*
X214480760Y-41277230D01*
X214463180Y-41310887D01*
X214455750Y-41319520D01*
X214438769Y-41341382D01*
X214447491Y-41349098D01*
X214473805Y-41350000D01*
X214506113Y-41357730D01*
X214511614Y-41374652D01*
X214491165Y-41391357D01*
X214469527Y-41396992D01*
X214453017Y-41401378D01*
X214442476Y-41412864D01*
X214436571Y-41437739D01*
X214433970Y-41482295D01*
X214433340Y-41552823D01*
X214433333Y-41567825D01*
X214433333Y-41733333D01*
X214310416Y-41733333D01*
X214215250Y-41735535D01*
X214146103Y-41743238D01*
X214095882Y-41758089D01*
X214057499Y-41781732D01*
X214042308Y-41795570D01*
X214000169Y-41857312D01*
X213987810Y-41923323D01*
X214003206Y-41987886D01*
X214044333Y-42045285D01*
X214109169Y-42089803D01*
X214152257Y-42106163D01*
X214159199Y-42111714D01*
X214162373Y-42125511D01*
X214161148Y-42150849D01*
X214154898Y-42191024D01*
X214142992Y-42249330D01*
X214124801Y-42329062D01*
X214099698Y-42433516D01*
X214067053Y-42565986D01*
X214056059Y-42610219D01*
X214025148Y-42733672D01*
X213996553Y-42846430D01*
X213971318Y-42944497D01*
X213950484Y-43023874D01*
X213935095Y-43080563D01*
X213926192Y-43110567D01*
X213924635Y-43114253D01*
X213907899Y-43113331D01*
X213906581Y-43112137D01*
X213900340Y-43094069D01*
X213887713Y-43048429D01*
X213869885Y-42980106D01*
X213848044Y-42893988D01*
X213823376Y-42794966D01*
X213797069Y-42687927D01*
X213770309Y-42577761D01*
X213744283Y-42469357D01*
X213720179Y-42367604D01*
X213699182Y-42277391D01*
X213682481Y-42203607D01*
X213671260Y-42151142D01*
X213666709Y-42124883D01*
X213666666Y-42123856D01*
X213680482Y-42104267D01*
X213698721Y-42100000D01*
X213742600Y-42085956D01*
X213756546Y-42075000D01*
X213900000Y-42075000D01*
X213908999Y-42097179D01*
X213916666Y-42100000D01*
X213931452Y-42086500D01*
X213933333Y-42075000D01*
X213924333Y-42052820D01*
X213916666Y-42050000D01*
X213901880Y-42063499D01*
X213900000Y-42075000D01*
X213756546Y-42075000D01*
X213787964Y-42050317D01*
X213824923Y-42002822D01*
X213842818Y-41958053D01*
X213841499Y-41887926D01*
X213815092Y-41823095D01*
X213769003Y-41773579D01*
X213733333Y-41755107D01*
X213647437Y-41738127D01*
X213552026Y-41738176D01*
X213466666Y-41755107D01*
X213411181Y-41790274D01*
X213372063Y-41846902D01*
X213354718Y-41914969D01*
X213357181Y-41958053D01*
X213378153Y-42007893D01*
X213416414Y-42054630D01*
X213462076Y-42088524D01*
X213501278Y-42100000D01*
X213527591Y-42110632D01*
X213533333Y-42124690D01*
X213529529Y-42146856D01*
X213518796Y-42196956D01*
X213502155Y-42270553D01*
X213480625Y-42363210D01*
X213455225Y-42470488D01*
X213426976Y-42587951D01*
X213425141Y-42595523D01*
X213396339Y-42714334D01*
X213369780Y-42823978D01*
X213346578Y-42919845D01*
X213327848Y-42997330D01*
X213314705Y-43051824D01*
X213308261Y-43078721D01*
X213308157Y-43079166D01*
X213293015Y-43109556D01*
X213273266Y-43115084D01*
X213258952Y-43095833D01*
X213251501Y-43068297D01*
X213238119Y-43014614D01*
X213219972Y-42939788D01*
X213198232Y-42848825D01*
X213174065Y-42746729D01*
X213148642Y-42638507D01*
X213123131Y-42529162D01*
X213098702Y-42423700D01*
X213076522Y-42327127D01*
X213057761Y-42244447D01*
X213043589Y-42180665D01*
X213035173Y-42140786D01*
X213033333Y-42129766D01*
X213047632Y-42109837D01*
X213082430Y-42092124D01*
X213086143Y-42090946D01*
X213101178Y-42082403D01*
X213257341Y-42082403D01*
X213261564Y-42089341D01*
X213285757Y-42099480D01*
X213299516Y-42081641D01*
X213300000Y-42075000D01*
X213291522Y-42052812D01*
X213284316Y-42050000D01*
X213262553Y-42061027D01*
X213257341Y-42082403D01*
X213101178Y-42082403D01*
X213147203Y-42056251D01*
X213189375Y-41998812D01*
X213207304Y-41926350D01*
X213207575Y-41915893D01*
X213201019Y-41863851D01*
X213176442Y-41820746D01*
X213154067Y-41796375D01*
X213128118Y-41771934D01*
X213103732Y-41756018D01*
X213072773Y-41746402D01*
X213027100Y-41740866D01*
X212958578Y-41737185D01*
X212933613Y-41736161D01*
X212766666Y-41729456D01*
X212766666Y-41564728D01*
X212766141Y-41489234D01*
X212763796Y-41441040D01*
X212758477Y-41414121D01*
X212749030Y-41402451D01*
X212735116Y-41400000D01*
X212704062Y-41388399D01*
X212693972Y-41375000D01*
X212695853Y-41356053D01*
X212724867Y-41350024D01*
X212728106Y-41350000D01*
X212758064Y-41348010D01*
X212758830Y-41336868D01*
X212744249Y-41319520D01*
X212720632Y-41279191D01*
X212720178Y-41242392D01*
X212735068Y-41223927D01*
X212752803Y-41202612D01*
X212775371Y-41162678D01*
X212783527Y-41145421D01*
X212813583Y-41078288D01*
X212856777Y-41124896D01*
G37*
G36*
X213871004Y-39865787D02*
G01*
X214132708Y-39913125D01*
X214387580Y-39992712D01*
X214575000Y-40073551D01*
X214776966Y-40183783D01*
X214962259Y-40312737D01*
X215139075Y-40466403D01*
X215212016Y-40538963D01*
X215392431Y-40746479D01*
X215542399Y-40966353D01*
X215662862Y-41200464D01*
X215754761Y-41450692D01*
X215819039Y-41718915D01*
X215827292Y-41766468D01*
X215842882Y-41906996D01*
X215848220Y-42067044D01*
X215843766Y-42235015D01*
X215829981Y-42399312D01*
X215807327Y-42548339D01*
X215793765Y-42609731D01*
X215711174Y-42878121D01*
X215602241Y-43126215D01*
X215466750Y-43354420D01*
X215304481Y-43563147D01*
X215257053Y-43615151D01*
X215059157Y-43805869D01*
X214852704Y-43965866D01*
X214633898Y-44097410D01*
X214398943Y-44202773D01*
X214144042Y-44284225D01*
X214133333Y-44287029D01*
X214056921Y-44306006D01*
X213990602Y-44319784D01*
X213925741Y-44329365D01*
X213853697Y-44335748D01*
X213765834Y-44339933D01*
X213653513Y-44342921D01*
X213650000Y-44342996D01*
X213509882Y-44344477D01*
X213396857Y-44342152D01*
X213304871Y-44335756D01*
X213227872Y-44325028D01*
X213225000Y-44324501D01*
X212980834Y-44264650D01*
X212740517Y-44177467D01*
X212510629Y-44066120D01*
X212323637Y-43949869D01*
X213213818Y-43949869D01*
X213215028Y-44008148D01*
X213220843Y-44080786D01*
X213233161Y-44125230D01*
X213253904Y-44146305D01*
X213271419Y-44149744D01*
X213274969Y-44137844D01*
X213266467Y-44116294D01*
X213256988Y-44075070D01*
X213257247Y-44009881D01*
X213259889Y-43981288D01*
X213262186Y-43957644D01*
X213327296Y-43957644D01*
X213340121Y-43991510D01*
X213370115Y-44020000D01*
X213393657Y-44029780D01*
X213415176Y-44031767D01*
X213406851Y-44023421D01*
X213395833Y-44016452D01*
X213373999Y-43987742D01*
X213366721Y-43947188D01*
X213374196Y-43909052D01*
X213394076Y-43888435D01*
X213424308Y-43891643D01*
X213449262Y-43917117D01*
X213460794Y-43953912D01*
X213458470Y-43975000D01*
X213446383Y-44019749D01*
X213441460Y-44040108D01*
X213425353Y-44074461D01*
X213396644Y-44112814D01*
X213396287Y-44113203D01*
X213358333Y-44154523D01*
X213396725Y-44134531D01*
X213431602Y-44106602D01*
X213464987Y-44065433D01*
X213467496Y-44061436D01*
X213495374Y-43998569D01*
X213494291Y-43944226D01*
X213493704Y-43943062D01*
X213537226Y-43943062D01*
X213539158Y-43984674D01*
X213545060Y-43998412D01*
X213573300Y-44020504D01*
X213605847Y-44030273D01*
X213639071Y-44038110D01*
X213647181Y-44054596D01*
X213630762Y-44085666D01*
X213613546Y-44108514D01*
X213577093Y-44154856D01*
X213609307Y-44133749D01*
X213733333Y-44133749D01*
X213747668Y-44144183D01*
X213782913Y-44148094D01*
X213827421Y-44146129D01*
X213869549Y-44138936D01*
X213897653Y-44127162D01*
X213900454Y-44124452D01*
X213909969Y-44109044D01*
X213899383Y-44104215D01*
X213862975Y-44108223D01*
X213852541Y-44109860D01*
X213810186Y-44113978D01*
X213785726Y-44111216D01*
X213783333Y-44108316D01*
X213793645Y-44089764D01*
X213820059Y-44055956D01*
X213841666Y-44031138D01*
X213884845Y-43973727D01*
X213898815Y-43928075D01*
X213884331Y-43891336D01*
X213880000Y-43886666D01*
X213841120Y-43868387D01*
X213795822Y-43873033D01*
X213764540Y-43894395D01*
X213750865Y-43913143D01*
X213761052Y-43911503D01*
X213776864Y-43903374D01*
X213813429Y-43893533D01*
X213842312Y-43906744D01*
X213861673Y-43926454D01*
X213861760Y-43951661D01*
X213851736Y-43979140D01*
X213825198Y-44024853D01*
X213787552Y-44070778D01*
X213782122Y-44076160D01*
X213751409Y-44108019D01*
X213734483Y-44130308D01*
X213733333Y-44133749D01*
X213609307Y-44133749D01*
X213619311Y-44127194D01*
X213657511Y-44092091D01*
X213680764Y-44057315D01*
X213697000Y-43999990D01*
X213696827Y-43944029D01*
X213682250Y-43898130D01*
X213655273Y-43870987D01*
X213636913Y-43867173D01*
X213617453Y-43869229D01*
X213627042Y-43878450D01*
X213637500Y-43884668D01*
X213659101Y-43910923D01*
X213668095Y-43949029D01*
X213664677Y-43986869D01*
X213649042Y-44012330D01*
X213635374Y-44016666D01*
X213593510Y-44003497D01*
X213572645Y-43968885D01*
X213576969Y-43920172D01*
X213578259Y-43916591D01*
X213588133Y-43884379D01*
X213582370Y-43875584D01*
X213572932Y-43878099D01*
X213549712Y-43902238D01*
X213537226Y-43943062D01*
X213493704Y-43943062D01*
X213473388Y-43902756D01*
X213438455Y-43874640D01*
X213398342Y-43871423D01*
X213361087Y-43887753D01*
X213334726Y-43918278D01*
X213327296Y-43957644D01*
X213262186Y-43957644D01*
X213265290Y-43925682D01*
X213264519Y-43896011D01*
X213256184Y-43885223D01*
X213241077Y-43885826D01*
X213225159Y-43893069D01*
X213216597Y-43911957D01*
X213213818Y-43949869D01*
X212323637Y-43949869D01*
X212297750Y-43933775D01*
X212116666Y-43790954D01*
X211918957Y-43593415D01*
X211749490Y-43378258D01*
X211608602Y-43146097D01*
X211569907Y-43060204D01*
X211766666Y-43060204D01*
X211774830Y-43078128D01*
X211793583Y-43108919D01*
X211812199Y-43131633D01*
X211836728Y-43144037D01*
X211876948Y-43149144D01*
X211926916Y-43150000D01*
X211981537Y-43151940D01*
X212019929Y-43157011D01*
X212033333Y-43163597D01*
X212020083Y-43179156D01*
X211986562Y-43202859D01*
X211966666Y-43214664D01*
X211927016Y-43238599D01*
X211903142Y-43256197D01*
X211900000Y-43260495D01*
X211907708Y-43283255D01*
X211924457Y-43312217D01*
X211940677Y-43331674D01*
X211944368Y-43333333D01*
X211961398Y-43324834D01*
X212000650Y-43301658D01*
X212056390Y-43267281D01*
X212122885Y-43225181D01*
X212127115Y-43222470D01*
X212193240Y-43179231D01*
X212247686Y-43142032D01*
X212285054Y-43114682D01*
X212299939Y-43100986D01*
X212300000Y-43100656D01*
X212291197Y-43080017D01*
X212276997Y-43058246D01*
X212262393Y-43041645D01*
X212246040Y-43038420D01*
X212219317Y-43050318D01*
X212173601Y-43079084D01*
X212173384Y-43079226D01*
X212128822Y-43106208D01*
X212096414Y-43122097D01*
X212085081Y-43123970D01*
X212087773Y-43106234D01*
X212102289Y-43067297D01*
X212124534Y-43017641D01*
X212149698Y-42961920D01*
X212160864Y-42924801D01*
X212159898Y-42895568D01*
X212150571Y-42868046D01*
X212132870Y-42835899D01*
X212117537Y-42824762D01*
X212116147Y-42825320D01*
X212104184Y-42843876D01*
X212084706Y-42885429D01*
X212061567Y-42941642D01*
X212057439Y-42952339D01*
X212012047Y-43071128D01*
X211889357Y-43061849D01*
X211830319Y-43058332D01*
X211786835Y-43057549D01*
X211767079Y-43059609D01*
X211766666Y-43060204D01*
X211569907Y-43060204D01*
X211496627Y-42897543D01*
X211421308Y-42656876D01*
X211603711Y-42656876D01*
X211628027Y-42728798D01*
X211673378Y-42789300D01*
X211736159Y-42831808D01*
X211812767Y-42849746D01*
X211821660Y-42849937D01*
X211878287Y-42843196D01*
X211929858Y-42826743D01*
X211932689Y-42825332D01*
X212000322Y-42774762D01*
X212039171Y-42707463D01*
X212050000Y-42633550D01*
X212036584Y-42548055D01*
X212000200Y-42479374D01*
X211946639Y-42429291D01*
X211881696Y-42399588D01*
X211811163Y-42392050D01*
X211740832Y-42408458D01*
X211676496Y-42450595D01*
X211632599Y-42505072D01*
X211604033Y-42580109D01*
X211603711Y-42656876D01*
X211421308Y-42656876D01*
X211413901Y-42633208D01*
X211372650Y-42433531D01*
X211359562Y-42316944D01*
X211353747Y-42178656D01*
X211354871Y-42029701D01*
X211533560Y-42029701D01*
X211547432Y-42116749D01*
X211586217Y-42186796D01*
X211644486Y-42236457D01*
X211716815Y-42262347D01*
X211797775Y-42261082D01*
X211866666Y-42237474D01*
X211925064Y-42190781D01*
X211965491Y-42122323D01*
X211982743Y-42042092D01*
X212144586Y-42042092D01*
X212145175Y-42206818D01*
X212160877Y-42361749D01*
X212180976Y-42458333D01*
X212252825Y-42666106D01*
X212353270Y-42859295D01*
X212479984Y-43034962D01*
X212630643Y-43190168D01*
X212802920Y-43321975D01*
X212918501Y-43390092D01*
X213118055Y-43477323D01*
X213326557Y-43533897D01*
X213539992Y-43559325D01*
X213754343Y-43553118D01*
X213957908Y-43516775D01*
X214162915Y-43448207D01*
X214350082Y-43353581D01*
X214433789Y-43294872D01*
X215269690Y-43294872D01*
X215273531Y-43310517D01*
X215291561Y-43329436D01*
X215313368Y-43322277D01*
X215328960Y-43293322D01*
X215330325Y-43286194D01*
X215325702Y-43256166D01*
X215310476Y-43250000D01*
X215278948Y-43262909D01*
X215269690Y-43294872D01*
X214433789Y-43294872D01*
X214518168Y-43235691D01*
X214665932Y-43097330D01*
X214722539Y-43027342D01*
X214850000Y-43027342D01*
X214863030Y-43043776D01*
X214897716Y-43073268D01*
X214947452Y-43111204D01*
X215005632Y-43152968D01*
X215065648Y-43193946D01*
X215120895Y-43229522D01*
X215164766Y-43255083D01*
X215190655Y-43266012D01*
X215191824Y-43266119D01*
X215212878Y-43253962D01*
X215229259Y-43233662D01*
X215235722Y-43218651D01*
X215232404Y-43203266D01*
X215215399Y-43183710D01*
X215180796Y-43156181D01*
X215124689Y-43116881D01*
X215073824Y-43082544D01*
X214997948Y-43032659D01*
X214944357Y-43000315D01*
X214908505Y-42983275D01*
X214885843Y-42979305D01*
X214873888Y-42984255D01*
X214853329Y-43012770D01*
X214850000Y-43027342D01*
X214722539Y-43027342D01*
X214792136Y-42941294D01*
X214872406Y-42808613D01*
X214982496Y-42808613D01*
X214994977Y-42868198D01*
X215016666Y-42900000D01*
X215061895Y-42928619D01*
X215114495Y-42929163D01*
X215177252Y-42901079D01*
X215238778Y-42855857D01*
X215279678Y-42825711D01*
X215305969Y-42819547D01*
X215325638Y-42836836D01*
X215333128Y-42849618D01*
X215340892Y-42879679D01*
X215324121Y-42908845D01*
X215316196Y-42917137D01*
X215291152Y-42957923D01*
X215291937Y-42984185D01*
X215305947Y-43010836D01*
X215326007Y-43011340D01*
X215356654Y-42984652D01*
X215373518Y-42965387D01*
X215406745Y-42907353D01*
X215415624Y-42847837D01*
X215402372Y-42794215D01*
X215369205Y-42753867D01*
X215318340Y-42734168D01*
X215303797Y-42733333D01*
X215260852Y-42744086D01*
X215211774Y-42771240D01*
X215199630Y-42780422D01*
X215143256Y-42821718D01*
X215103492Y-42839125D01*
X215075633Y-42834377D01*
X215068697Y-42828697D01*
X215051203Y-42794734D01*
X215064636Y-42756400D01*
X215091919Y-42726225D01*
X215120967Y-42688428D01*
X215123469Y-42660354D01*
X215102597Y-42636006D01*
X215071141Y-42642855D01*
X215029789Y-42680731D01*
X215026481Y-42684612D01*
X214993160Y-42743837D01*
X214982496Y-42808613D01*
X214872406Y-42808613D01*
X214895539Y-42770376D01*
X214974900Y-42587371D01*
X214995629Y-42513659D01*
X215083740Y-42513659D01*
X215090085Y-42542482D01*
X215115839Y-42547600D01*
X215120663Y-42546992D01*
X215153689Y-42528996D01*
X215162978Y-42508333D01*
X215173068Y-42449376D01*
X215183993Y-42416695D01*
X215200111Y-42403421D01*
X215225783Y-42402684D01*
X215229747Y-42403115D01*
X215256632Y-42408808D01*
X215270016Y-42423858D01*
X215274567Y-42457398D01*
X215275000Y-42491666D01*
X215276770Y-42541677D01*
X215284244Y-42566618D01*
X215300669Y-42574660D01*
X215308105Y-42575000D01*
X215338316Y-42561025D01*
X215346253Y-42541666D01*
X215356577Y-42483138D01*
X215368084Y-42450461D01*
X215385124Y-42436304D01*
X215410543Y-42433333D01*
X215436418Y-42435291D01*
X215447335Y-42446993D01*
X215446871Y-42477177D01*
X215442187Y-42510668D01*
X215437605Y-42564827D01*
X215445003Y-42594575D01*
X215452795Y-42602080D01*
X215484234Y-42615179D01*
X215501314Y-42600069D01*
X215507264Y-42579166D01*
X215526999Y-42481469D01*
X215538831Y-42413414D01*
X215542593Y-42376044D01*
X215541256Y-42369034D01*
X215523341Y-42363750D01*
X215479130Y-42353993D01*
X215415148Y-42341123D01*
X215337918Y-42326500D01*
X215332604Y-42325523D01*
X215236501Y-42309195D01*
X215170860Y-42301186D01*
X215133905Y-42301336D01*
X215123948Y-42306701D01*
X215111994Y-42349711D01*
X215099400Y-42407726D01*
X215089067Y-42465814D01*
X215083896Y-42509043D01*
X215083740Y-42513659D01*
X214995629Y-42513659D01*
X215028979Y-42395071D01*
X215056536Y-42196271D01*
X215056381Y-42043304D01*
X215119332Y-42043304D01*
X215124894Y-42066335D01*
X215132089Y-42082365D01*
X215145668Y-42092489D01*
X215172069Y-42097854D01*
X215217725Y-42099612D01*
X215289072Y-42098911D01*
X215305583Y-42098604D01*
X215475000Y-42095359D01*
X215480222Y-42147679D01*
X215488825Y-42184999D01*
X215509802Y-42198854D01*
X215525874Y-42200000D01*
X215566303Y-42200000D01*
X215555829Y-42045833D01*
X215550780Y-41978009D01*
X215545936Y-41924081D01*
X215542026Y-41891730D01*
X215540600Y-41885978D01*
X215523139Y-41885852D01*
X215500252Y-41891586D01*
X215473666Y-41909984D01*
X215469765Y-41946717D01*
X215469829Y-41947275D01*
X215475000Y-41991666D01*
X215300631Y-42004924D01*
X215228174Y-42010956D01*
X215169163Y-42016854D01*
X215130808Y-42021839D01*
X215119942Y-42024501D01*
X215119332Y-42043304D01*
X215056381Y-42043304D01*
X215056331Y-41993766D01*
X215027124Y-41790349D01*
X215018485Y-41761062D01*
X215084475Y-41761062D01*
X215089312Y-41788219D01*
X215099294Y-41827990D01*
X215303778Y-41783824D01*
X215402379Y-41760842D01*
X215469059Y-41741295D01*
X215505012Y-41724794D01*
X215512444Y-41715662D01*
X215513939Y-41687351D01*
X215503723Y-41669880D01*
X215481520Y-41663888D01*
X215566666Y-41663888D01*
X215575531Y-41703093D01*
X215598365Y-41715206D01*
X215628697Y-41697969D01*
X215640714Y-41668480D01*
X215626852Y-41642676D01*
X215598216Y-41633333D01*
X215571412Y-41646082D01*
X215566666Y-41663888D01*
X215481520Y-41663888D01*
X215477448Y-41662789D01*
X215430771Y-41665616D01*
X215359345Y-41677900D01*
X215291009Y-41692158D01*
X215214138Y-41709186D01*
X215150007Y-41724164D01*
X215105165Y-41735507D01*
X215086161Y-41741632D01*
X215086042Y-41741734D01*
X215084475Y-41761062D01*
X215018485Y-41761062D01*
X214967674Y-41588815D01*
X214890112Y-41416666D01*
X214885153Y-41408782D01*
X214972780Y-41408782D01*
X214974734Y-41456563D01*
X214994176Y-41511772D01*
X215036727Y-41572479D01*
X215087977Y-41603591D01*
X215143671Y-41604014D01*
X215199555Y-41572655D01*
X215206479Y-41566315D01*
X215230615Y-41524831D01*
X215245166Y-41460129D01*
X215246070Y-41451696D01*
X215258300Y-41385494D01*
X215278712Y-41347442D01*
X215305848Y-41339417D01*
X215325000Y-41350000D01*
X215343491Y-41381116D01*
X215350000Y-41418707D01*
X215352102Y-41452953D01*
X215356970Y-41466666D01*
X215376649Y-41471825D01*
X215388175Y-41475966D01*
X215408784Y-41470653D01*
X215420663Y-41441993D01*
X215422472Y-41399144D01*
X215412872Y-41351263D01*
X215408228Y-41338845D01*
X215369523Y-41282210D01*
X215312980Y-41253572D01*
X215278678Y-41250000D01*
X215229534Y-41265355D01*
X215193345Y-41311351D01*
X215170189Y-41387888D01*
X215168327Y-41398889D01*
X215152931Y-41468078D01*
X215132817Y-41505971D01*
X215106562Y-41514443D01*
X215087041Y-41506038D01*
X215064587Y-41474042D01*
X215057542Y-41431413D01*
X215052267Y-41390807D01*
X215034056Y-41372927D01*
X215020632Y-41369751D01*
X214988481Y-41377685D01*
X214972780Y-41408782D01*
X214885153Y-41408782D01*
X214776268Y-41235687D01*
X214662994Y-41103559D01*
X214753964Y-41103559D01*
X214777568Y-41136515D01*
X214815362Y-41140192D01*
X214865375Y-41114466D01*
X214870086Y-41110951D01*
X214907565Y-41083957D01*
X214933384Y-41068272D01*
X214938156Y-41066666D01*
X214937319Y-41080407D01*
X214925126Y-41116172D01*
X214907386Y-41158874D01*
X214885339Y-41210929D01*
X214876386Y-41243458D01*
X214879562Y-41267160D01*
X214893900Y-41292732D01*
X214895135Y-41294622D01*
X214923663Y-41338161D01*
X214968953Y-41236737D01*
X214993625Y-41182988D01*
X215011110Y-41154141D01*
X215027772Y-41144642D01*
X215049976Y-41148940D01*
X215063772Y-41154009D01*
X215106784Y-41163947D01*
X215143720Y-41152273D01*
X215156386Y-41144474D01*
X215196940Y-41105891D01*
X215210099Y-41058475D01*
X215196259Y-40997829D01*
X215173759Y-40950676D01*
X215145207Y-40901499D01*
X215120087Y-40863806D01*
X215108046Y-40849761D01*
X215087980Y-40852789D01*
X215048573Y-40872664D01*
X214996091Y-40904895D01*
X214936801Y-40944992D01*
X214876968Y-40988462D01*
X214822860Y-41030813D01*
X214780742Y-41067555D01*
X214756880Y-41094196D01*
X214753964Y-41103559D01*
X214662994Y-41103559D01*
X214638726Y-41075251D01*
X214480795Y-40937117D01*
X214334357Y-40841666D01*
X214481427Y-40841666D01*
X214568888Y-40920833D01*
X214613600Y-40959943D01*
X214648817Y-40988237D01*
X214667336Y-40999949D01*
X214667800Y-41000000D01*
X214686614Y-40988713D01*
X214700713Y-40974140D01*
X214710003Y-40955237D01*
X214700816Y-40934646D01*
X214669026Y-40904545D01*
X214660092Y-40897106D01*
X214598010Y-40845933D01*
X214634618Y-40806965D01*
X214671226Y-40767998D01*
X214730953Y-40817230D01*
X214768950Y-40846234D01*
X214792230Y-40855091D01*
X214810298Y-40846556D01*
X214815424Y-40841717D01*
X214827604Y-40824012D01*
X214822901Y-40804209D01*
X214798009Y-40773720D01*
X214783333Y-40758333D01*
X214750278Y-40722311D01*
X214738250Y-40700217D01*
X214744157Y-40682970D01*
X214754011Y-40672179D01*
X214773171Y-40657038D01*
X214792815Y-40657829D01*
X214823295Y-40676761D01*
X214842307Y-40691025D01*
X214880580Y-40718440D01*
X214903534Y-40726791D01*
X214921541Y-40718253D01*
X214930711Y-40709564D01*
X214948218Y-40687407D01*
X214941657Y-40669755D01*
X214922679Y-40653371D01*
X214888110Y-40625649D01*
X214842173Y-40588554D01*
X214821858Y-40572083D01*
X214756692Y-40519166D01*
X214619060Y-40680416D01*
X214481427Y-40841666D01*
X214334357Y-40841666D01*
X214305786Y-40823043D01*
X214117007Y-40734788D01*
X213917768Y-40674110D01*
X213839590Y-40662238D01*
X214221092Y-40662238D01*
X214224585Y-40687115D01*
X214232460Y-40702022D01*
X214243223Y-40711533D01*
X214270753Y-40728899D01*
X214282352Y-40733230D01*
X214297192Y-40722362D01*
X214331451Y-40692621D01*
X214380468Y-40648182D01*
X214439581Y-40593224D01*
X214458333Y-40575550D01*
X214525811Y-40510757D01*
X214571043Y-40464472D01*
X214596842Y-40433224D01*
X214606024Y-40413542D01*
X214601403Y-40401957D01*
X214600000Y-40400908D01*
X214570733Y-40387088D01*
X214540634Y-40389229D01*
X214504465Y-40410076D01*
X214456987Y-40452376D01*
X214410352Y-40500312D01*
X214363768Y-40547486D01*
X214326907Y-40580613D01*
X214304527Y-40595662D01*
X214300000Y-40593820D01*
X214302971Y-40567275D01*
X214310868Y-40517440D01*
X214322169Y-40453725D01*
X214325902Y-40433802D01*
X214338676Y-40351952D01*
X214339585Y-40297206D01*
X214327635Y-40265158D01*
X214301835Y-40251400D01*
X214284500Y-40250000D01*
X214272489Y-40254439D01*
X214262903Y-40271057D01*
X214254624Y-40304801D01*
X214246538Y-40360622D01*
X214237527Y-40443467D01*
X214234913Y-40469866D01*
X214226455Y-40559406D01*
X214221782Y-40621599D01*
X214221092Y-40662238D01*
X213839590Y-40662238D01*
X213711378Y-40642768D01*
X213501145Y-40642520D01*
X213443687Y-40648067D01*
X213224976Y-40688619D01*
X213022898Y-40757330D01*
X212834387Y-40855470D01*
X212681922Y-40963462D01*
X212522690Y-41111775D01*
X212389341Y-41280791D01*
X212282696Y-41469235D01*
X212203577Y-41675833D01*
X212188282Y-41729833D01*
X212158994Y-41879215D01*
X212144586Y-42042092D01*
X211982743Y-42042092D01*
X211982971Y-42041030D01*
X211983307Y-42028070D01*
X211974842Y-41956832D01*
X211949446Y-41914086D01*
X211907746Y-41900000D01*
X211874820Y-41907424D01*
X211867459Y-41924915D01*
X211883333Y-41941666D01*
X211898138Y-41968040D01*
X211901102Y-42012937D01*
X211893498Y-42064235D01*
X211876598Y-42109812D01*
X211863761Y-42128092D01*
X211811751Y-42161355D01*
X211749954Y-42167655D01*
X211687572Y-42147426D01*
X211648717Y-42117948D01*
X211614010Y-42076823D01*
X211602117Y-42038770D01*
X211611160Y-41991555D01*
X211624149Y-41957798D01*
X211648299Y-41900000D01*
X211601093Y-41900000D01*
X211565929Y-41907824D01*
X211544828Y-41934763D01*
X211535081Y-41986017D01*
X211533560Y-42029701D01*
X211354871Y-42029701D01*
X211354873Y-42029420D01*
X211362603Y-41879988D01*
X211376603Y-41741112D01*
X211396538Y-41623546D01*
X211398084Y-41616666D01*
X211415483Y-41557005D01*
X211624863Y-41557005D01*
X211632111Y-41581361D01*
X211660734Y-41608434D01*
X211670298Y-41615974D01*
X211708667Y-41646296D01*
X211762961Y-41689705D01*
X211823249Y-41738249D01*
X211841476Y-41752996D01*
X211894502Y-41795046D01*
X211937906Y-41827783D01*
X211965168Y-41846366D01*
X211970515Y-41848829D01*
X211982960Y-41835614D01*
X211993732Y-41806036D01*
X211994736Y-41765456D01*
X211969455Y-41735202D01*
X211948677Y-41716260D01*
X211942298Y-41694962D01*
X211948806Y-41659584D01*
X211956306Y-41633333D01*
X211973756Y-41585504D01*
X211993988Y-41561674D01*
X212023468Y-41552972D01*
X212056508Y-41538687D01*
X212084701Y-41510706D01*
X212100122Y-41479614D01*
X212095574Y-41456685D01*
X212076146Y-41453885D01*
X212029999Y-41453219D01*
X211963676Y-41454626D01*
X211883720Y-41458042D01*
X211868769Y-41458845D01*
X211651804Y-41470844D01*
X211633891Y-41522230D01*
X211624863Y-41557005D01*
X211415483Y-41557005D01*
X211474315Y-41355275D01*
X211552872Y-41169988D01*
X211799466Y-41169988D01*
X211804630Y-41177258D01*
X211829718Y-41196333D01*
X211874048Y-41226001D01*
X211930445Y-41261886D01*
X211991740Y-41299613D01*
X212050759Y-41334806D01*
X212100331Y-41363090D01*
X212133284Y-41380088D01*
X212141939Y-41383052D01*
X212158583Y-41369934D01*
X212185415Y-41335397D01*
X212214224Y-41290802D01*
X212248384Y-41224005D01*
X212258831Y-41178008D01*
X212245479Y-41153746D01*
X212227169Y-41150000D01*
X212204264Y-41163230D01*
X212176562Y-41196191D01*
X212168875Y-41208333D01*
X212141967Y-41249201D01*
X212120273Y-41263400D01*
X212094437Y-41254240D01*
X212076063Y-41241196D01*
X212057421Y-41224908D01*
X212053450Y-41207997D01*
X212064856Y-41179981D01*
X212082349Y-41148187D01*
X212104582Y-41104381D01*
X212109306Y-41079500D01*
X212098099Y-41065142D01*
X212097952Y-41065048D01*
X212072241Y-41052670D01*
X212051811Y-41058371D01*
X212027263Y-41086576D01*
X212014865Y-41104166D01*
X211990168Y-41139877D01*
X211975029Y-41161668D01*
X211973491Y-41163850D01*
X211957826Y-41161288D01*
X211933816Y-41150258D01*
X211898112Y-41131150D01*
X211939517Y-41060497D01*
X211963461Y-41017953D01*
X211971202Y-40994355D01*
X211963697Y-40980074D01*
X211948554Y-40969631D01*
X211930216Y-40961904D01*
X211912954Y-40967743D01*
X211891253Y-40991865D01*
X211859597Y-41038990D01*
X211850223Y-41053743D01*
X211815923Y-41111177D01*
X211799723Y-41147979D01*
X211799466Y-41169988D01*
X211552872Y-41169988D01*
X211578640Y-41109211D01*
X211709011Y-40880117D01*
X211765123Y-40803608D01*
X212041666Y-40803608D01*
X212188242Y-40943470D01*
X212245711Y-40997389D01*
X212294730Y-41041660D01*
X212330203Y-41071798D01*
X212347033Y-41083322D01*
X212347202Y-41083333D01*
X212364329Y-41072301D01*
X212397250Y-41043398D01*
X212438255Y-41003462D01*
X212480585Y-40957790D01*
X212500442Y-40928091D01*
X212500966Y-40909002D01*
X212496796Y-40903462D01*
X212475852Y-40887227D01*
X212454637Y-40887995D01*
X212423711Y-40908114D01*
X212400042Y-40927521D01*
X212347527Y-40971710D01*
X212226911Y-40851898D01*
X212106294Y-40732086D01*
X212073980Y-40767847D01*
X212041666Y-40803608D01*
X211765123Y-40803608D01*
X211863379Y-40669637D01*
X211998694Y-40523650D01*
X212341614Y-40523650D01*
X212342528Y-40537107D01*
X212352312Y-40558606D01*
X212373041Y-40591752D01*
X212406792Y-40640148D01*
X212455640Y-40707399D01*
X212521660Y-40797109D01*
X212539149Y-40820833D01*
X212574787Y-40857949D01*
X212605759Y-40863623D01*
X212632095Y-40843158D01*
X212636838Y-40827822D01*
X212629592Y-40802845D01*
X212608017Y-40763780D01*
X212569769Y-40706181D01*
X212531132Y-40651491D01*
X212484408Y-40587383D01*
X212444376Y-40534536D01*
X212415084Y-40498148D01*
X212400582Y-40483420D01*
X212400182Y-40483333D01*
X212379958Y-40492119D01*
X212358094Y-40506446D01*
X212347495Y-40514632D01*
X212341614Y-40523650D01*
X211998694Y-40523650D01*
X212039696Y-40479414D01*
X212103089Y-40425033D01*
X212269304Y-40425033D01*
X212280569Y-40452382D01*
X212306769Y-40464148D01*
X212312258Y-40463540D01*
X212340073Y-40444321D01*
X212346873Y-40428924D01*
X212339249Y-40400867D01*
X212313539Y-40386538D01*
X212284311Y-40392963D01*
X212280000Y-40396666D01*
X212269304Y-40425033D01*
X212103089Y-40425033D01*
X212235914Y-40311091D01*
X212304082Y-40264988D01*
X212823621Y-40264988D01*
X212832403Y-40310585D01*
X212845398Y-40353247D01*
X212862636Y-40412598D01*
X212874837Y-40455891D01*
X212908372Y-40544391D01*
X212952367Y-40601774D01*
X213008932Y-40629193D01*
X213080179Y-40627802D01*
X213150148Y-40606329D01*
X213199463Y-40579706D01*
X213916666Y-40579706D01*
X213932789Y-40599216D01*
X213979470Y-40613437D01*
X213987034Y-40614733D01*
X213997717Y-40601237D01*
X214012540Y-40564422D01*
X214023445Y-40529166D01*
X214054699Y-40416299D01*
X214077646Y-40331526D01*
X214093226Y-40270917D01*
X214102381Y-40230540D01*
X214106052Y-40206466D01*
X214105178Y-40194762D01*
X214103941Y-40192830D01*
X214081397Y-40185207D01*
X214057634Y-40183333D01*
X214040949Y-40186507D01*
X214026804Y-40199570D01*
X214012702Y-40227834D01*
X213996152Y-40276608D01*
X213974656Y-40351205D01*
X213968745Y-40372594D01*
X213948280Y-40448410D01*
X213931597Y-40512967D01*
X213920470Y-40559202D01*
X213916666Y-40579706D01*
X213199463Y-40579706D01*
X213207921Y-40575140D01*
X213239003Y-40533889D01*
X213249737Y-40473148D01*
X213250000Y-40457849D01*
X213245895Y-40421115D01*
X213238989Y-40385416D01*
X213400000Y-40385416D01*
X213400261Y-40460485D01*
X213402081Y-40508345D01*
X213407009Y-40535119D01*
X213416594Y-40546933D01*
X213432389Y-40549911D01*
X213441666Y-40550000D01*
X213462616Y-40548439D01*
X213475160Y-40539152D01*
X213481630Y-40515233D01*
X213484362Y-40469774D01*
X213485308Y-40420833D01*
X213485921Y-40356428D01*
X213485740Y-40303958D01*
X213484814Y-40273252D01*
X213484577Y-40270833D01*
X213490409Y-40251889D01*
X213507561Y-40254714D01*
X213523122Y-40276116D01*
X213536882Y-40300869D01*
X213565142Y-40344829D01*
X213602829Y-40400223D01*
X213620738Y-40425717D01*
X213666417Y-40487402D01*
X213700239Y-40525343D01*
X213727392Y-40544443D01*
X213751845Y-40549601D01*
X213777575Y-40546920D01*
X213792250Y-40532793D01*
X213800968Y-40499000D01*
X213805866Y-40462500D01*
X213811209Y-40400274D01*
X213815043Y-40321889D01*
X213816521Y-40245833D01*
X213816059Y-40180939D01*
X213813090Y-40142477D01*
X213805510Y-40123548D01*
X213791218Y-40117252D01*
X213777149Y-40116666D01*
X213758268Y-40118535D01*
X213745864Y-40128394D01*
X213737751Y-40152627D01*
X213731744Y-40197615D01*
X213725931Y-40266241D01*
X213714230Y-40415817D01*
X213632277Y-40295408D01*
X213582195Y-40222312D01*
X213546480Y-40172456D01*
X213520920Y-40141402D01*
X213501307Y-40124711D01*
X213483431Y-40117945D01*
X213463082Y-40116666D01*
X213462745Y-40116666D01*
X213438924Y-40121254D01*
X213421835Y-40137983D01*
X213410441Y-40171297D01*
X213403705Y-40225645D01*
X213400587Y-40305470D01*
X213400000Y-40385416D01*
X213238989Y-40385416D01*
X213235213Y-40365893D01*
X213220403Y-40301956D01*
X213203912Y-40239076D01*
X213188190Y-40187026D01*
X213175684Y-40155580D01*
X213173417Y-40152165D01*
X213155364Y-40151056D01*
X213127332Y-40156258D01*
X213086445Y-40166520D01*
X213126939Y-40312426D01*
X213148374Y-40400749D01*
X213155169Y-40463508D01*
X213146553Y-40505449D01*
X213121755Y-40531320D01*
X213089377Y-40543730D01*
X213043595Y-40540809D01*
X213003834Y-40506977D01*
X212969537Y-40441504D01*
X212942063Y-40351619D01*
X212925771Y-40289985D01*
X212911961Y-40254264D01*
X212896731Y-40237653D01*
X212876176Y-40233349D01*
X212874188Y-40233333D01*
X212836546Y-40240441D01*
X212823621Y-40264988D01*
X212304082Y-40264988D01*
X212449983Y-40166313D01*
X212527499Y-40125985D01*
X212885872Y-40125985D01*
X212897625Y-40145649D01*
X212915444Y-40150000D01*
X212943938Y-40139019D01*
X212950000Y-40115444D01*
X212941019Y-40088882D01*
X212921024Y-40086469D01*
X212894049Y-40101962D01*
X212885872Y-40125985D01*
X212527499Y-40125985D01*
X212622267Y-40076682D01*
X212988714Y-40076682D01*
X212989943Y-40105873D01*
X213011222Y-40121176D01*
X213040005Y-40115656D01*
X213047805Y-40109329D01*
X213054525Y-40096285D01*
X214054734Y-40096285D01*
X214057344Y-40115067D01*
X214083429Y-40132266D01*
X214113440Y-40125452D01*
X214127736Y-40107213D01*
X214126584Y-40074297D01*
X214118760Y-40062093D01*
X214095166Y-40056829D01*
X214069843Y-40071660D01*
X214054734Y-40096285D01*
X213054525Y-40096285D01*
X213061719Y-40082320D01*
X213059321Y-40068266D01*
X213033259Y-40051041D01*
X213003276Y-40057994D01*
X212988714Y-40076682D01*
X212622267Y-40076682D01*
X212679856Y-40046721D01*
X212923484Y-39953960D01*
X213178819Y-39889674D01*
X213443813Y-39855505D01*
X213600000Y-39850134D01*
X213871004Y-39865787D01*
G37*
D12*
%TO.C,R1*%
X212117224Y-37627500D02*
X211607776Y-37627500D01*
X212117224Y-38672500D02*
X211607776Y-38672500D01*
D14*
%TO.C,S2*%
X199640000Y-49500000D02*
X199640000Y-55900000D01*
X199640000Y-55900000D02*
X200580000Y-55900000D01*
X200580000Y-49500000D02*
X199640000Y-49500000D01*
X202350000Y-55900000D02*
X203150000Y-55900000D01*
X203150000Y-49500000D02*
X202350000Y-49500000D01*
X204920000Y-49500000D02*
X205860000Y-49500000D01*
X205860000Y-49500000D02*
X205860000Y-55900000D01*
X205860000Y-55900000D02*
X204920000Y-55900000D01*
X201080000Y-55400000D02*
G75*
G02*
X200880000Y-55400000I-100000J0D01*
G01*
X200880000Y-55400000D02*
G75*
G02*
X201080000Y-55400000I100000J0D01*
G01*
D12*
%TO.C,LD0*%
X213640000Y-37015000D02*
X213640000Y-39285000D01*
X213640000Y-39285000D02*
X217700000Y-39285000D01*
X217700000Y-37015000D02*
X213640000Y-37015000D01*
D14*
%TO.C,S1*%
X199550000Y-41400000D02*
X199550000Y-43800000D01*
X199650000Y-39400000D02*
X205850000Y-39400000D01*
X205850000Y-45800000D02*
X199650000Y-45800000D01*
X205950000Y-43800000D02*
X205950000Y-41400000D01*
X200150000Y-40000000D02*
G75*
G02*
X199950000Y-40000000I-100000J0D01*
G01*
X199950000Y-40000000D02*
G75*
G02*
X200150000Y-40000000I100000J0D01*
G01*
%TD*%
M02*
